G75*
%MOIN*%
%OFA0B0*%
%FSLAX25Y25*%
%IPPOS*%
%LPD*%
%AMOC8*
5,1,8,0,0,1.08239X$1,22.5*
%
%ADD10C,0.00400*%
%ADD11C,0.00500*%
%ADD12C,0.00300*%
%ADD13C,0.00600*%
%ADD14C,0.00200*%
%ADD15R,0.00500X0.02000*%
%ADD16C,0.00000*%
%ADD17C,0.00700*%
%ADD18C,0.01200*%
%ADD19C,0.00591*%
%ADD20R,0.01500X0.02000*%
D10*
X0199875Y0007000D02*
X0199875Y0011604D01*
X0200642Y0010069D02*
X0202177Y0010069D01*
X0202944Y0009302D01*
X0202944Y0007000D01*
X0205246Y0007767D02*
X0205246Y0010837D01*
X0204479Y0010069D02*
X0206014Y0010069D01*
X0207548Y0010069D02*
X0209083Y0010069D01*
X0208316Y0010837D02*
X0208316Y0007767D01*
X0209083Y0007000D01*
X0210617Y0007000D02*
X0212919Y0007000D01*
X0213687Y0007767D01*
X0213687Y0009302D01*
X0212919Y0010069D01*
X0210617Y0010069D01*
X0210617Y0005465D01*
X0206014Y0007000D02*
X0205246Y0007767D01*
X0200642Y0010069D02*
X0199875Y0009302D01*
X0201410Y0014500D02*
X0199875Y0016035D01*
X0199875Y0017569D01*
X0201410Y0019104D01*
X0202944Y0018337D02*
X0202944Y0015267D01*
X0203712Y0014500D01*
X0205246Y0014500D01*
X0206014Y0015267D01*
X0207548Y0014500D02*
X0209083Y0016035D01*
X0209083Y0017569D01*
X0207548Y0019104D01*
X0206014Y0018337D02*
X0205246Y0019104D01*
X0203712Y0019104D01*
X0202944Y0018337D01*
X0202177Y0022000D02*
X0200642Y0022000D01*
X0199875Y0022767D01*
X0199875Y0025837D01*
X0200642Y0026604D01*
X0202177Y0026604D01*
X0202944Y0025837D01*
X0202944Y0024302D02*
X0201410Y0024302D01*
X0202944Y0024302D02*
X0202944Y0022767D01*
X0202177Y0022000D01*
X0204479Y0022000D02*
X0204479Y0026604D01*
X0206781Y0026604D01*
X0207548Y0025837D01*
X0207548Y0024302D01*
X0206781Y0023535D01*
X0204479Y0023535D01*
X0206014Y0023535D02*
X0207548Y0022000D01*
X0209083Y0022000D02*
X0210617Y0022000D01*
X0209850Y0022000D02*
X0209850Y0025069D01*
X0209083Y0025069D01*
X0209850Y0026604D02*
X0209850Y0027371D01*
X0212152Y0026604D02*
X0214454Y0026604D01*
X0215221Y0025837D01*
X0215221Y0022767D01*
X0214454Y0022000D01*
X0212152Y0022000D01*
X0212152Y0026604D01*
X0221360Y0026604D02*
X0221360Y0022000D01*
X0221360Y0023535D02*
X0223662Y0023535D01*
X0224429Y0024302D01*
X0224429Y0025837D01*
X0223662Y0026604D01*
X0221360Y0026604D01*
X0222895Y0023535D02*
X0224429Y0022000D01*
X0225964Y0022000D02*
X0225964Y0026604D01*
X0228266Y0026604D01*
X0229033Y0025837D01*
X0229033Y0024302D01*
X0228266Y0023535D01*
X0225964Y0023535D01*
X0230568Y0025069D02*
X0231335Y0025069D01*
X0231335Y0022000D01*
X0230568Y0022000D02*
X0232102Y0022000D01*
X0231335Y0026604D02*
X0231335Y0027371D01*
X0238241Y0025837D02*
X0238241Y0022767D01*
X0239008Y0022000D01*
X0240543Y0022000D01*
X0241310Y0022767D01*
X0241310Y0024302D01*
X0239776Y0024302D01*
X0241310Y0025837D02*
X0240543Y0026604D01*
X0239008Y0026604D01*
X0238241Y0025837D01*
X0242845Y0026604D02*
X0242845Y0022000D01*
X0242845Y0023535D02*
X0245147Y0023535D01*
X0245914Y0024302D01*
X0245914Y0025837D01*
X0245147Y0026604D01*
X0242845Y0026604D01*
X0247449Y0025069D02*
X0248216Y0025069D01*
X0248216Y0022000D01*
X0247449Y0022000D02*
X0248984Y0022000D01*
X0250518Y0022000D02*
X0250518Y0026604D01*
X0252820Y0026604D01*
X0253587Y0025837D01*
X0253587Y0025069D01*
X0252820Y0024302D01*
X0250518Y0024302D01*
X0250518Y0022000D02*
X0252820Y0022000D01*
X0253587Y0022767D01*
X0253587Y0023535D01*
X0252820Y0024302D01*
X0248216Y0026604D02*
X0248216Y0027371D01*
X0248216Y0019104D02*
X0248984Y0018337D01*
X0248984Y0017569D01*
X0248216Y0016802D01*
X0248984Y0016035D01*
X0248984Y0015267D01*
X0248216Y0014500D01*
X0246682Y0014500D01*
X0245914Y0015267D01*
X0244380Y0014500D02*
X0241310Y0014500D01*
X0241310Y0019104D01*
X0239776Y0019104D02*
X0239776Y0018337D01*
X0238241Y0016802D01*
X0238241Y0014500D01*
X0238241Y0016802D02*
X0236706Y0018337D01*
X0236706Y0019104D01*
X0230568Y0017569D02*
X0229033Y0017569D01*
X0229800Y0018337D02*
X0229800Y0015267D01*
X0230568Y0014500D01*
X0229800Y0011604D02*
X0226731Y0007000D01*
X0222127Y0007000D02*
X0225197Y0011604D01*
X0225197Y0014500D02*
X0224429Y0015267D01*
X0225197Y0016035D01*
X0227499Y0016035D01*
X0227499Y0016802D02*
X0227499Y0014500D01*
X0225197Y0014500D01*
X0222895Y0015267D02*
X0222895Y0018337D01*
X0222127Y0019104D01*
X0219825Y0019104D01*
X0219825Y0014500D01*
X0222127Y0014500D01*
X0222895Y0015267D01*
X0225197Y0017569D02*
X0226731Y0017569D01*
X0227499Y0016802D01*
X0218291Y0019104D02*
X0216756Y0019104D01*
X0217523Y0019104D02*
X0217523Y0015267D01*
X0216756Y0014500D01*
X0215989Y0014500D01*
X0215221Y0015267D01*
X0215989Y0010069D02*
X0218291Y0010069D01*
X0219825Y0010069D02*
X0219825Y0009302D01*
X0220593Y0009302D01*
X0220593Y0010069D01*
X0219825Y0010069D01*
X0219825Y0007767D02*
X0219825Y0007000D01*
X0220593Y0007000D01*
X0220593Y0007767D01*
X0219825Y0007767D01*
X0218291Y0007767D02*
X0217523Y0008535D01*
X0215989Y0008535D01*
X0215221Y0009302D01*
X0215989Y0010069D01*
X0215221Y0007000D02*
X0217523Y0007000D01*
X0218291Y0007767D01*
X0231335Y0010069D02*
X0232870Y0010069D01*
X0232102Y0010837D02*
X0232102Y0007767D01*
X0232870Y0007000D01*
X0234404Y0007000D02*
X0235172Y0007000D01*
X0235172Y0007767D01*
X0234404Y0007767D01*
X0234404Y0007000D01*
X0236706Y0007000D02*
X0236706Y0010069D01*
X0237474Y0010069D01*
X0238241Y0009302D01*
X0239008Y0010069D01*
X0239776Y0009302D01*
X0239776Y0007000D01*
X0238241Y0007000D02*
X0238241Y0009302D01*
X0241310Y0009302D02*
X0241310Y0007767D01*
X0242078Y0007000D01*
X0243612Y0007000D01*
X0244380Y0008535D02*
X0241310Y0008535D01*
X0241310Y0009302D02*
X0242078Y0010069D01*
X0243612Y0010069D01*
X0244380Y0009302D01*
X0244380Y0008535D01*
X0245914Y0007000D02*
X0248984Y0011604D01*
X0251285Y0010069D02*
X0250518Y0009302D01*
X0250518Y0007767D01*
X0251285Y0007000D01*
X0253587Y0007000D01*
X0253587Y0006233D02*
X0253587Y0010069D01*
X0251285Y0010069D01*
X0255122Y0010069D02*
X0255122Y0007000D01*
X0255122Y0008535D02*
X0256657Y0010069D01*
X0257424Y0010069D01*
X0258959Y0010069D02*
X0259726Y0010069D01*
X0259726Y0007000D01*
X0258959Y0007000D02*
X0260493Y0007000D01*
X0262028Y0007767D02*
X0262028Y0009302D01*
X0262795Y0010069D01*
X0265097Y0010069D01*
X0265097Y0011604D02*
X0265097Y0007000D01*
X0262795Y0007000D01*
X0262028Y0007767D01*
X0259726Y0011604D02*
X0259726Y0012371D01*
X0260493Y0014500D02*
X0262028Y0014500D01*
X0262795Y0015267D01*
X0260493Y0014500D02*
X0259726Y0015267D01*
X0259726Y0018337D01*
X0260493Y0019104D01*
X0262028Y0019104D01*
X0262795Y0018337D01*
X0258191Y0019104D02*
X0255122Y0016035D01*
X0255889Y0016802D02*
X0258191Y0014500D01*
X0255122Y0014500D02*
X0255122Y0019104D01*
X0253587Y0017569D02*
X0253587Y0014500D01*
X0253587Y0016802D02*
X0250518Y0016802D01*
X0250518Y0017569D02*
X0252053Y0019104D01*
X0253587Y0017569D01*
X0250518Y0017569D02*
X0250518Y0014500D01*
X0248216Y0016802D02*
X0247449Y0016802D01*
X0245914Y0018337D02*
X0246682Y0019104D01*
X0248216Y0019104D01*
X0259726Y0022000D02*
X0262028Y0022000D01*
X0262795Y0022767D01*
X0262028Y0023535D01*
X0260493Y0023535D01*
X0259726Y0024302D01*
X0260493Y0025069D01*
X0262795Y0025069D01*
X0264330Y0024302D02*
X0265097Y0025069D01*
X0266632Y0025069D01*
X0267399Y0024302D01*
X0267399Y0022000D01*
X0268934Y0022000D02*
X0270468Y0022000D01*
X0269701Y0022000D02*
X0269701Y0025069D01*
X0268934Y0025069D01*
X0269701Y0026604D02*
X0269701Y0027371D01*
X0272003Y0024302D02*
X0272770Y0025069D01*
X0274305Y0025069D01*
X0275072Y0024302D01*
X0275072Y0023535D01*
X0272003Y0023535D01*
X0272003Y0024302D02*
X0272003Y0022767D01*
X0272770Y0022000D01*
X0274305Y0022000D01*
X0276607Y0022000D02*
X0278142Y0022000D01*
X0277374Y0022000D02*
X0277374Y0026604D01*
X0276607Y0026604D01*
X0279676Y0024302D02*
X0280444Y0025069D01*
X0282746Y0025069D01*
X0282746Y0026604D02*
X0282746Y0022000D01*
X0280444Y0022000D01*
X0279676Y0022767D01*
X0279676Y0024302D01*
X0278909Y0019104D02*
X0278142Y0018337D01*
X0278909Y0019104D02*
X0280444Y0019104D01*
X0281211Y0018337D01*
X0281211Y0017569D01*
X0278142Y0014500D01*
X0281211Y0014500D01*
X0282746Y0016802D02*
X0285815Y0016802D01*
X0285048Y0019104D02*
X0282746Y0016802D01*
X0285048Y0014500D02*
X0285048Y0019104D01*
X0290419Y0022000D02*
X0291953Y0025069D01*
X0293488Y0025069D02*
X0295023Y0026604D01*
X0295023Y0022000D01*
X0296557Y0022000D02*
X0293488Y0022000D01*
X0290419Y0022000D02*
X0288884Y0025069D01*
X0298092Y0022767D02*
X0298859Y0022767D01*
X0298859Y0022000D01*
X0298092Y0022000D01*
X0298092Y0022767D01*
X0300394Y0022767D02*
X0303463Y0025837D01*
X0303463Y0022767D01*
X0302696Y0022000D01*
X0301161Y0022000D01*
X0300394Y0022767D01*
X0300394Y0025837D01*
X0301161Y0026604D01*
X0302696Y0026604D01*
X0303463Y0025837D01*
X0303463Y0011604D02*
X0303463Y0007000D01*
X0301929Y0007000D02*
X0299627Y0007000D01*
X0298859Y0007767D01*
X0298859Y0009302D01*
X0299627Y0010069D01*
X0301929Y0010069D01*
X0303463Y0009302D02*
X0304231Y0010069D01*
X0305765Y0010069D01*
X0306533Y0009302D01*
X0306533Y0007000D01*
X0308067Y0007767D02*
X0308835Y0008535D01*
X0311136Y0008535D01*
X0311136Y0009302D02*
X0311136Y0007000D01*
X0308835Y0007000D01*
X0308067Y0007767D01*
X0308835Y0010069D02*
X0310369Y0010069D01*
X0311136Y0009302D01*
X0312671Y0010069D02*
X0314206Y0010069D01*
X0313438Y0010837D02*
X0313438Y0007767D01*
X0314206Y0007000D01*
X0297325Y0007767D02*
X0296557Y0008535D01*
X0295023Y0008535D01*
X0294255Y0009302D01*
X0295023Y0010069D01*
X0297325Y0010069D01*
X0297325Y0007767D02*
X0296557Y0007000D01*
X0294255Y0007000D01*
X0292721Y0007767D02*
X0291953Y0008535D01*
X0290419Y0008535D01*
X0289652Y0009302D01*
X0290419Y0010069D01*
X0292721Y0010069D01*
X0292721Y0007767D02*
X0291953Y0007000D01*
X0289652Y0007000D01*
X0288117Y0007000D02*
X0285815Y0007000D01*
X0285048Y0007767D01*
X0285815Y0008535D01*
X0288117Y0008535D01*
X0288117Y0009302D02*
X0288117Y0007000D01*
X0288117Y0009302D02*
X0287350Y0010069D01*
X0285815Y0010069D01*
X0283513Y0009302D02*
X0283513Y0007767D01*
X0282746Y0007000D01*
X0280444Y0007000D01*
X0280444Y0005465D02*
X0280444Y0010069D01*
X0282746Y0010069D01*
X0283513Y0009302D01*
X0278909Y0009302D02*
X0278909Y0007000D01*
X0277374Y0007000D02*
X0277374Y0009302D01*
X0278142Y0010069D01*
X0278909Y0009302D01*
X0277374Y0009302D02*
X0276607Y0010069D01*
X0275840Y0010069D01*
X0275840Y0007000D01*
X0274305Y0007767D02*
X0274305Y0009302D01*
X0273538Y0010069D01*
X0272003Y0010069D01*
X0271236Y0009302D01*
X0271236Y0007767D01*
X0272003Y0007000D01*
X0273538Y0007000D01*
X0274305Y0007767D01*
X0269701Y0007000D02*
X0267399Y0007000D01*
X0266632Y0007767D01*
X0266632Y0009302D01*
X0267399Y0010069D01*
X0269701Y0010069D01*
X0268934Y0014500D02*
X0272003Y0017569D01*
X0272003Y0018337D01*
X0271236Y0019104D01*
X0269701Y0019104D01*
X0268934Y0018337D01*
X0268934Y0014500D02*
X0272003Y0014500D01*
X0273538Y0015267D02*
X0276607Y0018337D01*
X0276607Y0015267D01*
X0275840Y0014500D01*
X0274305Y0014500D01*
X0273538Y0015267D01*
X0273538Y0018337D01*
X0274305Y0019104D01*
X0275840Y0019104D01*
X0276607Y0018337D01*
X0264330Y0022000D02*
X0264330Y0026604D01*
X0253587Y0006233D02*
X0252820Y0005465D01*
X0252053Y0005465D01*
X0262483Y0215746D02*
X0260948Y0217281D01*
X0260948Y0220350D01*
X0260948Y0218048D02*
X0264017Y0218048D01*
X0264017Y0217281D02*
X0262483Y0215746D01*
X0264017Y0217281D02*
X0264017Y0220350D01*
X0265552Y0219583D02*
X0265552Y0216513D01*
X0266319Y0215746D01*
X0268621Y0215746D01*
X0268621Y0220350D01*
X0266319Y0220350D01*
X0265552Y0219583D01*
X0261833Y0223246D02*
X0262600Y0224013D01*
X0262600Y0224781D01*
X0261833Y0225548D01*
X0260298Y0225548D01*
X0259531Y0226315D01*
X0259531Y0227083D01*
X0260298Y0227850D01*
X0261833Y0227850D01*
X0262600Y0227083D01*
X0257996Y0227083D02*
X0257229Y0227850D01*
X0255694Y0227850D01*
X0254927Y0227083D01*
X0253392Y0227850D02*
X0250323Y0227850D01*
X0253392Y0227850D02*
X0253392Y0223246D01*
X0254927Y0224013D02*
X0255694Y0223246D01*
X0257229Y0223246D01*
X0257996Y0224013D01*
X0257996Y0227083D01*
X0259531Y0224013D02*
X0260298Y0223246D01*
X0261833Y0223246D01*
X0253850Y0220208D02*
X0253850Y0217138D01*
X0253083Y0216371D01*
X0251548Y0216371D01*
X0250781Y0217138D01*
X0250781Y0218673D02*
X0252315Y0218673D01*
X0250781Y0218673D02*
X0250781Y0220208D01*
X0251548Y0220975D01*
X0253083Y0220975D01*
X0253850Y0220208D01*
X0249246Y0220975D02*
X0249246Y0216371D01*
X0246177Y0220975D01*
X0246177Y0216371D01*
X0244642Y0216371D02*
X0244642Y0220975D01*
X0242340Y0220975D01*
X0241573Y0220208D01*
X0241573Y0217138D01*
X0242340Y0216371D01*
X0244642Y0216371D01*
X0270156Y0216513D02*
X0270923Y0215746D01*
X0272458Y0215746D01*
X0273225Y0216513D01*
X0273225Y0217281D01*
X0272458Y0218048D01*
X0270923Y0218048D01*
X0270156Y0218815D01*
X0270156Y0219583D01*
X0270923Y0220350D01*
X0272458Y0220350D01*
X0273225Y0219583D01*
X0273448Y0223871D02*
X0271913Y0223871D01*
X0271146Y0224638D01*
X0271146Y0225406D01*
X0271913Y0226173D01*
X0271146Y0226940D01*
X0271146Y0227708D01*
X0271913Y0228475D01*
X0273448Y0228475D01*
X0274215Y0227708D01*
X0275750Y0227708D02*
X0275750Y0228475D01*
X0276517Y0228475D01*
X0276517Y0227708D01*
X0275750Y0227708D01*
X0278052Y0227708D02*
X0278819Y0228475D01*
X0280354Y0228475D01*
X0281121Y0227708D01*
X0279586Y0226173D02*
X0278819Y0226173D01*
X0278052Y0226940D01*
X0278052Y0227708D01*
X0278819Y0226173D02*
X0278052Y0225406D01*
X0278052Y0224638D01*
X0278819Y0223871D01*
X0280354Y0223871D01*
X0281121Y0224638D01*
X0282656Y0226173D02*
X0285725Y0226173D01*
X0284190Y0224638D02*
X0284190Y0227708D01*
X0284444Y0222225D02*
X0283677Y0221458D01*
X0283677Y0219923D01*
X0284444Y0219156D01*
X0285211Y0219156D01*
X0286746Y0219923D01*
X0286746Y0217621D01*
X0283677Y0217621D01*
X0284444Y0222225D02*
X0285979Y0222225D01*
X0286746Y0221458D01*
X0288281Y0219923D02*
X0291350Y0219923D01*
X0289815Y0218388D02*
X0289815Y0221458D01*
X0274215Y0224638D02*
X0273448Y0223871D01*
X0272681Y0226173D02*
X0271913Y0226173D01*
D11*
X0272662Y0214099D02*
X0271800Y0213236D01*
X0271800Y0212374D01*
X0272662Y0211512D01*
X0274387Y0211512D01*
X0275249Y0210650D01*
X0275249Y0209787D01*
X0274387Y0208925D01*
X0272662Y0208925D01*
X0271800Y0209787D01*
X0271800Y0206599D02*
X0274387Y0206599D01*
X0275249Y0205736D01*
X0275249Y0204012D01*
X0274387Y0203150D01*
X0271800Y0203150D01*
X0273525Y0203150D02*
X0275249Y0201425D01*
X0277020Y0201425D02*
X0280469Y0201425D01*
X0282240Y0201425D02*
X0282240Y0206599D01*
X0285690Y0201425D01*
X0285690Y0206599D01*
X0280469Y0206599D02*
X0277020Y0206599D01*
X0277020Y0201425D01*
X0277020Y0204012D02*
X0278745Y0204012D01*
X0278729Y0199099D02*
X0275280Y0199099D01*
X0275280Y0193925D01*
X0273525Y0193925D02*
X0271800Y0193925D01*
X0272662Y0193925D02*
X0272662Y0199099D01*
X0271800Y0199099D02*
X0273525Y0199099D01*
X0271800Y0201425D02*
X0271800Y0206599D01*
X0277020Y0209787D02*
X0277882Y0208925D01*
X0279607Y0208925D01*
X0280469Y0209787D01*
X0277020Y0209787D02*
X0277020Y0213236D01*
X0277882Y0214099D01*
X0279607Y0214099D01*
X0280469Y0213236D01*
X0275249Y0213236D02*
X0274387Y0214099D01*
X0272662Y0214099D01*
X0281363Y0199099D02*
X0280500Y0198236D01*
X0280500Y0194787D01*
X0281363Y0193925D01*
X0283087Y0193925D01*
X0283949Y0194787D01*
X0283965Y0191599D02*
X0285690Y0189874D01*
X0285690Y0186425D01*
X0287461Y0187287D02*
X0287461Y0190736D01*
X0288323Y0191599D01*
X0290047Y0191599D01*
X0290910Y0190736D01*
X0290910Y0187287D02*
X0290047Y0186425D01*
X0288323Y0186425D01*
X0287461Y0187287D01*
X0285690Y0189012D02*
X0282240Y0189012D01*
X0282240Y0189874D02*
X0283965Y0191599D01*
X0282240Y0189874D02*
X0282240Y0186425D01*
X0280469Y0187287D02*
X0280469Y0190736D01*
X0279607Y0191599D01*
X0277020Y0191599D01*
X0277020Y0186425D01*
X0279607Y0186425D01*
X0280469Y0187287D01*
X0279607Y0184099D02*
X0280469Y0183236D01*
X0280469Y0181512D01*
X0279607Y0180650D01*
X0277020Y0180650D01*
X0278745Y0180650D02*
X0280469Y0178925D01*
X0282240Y0178925D02*
X0282240Y0184099D01*
X0285690Y0184099D01*
X0287461Y0184099D02*
X0290047Y0184099D01*
X0290910Y0183236D01*
X0290910Y0179787D01*
X0290047Y0178925D01*
X0287461Y0178925D01*
X0287461Y0184099D01*
X0283965Y0181512D02*
X0282240Y0181512D01*
X0279607Y0184099D02*
X0277020Y0184099D01*
X0277020Y0178925D01*
X0275249Y0178925D02*
X0275249Y0184099D01*
X0275249Y0186425D02*
X0275249Y0191599D01*
X0271800Y0191599D02*
X0275249Y0186425D01*
X0271800Y0186425D02*
X0271800Y0191599D01*
X0275280Y0196512D02*
X0277005Y0196512D01*
X0281363Y0199099D02*
X0283087Y0199099D01*
X0283949Y0198236D01*
X0271800Y0184099D02*
X0275249Y0178925D01*
X0274387Y0176599D02*
X0271800Y0176599D01*
X0271800Y0171425D01*
X0274387Y0171425D01*
X0275249Y0172287D01*
X0275249Y0175736D01*
X0274387Y0176599D01*
X0277020Y0174874D02*
X0278745Y0176599D01*
X0280469Y0174874D01*
X0280469Y0171425D01*
X0282240Y0173150D02*
X0283965Y0171425D01*
X0285690Y0173150D01*
X0285690Y0176599D01*
X0282240Y0176599D02*
X0282240Y0173150D01*
X0280469Y0174012D02*
X0277020Y0174012D01*
X0277020Y0174874D02*
X0277020Y0171425D01*
X0277882Y0169099D02*
X0277020Y0168236D01*
X0277020Y0164787D01*
X0277882Y0163925D01*
X0279607Y0163925D01*
X0280469Y0164787D01*
X0280469Y0168236D01*
X0279607Y0169099D01*
X0277882Y0169099D01*
X0275249Y0169099D02*
X0271800Y0169099D01*
X0271800Y0163925D01*
X0275249Y0163925D01*
X0273525Y0161599D02*
X0275249Y0159874D01*
X0275249Y0156425D01*
X0274387Y0154099D02*
X0272662Y0154099D01*
X0271800Y0153236D01*
X0271800Y0152374D01*
X0272662Y0151512D01*
X0274387Y0151512D01*
X0275249Y0150650D01*
X0275249Y0149787D01*
X0274387Y0148925D01*
X0272662Y0148925D01*
X0271800Y0149787D01*
X0271800Y0146599D02*
X0274387Y0146599D01*
X0275249Y0145736D01*
X0275249Y0142287D01*
X0274387Y0141425D01*
X0271800Y0141425D01*
X0271800Y0146599D01*
X0277020Y0145736D02*
X0277020Y0142287D01*
X0277882Y0141425D01*
X0279607Y0141425D01*
X0280469Y0142287D01*
X0280469Y0145736D02*
X0279607Y0146599D01*
X0277882Y0146599D01*
X0277020Y0145736D01*
X0277020Y0148925D02*
X0277020Y0154099D01*
X0279607Y0154099D01*
X0280469Y0153236D01*
X0280469Y0151512D01*
X0279607Y0150650D01*
X0277020Y0150650D01*
X0278745Y0150650D02*
X0280469Y0148925D01*
X0282240Y0149787D02*
X0283103Y0148925D01*
X0284827Y0148925D01*
X0285690Y0149787D01*
X0285690Y0153236D01*
X0284827Y0154099D01*
X0283103Y0154099D01*
X0282240Y0153236D01*
X0282240Y0149787D01*
X0283965Y0150650D02*
X0285690Y0148925D01*
X0285690Y0156425D02*
X0285690Y0161599D01*
X0283965Y0163925D02*
X0282240Y0163925D01*
X0283103Y0163925D02*
X0283103Y0169099D01*
X0283965Y0169099D02*
X0282240Y0169099D01*
X0282240Y0161599D02*
X0285690Y0156425D01*
X0282240Y0156425D02*
X0282240Y0161599D01*
X0280469Y0161599D02*
X0277020Y0161599D01*
X0278745Y0161599D02*
X0278745Y0156425D01*
X0275249Y0159012D02*
X0271800Y0159012D01*
X0271800Y0159874D02*
X0273525Y0161599D01*
X0271800Y0159874D02*
X0271800Y0156425D01*
X0274387Y0154099D02*
X0275249Y0153236D01*
X0273525Y0166512D02*
X0271800Y0166512D01*
X0271800Y0178925D02*
X0271800Y0184099D01*
X0272425Y0102224D02*
X0275874Y0102224D01*
X0274150Y0102224D02*
X0274150Y0097050D01*
X0274387Y0094724D02*
X0271800Y0094724D01*
X0271800Y0089550D01*
X0274387Y0089550D01*
X0275249Y0090412D01*
X0275249Y0093861D01*
X0274387Y0094724D01*
X0277020Y0094724D02*
X0278745Y0094724D01*
X0277882Y0094724D02*
X0277882Y0089550D01*
X0277020Y0089550D02*
X0278745Y0089550D01*
X0280500Y0090412D02*
X0281363Y0089550D01*
X0283087Y0089550D01*
X0283949Y0090412D01*
X0283949Y0093861D01*
X0283087Y0094724D01*
X0281363Y0094724D01*
X0280500Y0093861D01*
X0280500Y0090412D01*
X0285721Y0089550D02*
X0289170Y0089550D01*
X0287445Y0089550D02*
X0287445Y0094724D01*
X0285721Y0092999D01*
X0281094Y0097050D02*
X0277645Y0097050D01*
X0277645Y0102224D01*
X0281094Y0102224D01*
X0279370Y0099637D02*
X0277645Y0099637D01*
X0277882Y0087224D02*
X0277882Y0082050D01*
X0277020Y0082050D02*
X0278745Y0082050D01*
X0280500Y0082912D02*
X0280500Y0086361D01*
X0281363Y0087224D01*
X0283087Y0087224D01*
X0283949Y0086361D01*
X0283949Y0082912D01*
X0283087Y0082050D01*
X0281363Y0082050D01*
X0280500Y0082912D01*
X0281363Y0079724D02*
X0280500Y0078861D01*
X0280500Y0075412D01*
X0281363Y0074550D01*
X0283087Y0074550D01*
X0283949Y0075412D01*
X0283949Y0078861D01*
X0283087Y0079724D01*
X0281363Y0079724D01*
X0278745Y0079724D02*
X0277020Y0079724D01*
X0277882Y0079724D02*
X0277882Y0074550D01*
X0277020Y0074550D02*
X0278745Y0074550D01*
X0278745Y0072224D02*
X0277020Y0072224D01*
X0277882Y0072224D02*
X0277882Y0067050D01*
X0277020Y0067050D02*
X0278745Y0067050D01*
X0280500Y0067912D02*
X0281363Y0067050D01*
X0283087Y0067050D01*
X0283949Y0067912D01*
X0283949Y0071361D01*
X0283087Y0072224D01*
X0281363Y0072224D01*
X0280500Y0071361D01*
X0280500Y0067912D01*
X0281363Y0064724D02*
X0280500Y0063861D01*
X0280500Y0060412D01*
X0281363Y0059550D01*
X0283087Y0059550D01*
X0283949Y0060412D01*
X0283949Y0063861D01*
X0283087Y0064724D01*
X0281363Y0064724D01*
X0278745Y0064724D02*
X0277020Y0064724D01*
X0277882Y0064724D02*
X0277882Y0059550D01*
X0277020Y0059550D02*
X0278745Y0059550D01*
X0278745Y0057224D02*
X0277020Y0057224D01*
X0277882Y0057224D02*
X0277882Y0052050D01*
X0277020Y0052050D02*
X0278745Y0052050D01*
X0280500Y0052912D02*
X0280500Y0056361D01*
X0281363Y0057224D01*
X0283087Y0057224D01*
X0283949Y0056361D01*
X0283949Y0052912D01*
X0283087Y0052050D01*
X0281363Y0052050D01*
X0280500Y0052912D01*
X0281363Y0049724D02*
X0280500Y0048861D01*
X0280500Y0045412D01*
X0281363Y0044550D01*
X0283087Y0044550D01*
X0283949Y0045412D01*
X0283949Y0048861D01*
X0283087Y0049724D01*
X0281363Y0049724D01*
X0278745Y0049724D02*
X0277020Y0049724D01*
X0277882Y0049724D02*
X0277882Y0044550D01*
X0277020Y0044550D02*
X0278745Y0044550D01*
X0278745Y0042224D02*
X0277020Y0042224D01*
X0277882Y0042224D02*
X0277882Y0037050D01*
X0277020Y0037050D02*
X0278745Y0037050D01*
X0280500Y0037912D02*
X0281363Y0037050D01*
X0283087Y0037050D01*
X0283949Y0037912D01*
X0283949Y0041361D01*
X0283087Y0042224D01*
X0281363Y0042224D01*
X0280500Y0041361D01*
X0280500Y0037912D01*
X0280469Y0034724D02*
X0277020Y0034724D01*
X0277020Y0029550D01*
X0280469Y0029550D01*
X0278745Y0032137D02*
X0277020Y0032137D01*
X0275249Y0032137D02*
X0275249Y0033861D01*
X0274387Y0034724D01*
X0271800Y0034724D01*
X0271800Y0029550D01*
X0271800Y0031275D02*
X0274387Y0031275D01*
X0275249Y0032137D01*
X0274387Y0037050D02*
X0271800Y0037050D01*
X0271800Y0042224D01*
X0274387Y0042224D01*
X0275249Y0041361D01*
X0275249Y0037912D01*
X0274387Y0037050D01*
X0274387Y0044550D02*
X0271800Y0044550D01*
X0271800Y0049724D01*
X0274387Y0049724D01*
X0275249Y0048861D01*
X0275249Y0045412D01*
X0274387Y0044550D01*
X0274387Y0052050D02*
X0271800Y0052050D01*
X0271800Y0057224D01*
X0274387Y0057224D01*
X0275249Y0056361D01*
X0275249Y0052912D01*
X0274387Y0052050D01*
X0274387Y0059550D02*
X0271800Y0059550D01*
X0271800Y0064724D01*
X0274387Y0064724D01*
X0275249Y0063861D01*
X0275249Y0060412D01*
X0274387Y0059550D01*
X0274387Y0067050D02*
X0271800Y0067050D01*
X0271800Y0072224D01*
X0274387Y0072224D01*
X0275249Y0071361D01*
X0275249Y0067912D01*
X0274387Y0067050D01*
X0274387Y0074550D02*
X0271800Y0074550D01*
X0271800Y0079724D01*
X0274387Y0079724D01*
X0275249Y0078861D01*
X0275249Y0075412D01*
X0274387Y0074550D01*
X0274387Y0082050D02*
X0271800Y0082050D01*
X0271800Y0087224D01*
X0274387Y0087224D01*
X0275249Y0086361D01*
X0275249Y0082912D01*
X0274387Y0082050D01*
X0277020Y0087224D02*
X0278745Y0087224D01*
X0285721Y0086361D02*
X0286583Y0087224D01*
X0288307Y0087224D01*
X0289170Y0086361D01*
X0289170Y0085499D01*
X0285721Y0082050D01*
X0289170Y0082050D01*
X0288307Y0079724D02*
X0286583Y0079724D01*
X0285721Y0078861D01*
X0287445Y0077137D02*
X0288307Y0077137D01*
X0289170Y0076275D01*
X0289170Y0075412D01*
X0288307Y0074550D01*
X0286583Y0074550D01*
X0285721Y0075412D01*
X0288307Y0077137D02*
X0289170Y0077999D01*
X0289170Y0078861D01*
X0288307Y0079724D01*
X0288307Y0072224D02*
X0285721Y0069637D01*
X0289170Y0069637D01*
X0288307Y0067050D02*
X0288307Y0072224D01*
X0289170Y0064724D02*
X0285721Y0064724D01*
X0285721Y0062137D01*
X0287445Y0062999D01*
X0288307Y0062999D01*
X0289170Y0062137D01*
X0289170Y0060412D01*
X0288307Y0059550D01*
X0286583Y0059550D01*
X0285721Y0060412D01*
X0287445Y0056361D02*
X0285721Y0054637D01*
X0288307Y0054637D01*
X0289170Y0053775D01*
X0289170Y0052912D01*
X0288307Y0052050D01*
X0286583Y0052050D01*
X0285721Y0052912D01*
X0285721Y0054637D01*
X0287445Y0056361D02*
X0289170Y0057224D01*
X0289170Y0049724D02*
X0285721Y0049724D01*
X0289170Y0049724D02*
X0289170Y0048861D01*
X0285721Y0045412D01*
X0285721Y0044550D01*
X0286583Y0042224D02*
X0288307Y0042224D01*
X0289170Y0041361D01*
X0289170Y0040499D01*
X0288307Y0039637D01*
X0286583Y0039637D01*
X0285721Y0040499D01*
X0285721Y0041361D01*
X0286583Y0042224D01*
X0286583Y0039637D02*
X0285721Y0038775D01*
X0285721Y0037912D01*
X0286583Y0037050D01*
X0288307Y0037050D01*
X0289170Y0037912D01*
X0289170Y0038775D01*
X0288307Y0039637D01*
X0111974Y0128523D02*
X0111111Y0127660D01*
X0107662Y0127660D01*
X0106800Y0128523D01*
X0106800Y0131110D01*
X0111974Y0131110D01*
X0111974Y0128523D01*
X0111974Y0132881D02*
X0106800Y0132881D01*
X0111974Y0136330D01*
X0106800Y0136330D01*
X0107662Y0138101D02*
X0106800Y0138963D01*
X0106800Y0140688D01*
X0107662Y0141550D01*
X0111111Y0141550D01*
X0111974Y0140688D01*
X0111974Y0138963D01*
X0111111Y0138101D01*
X0109387Y0138101D02*
X0109387Y0139825D01*
X0109387Y0138101D02*
X0107662Y0138101D01*
X0107662Y0147660D02*
X0106800Y0148523D01*
X0106800Y0151110D01*
X0111974Y0151110D01*
X0111974Y0148523D01*
X0111111Y0147660D01*
X0107662Y0147660D01*
X0106800Y0152881D02*
X0111974Y0152881D01*
X0111974Y0156330D02*
X0106800Y0156330D01*
X0107662Y0158101D02*
X0106800Y0158963D01*
X0106800Y0160688D01*
X0107662Y0161550D01*
X0111111Y0161550D01*
X0111974Y0160688D01*
X0111974Y0158963D01*
X0111111Y0158101D01*
X0109387Y0158101D02*
X0109387Y0159825D01*
X0109387Y0158101D02*
X0107662Y0158101D01*
X0111974Y0156330D02*
X0106800Y0152881D01*
X0107662Y0167035D02*
X0106800Y0167898D01*
X0106800Y0170485D01*
X0111974Y0170485D01*
X0111974Y0167898D01*
X0111111Y0167035D01*
X0107662Y0167035D01*
X0106800Y0172256D02*
X0111974Y0172256D01*
X0111974Y0175705D02*
X0106800Y0172256D01*
X0106800Y0175705D02*
X0111974Y0175705D01*
X0111111Y0177476D02*
X0111974Y0178338D01*
X0111974Y0180063D01*
X0111111Y0180925D01*
X0107662Y0180925D01*
X0106800Y0180063D01*
X0106800Y0178338D01*
X0107662Y0177476D01*
X0109387Y0177476D01*
X0109387Y0179200D01*
X0111111Y0182660D02*
X0107662Y0182660D01*
X0106800Y0183523D01*
X0106800Y0186110D01*
X0111974Y0186110D01*
X0111974Y0183523D01*
X0111111Y0182660D01*
X0111974Y0187881D02*
X0106800Y0187881D01*
X0111974Y0191330D01*
X0106800Y0191330D01*
X0107662Y0193101D02*
X0106800Y0193963D01*
X0106800Y0195688D01*
X0107662Y0196550D01*
X0111111Y0196550D01*
X0111974Y0195688D01*
X0111974Y0193963D01*
X0111111Y0193101D01*
X0109387Y0193101D02*
X0109387Y0194825D01*
X0109387Y0193101D02*
X0107662Y0193101D01*
D12*
X0134825Y0181286D02*
X0134825Y0180669D01*
X0135442Y0180052D01*
X0136677Y0180052D01*
X0137294Y0179434D01*
X0137294Y0178817D01*
X0136677Y0178200D01*
X0135442Y0178200D01*
X0134825Y0178817D01*
X0134825Y0181286D02*
X0135442Y0181903D01*
X0136677Y0181903D01*
X0137294Y0181286D01*
X0138508Y0181903D02*
X0138508Y0178200D01*
X0138508Y0179434D02*
X0140360Y0179434D01*
X0140977Y0180052D01*
X0140977Y0181286D01*
X0140360Y0181903D01*
X0138508Y0181903D01*
X0139743Y0179434D02*
X0140977Y0178200D01*
X0142191Y0178817D02*
X0142191Y0181286D01*
X0142808Y0181903D01*
X0144043Y0181903D01*
X0144660Y0181286D01*
X0144660Y0178817D01*
X0144043Y0178200D01*
X0142808Y0178200D01*
X0142191Y0178817D01*
X0143426Y0179434D02*
X0144660Y0178200D01*
X0144660Y0171903D02*
X0144660Y0168200D01*
X0142191Y0171903D01*
X0142191Y0168200D01*
X0139743Y0168200D02*
X0139743Y0171903D01*
X0140977Y0171903D02*
X0138508Y0171903D01*
X0137294Y0170669D02*
X0137294Y0168200D01*
X0137294Y0170052D02*
X0134825Y0170052D01*
X0134825Y0170669D02*
X0136059Y0171903D01*
X0137294Y0170669D01*
X0134825Y0170669D02*
X0134825Y0168200D01*
X0134825Y0163153D02*
X0136059Y0163153D01*
X0135442Y0163153D02*
X0135442Y0159450D01*
X0134825Y0159450D02*
X0136059Y0159450D01*
X0137280Y0159450D02*
X0137280Y0163153D01*
X0139749Y0163153D01*
X0140964Y0162536D02*
X0140964Y0160067D01*
X0141581Y0159450D01*
X0142815Y0159450D01*
X0143432Y0160067D01*
X0143432Y0162536D02*
X0142815Y0163153D01*
X0141581Y0163153D01*
X0140964Y0162536D01*
X0138515Y0161302D02*
X0137280Y0161302D01*
X0137294Y0152528D02*
X0137294Y0148825D01*
X0134825Y0152528D01*
X0134825Y0148825D01*
X0138508Y0148825D02*
X0140360Y0148825D01*
X0140977Y0149442D01*
X0140977Y0151911D01*
X0140360Y0152528D01*
X0138508Y0152528D01*
X0138508Y0148825D01*
X0142191Y0148825D02*
X0142191Y0151294D01*
X0143426Y0152528D01*
X0144660Y0151294D01*
X0144660Y0148825D01*
X0145874Y0149442D02*
X0145874Y0151911D01*
X0146492Y0152528D01*
X0147726Y0152528D01*
X0148343Y0151911D01*
X0148343Y0149442D02*
X0147726Y0148825D01*
X0146492Y0148825D01*
X0145874Y0149442D01*
X0144660Y0150677D02*
X0142191Y0150677D01*
X0142191Y0142528D02*
X0144660Y0142528D01*
X0145874Y0142528D02*
X0147726Y0142528D01*
X0148343Y0141911D01*
X0148343Y0139442D01*
X0147726Y0138825D01*
X0145874Y0138825D01*
X0145874Y0142528D01*
X0143426Y0140677D02*
X0142191Y0140677D01*
X0140977Y0140677D02*
X0140360Y0140059D01*
X0138508Y0140059D01*
X0138508Y0138825D02*
X0138508Y0142528D01*
X0140360Y0142528D01*
X0140977Y0141911D01*
X0140977Y0140677D01*
X0139743Y0140059D02*
X0140977Y0138825D01*
X0142191Y0138825D02*
X0142191Y0142528D01*
X0137294Y0142528D02*
X0137294Y0138825D01*
X0134825Y0142528D01*
X0134825Y0138825D01*
X0135450Y0132528D02*
X0137302Y0132528D01*
X0137919Y0131911D01*
X0137919Y0129442D01*
X0137302Y0128825D01*
X0135450Y0128825D01*
X0135450Y0132528D01*
X0139133Y0131294D02*
X0139133Y0128825D01*
X0139133Y0130677D02*
X0141602Y0130677D01*
X0141602Y0131294D02*
X0141602Y0128825D01*
X0142816Y0130059D02*
X0142816Y0132528D01*
X0141602Y0131294D02*
X0140368Y0132528D01*
X0139133Y0131294D01*
X0142816Y0130059D02*
X0144051Y0128825D01*
X0145285Y0130059D01*
X0145285Y0132528D01*
X0144051Y0122528D02*
X0142816Y0122528D01*
X0143433Y0122528D02*
X0143433Y0118825D01*
X0142816Y0118825D02*
X0144051Y0118825D01*
X0141602Y0119442D02*
X0141602Y0121911D01*
X0140985Y0122528D01*
X0139750Y0122528D01*
X0139133Y0121911D01*
X0139133Y0119442D01*
X0139750Y0118825D01*
X0140985Y0118825D01*
X0141602Y0119442D01*
X0137919Y0118825D02*
X0135450Y0118825D01*
X0135450Y0122528D01*
X0137919Y0122528D01*
X0136684Y0120677D02*
X0135450Y0120677D01*
X0135450Y0111903D02*
X0137302Y0111903D01*
X0137919Y0111286D01*
X0137919Y0108817D01*
X0137302Y0108200D01*
X0135450Y0108200D01*
X0135450Y0111903D01*
X0139133Y0110052D02*
X0141602Y0110052D01*
X0140985Y0111903D02*
X0139133Y0110052D01*
X0140985Y0111903D02*
X0140985Y0108200D01*
X0140985Y0101903D02*
X0141602Y0101286D01*
X0141602Y0100669D01*
X0140985Y0100052D01*
X0141602Y0099434D01*
X0141602Y0098817D01*
X0140985Y0098200D01*
X0139750Y0098200D01*
X0139133Y0098817D01*
X0137919Y0098817D02*
X0137302Y0098200D01*
X0135450Y0098200D01*
X0135450Y0101903D01*
X0137302Y0101903D01*
X0137919Y0101286D01*
X0137919Y0098817D01*
X0140368Y0100052D02*
X0140985Y0100052D01*
X0140985Y0101903D02*
X0139750Y0101903D01*
X0139133Y0101286D01*
X0139750Y0091903D02*
X0139133Y0091286D01*
X0139750Y0091903D02*
X0140985Y0091903D01*
X0141602Y0091286D01*
X0141602Y0090669D01*
X0139133Y0088200D01*
X0141602Y0088200D01*
X0137919Y0088817D02*
X0137919Y0091286D01*
X0137302Y0091903D01*
X0135450Y0091903D01*
X0135450Y0088200D01*
X0137302Y0088200D01*
X0137919Y0088817D01*
X0137302Y0081903D02*
X0135450Y0081903D01*
X0135450Y0078200D01*
X0137302Y0078200D01*
X0137919Y0078817D01*
X0137919Y0081286D01*
X0137302Y0081903D01*
X0139133Y0080669D02*
X0140368Y0081903D01*
X0140368Y0078200D01*
X0141602Y0078200D02*
X0139133Y0078200D01*
X0112227Y0079442D02*
X0111610Y0078825D01*
X0110375Y0078825D01*
X0109758Y0079442D01*
X0108544Y0079442D02*
X0108544Y0081911D01*
X0107927Y0082528D01*
X0106075Y0082528D01*
X0106075Y0078825D01*
X0107927Y0078825D01*
X0108544Y0079442D01*
X0109758Y0080677D02*
X0110993Y0081294D01*
X0111610Y0081294D01*
X0112227Y0080677D01*
X0112227Y0079442D01*
X0109758Y0080677D02*
X0109758Y0082528D01*
X0112227Y0082528D01*
X0111610Y0088825D02*
X0110375Y0088825D01*
X0109758Y0089442D01*
X0109758Y0090677D01*
X0111610Y0090677D01*
X0112227Y0090059D01*
X0112227Y0089442D01*
X0111610Y0088825D01*
X0109758Y0090677D02*
X0110993Y0091911D01*
X0112227Y0092528D01*
X0108544Y0091911D02*
X0108544Y0089442D01*
X0107927Y0088825D01*
X0106075Y0088825D01*
X0106075Y0092528D01*
X0107927Y0092528D01*
X0108544Y0091911D01*
X0107927Y0098200D02*
X0106075Y0098200D01*
X0106075Y0101903D01*
X0107927Y0101903D01*
X0108544Y0101286D01*
X0108544Y0098817D01*
X0107927Y0098200D01*
X0109758Y0098200D02*
X0109758Y0098817D01*
X0112227Y0101286D01*
X0112227Y0101903D01*
X0109758Y0101903D01*
X0110375Y0108200D02*
X0109758Y0108817D01*
X0109758Y0109434D01*
X0110375Y0110052D01*
X0111610Y0110052D01*
X0112227Y0109434D01*
X0112227Y0108817D01*
X0111610Y0108200D01*
X0110375Y0108200D01*
X0110375Y0110052D02*
X0109758Y0110669D01*
X0109758Y0111286D01*
X0110375Y0111903D01*
X0111610Y0111903D01*
X0112227Y0111286D01*
X0112227Y0110669D01*
X0111610Y0110052D01*
X0108544Y0108817D02*
X0108544Y0111286D01*
X0107927Y0111903D01*
X0106075Y0111903D01*
X0106075Y0108200D01*
X0107927Y0108200D01*
X0108544Y0108817D01*
X0107325Y0114940D02*
X0111028Y0114940D01*
X0111028Y0117409D02*
X0107325Y0114940D01*
X0107325Y0117409D02*
X0111028Y0117409D01*
X0111028Y0118623D02*
X0111028Y0121092D01*
X0107325Y0121092D01*
X0107325Y0118623D01*
X0109177Y0119857D02*
X0109177Y0121092D01*
X0109177Y0122306D02*
X0108559Y0122923D01*
X0108559Y0124775D01*
X0107325Y0124775D02*
X0111028Y0124775D01*
X0111028Y0122923D01*
X0110411Y0122306D01*
X0109177Y0122306D01*
X0108559Y0123541D02*
X0107325Y0122306D01*
D13*
X0051800Y0027175D02*
X0030800Y0027175D01*
X0030800Y0032075D01*
X0030300Y0032075D01*
X0030800Y0032075D02*
X0030800Y0056075D01*
X0030300Y0056075D01*
X0030800Y0056075D02*
X0030800Y0065175D01*
X0003300Y0065175D01*
X0003213Y0065177D01*
X0003126Y0065183D01*
X0003039Y0065192D01*
X0002953Y0065205D01*
X0002867Y0065222D01*
X0002782Y0065243D01*
X0002699Y0065268D01*
X0002616Y0065296D01*
X0002535Y0065327D01*
X0002455Y0065362D01*
X0002377Y0065401D01*
X0002300Y0065443D01*
X0002225Y0065488D01*
X0002153Y0065537D01*
X0002082Y0065588D01*
X0002014Y0065643D01*
X0001949Y0065700D01*
X0001886Y0065761D01*
X0001825Y0065824D01*
X0001768Y0065889D01*
X0001713Y0065957D01*
X0001662Y0066028D01*
X0001613Y0066100D01*
X0001568Y0066175D01*
X0001526Y0066252D01*
X0001487Y0066330D01*
X0001452Y0066410D01*
X0001421Y0066491D01*
X0001393Y0066574D01*
X0001368Y0066657D01*
X0001347Y0066742D01*
X0001330Y0066828D01*
X0001317Y0066914D01*
X0001308Y0067001D01*
X0001302Y0067088D01*
X0001300Y0067175D01*
X0001300Y0205175D01*
X0001302Y0205262D01*
X0001308Y0205349D01*
X0001317Y0205436D01*
X0001330Y0205522D01*
X0001347Y0205608D01*
X0001368Y0205693D01*
X0001393Y0205776D01*
X0001421Y0205859D01*
X0001452Y0205940D01*
X0001487Y0206020D01*
X0001526Y0206098D01*
X0001568Y0206175D01*
X0001613Y0206250D01*
X0001662Y0206322D01*
X0001713Y0206393D01*
X0001768Y0206461D01*
X0001825Y0206526D01*
X0001886Y0206589D01*
X0001949Y0206650D01*
X0002014Y0206707D01*
X0002082Y0206762D01*
X0002153Y0206813D01*
X0002225Y0206862D01*
X0002300Y0206907D01*
X0002377Y0206949D01*
X0002455Y0206988D01*
X0002535Y0207023D01*
X0002616Y0207054D01*
X0002699Y0207082D01*
X0002782Y0207107D01*
X0002867Y0207128D01*
X0002953Y0207145D01*
X0003039Y0207158D01*
X0003126Y0207167D01*
X0003213Y0207173D01*
X0003300Y0207175D01*
X0030800Y0207175D01*
X0030800Y0216275D01*
X0030300Y0216275D01*
X0030800Y0216275D02*
X0030800Y0240275D01*
X0030300Y0240275D01*
X0030800Y0240275D02*
X0030800Y0245175D01*
X0051800Y0245175D01*
X0051800Y0234775D01*
X0048300Y0234775D01*
X0048300Y0221775D01*
X0051800Y0221775D01*
X0051800Y0234775D01*
X0051800Y0245175D02*
X0105300Y0245175D01*
X0105300Y0211175D01*
X0074800Y0211175D01*
X0074800Y0215175D01*
X0055800Y0215175D01*
X0055800Y0211175D01*
X0051800Y0211175D01*
X0051800Y0221775D01*
X0051800Y0211175D02*
X0039300Y0211175D01*
X0039300Y0245175D01*
X0030300Y0240275D02*
X0030240Y0240273D01*
X0030179Y0240268D01*
X0030120Y0240259D01*
X0030061Y0240246D01*
X0030002Y0240230D01*
X0029945Y0240210D01*
X0029890Y0240187D01*
X0029835Y0240160D01*
X0029783Y0240131D01*
X0029732Y0240098D01*
X0029683Y0240062D01*
X0029637Y0240024D01*
X0029593Y0239982D01*
X0029551Y0239938D01*
X0029513Y0239892D01*
X0029477Y0239843D01*
X0029444Y0239792D01*
X0029415Y0239740D01*
X0029388Y0239685D01*
X0029365Y0239630D01*
X0029345Y0239573D01*
X0029329Y0239514D01*
X0029316Y0239455D01*
X0029307Y0239396D01*
X0029302Y0239335D01*
X0029300Y0239275D01*
X0029300Y0217275D01*
X0029302Y0217215D01*
X0029307Y0217154D01*
X0029316Y0217095D01*
X0029329Y0217036D01*
X0029345Y0216977D01*
X0029365Y0216920D01*
X0029388Y0216865D01*
X0029415Y0216810D01*
X0029444Y0216758D01*
X0029477Y0216707D01*
X0029513Y0216658D01*
X0029551Y0216612D01*
X0029593Y0216568D01*
X0029637Y0216526D01*
X0029683Y0216488D01*
X0029732Y0216452D01*
X0029783Y0216419D01*
X0029835Y0216390D01*
X0029890Y0216363D01*
X0029945Y0216340D01*
X0030002Y0216320D01*
X0030061Y0216304D01*
X0030120Y0216291D01*
X0030179Y0216282D01*
X0030240Y0216277D01*
X0030300Y0216275D01*
X0030800Y0207175D02*
X0030800Y0065175D01*
X0039300Y0061175D02*
X0051800Y0061175D01*
X0051800Y0050575D01*
X0048300Y0050575D01*
X0048300Y0037575D01*
X0051800Y0037575D01*
X0051800Y0027175D01*
X0105300Y0027175D01*
X0105300Y0061175D01*
X0074800Y0061175D01*
X0074800Y0057175D01*
X0055800Y0057175D01*
X0055800Y0061175D01*
X0051800Y0061175D01*
X0055800Y0061175D02*
X0074800Y0061175D01*
X0091300Y0061175D02*
X0091300Y0211175D01*
X0105300Y0211175D02*
X0105300Y0061175D01*
X0115300Y0074925D02*
X0112800Y0077425D01*
X0112800Y0082425D01*
X0115300Y0084925D01*
X0130300Y0084925D01*
X0132800Y0087425D01*
X0132800Y0092425D01*
X0130300Y0094925D01*
X0115300Y0094925D01*
X0112800Y0097425D01*
X0112800Y0102425D01*
X0115300Y0104925D01*
X0130300Y0104925D01*
X0132800Y0107425D01*
X0132800Y0112425D01*
X0130300Y0114925D01*
X0115300Y0114925D01*
X0112800Y0117425D01*
X0112800Y0122425D01*
X0115300Y0124925D01*
X0130300Y0124925D01*
X0132800Y0127425D01*
X0132800Y0132425D01*
X0130300Y0134925D01*
X0115300Y0134925D01*
X0112800Y0137425D01*
X0112800Y0142425D01*
X0115300Y0144925D01*
X0130300Y0144925D01*
X0132800Y0142425D01*
X0132800Y0137425D01*
X0130300Y0134925D01*
X0130300Y0124925D02*
X0132800Y0122425D01*
X0132800Y0117425D01*
X0130300Y0114925D01*
X0130300Y0104925D02*
X0132800Y0102425D01*
X0132800Y0097425D01*
X0130300Y0094925D01*
X0130300Y0084925D02*
X0132800Y0082425D01*
X0132800Y0077425D01*
X0130300Y0074925D01*
X0115300Y0074925D01*
X0115300Y0084925D02*
X0112800Y0087425D01*
X0112800Y0092425D01*
X0115300Y0094925D01*
X0115300Y0104925D02*
X0112800Y0107425D01*
X0112800Y0112425D01*
X0115300Y0114925D01*
X0115300Y0124925D02*
X0112800Y0127425D01*
X0112800Y0132425D01*
X0115300Y0134925D01*
X0115300Y0144925D02*
X0112800Y0147425D01*
X0112800Y0152425D01*
X0115300Y0154925D01*
X0130300Y0154925D01*
X0132800Y0152425D01*
X0132800Y0147425D01*
X0130300Y0144925D01*
X0130300Y0154925D02*
X0132800Y0157425D01*
X0132800Y0162425D01*
X0130300Y0164925D01*
X0115300Y0164925D01*
X0112800Y0167425D01*
X0112800Y0172425D01*
X0115300Y0174925D01*
X0130300Y0174925D01*
X0132800Y0172425D01*
X0132800Y0167425D01*
X0130300Y0164925D01*
X0130300Y0174925D02*
X0132800Y0177425D01*
X0132800Y0182425D01*
X0130300Y0184925D01*
X0132800Y0187425D01*
X0132800Y0192425D01*
X0130300Y0194925D01*
X0115300Y0194925D01*
X0112800Y0192425D01*
X0112800Y0187425D01*
X0115300Y0184925D01*
X0130300Y0184925D01*
X0115300Y0184925D02*
X0112800Y0182425D01*
X0112800Y0177425D01*
X0115300Y0174925D01*
X0115300Y0164925D02*
X0112800Y0162425D01*
X0112800Y0157425D01*
X0115300Y0154925D01*
X0163800Y0133050D02*
X0186800Y0133050D01*
X0186800Y0233050D01*
X0179300Y0233050D01*
X0179298Y0232924D01*
X0179292Y0232799D01*
X0179282Y0232674D01*
X0179268Y0232549D01*
X0179251Y0232424D01*
X0179229Y0232300D01*
X0179204Y0232177D01*
X0179174Y0232055D01*
X0179141Y0231934D01*
X0179104Y0231814D01*
X0179064Y0231695D01*
X0179019Y0231578D01*
X0178971Y0231461D01*
X0178919Y0231347D01*
X0178864Y0231234D01*
X0178805Y0231123D01*
X0178743Y0231014D01*
X0178677Y0230907D01*
X0178608Y0230802D01*
X0178536Y0230699D01*
X0178461Y0230598D01*
X0178382Y0230500D01*
X0178300Y0230405D01*
X0178216Y0230312D01*
X0178128Y0230222D01*
X0178038Y0230134D01*
X0177945Y0230050D01*
X0177850Y0229968D01*
X0177752Y0229889D01*
X0177651Y0229814D01*
X0177548Y0229742D01*
X0177443Y0229673D01*
X0177336Y0229607D01*
X0177227Y0229545D01*
X0177116Y0229486D01*
X0177003Y0229431D01*
X0176889Y0229379D01*
X0176772Y0229331D01*
X0176655Y0229286D01*
X0176536Y0229246D01*
X0176416Y0229209D01*
X0176295Y0229176D01*
X0176173Y0229146D01*
X0176050Y0229121D01*
X0175926Y0229099D01*
X0175801Y0229082D01*
X0175676Y0229068D01*
X0175551Y0229058D01*
X0175426Y0229052D01*
X0175300Y0229050D01*
X0175174Y0229052D01*
X0175049Y0229058D01*
X0174924Y0229068D01*
X0174799Y0229082D01*
X0174674Y0229099D01*
X0174550Y0229121D01*
X0174427Y0229146D01*
X0174305Y0229176D01*
X0174184Y0229209D01*
X0174064Y0229246D01*
X0173945Y0229286D01*
X0173828Y0229331D01*
X0173711Y0229379D01*
X0173597Y0229431D01*
X0173484Y0229486D01*
X0173373Y0229545D01*
X0173264Y0229607D01*
X0173157Y0229673D01*
X0173052Y0229742D01*
X0172949Y0229814D01*
X0172848Y0229889D01*
X0172750Y0229968D01*
X0172655Y0230050D01*
X0172562Y0230134D01*
X0172472Y0230222D01*
X0172384Y0230312D01*
X0172300Y0230405D01*
X0172218Y0230500D01*
X0172139Y0230598D01*
X0172064Y0230699D01*
X0171992Y0230802D01*
X0171923Y0230907D01*
X0171857Y0231014D01*
X0171795Y0231123D01*
X0171736Y0231234D01*
X0171681Y0231347D01*
X0171629Y0231461D01*
X0171581Y0231578D01*
X0171536Y0231695D01*
X0171496Y0231814D01*
X0171459Y0231934D01*
X0171426Y0232055D01*
X0171396Y0232177D01*
X0171371Y0232300D01*
X0171349Y0232424D01*
X0171332Y0232549D01*
X0171318Y0232674D01*
X0171308Y0232799D01*
X0171302Y0232924D01*
X0171300Y0233050D01*
X0163800Y0233050D01*
X0163800Y0133050D01*
X0164300Y0130550D02*
X0164300Y0245550D01*
X0172800Y0245550D01*
X0172802Y0245452D01*
X0172808Y0245354D01*
X0172817Y0245256D01*
X0172831Y0245159D01*
X0172848Y0245062D01*
X0172869Y0244966D01*
X0172894Y0244871D01*
X0172922Y0244777D01*
X0172955Y0244685D01*
X0172990Y0244593D01*
X0173030Y0244503D01*
X0173072Y0244415D01*
X0173119Y0244328D01*
X0173168Y0244244D01*
X0173221Y0244161D01*
X0173277Y0244081D01*
X0173337Y0244002D01*
X0173399Y0243926D01*
X0173464Y0243853D01*
X0173532Y0243782D01*
X0173603Y0243714D01*
X0173676Y0243649D01*
X0173752Y0243587D01*
X0173831Y0243527D01*
X0173911Y0243471D01*
X0173994Y0243418D01*
X0174078Y0243369D01*
X0174165Y0243322D01*
X0174253Y0243280D01*
X0174343Y0243240D01*
X0174435Y0243205D01*
X0174527Y0243172D01*
X0174621Y0243144D01*
X0174716Y0243119D01*
X0174812Y0243098D01*
X0174909Y0243081D01*
X0175006Y0243067D01*
X0175104Y0243058D01*
X0175202Y0243052D01*
X0175300Y0243050D01*
X0175398Y0243052D01*
X0175496Y0243058D01*
X0175594Y0243067D01*
X0175691Y0243081D01*
X0175788Y0243098D01*
X0175884Y0243119D01*
X0175979Y0243144D01*
X0176073Y0243172D01*
X0176165Y0243205D01*
X0176257Y0243240D01*
X0176347Y0243280D01*
X0176435Y0243322D01*
X0176522Y0243369D01*
X0176606Y0243418D01*
X0176689Y0243471D01*
X0176769Y0243527D01*
X0176848Y0243587D01*
X0176924Y0243649D01*
X0176997Y0243714D01*
X0177068Y0243782D01*
X0177136Y0243853D01*
X0177201Y0243926D01*
X0177263Y0244002D01*
X0177323Y0244081D01*
X0177379Y0244161D01*
X0177432Y0244244D01*
X0177481Y0244328D01*
X0177528Y0244415D01*
X0177570Y0244503D01*
X0177610Y0244593D01*
X0177645Y0244685D01*
X0177678Y0244777D01*
X0177706Y0244871D01*
X0177731Y0244966D01*
X0177752Y0245062D01*
X0177769Y0245159D01*
X0177783Y0245256D01*
X0177792Y0245354D01*
X0177798Y0245452D01*
X0177800Y0245550D01*
X0186300Y0245550D01*
X0186300Y0130550D01*
X0164300Y0130550D01*
X0164300Y0124050D02*
X0164300Y0242050D01*
X0172800Y0242050D01*
X0172802Y0241952D01*
X0172808Y0241854D01*
X0172817Y0241756D01*
X0172831Y0241659D01*
X0172848Y0241562D01*
X0172869Y0241466D01*
X0172894Y0241371D01*
X0172922Y0241277D01*
X0172955Y0241185D01*
X0172990Y0241093D01*
X0173030Y0241003D01*
X0173072Y0240915D01*
X0173119Y0240828D01*
X0173168Y0240744D01*
X0173221Y0240661D01*
X0173277Y0240581D01*
X0173337Y0240502D01*
X0173399Y0240426D01*
X0173464Y0240353D01*
X0173532Y0240282D01*
X0173603Y0240214D01*
X0173676Y0240149D01*
X0173752Y0240087D01*
X0173831Y0240027D01*
X0173911Y0239971D01*
X0173994Y0239918D01*
X0174078Y0239869D01*
X0174165Y0239822D01*
X0174253Y0239780D01*
X0174343Y0239740D01*
X0174435Y0239705D01*
X0174527Y0239672D01*
X0174621Y0239644D01*
X0174716Y0239619D01*
X0174812Y0239598D01*
X0174909Y0239581D01*
X0175006Y0239567D01*
X0175104Y0239558D01*
X0175202Y0239552D01*
X0175300Y0239550D01*
X0175398Y0239552D01*
X0175496Y0239558D01*
X0175594Y0239567D01*
X0175691Y0239581D01*
X0175788Y0239598D01*
X0175884Y0239619D01*
X0175979Y0239644D01*
X0176073Y0239672D01*
X0176165Y0239705D01*
X0176257Y0239740D01*
X0176347Y0239780D01*
X0176435Y0239822D01*
X0176522Y0239869D01*
X0176606Y0239918D01*
X0176689Y0239971D01*
X0176769Y0240027D01*
X0176848Y0240087D01*
X0176924Y0240149D01*
X0176997Y0240214D01*
X0177068Y0240282D01*
X0177136Y0240353D01*
X0177201Y0240426D01*
X0177263Y0240502D01*
X0177323Y0240581D01*
X0177379Y0240661D01*
X0177432Y0240744D01*
X0177481Y0240828D01*
X0177528Y0240915D01*
X0177570Y0241003D01*
X0177610Y0241093D01*
X0177645Y0241185D01*
X0177678Y0241277D01*
X0177706Y0241371D01*
X0177731Y0241466D01*
X0177752Y0241562D01*
X0177769Y0241659D01*
X0177783Y0241756D01*
X0177792Y0241854D01*
X0177798Y0241952D01*
X0177800Y0242050D01*
X0186300Y0242050D01*
X0186300Y0124050D01*
X0164300Y0124050D01*
X0165050Y0114300D02*
X0172550Y0114300D01*
X0172552Y0114174D01*
X0172558Y0114049D01*
X0172568Y0113924D01*
X0172582Y0113799D01*
X0172599Y0113674D01*
X0172621Y0113550D01*
X0172646Y0113427D01*
X0172676Y0113305D01*
X0172709Y0113184D01*
X0172746Y0113064D01*
X0172786Y0112945D01*
X0172831Y0112828D01*
X0172879Y0112711D01*
X0172931Y0112597D01*
X0172986Y0112484D01*
X0173045Y0112373D01*
X0173107Y0112264D01*
X0173173Y0112157D01*
X0173242Y0112052D01*
X0173314Y0111949D01*
X0173389Y0111848D01*
X0173468Y0111750D01*
X0173550Y0111655D01*
X0173634Y0111562D01*
X0173722Y0111472D01*
X0173812Y0111384D01*
X0173905Y0111300D01*
X0174000Y0111218D01*
X0174098Y0111139D01*
X0174199Y0111064D01*
X0174302Y0110992D01*
X0174407Y0110923D01*
X0174514Y0110857D01*
X0174623Y0110795D01*
X0174734Y0110736D01*
X0174847Y0110681D01*
X0174961Y0110629D01*
X0175078Y0110581D01*
X0175195Y0110536D01*
X0175314Y0110496D01*
X0175434Y0110459D01*
X0175555Y0110426D01*
X0175677Y0110396D01*
X0175800Y0110371D01*
X0175924Y0110349D01*
X0176049Y0110332D01*
X0176174Y0110318D01*
X0176299Y0110308D01*
X0176424Y0110302D01*
X0176550Y0110300D01*
X0176676Y0110302D01*
X0176801Y0110308D01*
X0176926Y0110318D01*
X0177051Y0110332D01*
X0177176Y0110349D01*
X0177300Y0110371D01*
X0177423Y0110396D01*
X0177545Y0110426D01*
X0177666Y0110459D01*
X0177786Y0110496D01*
X0177905Y0110536D01*
X0178022Y0110581D01*
X0178139Y0110629D01*
X0178253Y0110681D01*
X0178366Y0110736D01*
X0178477Y0110795D01*
X0178586Y0110857D01*
X0178693Y0110923D01*
X0178798Y0110992D01*
X0178901Y0111064D01*
X0179002Y0111139D01*
X0179100Y0111218D01*
X0179195Y0111300D01*
X0179288Y0111384D01*
X0179378Y0111472D01*
X0179466Y0111562D01*
X0179550Y0111655D01*
X0179632Y0111750D01*
X0179711Y0111848D01*
X0179786Y0111949D01*
X0179858Y0112052D01*
X0179927Y0112157D01*
X0179993Y0112264D01*
X0180055Y0112373D01*
X0180114Y0112484D01*
X0180169Y0112597D01*
X0180221Y0112711D01*
X0180269Y0112828D01*
X0180314Y0112945D01*
X0180354Y0113064D01*
X0180391Y0113184D01*
X0180424Y0113305D01*
X0180454Y0113427D01*
X0180479Y0113550D01*
X0180501Y0113674D01*
X0180518Y0113799D01*
X0180532Y0113924D01*
X0180542Y0114049D01*
X0180548Y0114174D01*
X0180550Y0114300D01*
X0188050Y0114300D01*
X0188050Y0014300D01*
X0165050Y0014300D01*
X0165050Y0114300D01*
X0185850Y0089900D02*
X0212250Y0089900D01*
X0212326Y0089898D01*
X0212402Y0089892D01*
X0212477Y0089883D01*
X0212552Y0089869D01*
X0212626Y0089852D01*
X0212699Y0089831D01*
X0212771Y0089807D01*
X0212842Y0089778D01*
X0212911Y0089747D01*
X0212978Y0089712D01*
X0213043Y0089673D01*
X0213107Y0089631D01*
X0213168Y0089586D01*
X0213227Y0089538D01*
X0213283Y0089487D01*
X0213337Y0089433D01*
X0213388Y0089377D01*
X0213436Y0089318D01*
X0213481Y0089257D01*
X0213523Y0089193D01*
X0213562Y0089128D01*
X0213597Y0089061D01*
X0213628Y0088992D01*
X0213657Y0088921D01*
X0213681Y0088849D01*
X0213702Y0088776D01*
X0213719Y0088702D01*
X0213733Y0088627D01*
X0213742Y0088552D01*
X0213748Y0088476D01*
X0213750Y0088400D01*
X0213750Y0040200D01*
X0213748Y0040124D01*
X0213742Y0040048D01*
X0213733Y0039973D01*
X0213719Y0039898D01*
X0213702Y0039824D01*
X0213681Y0039751D01*
X0213657Y0039679D01*
X0213628Y0039608D01*
X0213597Y0039539D01*
X0213562Y0039472D01*
X0213523Y0039407D01*
X0213481Y0039343D01*
X0213436Y0039282D01*
X0213388Y0039223D01*
X0213337Y0039167D01*
X0213283Y0039113D01*
X0213227Y0039062D01*
X0213168Y0039014D01*
X0213107Y0038969D01*
X0213043Y0038927D01*
X0212978Y0038888D01*
X0212911Y0038853D01*
X0212842Y0038822D01*
X0212771Y0038793D01*
X0212699Y0038769D01*
X0212626Y0038748D01*
X0212552Y0038731D01*
X0212477Y0038717D01*
X0212402Y0038708D01*
X0212326Y0038702D01*
X0212250Y0038700D01*
X0185850Y0038700D01*
X0185774Y0038702D01*
X0185698Y0038708D01*
X0185623Y0038717D01*
X0185548Y0038731D01*
X0185474Y0038748D01*
X0185401Y0038769D01*
X0185329Y0038793D01*
X0185258Y0038822D01*
X0185189Y0038853D01*
X0185122Y0038888D01*
X0185057Y0038927D01*
X0184993Y0038969D01*
X0184932Y0039014D01*
X0184873Y0039062D01*
X0184817Y0039113D01*
X0184763Y0039167D01*
X0184712Y0039223D01*
X0184664Y0039282D01*
X0184619Y0039343D01*
X0184577Y0039407D01*
X0184538Y0039472D01*
X0184503Y0039539D01*
X0184472Y0039608D01*
X0184443Y0039679D01*
X0184419Y0039751D01*
X0184398Y0039824D01*
X0184381Y0039898D01*
X0184367Y0039973D01*
X0184358Y0040048D01*
X0184352Y0040124D01*
X0184350Y0040200D01*
X0184350Y0088400D01*
X0184352Y0088476D01*
X0184358Y0088552D01*
X0184367Y0088627D01*
X0184381Y0088702D01*
X0184398Y0088776D01*
X0184419Y0088849D01*
X0184443Y0088921D01*
X0184472Y0088992D01*
X0184503Y0089061D01*
X0184538Y0089128D01*
X0184577Y0089193D01*
X0184619Y0089257D01*
X0184664Y0089318D01*
X0184712Y0089377D01*
X0184763Y0089433D01*
X0184817Y0089487D01*
X0184873Y0089538D01*
X0184932Y0089586D01*
X0184993Y0089631D01*
X0185057Y0089673D01*
X0185122Y0089712D01*
X0185189Y0089747D01*
X0185258Y0089778D01*
X0185329Y0089807D01*
X0185401Y0089831D01*
X0185474Y0089852D01*
X0185548Y0089869D01*
X0185623Y0089883D01*
X0185698Y0089892D01*
X0185774Y0089898D01*
X0185850Y0089900D01*
X0194050Y0089900D02*
X0194052Y0089760D01*
X0194058Y0089620D01*
X0194068Y0089480D01*
X0194081Y0089340D01*
X0194099Y0089201D01*
X0194121Y0089062D01*
X0194146Y0088925D01*
X0194175Y0088787D01*
X0194208Y0088651D01*
X0194245Y0088516D01*
X0194286Y0088382D01*
X0194331Y0088249D01*
X0194379Y0088117D01*
X0194431Y0087987D01*
X0194486Y0087858D01*
X0194545Y0087731D01*
X0194608Y0087605D01*
X0194674Y0087481D01*
X0194743Y0087360D01*
X0194816Y0087240D01*
X0194893Y0087122D01*
X0194972Y0087007D01*
X0195055Y0086893D01*
X0195141Y0086783D01*
X0195230Y0086674D01*
X0195322Y0086568D01*
X0195417Y0086465D01*
X0195514Y0086364D01*
X0195615Y0086267D01*
X0195718Y0086172D01*
X0195824Y0086080D01*
X0195933Y0085991D01*
X0196043Y0085905D01*
X0196157Y0085822D01*
X0196272Y0085743D01*
X0196390Y0085666D01*
X0196510Y0085593D01*
X0196631Y0085524D01*
X0196755Y0085458D01*
X0196881Y0085395D01*
X0197008Y0085336D01*
X0197137Y0085281D01*
X0197267Y0085229D01*
X0197399Y0085181D01*
X0197532Y0085136D01*
X0197666Y0085095D01*
X0197801Y0085058D01*
X0197937Y0085025D01*
X0198075Y0084996D01*
X0198212Y0084971D01*
X0198351Y0084949D01*
X0198490Y0084931D01*
X0198630Y0084918D01*
X0198770Y0084908D01*
X0198910Y0084902D01*
X0199050Y0084900D01*
X0199190Y0084902D01*
X0199330Y0084908D01*
X0199470Y0084918D01*
X0199610Y0084931D01*
X0199749Y0084949D01*
X0199888Y0084971D01*
X0200025Y0084996D01*
X0200163Y0085025D01*
X0200299Y0085058D01*
X0200434Y0085095D01*
X0200568Y0085136D01*
X0200701Y0085181D01*
X0200833Y0085229D01*
X0200963Y0085281D01*
X0201092Y0085336D01*
X0201219Y0085395D01*
X0201345Y0085458D01*
X0201469Y0085524D01*
X0201590Y0085593D01*
X0201710Y0085666D01*
X0201828Y0085743D01*
X0201943Y0085822D01*
X0202057Y0085905D01*
X0202167Y0085991D01*
X0202276Y0086080D01*
X0202382Y0086172D01*
X0202485Y0086267D01*
X0202586Y0086364D01*
X0202683Y0086465D01*
X0202778Y0086568D01*
X0202870Y0086674D01*
X0202959Y0086783D01*
X0203045Y0086893D01*
X0203128Y0087007D01*
X0203207Y0087122D01*
X0203284Y0087240D01*
X0203357Y0087360D01*
X0203426Y0087481D01*
X0203492Y0087605D01*
X0203555Y0087731D01*
X0203614Y0087858D01*
X0203669Y0087987D01*
X0203721Y0088117D01*
X0203769Y0088249D01*
X0203814Y0088382D01*
X0203855Y0088516D01*
X0203892Y0088651D01*
X0203925Y0088787D01*
X0203954Y0088925D01*
X0203979Y0089062D01*
X0204001Y0089201D01*
X0204019Y0089340D01*
X0204032Y0089480D01*
X0204042Y0089620D01*
X0204048Y0089760D01*
X0204050Y0089900D01*
X0211300Y0097300D02*
X0224300Y0097300D01*
X0224387Y0097302D01*
X0224474Y0097308D01*
X0224561Y0097317D01*
X0224647Y0097330D01*
X0224733Y0097347D01*
X0224818Y0097368D01*
X0224901Y0097393D01*
X0224984Y0097421D01*
X0225065Y0097452D01*
X0225145Y0097487D01*
X0225223Y0097526D01*
X0225300Y0097568D01*
X0225375Y0097613D01*
X0225447Y0097662D01*
X0225518Y0097713D01*
X0225586Y0097768D01*
X0225651Y0097825D01*
X0225714Y0097886D01*
X0225775Y0097949D01*
X0225832Y0098014D01*
X0225887Y0098082D01*
X0225938Y0098153D01*
X0225987Y0098225D01*
X0226032Y0098300D01*
X0226074Y0098377D01*
X0226113Y0098455D01*
X0226148Y0098535D01*
X0226179Y0098616D01*
X0226207Y0098699D01*
X0226232Y0098782D01*
X0226253Y0098867D01*
X0226270Y0098953D01*
X0226283Y0099039D01*
X0226292Y0099126D01*
X0226298Y0099213D01*
X0226300Y0099300D01*
X0222800Y0101800D02*
X0219100Y0101800D01*
X0216600Y0101800D02*
X0212800Y0101800D01*
X0209300Y0099300D02*
X0209302Y0099213D01*
X0209308Y0099126D01*
X0209317Y0099039D01*
X0209330Y0098953D01*
X0209347Y0098867D01*
X0209368Y0098782D01*
X0209393Y0098699D01*
X0209421Y0098616D01*
X0209452Y0098535D01*
X0209487Y0098455D01*
X0209526Y0098377D01*
X0209568Y0098300D01*
X0209613Y0098225D01*
X0209662Y0098153D01*
X0209713Y0098082D01*
X0209768Y0098014D01*
X0209825Y0097949D01*
X0209886Y0097886D01*
X0209949Y0097825D01*
X0210014Y0097768D01*
X0210082Y0097713D01*
X0210153Y0097662D01*
X0210225Y0097613D01*
X0210300Y0097568D01*
X0210377Y0097526D01*
X0210455Y0097487D01*
X0210535Y0097452D01*
X0210616Y0097421D01*
X0210699Y0097393D01*
X0210782Y0097368D01*
X0210867Y0097347D01*
X0210953Y0097330D01*
X0211039Y0097317D01*
X0211126Y0097308D01*
X0211213Y0097302D01*
X0211300Y0097300D01*
X0209300Y0104300D02*
X0209302Y0104387D01*
X0209308Y0104474D01*
X0209317Y0104561D01*
X0209330Y0104647D01*
X0209347Y0104733D01*
X0209368Y0104818D01*
X0209393Y0104901D01*
X0209421Y0104984D01*
X0209452Y0105065D01*
X0209487Y0105145D01*
X0209526Y0105223D01*
X0209568Y0105300D01*
X0209613Y0105375D01*
X0209662Y0105447D01*
X0209713Y0105518D01*
X0209768Y0105586D01*
X0209825Y0105651D01*
X0209886Y0105714D01*
X0209949Y0105775D01*
X0210014Y0105832D01*
X0210082Y0105887D01*
X0210153Y0105938D01*
X0210225Y0105987D01*
X0210300Y0106032D01*
X0210377Y0106074D01*
X0210455Y0106113D01*
X0210535Y0106148D01*
X0210616Y0106179D01*
X0210699Y0106207D01*
X0210782Y0106232D01*
X0210867Y0106253D01*
X0210953Y0106270D01*
X0211039Y0106283D01*
X0211126Y0106292D01*
X0211213Y0106298D01*
X0211300Y0106300D01*
X0224300Y0106300D01*
X0224387Y0106298D01*
X0224474Y0106292D01*
X0224561Y0106283D01*
X0224647Y0106270D01*
X0224733Y0106253D01*
X0224818Y0106232D01*
X0224901Y0106207D01*
X0224984Y0106179D01*
X0225065Y0106148D01*
X0225145Y0106113D01*
X0225223Y0106074D01*
X0225300Y0106032D01*
X0225375Y0105987D01*
X0225447Y0105938D01*
X0225518Y0105887D01*
X0225586Y0105832D01*
X0225651Y0105775D01*
X0225714Y0105714D01*
X0225775Y0105651D01*
X0225832Y0105586D01*
X0225887Y0105518D01*
X0225938Y0105447D01*
X0225987Y0105375D01*
X0226032Y0105300D01*
X0226074Y0105223D01*
X0226113Y0105145D01*
X0226148Y0105065D01*
X0226179Y0104984D01*
X0226207Y0104901D01*
X0226232Y0104818D01*
X0226253Y0104733D01*
X0226270Y0104647D01*
X0226283Y0104561D01*
X0226292Y0104474D01*
X0226298Y0104387D01*
X0226300Y0104300D01*
X0240925Y0102300D02*
X0240925Y0096300D01*
X0240927Y0096240D01*
X0240932Y0096179D01*
X0240941Y0096120D01*
X0240954Y0096061D01*
X0240970Y0096002D01*
X0240990Y0095945D01*
X0241013Y0095890D01*
X0241040Y0095835D01*
X0241069Y0095783D01*
X0241102Y0095732D01*
X0241138Y0095683D01*
X0241176Y0095637D01*
X0241218Y0095593D01*
X0241262Y0095551D01*
X0241308Y0095513D01*
X0241357Y0095477D01*
X0241408Y0095444D01*
X0241460Y0095415D01*
X0241515Y0095388D01*
X0241570Y0095365D01*
X0241627Y0095345D01*
X0241686Y0095329D01*
X0241745Y0095316D01*
X0241804Y0095307D01*
X0241865Y0095302D01*
X0241925Y0095300D01*
X0243425Y0095300D01*
X0243925Y0095800D01*
X0257925Y0095800D01*
X0258425Y0095300D01*
X0259925Y0095300D01*
X0259925Y0095800D02*
X0259985Y0095798D01*
X0260046Y0095793D01*
X0260105Y0095784D01*
X0260164Y0095771D01*
X0260223Y0095755D01*
X0260280Y0095735D01*
X0260335Y0095712D01*
X0260390Y0095685D01*
X0260442Y0095656D01*
X0260493Y0095623D01*
X0260542Y0095587D01*
X0260588Y0095549D01*
X0260632Y0095507D01*
X0260674Y0095463D01*
X0260712Y0095417D01*
X0260748Y0095368D01*
X0260781Y0095317D01*
X0260810Y0095265D01*
X0260837Y0095210D01*
X0260860Y0095155D01*
X0260880Y0095098D01*
X0260896Y0095039D01*
X0260909Y0094980D01*
X0260918Y0094921D01*
X0260923Y0094860D01*
X0260925Y0094800D01*
X0260925Y0088800D01*
X0260923Y0088740D01*
X0260918Y0088679D01*
X0260909Y0088620D01*
X0260896Y0088561D01*
X0260880Y0088502D01*
X0260860Y0088445D01*
X0260837Y0088390D01*
X0260810Y0088335D01*
X0260781Y0088283D01*
X0260748Y0088232D01*
X0260712Y0088183D01*
X0260674Y0088137D01*
X0260632Y0088093D01*
X0260588Y0088051D01*
X0260542Y0088013D01*
X0260493Y0087977D01*
X0260442Y0087944D01*
X0260390Y0087915D01*
X0260335Y0087888D01*
X0260280Y0087865D01*
X0260223Y0087845D01*
X0260164Y0087829D01*
X0260105Y0087816D01*
X0260046Y0087807D01*
X0259985Y0087802D01*
X0259925Y0087800D01*
X0258425Y0087800D01*
X0257925Y0088300D01*
X0243925Y0088300D01*
X0243425Y0087800D01*
X0241925Y0087800D01*
X0241925Y0088300D02*
X0243425Y0088300D01*
X0243925Y0087800D01*
X0257925Y0087800D01*
X0258425Y0088300D01*
X0259925Y0088300D01*
X0259985Y0088298D01*
X0260046Y0088293D01*
X0260105Y0088284D01*
X0260164Y0088271D01*
X0260223Y0088255D01*
X0260280Y0088235D01*
X0260335Y0088212D01*
X0260390Y0088185D01*
X0260442Y0088156D01*
X0260493Y0088123D01*
X0260542Y0088087D01*
X0260588Y0088049D01*
X0260632Y0088007D01*
X0260674Y0087963D01*
X0260712Y0087917D01*
X0260748Y0087868D01*
X0260781Y0087817D01*
X0260810Y0087765D01*
X0260837Y0087710D01*
X0260860Y0087655D01*
X0260880Y0087598D01*
X0260896Y0087539D01*
X0260909Y0087480D01*
X0260918Y0087421D01*
X0260923Y0087360D01*
X0260925Y0087300D01*
X0260925Y0081300D01*
X0260923Y0081240D01*
X0260918Y0081179D01*
X0260909Y0081120D01*
X0260896Y0081061D01*
X0260880Y0081002D01*
X0260860Y0080945D01*
X0260837Y0080890D01*
X0260810Y0080835D01*
X0260781Y0080783D01*
X0260748Y0080732D01*
X0260712Y0080683D01*
X0260674Y0080637D01*
X0260632Y0080593D01*
X0260588Y0080551D01*
X0260542Y0080513D01*
X0260493Y0080477D01*
X0260442Y0080444D01*
X0260390Y0080415D01*
X0260335Y0080388D01*
X0260280Y0080365D01*
X0260223Y0080345D01*
X0260164Y0080329D01*
X0260105Y0080316D01*
X0260046Y0080307D01*
X0259985Y0080302D01*
X0259925Y0080300D01*
X0258425Y0080300D01*
X0257925Y0080800D01*
X0243925Y0080800D01*
X0243425Y0080300D01*
X0241925Y0080300D01*
X0241925Y0080800D02*
X0241865Y0080798D01*
X0241804Y0080793D01*
X0241745Y0080784D01*
X0241686Y0080771D01*
X0241627Y0080755D01*
X0241570Y0080735D01*
X0241515Y0080712D01*
X0241460Y0080685D01*
X0241408Y0080656D01*
X0241357Y0080623D01*
X0241308Y0080587D01*
X0241262Y0080549D01*
X0241218Y0080507D01*
X0241176Y0080463D01*
X0241138Y0080417D01*
X0241102Y0080368D01*
X0241069Y0080317D01*
X0241040Y0080265D01*
X0241013Y0080210D01*
X0240990Y0080155D01*
X0240970Y0080098D01*
X0240954Y0080039D01*
X0240941Y0079980D01*
X0240932Y0079921D01*
X0240927Y0079860D01*
X0240925Y0079800D01*
X0240925Y0073800D01*
X0240927Y0073740D01*
X0240932Y0073679D01*
X0240941Y0073620D01*
X0240954Y0073561D01*
X0240970Y0073502D01*
X0240990Y0073445D01*
X0241013Y0073390D01*
X0241040Y0073335D01*
X0241069Y0073283D01*
X0241102Y0073232D01*
X0241138Y0073183D01*
X0241176Y0073137D01*
X0241218Y0073093D01*
X0241262Y0073051D01*
X0241308Y0073013D01*
X0241357Y0072977D01*
X0241408Y0072944D01*
X0241460Y0072915D01*
X0241515Y0072888D01*
X0241570Y0072865D01*
X0241627Y0072845D01*
X0241686Y0072829D01*
X0241745Y0072816D01*
X0241804Y0072807D01*
X0241865Y0072802D01*
X0241925Y0072800D01*
X0243425Y0072800D01*
X0243925Y0073300D01*
X0257925Y0073300D01*
X0258425Y0072800D01*
X0259925Y0072800D01*
X0259925Y0073300D02*
X0259985Y0073298D01*
X0260046Y0073293D01*
X0260105Y0073284D01*
X0260164Y0073271D01*
X0260223Y0073255D01*
X0260280Y0073235D01*
X0260335Y0073212D01*
X0260390Y0073185D01*
X0260442Y0073156D01*
X0260493Y0073123D01*
X0260542Y0073087D01*
X0260588Y0073049D01*
X0260632Y0073007D01*
X0260674Y0072963D01*
X0260712Y0072917D01*
X0260748Y0072868D01*
X0260781Y0072817D01*
X0260810Y0072765D01*
X0260837Y0072710D01*
X0260860Y0072655D01*
X0260880Y0072598D01*
X0260896Y0072539D01*
X0260909Y0072480D01*
X0260918Y0072421D01*
X0260923Y0072360D01*
X0260925Y0072300D01*
X0260925Y0066300D01*
X0260923Y0066240D01*
X0260918Y0066179D01*
X0260909Y0066120D01*
X0260896Y0066061D01*
X0260880Y0066002D01*
X0260860Y0065945D01*
X0260837Y0065890D01*
X0260810Y0065835D01*
X0260781Y0065783D01*
X0260748Y0065732D01*
X0260712Y0065683D01*
X0260674Y0065637D01*
X0260632Y0065593D01*
X0260588Y0065551D01*
X0260542Y0065513D01*
X0260493Y0065477D01*
X0260442Y0065444D01*
X0260390Y0065415D01*
X0260335Y0065388D01*
X0260280Y0065365D01*
X0260223Y0065345D01*
X0260164Y0065329D01*
X0260105Y0065316D01*
X0260046Y0065307D01*
X0259985Y0065302D01*
X0259925Y0065300D01*
X0258425Y0065300D01*
X0257925Y0065800D01*
X0243925Y0065800D01*
X0243425Y0065300D01*
X0241925Y0065300D01*
X0241925Y0065800D02*
X0241865Y0065798D01*
X0241804Y0065793D01*
X0241745Y0065784D01*
X0241686Y0065771D01*
X0241627Y0065755D01*
X0241570Y0065735D01*
X0241515Y0065712D01*
X0241460Y0065685D01*
X0241408Y0065656D01*
X0241357Y0065623D01*
X0241308Y0065587D01*
X0241262Y0065549D01*
X0241218Y0065507D01*
X0241176Y0065463D01*
X0241138Y0065417D01*
X0241102Y0065368D01*
X0241069Y0065317D01*
X0241040Y0065265D01*
X0241013Y0065210D01*
X0240990Y0065155D01*
X0240970Y0065098D01*
X0240954Y0065039D01*
X0240941Y0064980D01*
X0240932Y0064921D01*
X0240927Y0064860D01*
X0240925Y0064800D01*
X0240925Y0058800D01*
X0240927Y0058740D01*
X0240932Y0058679D01*
X0240941Y0058620D01*
X0240954Y0058561D01*
X0240970Y0058502D01*
X0240990Y0058445D01*
X0241013Y0058390D01*
X0241040Y0058335D01*
X0241069Y0058283D01*
X0241102Y0058232D01*
X0241138Y0058183D01*
X0241176Y0058137D01*
X0241218Y0058093D01*
X0241262Y0058051D01*
X0241308Y0058013D01*
X0241357Y0057977D01*
X0241408Y0057944D01*
X0241460Y0057915D01*
X0241515Y0057888D01*
X0241570Y0057865D01*
X0241627Y0057845D01*
X0241686Y0057829D01*
X0241745Y0057816D01*
X0241804Y0057807D01*
X0241865Y0057802D01*
X0241925Y0057800D01*
X0243425Y0057800D01*
X0243925Y0058300D01*
X0257925Y0058300D01*
X0258425Y0057800D01*
X0259925Y0057800D01*
X0259925Y0058300D02*
X0258425Y0058300D01*
X0257925Y0057800D01*
X0243925Y0057800D01*
X0243425Y0058300D01*
X0241925Y0058300D01*
X0241865Y0058298D01*
X0241804Y0058293D01*
X0241745Y0058284D01*
X0241686Y0058271D01*
X0241627Y0058255D01*
X0241570Y0058235D01*
X0241515Y0058212D01*
X0241460Y0058185D01*
X0241408Y0058156D01*
X0241357Y0058123D01*
X0241308Y0058087D01*
X0241262Y0058049D01*
X0241218Y0058007D01*
X0241176Y0057963D01*
X0241138Y0057917D01*
X0241102Y0057868D01*
X0241069Y0057817D01*
X0241040Y0057765D01*
X0241013Y0057710D01*
X0240990Y0057655D01*
X0240970Y0057598D01*
X0240954Y0057539D01*
X0240941Y0057480D01*
X0240932Y0057421D01*
X0240927Y0057360D01*
X0240925Y0057300D01*
X0240925Y0051300D01*
X0240927Y0051240D01*
X0240932Y0051179D01*
X0240941Y0051120D01*
X0240954Y0051061D01*
X0240970Y0051002D01*
X0240990Y0050945D01*
X0241013Y0050890D01*
X0241040Y0050835D01*
X0241069Y0050783D01*
X0241102Y0050732D01*
X0241138Y0050683D01*
X0241176Y0050637D01*
X0241218Y0050593D01*
X0241262Y0050551D01*
X0241308Y0050513D01*
X0241357Y0050477D01*
X0241408Y0050444D01*
X0241460Y0050415D01*
X0241515Y0050388D01*
X0241570Y0050365D01*
X0241627Y0050345D01*
X0241686Y0050329D01*
X0241745Y0050316D01*
X0241804Y0050307D01*
X0241865Y0050302D01*
X0241925Y0050300D01*
X0243425Y0050300D01*
X0243925Y0050800D01*
X0257925Y0050800D01*
X0258425Y0050300D01*
X0259925Y0050300D01*
X0259925Y0050800D02*
X0259985Y0050798D01*
X0260046Y0050793D01*
X0260105Y0050784D01*
X0260164Y0050771D01*
X0260223Y0050755D01*
X0260280Y0050735D01*
X0260335Y0050712D01*
X0260390Y0050685D01*
X0260442Y0050656D01*
X0260493Y0050623D01*
X0260542Y0050587D01*
X0260588Y0050549D01*
X0260632Y0050507D01*
X0260674Y0050463D01*
X0260712Y0050417D01*
X0260748Y0050368D01*
X0260781Y0050317D01*
X0260810Y0050265D01*
X0260837Y0050210D01*
X0260860Y0050155D01*
X0260880Y0050098D01*
X0260896Y0050039D01*
X0260909Y0049980D01*
X0260918Y0049921D01*
X0260923Y0049860D01*
X0260925Y0049800D01*
X0260925Y0043800D01*
X0260923Y0043740D01*
X0260918Y0043679D01*
X0260909Y0043620D01*
X0260896Y0043561D01*
X0260880Y0043502D01*
X0260860Y0043445D01*
X0260837Y0043390D01*
X0260810Y0043335D01*
X0260781Y0043283D01*
X0260748Y0043232D01*
X0260712Y0043183D01*
X0260674Y0043137D01*
X0260632Y0043093D01*
X0260588Y0043051D01*
X0260542Y0043013D01*
X0260493Y0042977D01*
X0260442Y0042944D01*
X0260390Y0042915D01*
X0260335Y0042888D01*
X0260280Y0042865D01*
X0260223Y0042845D01*
X0260164Y0042829D01*
X0260105Y0042816D01*
X0260046Y0042807D01*
X0259985Y0042802D01*
X0259925Y0042800D01*
X0258425Y0042800D01*
X0257925Y0043300D01*
X0243925Y0043300D01*
X0243425Y0042800D01*
X0241925Y0042800D01*
X0241925Y0043300D02*
X0241865Y0043298D01*
X0241804Y0043293D01*
X0241745Y0043284D01*
X0241686Y0043271D01*
X0241627Y0043255D01*
X0241570Y0043235D01*
X0241515Y0043212D01*
X0241460Y0043185D01*
X0241408Y0043156D01*
X0241357Y0043123D01*
X0241308Y0043087D01*
X0241262Y0043049D01*
X0241218Y0043007D01*
X0241176Y0042963D01*
X0241138Y0042917D01*
X0241102Y0042868D01*
X0241069Y0042817D01*
X0241040Y0042765D01*
X0241013Y0042710D01*
X0240990Y0042655D01*
X0240970Y0042598D01*
X0240954Y0042539D01*
X0240941Y0042480D01*
X0240932Y0042421D01*
X0240927Y0042360D01*
X0240925Y0042300D01*
X0240925Y0036300D01*
X0240927Y0036240D01*
X0240932Y0036179D01*
X0240941Y0036120D01*
X0240954Y0036061D01*
X0240970Y0036002D01*
X0240990Y0035945D01*
X0241013Y0035890D01*
X0241040Y0035835D01*
X0241069Y0035783D01*
X0241102Y0035732D01*
X0241138Y0035683D01*
X0241176Y0035637D01*
X0241218Y0035593D01*
X0241262Y0035551D01*
X0241308Y0035513D01*
X0241357Y0035477D01*
X0241408Y0035444D01*
X0241460Y0035415D01*
X0241515Y0035388D01*
X0241570Y0035365D01*
X0241627Y0035345D01*
X0241686Y0035329D01*
X0241745Y0035316D01*
X0241804Y0035307D01*
X0241865Y0035302D01*
X0241925Y0035300D01*
X0243425Y0035300D01*
X0243925Y0035800D01*
X0257925Y0035800D01*
X0258425Y0035300D01*
X0259925Y0035300D01*
X0259925Y0035800D02*
X0259985Y0035798D01*
X0260046Y0035793D01*
X0260105Y0035784D01*
X0260164Y0035771D01*
X0260223Y0035755D01*
X0260280Y0035735D01*
X0260335Y0035712D01*
X0260390Y0035685D01*
X0260442Y0035656D01*
X0260493Y0035623D01*
X0260542Y0035587D01*
X0260588Y0035549D01*
X0260632Y0035507D01*
X0260674Y0035463D01*
X0260712Y0035417D01*
X0260748Y0035368D01*
X0260781Y0035317D01*
X0260810Y0035265D01*
X0260837Y0035210D01*
X0260860Y0035155D01*
X0260880Y0035098D01*
X0260896Y0035039D01*
X0260909Y0034980D01*
X0260918Y0034921D01*
X0260923Y0034860D01*
X0260925Y0034800D01*
X0260925Y0028800D01*
X0260923Y0028740D01*
X0260918Y0028679D01*
X0260909Y0028620D01*
X0260896Y0028561D01*
X0260880Y0028502D01*
X0260860Y0028445D01*
X0260837Y0028390D01*
X0260810Y0028335D01*
X0260781Y0028283D01*
X0260748Y0028232D01*
X0260712Y0028183D01*
X0260674Y0028137D01*
X0260632Y0028093D01*
X0260588Y0028051D01*
X0260542Y0028013D01*
X0260493Y0027977D01*
X0260442Y0027944D01*
X0260390Y0027915D01*
X0260335Y0027888D01*
X0260280Y0027865D01*
X0260223Y0027845D01*
X0260164Y0027829D01*
X0260105Y0027816D01*
X0260046Y0027807D01*
X0259985Y0027802D01*
X0259925Y0027800D01*
X0258425Y0027800D01*
X0257925Y0028300D01*
X0243925Y0028300D01*
X0243425Y0027800D01*
X0241925Y0027800D01*
X0241865Y0027802D01*
X0241804Y0027807D01*
X0241745Y0027816D01*
X0241686Y0027829D01*
X0241627Y0027845D01*
X0241570Y0027865D01*
X0241515Y0027888D01*
X0241460Y0027915D01*
X0241408Y0027944D01*
X0241357Y0027977D01*
X0241308Y0028013D01*
X0241262Y0028051D01*
X0241218Y0028093D01*
X0241176Y0028137D01*
X0241138Y0028183D01*
X0241102Y0028232D01*
X0241069Y0028283D01*
X0241040Y0028335D01*
X0241013Y0028390D01*
X0240990Y0028445D01*
X0240970Y0028502D01*
X0240954Y0028561D01*
X0240941Y0028620D01*
X0240932Y0028679D01*
X0240927Y0028740D01*
X0240925Y0028800D01*
X0240925Y0034800D01*
X0240927Y0034860D01*
X0240932Y0034921D01*
X0240941Y0034980D01*
X0240954Y0035039D01*
X0240970Y0035098D01*
X0240990Y0035155D01*
X0241013Y0035210D01*
X0241040Y0035265D01*
X0241069Y0035317D01*
X0241102Y0035368D01*
X0241138Y0035417D01*
X0241176Y0035463D01*
X0241218Y0035507D01*
X0241262Y0035549D01*
X0241308Y0035587D01*
X0241357Y0035623D01*
X0241408Y0035656D01*
X0241460Y0035685D01*
X0241515Y0035712D01*
X0241570Y0035735D01*
X0241627Y0035755D01*
X0241686Y0035771D01*
X0241745Y0035784D01*
X0241804Y0035793D01*
X0241865Y0035798D01*
X0241925Y0035800D01*
X0243425Y0035800D01*
X0243925Y0035300D01*
X0257925Y0035300D01*
X0258425Y0035800D01*
X0259925Y0035800D01*
X0259925Y0035300D02*
X0259985Y0035302D01*
X0260046Y0035307D01*
X0260105Y0035316D01*
X0260164Y0035329D01*
X0260223Y0035345D01*
X0260280Y0035365D01*
X0260335Y0035388D01*
X0260390Y0035415D01*
X0260442Y0035444D01*
X0260493Y0035477D01*
X0260542Y0035513D01*
X0260588Y0035551D01*
X0260632Y0035593D01*
X0260674Y0035637D01*
X0260712Y0035683D01*
X0260748Y0035732D01*
X0260781Y0035783D01*
X0260810Y0035835D01*
X0260837Y0035890D01*
X0260860Y0035945D01*
X0260880Y0036002D01*
X0260896Y0036061D01*
X0260909Y0036120D01*
X0260918Y0036179D01*
X0260923Y0036240D01*
X0260925Y0036300D01*
X0260925Y0042300D01*
X0260923Y0042360D01*
X0260918Y0042421D01*
X0260909Y0042480D01*
X0260896Y0042539D01*
X0260880Y0042598D01*
X0260860Y0042655D01*
X0260837Y0042710D01*
X0260810Y0042765D01*
X0260781Y0042817D01*
X0260748Y0042868D01*
X0260712Y0042917D01*
X0260674Y0042963D01*
X0260632Y0043007D01*
X0260588Y0043049D01*
X0260542Y0043087D01*
X0260493Y0043123D01*
X0260442Y0043156D01*
X0260390Y0043185D01*
X0260335Y0043212D01*
X0260280Y0043235D01*
X0260223Y0043255D01*
X0260164Y0043271D01*
X0260105Y0043284D01*
X0260046Y0043293D01*
X0259985Y0043298D01*
X0259925Y0043300D01*
X0258425Y0043300D01*
X0257925Y0042800D01*
X0243925Y0042800D01*
X0243425Y0043300D01*
X0241925Y0043300D01*
X0241925Y0042800D02*
X0241865Y0042802D01*
X0241804Y0042807D01*
X0241745Y0042816D01*
X0241686Y0042829D01*
X0241627Y0042845D01*
X0241570Y0042865D01*
X0241515Y0042888D01*
X0241460Y0042915D01*
X0241408Y0042944D01*
X0241357Y0042977D01*
X0241308Y0043013D01*
X0241262Y0043051D01*
X0241218Y0043093D01*
X0241176Y0043137D01*
X0241138Y0043183D01*
X0241102Y0043232D01*
X0241069Y0043283D01*
X0241040Y0043335D01*
X0241013Y0043390D01*
X0240990Y0043445D01*
X0240970Y0043502D01*
X0240954Y0043561D01*
X0240941Y0043620D01*
X0240932Y0043679D01*
X0240927Y0043740D01*
X0240925Y0043800D01*
X0240925Y0049800D01*
X0240927Y0049860D01*
X0240932Y0049921D01*
X0240941Y0049980D01*
X0240954Y0050039D01*
X0240970Y0050098D01*
X0240990Y0050155D01*
X0241013Y0050210D01*
X0241040Y0050265D01*
X0241069Y0050317D01*
X0241102Y0050368D01*
X0241138Y0050417D01*
X0241176Y0050463D01*
X0241218Y0050507D01*
X0241262Y0050549D01*
X0241308Y0050587D01*
X0241357Y0050623D01*
X0241408Y0050656D01*
X0241460Y0050685D01*
X0241515Y0050712D01*
X0241570Y0050735D01*
X0241627Y0050755D01*
X0241686Y0050771D01*
X0241745Y0050784D01*
X0241804Y0050793D01*
X0241865Y0050798D01*
X0241925Y0050800D01*
X0243425Y0050800D01*
X0243925Y0050300D01*
X0257925Y0050300D01*
X0258425Y0050800D01*
X0259925Y0050800D01*
X0259925Y0050300D02*
X0259985Y0050302D01*
X0260046Y0050307D01*
X0260105Y0050316D01*
X0260164Y0050329D01*
X0260223Y0050345D01*
X0260280Y0050365D01*
X0260335Y0050388D01*
X0260390Y0050415D01*
X0260442Y0050444D01*
X0260493Y0050477D01*
X0260542Y0050513D01*
X0260588Y0050551D01*
X0260632Y0050593D01*
X0260674Y0050637D01*
X0260712Y0050683D01*
X0260748Y0050732D01*
X0260781Y0050783D01*
X0260810Y0050835D01*
X0260837Y0050890D01*
X0260860Y0050945D01*
X0260880Y0051002D01*
X0260896Y0051061D01*
X0260909Y0051120D01*
X0260918Y0051179D01*
X0260923Y0051240D01*
X0260925Y0051300D01*
X0260925Y0057300D01*
X0260923Y0057360D01*
X0260918Y0057421D01*
X0260909Y0057480D01*
X0260896Y0057539D01*
X0260880Y0057598D01*
X0260860Y0057655D01*
X0260837Y0057710D01*
X0260810Y0057765D01*
X0260781Y0057817D01*
X0260748Y0057868D01*
X0260712Y0057917D01*
X0260674Y0057963D01*
X0260632Y0058007D01*
X0260588Y0058049D01*
X0260542Y0058087D01*
X0260493Y0058123D01*
X0260442Y0058156D01*
X0260390Y0058185D01*
X0260335Y0058212D01*
X0260280Y0058235D01*
X0260223Y0058255D01*
X0260164Y0058271D01*
X0260105Y0058284D01*
X0260046Y0058293D01*
X0259985Y0058298D01*
X0259925Y0058300D01*
X0259925Y0057800D02*
X0259985Y0057802D01*
X0260046Y0057807D01*
X0260105Y0057816D01*
X0260164Y0057829D01*
X0260223Y0057845D01*
X0260280Y0057865D01*
X0260335Y0057888D01*
X0260390Y0057915D01*
X0260442Y0057944D01*
X0260493Y0057977D01*
X0260542Y0058013D01*
X0260588Y0058051D01*
X0260632Y0058093D01*
X0260674Y0058137D01*
X0260712Y0058183D01*
X0260748Y0058232D01*
X0260781Y0058283D01*
X0260810Y0058335D01*
X0260837Y0058390D01*
X0260860Y0058445D01*
X0260880Y0058502D01*
X0260896Y0058561D01*
X0260909Y0058620D01*
X0260918Y0058679D01*
X0260923Y0058740D01*
X0260925Y0058800D01*
X0260925Y0064800D01*
X0260923Y0064860D01*
X0260918Y0064921D01*
X0260909Y0064980D01*
X0260896Y0065039D01*
X0260880Y0065098D01*
X0260860Y0065155D01*
X0260837Y0065210D01*
X0260810Y0065265D01*
X0260781Y0065317D01*
X0260748Y0065368D01*
X0260712Y0065417D01*
X0260674Y0065463D01*
X0260632Y0065507D01*
X0260588Y0065549D01*
X0260542Y0065587D01*
X0260493Y0065623D01*
X0260442Y0065656D01*
X0260390Y0065685D01*
X0260335Y0065712D01*
X0260280Y0065735D01*
X0260223Y0065755D01*
X0260164Y0065771D01*
X0260105Y0065784D01*
X0260046Y0065793D01*
X0259985Y0065798D01*
X0259925Y0065800D01*
X0258425Y0065800D01*
X0257925Y0065300D01*
X0243925Y0065300D01*
X0243425Y0065800D01*
X0241925Y0065800D01*
X0241925Y0065300D02*
X0241865Y0065302D01*
X0241804Y0065307D01*
X0241745Y0065316D01*
X0241686Y0065329D01*
X0241627Y0065345D01*
X0241570Y0065365D01*
X0241515Y0065388D01*
X0241460Y0065415D01*
X0241408Y0065444D01*
X0241357Y0065477D01*
X0241308Y0065513D01*
X0241262Y0065551D01*
X0241218Y0065593D01*
X0241176Y0065637D01*
X0241138Y0065683D01*
X0241102Y0065732D01*
X0241069Y0065783D01*
X0241040Y0065835D01*
X0241013Y0065890D01*
X0240990Y0065945D01*
X0240970Y0066002D01*
X0240954Y0066061D01*
X0240941Y0066120D01*
X0240932Y0066179D01*
X0240927Y0066240D01*
X0240925Y0066300D01*
X0240925Y0072300D01*
X0240927Y0072360D01*
X0240932Y0072421D01*
X0240941Y0072480D01*
X0240954Y0072539D01*
X0240970Y0072598D01*
X0240990Y0072655D01*
X0241013Y0072710D01*
X0241040Y0072765D01*
X0241069Y0072817D01*
X0241102Y0072868D01*
X0241138Y0072917D01*
X0241176Y0072963D01*
X0241218Y0073007D01*
X0241262Y0073049D01*
X0241308Y0073087D01*
X0241357Y0073123D01*
X0241408Y0073156D01*
X0241460Y0073185D01*
X0241515Y0073212D01*
X0241570Y0073235D01*
X0241627Y0073255D01*
X0241686Y0073271D01*
X0241745Y0073284D01*
X0241804Y0073293D01*
X0241865Y0073298D01*
X0241925Y0073300D01*
X0243425Y0073300D01*
X0243925Y0072800D01*
X0257925Y0072800D01*
X0258425Y0073300D01*
X0259925Y0073300D01*
X0259925Y0072800D02*
X0259985Y0072802D01*
X0260046Y0072807D01*
X0260105Y0072816D01*
X0260164Y0072829D01*
X0260223Y0072845D01*
X0260280Y0072865D01*
X0260335Y0072888D01*
X0260390Y0072915D01*
X0260442Y0072944D01*
X0260493Y0072977D01*
X0260542Y0073013D01*
X0260588Y0073051D01*
X0260632Y0073093D01*
X0260674Y0073137D01*
X0260712Y0073183D01*
X0260748Y0073232D01*
X0260781Y0073283D01*
X0260810Y0073335D01*
X0260837Y0073390D01*
X0260860Y0073445D01*
X0260880Y0073502D01*
X0260896Y0073561D01*
X0260909Y0073620D01*
X0260918Y0073679D01*
X0260923Y0073740D01*
X0260925Y0073800D01*
X0260925Y0079800D01*
X0260923Y0079860D01*
X0260918Y0079921D01*
X0260909Y0079980D01*
X0260896Y0080039D01*
X0260880Y0080098D01*
X0260860Y0080155D01*
X0260837Y0080210D01*
X0260810Y0080265D01*
X0260781Y0080317D01*
X0260748Y0080368D01*
X0260712Y0080417D01*
X0260674Y0080463D01*
X0260632Y0080507D01*
X0260588Y0080549D01*
X0260542Y0080587D01*
X0260493Y0080623D01*
X0260442Y0080656D01*
X0260390Y0080685D01*
X0260335Y0080712D01*
X0260280Y0080735D01*
X0260223Y0080755D01*
X0260164Y0080771D01*
X0260105Y0080784D01*
X0260046Y0080793D01*
X0259985Y0080798D01*
X0259925Y0080800D01*
X0258425Y0080800D01*
X0257925Y0080300D01*
X0243925Y0080300D01*
X0243425Y0080800D01*
X0241925Y0080800D01*
X0241925Y0080300D02*
X0241865Y0080302D01*
X0241804Y0080307D01*
X0241745Y0080316D01*
X0241686Y0080329D01*
X0241627Y0080345D01*
X0241570Y0080365D01*
X0241515Y0080388D01*
X0241460Y0080415D01*
X0241408Y0080444D01*
X0241357Y0080477D01*
X0241308Y0080513D01*
X0241262Y0080551D01*
X0241218Y0080593D01*
X0241176Y0080637D01*
X0241138Y0080683D01*
X0241102Y0080732D01*
X0241069Y0080783D01*
X0241040Y0080835D01*
X0241013Y0080890D01*
X0240990Y0080945D01*
X0240970Y0081002D01*
X0240954Y0081061D01*
X0240941Y0081120D01*
X0240932Y0081179D01*
X0240927Y0081240D01*
X0240925Y0081300D01*
X0240925Y0087300D01*
X0240927Y0087360D01*
X0240932Y0087421D01*
X0240941Y0087480D01*
X0240954Y0087539D01*
X0240970Y0087598D01*
X0240990Y0087655D01*
X0241013Y0087710D01*
X0241040Y0087765D01*
X0241069Y0087817D01*
X0241102Y0087868D01*
X0241138Y0087917D01*
X0241176Y0087963D01*
X0241218Y0088007D01*
X0241262Y0088049D01*
X0241308Y0088087D01*
X0241357Y0088123D01*
X0241408Y0088156D01*
X0241460Y0088185D01*
X0241515Y0088212D01*
X0241570Y0088235D01*
X0241627Y0088255D01*
X0241686Y0088271D01*
X0241745Y0088284D01*
X0241804Y0088293D01*
X0241865Y0088298D01*
X0241925Y0088300D01*
X0241925Y0087800D02*
X0241865Y0087802D01*
X0241804Y0087807D01*
X0241745Y0087816D01*
X0241686Y0087829D01*
X0241627Y0087845D01*
X0241570Y0087865D01*
X0241515Y0087888D01*
X0241460Y0087915D01*
X0241408Y0087944D01*
X0241357Y0087977D01*
X0241308Y0088013D01*
X0241262Y0088051D01*
X0241218Y0088093D01*
X0241176Y0088137D01*
X0241138Y0088183D01*
X0241102Y0088232D01*
X0241069Y0088283D01*
X0241040Y0088335D01*
X0241013Y0088390D01*
X0240990Y0088445D01*
X0240970Y0088502D01*
X0240954Y0088561D01*
X0240941Y0088620D01*
X0240932Y0088679D01*
X0240927Y0088740D01*
X0240925Y0088800D01*
X0240925Y0094800D01*
X0240927Y0094860D01*
X0240932Y0094921D01*
X0240941Y0094980D01*
X0240954Y0095039D01*
X0240970Y0095098D01*
X0240990Y0095155D01*
X0241013Y0095210D01*
X0241040Y0095265D01*
X0241069Y0095317D01*
X0241102Y0095368D01*
X0241138Y0095417D01*
X0241176Y0095463D01*
X0241218Y0095507D01*
X0241262Y0095549D01*
X0241308Y0095587D01*
X0241357Y0095623D01*
X0241408Y0095656D01*
X0241460Y0095685D01*
X0241515Y0095712D01*
X0241570Y0095735D01*
X0241627Y0095755D01*
X0241686Y0095771D01*
X0241745Y0095784D01*
X0241804Y0095793D01*
X0241865Y0095798D01*
X0241925Y0095800D01*
X0243425Y0095800D01*
X0243925Y0095300D01*
X0257925Y0095300D01*
X0258425Y0095800D01*
X0259925Y0095800D01*
X0259925Y0095300D02*
X0259985Y0095302D01*
X0260046Y0095307D01*
X0260105Y0095316D01*
X0260164Y0095329D01*
X0260223Y0095345D01*
X0260280Y0095365D01*
X0260335Y0095388D01*
X0260390Y0095415D01*
X0260442Y0095444D01*
X0260493Y0095477D01*
X0260542Y0095513D01*
X0260588Y0095551D01*
X0260632Y0095593D01*
X0260674Y0095637D01*
X0260712Y0095683D01*
X0260748Y0095732D01*
X0260781Y0095783D01*
X0260810Y0095835D01*
X0260837Y0095890D01*
X0260860Y0095945D01*
X0260880Y0096002D01*
X0260896Y0096061D01*
X0260909Y0096120D01*
X0260918Y0096179D01*
X0260923Y0096240D01*
X0260925Y0096300D01*
X0260925Y0102300D01*
X0260923Y0102360D01*
X0260918Y0102421D01*
X0260909Y0102480D01*
X0260896Y0102539D01*
X0260880Y0102598D01*
X0260860Y0102655D01*
X0260837Y0102710D01*
X0260810Y0102765D01*
X0260781Y0102817D01*
X0260748Y0102868D01*
X0260712Y0102917D01*
X0260674Y0102963D01*
X0260632Y0103007D01*
X0260588Y0103049D01*
X0260542Y0103087D01*
X0260493Y0103123D01*
X0260442Y0103156D01*
X0260390Y0103185D01*
X0260335Y0103212D01*
X0260280Y0103235D01*
X0260223Y0103255D01*
X0260164Y0103271D01*
X0260105Y0103284D01*
X0260046Y0103293D01*
X0259985Y0103298D01*
X0259925Y0103300D01*
X0258425Y0103300D01*
X0257925Y0102800D01*
X0243925Y0102800D01*
X0243425Y0103300D01*
X0241925Y0103300D01*
X0241865Y0103298D01*
X0241804Y0103293D01*
X0241745Y0103284D01*
X0241686Y0103271D01*
X0241627Y0103255D01*
X0241570Y0103235D01*
X0241515Y0103212D01*
X0241460Y0103185D01*
X0241408Y0103156D01*
X0241357Y0103123D01*
X0241308Y0103087D01*
X0241262Y0103049D01*
X0241218Y0103007D01*
X0241176Y0102963D01*
X0241138Y0102917D01*
X0241102Y0102868D01*
X0241069Y0102817D01*
X0241040Y0102765D01*
X0241013Y0102710D01*
X0240990Y0102655D01*
X0240970Y0102598D01*
X0240954Y0102539D01*
X0240941Y0102480D01*
X0240932Y0102421D01*
X0240927Y0102360D01*
X0240925Y0102300D01*
X0241925Y0139050D02*
X0243425Y0139050D01*
X0243925Y0139550D01*
X0257925Y0139550D01*
X0258425Y0139050D01*
X0259925Y0139050D01*
X0259985Y0139052D01*
X0260046Y0139057D01*
X0260105Y0139066D01*
X0260164Y0139079D01*
X0260223Y0139095D01*
X0260280Y0139115D01*
X0260335Y0139138D01*
X0260390Y0139165D01*
X0260442Y0139194D01*
X0260493Y0139227D01*
X0260542Y0139263D01*
X0260588Y0139301D01*
X0260632Y0139343D01*
X0260674Y0139387D01*
X0260712Y0139433D01*
X0260748Y0139482D01*
X0260781Y0139533D01*
X0260810Y0139585D01*
X0260837Y0139640D01*
X0260860Y0139695D01*
X0260880Y0139752D01*
X0260896Y0139811D01*
X0260909Y0139870D01*
X0260918Y0139929D01*
X0260923Y0139990D01*
X0260925Y0140050D01*
X0260925Y0146050D01*
X0260923Y0146110D01*
X0260918Y0146171D01*
X0260909Y0146230D01*
X0260896Y0146289D01*
X0260880Y0146348D01*
X0260860Y0146405D01*
X0260837Y0146460D01*
X0260810Y0146515D01*
X0260781Y0146567D01*
X0260748Y0146618D01*
X0260712Y0146667D01*
X0260674Y0146713D01*
X0260632Y0146757D01*
X0260588Y0146799D01*
X0260542Y0146837D01*
X0260493Y0146873D01*
X0260442Y0146906D01*
X0260390Y0146935D01*
X0260335Y0146962D01*
X0260280Y0146985D01*
X0260223Y0147005D01*
X0260164Y0147021D01*
X0260105Y0147034D01*
X0260046Y0147043D01*
X0259985Y0147048D01*
X0259925Y0147050D01*
X0258425Y0147050D01*
X0257925Y0146550D01*
X0243925Y0146550D01*
X0243425Y0147050D01*
X0241925Y0147050D01*
X0241925Y0146550D02*
X0243425Y0146550D01*
X0243925Y0147050D01*
X0257925Y0147050D01*
X0258425Y0146550D01*
X0259925Y0146550D01*
X0259985Y0146552D01*
X0260046Y0146557D01*
X0260105Y0146566D01*
X0260164Y0146579D01*
X0260223Y0146595D01*
X0260280Y0146615D01*
X0260335Y0146638D01*
X0260390Y0146665D01*
X0260442Y0146694D01*
X0260493Y0146727D01*
X0260542Y0146763D01*
X0260588Y0146801D01*
X0260632Y0146843D01*
X0260674Y0146887D01*
X0260712Y0146933D01*
X0260748Y0146982D01*
X0260781Y0147033D01*
X0260810Y0147085D01*
X0260837Y0147140D01*
X0260860Y0147195D01*
X0260880Y0147252D01*
X0260896Y0147311D01*
X0260909Y0147370D01*
X0260918Y0147429D01*
X0260923Y0147490D01*
X0260925Y0147550D01*
X0260925Y0153550D01*
X0260923Y0153610D01*
X0260918Y0153671D01*
X0260909Y0153730D01*
X0260896Y0153789D01*
X0260880Y0153848D01*
X0260860Y0153905D01*
X0260837Y0153960D01*
X0260810Y0154015D01*
X0260781Y0154067D01*
X0260748Y0154118D01*
X0260712Y0154167D01*
X0260674Y0154213D01*
X0260632Y0154257D01*
X0260588Y0154299D01*
X0260542Y0154337D01*
X0260493Y0154373D01*
X0260442Y0154406D01*
X0260390Y0154435D01*
X0260335Y0154462D01*
X0260280Y0154485D01*
X0260223Y0154505D01*
X0260164Y0154521D01*
X0260105Y0154534D01*
X0260046Y0154543D01*
X0259985Y0154548D01*
X0259925Y0154550D01*
X0258425Y0154550D01*
X0257925Y0154050D01*
X0243925Y0154050D01*
X0243425Y0154550D01*
X0241925Y0154550D01*
X0241925Y0154050D02*
X0241865Y0154052D01*
X0241804Y0154057D01*
X0241745Y0154066D01*
X0241686Y0154079D01*
X0241627Y0154095D01*
X0241570Y0154115D01*
X0241515Y0154138D01*
X0241460Y0154165D01*
X0241408Y0154194D01*
X0241357Y0154227D01*
X0241308Y0154263D01*
X0241262Y0154301D01*
X0241218Y0154343D01*
X0241176Y0154387D01*
X0241138Y0154433D01*
X0241102Y0154482D01*
X0241069Y0154533D01*
X0241040Y0154585D01*
X0241013Y0154640D01*
X0240990Y0154695D01*
X0240970Y0154752D01*
X0240954Y0154811D01*
X0240941Y0154870D01*
X0240932Y0154929D01*
X0240927Y0154990D01*
X0240925Y0155050D01*
X0240925Y0161050D01*
X0240927Y0161110D01*
X0240932Y0161171D01*
X0240941Y0161230D01*
X0240954Y0161289D01*
X0240970Y0161348D01*
X0240990Y0161405D01*
X0241013Y0161460D01*
X0241040Y0161515D01*
X0241069Y0161567D01*
X0241102Y0161618D01*
X0241138Y0161667D01*
X0241176Y0161713D01*
X0241218Y0161757D01*
X0241262Y0161799D01*
X0241308Y0161837D01*
X0241357Y0161873D01*
X0241408Y0161906D01*
X0241460Y0161935D01*
X0241515Y0161962D01*
X0241570Y0161985D01*
X0241627Y0162005D01*
X0241686Y0162021D01*
X0241745Y0162034D01*
X0241804Y0162043D01*
X0241865Y0162048D01*
X0241925Y0162050D01*
X0243425Y0162050D01*
X0243925Y0161550D01*
X0257925Y0161550D01*
X0258425Y0162050D01*
X0259925Y0162050D01*
X0259925Y0161550D02*
X0259985Y0161552D01*
X0260046Y0161557D01*
X0260105Y0161566D01*
X0260164Y0161579D01*
X0260223Y0161595D01*
X0260280Y0161615D01*
X0260335Y0161638D01*
X0260390Y0161665D01*
X0260442Y0161694D01*
X0260493Y0161727D01*
X0260542Y0161763D01*
X0260588Y0161801D01*
X0260632Y0161843D01*
X0260674Y0161887D01*
X0260712Y0161933D01*
X0260748Y0161982D01*
X0260781Y0162033D01*
X0260810Y0162085D01*
X0260837Y0162140D01*
X0260860Y0162195D01*
X0260880Y0162252D01*
X0260896Y0162311D01*
X0260909Y0162370D01*
X0260918Y0162429D01*
X0260923Y0162490D01*
X0260925Y0162550D01*
X0260925Y0168550D01*
X0260923Y0168610D01*
X0260918Y0168671D01*
X0260909Y0168730D01*
X0260896Y0168789D01*
X0260880Y0168848D01*
X0260860Y0168905D01*
X0260837Y0168960D01*
X0260810Y0169015D01*
X0260781Y0169067D01*
X0260748Y0169118D01*
X0260712Y0169167D01*
X0260674Y0169213D01*
X0260632Y0169257D01*
X0260588Y0169299D01*
X0260542Y0169337D01*
X0260493Y0169373D01*
X0260442Y0169406D01*
X0260390Y0169435D01*
X0260335Y0169462D01*
X0260280Y0169485D01*
X0260223Y0169505D01*
X0260164Y0169521D01*
X0260105Y0169534D01*
X0260046Y0169543D01*
X0259985Y0169548D01*
X0259925Y0169550D01*
X0258425Y0169550D01*
X0257925Y0169050D01*
X0243925Y0169050D01*
X0243425Y0169550D01*
X0241925Y0169550D01*
X0241925Y0169050D02*
X0241865Y0169052D01*
X0241804Y0169057D01*
X0241745Y0169066D01*
X0241686Y0169079D01*
X0241627Y0169095D01*
X0241570Y0169115D01*
X0241515Y0169138D01*
X0241460Y0169165D01*
X0241408Y0169194D01*
X0241357Y0169227D01*
X0241308Y0169263D01*
X0241262Y0169301D01*
X0241218Y0169343D01*
X0241176Y0169387D01*
X0241138Y0169433D01*
X0241102Y0169482D01*
X0241069Y0169533D01*
X0241040Y0169585D01*
X0241013Y0169640D01*
X0240990Y0169695D01*
X0240970Y0169752D01*
X0240954Y0169811D01*
X0240941Y0169870D01*
X0240932Y0169929D01*
X0240927Y0169990D01*
X0240925Y0170050D01*
X0240925Y0176050D01*
X0240927Y0176110D01*
X0240932Y0176171D01*
X0240941Y0176230D01*
X0240954Y0176289D01*
X0240970Y0176348D01*
X0240990Y0176405D01*
X0241013Y0176460D01*
X0241040Y0176515D01*
X0241069Y0176567D01*
X0241102Y0176618D01*
X0241138Y0176667D01*
X0241176Y0176713D01*
X0241218Y0176757D01*
X0241262Y0176799D01*
X0241308Y0176837D01*
X0241357Y0176873D01*
X0241408Y0176906D01*
X0241460Y0176935D01*
X0241515Y0176962D01*
X0241570Y0176985D01*
X0241627Y0177005D01*
X0241686Y0177021D01*
X0241745Y0177034D01*
X0241804Y0177043D01*
X0241865Y0177048D01*
X0241925Y0177050D01*
X0243425Y0177050D01*
X0243925Y0176550D01*
X0257925Y0176550D01*
X0258425Y0177050D01*
X0259925Y0177050D01*
X0259925Y0176550D02*
X0259985Y0176552D01*
X0260046Y0176557D01*
X0260105Y0176566D01*
X0260164Y0176579D01*
X0260223Y0176595D01*
X0260280Y0176615D01*
X0260335Y0176638D01*
X0260390Y0176665D01*
X0260442Y0176694D01*
X0260493Y0176727D01*
X0260542Y0176763D01*
X0260588Y0176801D01*
X0260632Y0176843D01*
X0260674Y0176887D01*
X0260712Y0176933D01*
X0260748Y0176982D01*
X0260781Y0177033D01*
X0260810Y0177085D01*
X0260837Y0177140D01*
X0260860Y0177195D01*
X0260880Y0177252D01*
X0260896Y0177311D01*
X0260909Y0177370D01*
X0260918Y0177429D01*
X0260923Y0177490D01*
X0260925Y0177550D01*
X0260925Y0183550D01*
X0260923Y0183610D01*
X0260918Y0183671D01*
X0260909Y0183730D01*
X0260896Y0183789D01*
X0260880Y0183848D01*
X0260860Y0183905D01*
X0260837Y0183960D01*
X0260810Y0184015D01*
X0260781Y0184067D01*
X0260748Y0184118D01*
X0260712Y0184167D01*
X0260674Y0184213D01*
X0260632Y0184257D01*
X0260588Y0184299D01*
X0260542Y0184337D01*
X0260493Y0184373D01*
X0260442Y0184406D01*
X0260390Y0184435D01*
X0260335Y0184462D01*
X0260280Y0184485D01*
X0260223Y0184505D01*
X0260164Y0184521D01*
X0260105Y0184534D01*
X0260046Y0184543D01*
X0259985Y0184548D01*
X0259925Y0184550D01*
X0258425Y0184550D01*
X0257925Y0184050D01*
X0243925Y0184050D01*
X0243425Y0184550D01*
X0241925Y0184550D01*
X0241925Y0184050D02*
X0241865Y0184052D01*
X0241804Y0184057D01*
X0241745Y0184066D01*
X0241686Y0184079D01*
X0241627Y0184095D01*
X0241570Y0184115D01*
X0241515Y0184138D01*
X0241460Y0184165D01*
X0241408Y0184194D01*
X0241357Y0184227D01*
X0241308Y0184263D01*
X0241262Y0184301D01*
X0241218Y0184343D01*
X0241176Y0184387D01*
X0241138Y0184433D01*
X0241102Y0184482D01*
X0241069Y0184533D01*
X0241040Y0184585D01*
X0241013Y0184640D01*
X0240990Y0184695D01*
X0240970Y0184752D01*
X0240954Y0184811D01*
X0240941Y0184870D01*
X0240932Y0184929D01*
X0240927Y0184990D01*
X0240925Y0185050D01*
X0240925Y0191050D01*
X0240927Y0191110D01*
X0240932Y0191171D01*
X0240941Y0191230D01*
X0240954Y0191289D01*
X0240970Y0191348D01*
X0240990Y0191405D01*
X0241013Y0191460D01*
X0241040Y0191515D01*
X0241069Y0191567D01*
X0241102Y0191618D01*
X0241138Y0191667D01*
X0241176Y0191713D01*
X0241218Y0191757D01*
X0241262Y0191799D01*
X0241308Y0191837D01*
X0241357Y0191873D01*
X0241408Y0191906D01*
X0241460Y0191935D01*
X0241515Y0191962D01*
X0241570Y0191985D01*
X0241627Y0192005D01*
X0241686Y0192021D01*
X0241745Y0192034D01*
X0241804Y0192043D01*
X0241865Y0192048D01*
X0241925Y0192050D01*
X0243425Y0192050D01*
X0243925Y0191550D01*
X0257925Y0191550D01*
X0258425Y0192050D01*
X0259925Y0192050D01*
X0259925Y0191550D02*
X0259985Y0191552D01*
X0260046Y0191557D01*
X0260105Y0191566D01*
X0260164Y0191579D01*
X0260223Y0191595D01*
X0260280Y0191615D01*
X0260335Y0191638D01*
X0260390Y0191665D01*
X0260442Y0191694D01*
X0260493Y0191727D01*
X0260542Y0191763D01*
X0260588Y0191801D01*
X0260632Y0191843D01*
X0260674Y0191887D01*
X0260712Y0191933D01*
X0260748Y0191982D01*
X0260781Y0192033D01*
X0260810Y0192085D01*
X0260837Y0192140D01*
X0260860Y0192195D01*
X0260880Y0192252D01*
X0260896Y0192311D01*
X0260909Y0192370D01*
X0260918Y0192429D01*
X0260923Y0192490D01*
X0260925Y0192550D01*
X0260925Y0198550D01*
X0260923Y0198610D01*
X0260918Y0198671D01*
X0260909Y0198730D01*
X0260896Y0198789D01*
X0260880Y0198848D01*
X0260860Y0198905D01*
X0260837Y0198960D01*
X0260810Y0199015D01*
X0260781Y0199067D01*
X0260748Y0199118D01*
X0260712Y0199167D01*
X0260674Y0199213D01*
X0260632Y0199257D01*
X0260588Y0199299D01*
X0260542Y0199337D01*
X0260493Y0199373D01*
X0260442Y0199406D01*
X0260390Y0199435D01*
X0260335Y0199462D01*
X0260280Y0199485D01*
X0260223Y0199505D01*
X0260164Y0199521D01*
X0260105Y0199534D01*
X0260046Y0199543D01*
X0259985Y0199548D01*
X0259925Y0199550D01*
X0258425Y0199550D01*
X0257925Y0199050D01*
X0243925Y0199050D01*
X0243425Y0199550D01*
X0241925Y0199550D01*
X0241925Y0199050D02*
X0241865Y0199052D01*
X0241804Y0199057D01*
X0241745Y0199066D01*
X0241686Y0199079D01*
X0241627Y0199095D01*
X0241570Y0199115D01*
X0241515Y0199138D01*
X0241460Y0199165D01*
X0241408Y0199194D01*
X0241357Y0199227D01*
X0241308Y0199263D01*
X0241262Y0199301D01*
X0241218Y0199343D01*
X0241176Y0199387D01*
X0241138Y0199433D01*
X0241102Y0199482D01*
X0241069Y0199533D01*
X0241040Y0199585D01*
X0241013Y0199640D01*
X0240990Y0199695D01*
X0240970Y0199752D01*
X0240954Y0199811D01*
X0240941Y0199870D01*
X0240932Y0199929D01*
X0240927Y0199990D01*
X0240925Y0200050D01*
X0240925Y0206050D01*
X0240927Y0206110D01*
X0240932Y0206171D01*
X0240941Y0206230D01*
X0240954Y0206289D01*
X0240970Y0206348D01*
X0240990Y0206405D01*
X0241013Y0206460D01*
X0241040Y0206515D01*
X0241069Y0206567D01*
X0241102Y0206618D01*
X0241138Y0206667D01*
X0241176Y0206713D01*
X0241218Y0206757D01*
X0241262Y0206799D01*
X0241308Y0206837D01*
X0241357Y0206873D01*
X0241408Y0206906D01*
X0241460Y0206935D01*
X0241515Y0206962D01*
X0241570Y0206985D01*
X0241627Y0207005D01*
X0241686Y0207021D01*
X0241745Y0207034D01*
X0241804Y0207043D01*
X0241865Y0207048D01*
X0241925Y0207050D01*
X0243425Y0207050D01*
X0243925Y0206550D01*
X0257925Y0206550D01*
X0258425Y0207050D01*
X0259925Y0207050D01*
X0259925Y0206550D02*
X0259985Y0206552D01*
X0260046Y0206557D01*
X0260105Y0206566D01*
X0260164Y0206579D01*
X0260223Y0206595D01*
X0260280Y0206615D01*
X0260335Y0206638D01*
X0260390Y0206665D01*
X0260442Y0206694D01*
X0260493Y0206727D01*
X0260542Y0206763D01*
X0260588Y0206801D01*
X0260632Y0206843D01*
X0260674Y0206887D01*
X0260712Y0206933D01*
X0260748Y0206982D01*
X0260781Y0207033D01*
X0260810Y0207085D01*
X0260837Y0207140D01*
X0260860Y0207195D01*
X0260880Y0207252D01*
X0260896Y0207311D01*
X0260909Y0207370D01*
X0260918Y0207429D01*
X0260923Y0207490D01*
X0260925Y0207550D01*
X0260925Y0213550D01*
X0260923Y0213610D01*
X0260918Y0213671D01*
X0260909Y0213730D01*
X0260896Y0213789D01*
X0260880Y0213848D01*
X0260860Y0213905D01*
X0260837Y0213960D01*
X0260810Y0214015D01*
X0260781Y0214067D01*
X0260748Y0214118D01*
X0260712Y0214167D01*
X0260674Y0214213D01*
X0260632Y0214257D01*
X0260588Y0214299D01*
X0260542Y0214337D01*
X0260493Y0214373D01*
X0260442Y0214406D01*
X0260390Y0214435D01*
X0260335Y0214462D01*
X0260280Y0214485D01*
X0260223Y0214505D01*
X0260164Y0214521D01*
X0260105Y0214534D01*
X0260046Y0214543D01*
X0259985Y0214548D01*
X0259925Y0214550D01*
X0258425Y0214550D01*
X0257925Y0214050D01*
X0243925Y0214050D01*
X0243425Y0214550D01*
X0241925Y0214550D01*
X0241865Y0214548D01*
X0241804Y0214543D01*
X0241745Y0214534D01*
X0241686Y0214521D01*
X0241627Y0214505D01*
X0241570Y0214485D01*
X0241515Y0214462D01*
X0241460Y0214435D01*
X0241408Y0214406D01*
X0241357Y0214373D01*
X0241308Y0214337D01*
X0241262Y0214299D01*
X0241218Y0214257D01*
X0241176Y0214213D01*
X0241138Y0214167D01*
X0241102Y0214118D01*
X0241069Y0214067D01*
X0241040Y0214015D01*
X0241013Y0213960D01*
X0240990Y0213905D01*
X0240970Y0213848D01*
X0240954Y0213789D01*
X0240941Y0213730D01*
X0240932Y0213671D01*
X0240927Y0213610D01*
X0240925Y0213550D01*
X0240925Y0207550D01*
X0240927Y0207490D01*
X0240932Y0207429D01*
X0240941Y0207370D01*
X0240954Y0207311D01*
X0240970Y0207252D01*
X0240990Y0207195D01*
X0241013Y0207140D01*
X0241040Y0207085D01*
X0241069Y0207033D01*
X0241102Y0206982D01*
X0241138Y0206933D01*
X0241176Y0206887D01*
X0241218Y0206843D01*
X0241262Y0206801D01*
X0241308Y0206763D01*
X0241357Y0206727D01*
X0241408Y0206694D01*
X0241460Y0206665D01*
X0241515Y0206638D01*
X0241570Y0206615D01*
X0241627Y0206595D01*
X0241686Y0206579D01*
X0241745Y0206566D01*
X0241804Y0206557D01*
X0241865Y0206552D01*
X0241925Y0206550D01*
X0243425Y0206550D01*
X0243925Y0207050D01*
X0257925Y0207050D01*
X0258425Y0206550D01*
X0259925Y0206550D01*
X0259925Y0207050D02*
X0259985Y0207048D01*
X0260046Y0207043D01*
X0260105Y0207034D01*
X0260164Y0207021D01*
X0260223Y0207005D01*
X0260280Y0206985D01*
X0260335Y0206962D01*
X0260390Y0206935D01*
X0260442Y0206906D01*
X0260493Y0206873D01*
X0260542Y0206837D01*
X0260588Y0206799D01*
X0260632Y0206757D01*
X0260674Y0206713D01*
X0260712Y0206667D01*
X0260748Y0206618D01*
X0260781Y0206567D01*
X0260810Y0206515D01*
X0260837Y0206460D01*
X0260860Y0206405D01*
X0260880Y0206348D01*
X0260896Y0206289D01*
X0260909Y0206230D01*
X0260918Y0206171D01*
X0260923Y0206110D01*
X0260925Y0206050D01*
X0260925Y0200050D01*
X0260923Y0199990D01*
X0260918Y0199929D01*
X0260909Y0199870D01*
X0260896Y0199811D01*
X0260880Y0199752D01*
X0260860Y0199695D01*
X0260837Y0199640D01*
X0260810Y0199585D01*
X0260781Y0199533D01*
X0260748Y0199482D01*
X0260712Y0199433D01*
X0260674Y0199387D01*
X0260632Y0199343D01*
X0260588Y0199301D01*
X0260542Y0199263D01*
X0260493Y0199227D01*
X0260442Y0199194D01*
X0260390Y0199165D01*
X0260335Y0199138D01*
X0260280Y0199115D01*
X0260223Y0199095D01*
X0260164Y0199079D01*
X0260105Y0199066D01*
X0260046Y0199057D01*
X0259985Y0199052D01*
X0259925Y0199050D01*
X0258425Y0199050D01*
X0257925Y0199550D01*
X0243925Y0199550D01*
X0243425Y0199050D01*
X0241925Y0199050D01*
X0241925Y0199550D02*
X0241865Y0199548D01*
X0241804Y0199543D01*
X0241745Y0199534D01*
X0241686Y0199521D01*
X0241627Y0199505D01*
X0241570Y0199485D01*
X0241515Y0199462D01*
X0241460Y0199435D01*
X0241408Y0199406D01*
X0241357Y0199373D01*
X0241308Y0199337D01*
X0241262Y0199299D01*
X0241218Y0199257D01*
X0241176Y0199213D01*
X0241138Y0199167D01*
X0241102Y0199118D01*
X0241069Y0199067D01*
X0241040Y0199015D01*
X0241013Y0198960D01*
X0240990Y0198905D01*
X0240970Y0198848D01*
X0240954Y0198789D01*
X0240941Y0198730D01*
X0240932Y0198671D01*
X0240927Y0198610D01*
X0240925Y0198550D01*
X0240925Y0192550D01*
X0240927Y0192490D01*
X0240932Y0192429D01*
X0240941Y0192370D01*
X0240954Y0192311D01*
X0240970Y0192252D01*
X0240990Y0192195D01*
X0241013Y0192140D01*
X0241040Y0192085D01*
X0241069Y0192033D01*
X0241102Y0191982D01*
X0241138Y0191933D01*
X0241176Y0191887D01*
X0241218Y0191843D01*
X0241262Y0191801D01*
X0241308Y0191763D01*
X0241357Y0191727D01*
X0241408Y0191694D01*
X0241460Y0191665D01*
X0241515Y0191638D01*
X0241570Y0191615D01*
X0241627Y0191595D01*
X0241686Y0191579D01*
X0241745Y0191566D01*
X0241804Y0191557D01*
X0241865Y0191552D01*
X0241925Y0191550D01*
X0243425Y0191550D01*
X0243925Y0192050D01*
X0257925Y0192050D01*
X0258425Y0191550D01*
X0259925Y0191550D01*
X0259925Y0192050D02*
X0259985Y0192048D01*
X0260046Y0192043D01*
X0260105Y0192034D01*
X0260164Y0192021D01*
X0260223Y0192005D01*
X0260280Y0191985D01*
X0260335Y0191962D01*
X0260390Y0191935D01*
X0260442Y0191906D01*
X0260493Y0191873D01*
X0260542Y0191837D01*
X0260588Y0191799D01*
X0260632Y0191757D01*
X0260674Y0191713D01*
X0260712Y0191667D01*
X0260748Y0191618D01*
X0260781Y0191567D01*
X0260810Y0191515D01*
X0260837Y0191460D01*
X0260860Y0191405D01*
X0260880Y0191348D01*
X0260896Y0191289D01*
X0260909Y0191230D01*
X0260918Y0191171D01*
X0260923Y0191110D01*
X0260925Y0191050D01*
X0260925Y0185050D01*
X0260923Y0184990D01*
X0260918Y0184929D01*
X0260909Y0184870D01*
X0260896Y0184811D01*
X0260880Y0184752D01*
X0260860Y0184695D01*
X0260837Y0184640D01*
X0260810Y0184585D01*
X0260781Y0184533D01*
X0260748Y0184482D01*
X0260712Y0184433D01*
X0260674Y0184387D01*
X0260632Y0184343D01*
X0260588Y0184301D01*
X0260542Y0184263D01*
X0260493Y0184227D01*
X0260442Y0184194D01*
X0260390Y0184165D01*
X0260335Y0184138D01*
X0260280Y0184115D01*
X0260223Y0184095D01*
X0260164Y0184079D01*
X0260105Y0184066D01*
X0260046Y0184057D01*
X0259985Y0184052D01*
X0259925Y0184050D01*
X0258425Y0184050D01*
X0257925Y0184550D01*
X0243925Y0184550D01*
X0243425Y0184050D01*
X0241925Y0184050D01*
X0241925Y0184550D02*
X0241865Y0184548D01*
X0241804Y0184543D01*
X0241745Y0184534D01*
X0241686Y0184521D01*
X0241627Y0184505D01*
X0241570Y0184485D01*
X0241515Y0184462D01*
X0241460Y0184435D01*
X0241408Y0184406D01*
X0241357Y0184373D01*
X0241308Y0184337D01*
X0241262Y0184299D01*
X0241218Y0184257D01*
X0241176Y0184213D01*
X0241138Y0184167D01*
X0241102Y0184118D01*
X0241069Y0184067D01*
X0241040Y0184015D01*
X0241013Y0183960D01*
X0240990Y0183905D01*
X0240970Y0183848D01*
X0240954Y0183789D01*
X0240941Y0183730D01*
X0240932Y0183671D01*
X0240927Y0183610D01*
X0240925Y0183550D01*
X0240925Y0177550D01*
X0240927Y0177490D01*
X0240932Y0177429D01*
X0240941Y0177370D01*
X0240954Y0177311D01*
X0240970Y0177252D01*
X0240990Y0177195D01*
X0241013Y0177140D01*
X0241040Y0177085D01*
X0241069Y0177033D01*
X0241102Y0176982D01*
X0241138Y0176933D01*
X0241176Y0176887D01*
X0241218Y0176843D01*
X0241262Y0176801D01*
X0241308Y0176763D01*
X0241357Y0176727D01*
X0241408Y0176694D01*
X0241460Y0176665D01*
X0241515Y0176638D01*
X0241570Y0176615D01*
X0241627Y0176595D01*
X0241686Y0176579D01*
X0241745Y0176566D01*
X0241804Y0176557D01*
X0241865Y0176552D01*
X0241925Y0176550D01*
X0243425Y0176550D01*
X0243925Y0177050D01*
X0257925Y0177050D01*
X0258425Y0176550D01*
X0259925Y0176550D01*
X0259925Y0177050D02*
X0259985Y0177048D01*
X0260046Y0177043D01*
X0260105Y0177034D01*
X0260164Y0177021D01*
X0260223Y0177005D01*
X0260280Y0176985D01*
X0260335Y0176962D01*
X0260390Y0176935D01*
X0260442Y0176906D01*
X0260493Y0176873D01*
X0260542Y0176837D01*
X0260588Y0176799D01*
X0260632Y0176757D01*
X0260674Y0176713D01*
X0260712Y0176667D01*
X0260748Y0176618D01*
X0260781Y0176567D01*
X0260810Y0176515D01*
X0260837Y0176460D01*
X0260860Y0176405D01*
X0260880Y0176348D01*
X0260896Y0176289D01*
X0260909Y0176230D01*
X0260918Y0176171D01*
X0260923Y0176110D01*
X0260925Y0176050D01*
X0260925Y0170050D01*
X0260923Y0169990D01*
X0260918Y0169929D01*
X0260909Y0169870D01*
X0260896Y0169811D01*
X0260880Y0169752D01*
X0260860Y0169695D01*
X0260837Y0169640D01*
X0260810Y0169585D01*
X0260781Y0169533D01*
X0260748Y0169482D01*
X0260712Y0169433D01*
X0260674Y0169387D01*
X0260632Y0169343D01*
X0260588Y0169301D01*
X0260542Y0169263D01*
X0260493Y0169227D01*
X0260442Y0169194D01*
X0260390Y0169165D01*
X0260335Y0169138D01*
X0260280Y0169115D01*
X0260223Y0169095D01*
X0260164Y0169079D01*
X0260105Y0169066D01*
X0260046Y0169057D01*
X0259985Y0169052D01*
X0259925Y0169050D01*
X0258425Y0169050D01*
X0257925Y0169550D01*
X0243925Y0169550D01*
X0243425Y0169050D01*
X0241925Y0169050D01*
X0241925Y0169550D02*
X0241865Y0169548D01*
X0241804Y0169543D01*
X0241745Y0169534D01*
X0241686Y0169521D01*
X0241627Y0169505D01*
X0241570Y0169485D01*
X0241515Y0169462D01*
X0241460Y0169435D01*
X0241408Y0169406D01*
X0241357Y0169373D01*
X0241308Y0169337D01*
X0241262Y0169299D01*
X0241218Y0169257D01*
X0241176Y0169213D01*
X0241138Y0169167D01*
X0241102Y0169118D01*
X0241069Y0169067D01*
X0241040Y0169015D01*
X0241013Y0168960D01*
X0240990Y0168905D01*
X0240970Y0168848D01*
X0240954Y0168789D01*
X0240941Y0168730D01*
X0240932Y0168671D01*
X0240927Y0168610D01*
X0240925Y0168550D01*
X0240925Y0162550D01*
X0240927Y0162490D01*
X0240932Y0162429D01*
X0240941Y0162370D01*
X0240954Y0162311D01*
X0240970Y0162252D01*
X0240990Y0162195D01*
X0241013Y0162140D01*
X0241040Y0162085D01*
X0241069Y0162033D01*
X0241102Y0161982D01*
X0241138Y0161933D01*
X0241176Y0161887D01*
X0241218Y0161843D01*
X0241262Y0161801D01*
X0241308Y0161763D01*
X0241357Y0161727D01*
X0241408Y0161694D01*
X0241460Y0161665D01*
X0241515Y0161638D01*
X0241570Y0161615D01*
X0241627Y0161595D01*
X0241686Y0161579D01*
X0241745Y0161566D01*
X0241804Y0161557D01*
X0241865Y0161552D01*
X0241925Y0161550D01*
X0243425Y0161550D01*
X0243925Y0162050D01*
X0257925Y0162050D01*
X0258425Y0161550D01*
X0259925Y0161550D01*
X0259925Y0162050D02*
X0259985Y0162048D01*
X0260046Y0162043D01*
X0260105Y0162034D01*
X0260164Y0162021D01*
X0260223Y0162005D01*
X0260280Y0161985D01*
X0260335Y0161962D01*
X0260390Y0161935D01*
X0260442Y0161906D01*
X0260493Y0161873D01*
X0260542Y0161837D01*
X0260588Y0161799D01*
X0260632Y0161757D01*
X0260674Y0161713D01*
X0260712Y0161667D01*
X0260748Y0161618D01*
X0260781Y0161567D01*
X0260810Y0161515D01*
X0260837Y0161460D01*
X0260860Y0161405D01*
X0260880Y0161348D01*
X0260896Y0161289D01*
X0260909Y0161230D01*
X0260918Y0161171D01*
X0260923Y0161110D01*
X0260925Y0161050D01*
X0260925Y0155050D01*
X0260923Y0154990D01*
X0260918Y0154929D01*
X0260909Y0154870D01*
X0260896Y0154811D01*
X0260880Y0154752D01*
X0260860Y0154695D01*
X0260837Y0154640D01*
X0260810Y0154585D01*
X0260781Y0154533D01*
X0260748Y0154482D01*
X0260712Y0154433D01*
X0260674Y0154387D01*
X0260632Y0154343D01*
X0260588Y0154301D01*
X0260542Y0154263D01*
X0260493Y0154227D01*
X0260442Y0154194D01*
X0260390Y0154165D01*
X0260335Y0154138D01*
X0260280Y0154115D01*
X0260223Y0154095D01*
X0260164Y0154079D01*
X0260105Y0154066D01*
X0260046Y0154057D01*
X0259985Y0154052D01*
X0259925Y0154050D01*
X0258425Y0154050D01*
X0257925Y0154550D01*
X0243925Y0154550D01*
X0243425Y0154050D01*
X0241925Y0154050D01*
X0241925Y0154550D02*
X0241865Y0154548D01*
X0241804Y0154543D01*
X0241745Y0154534D01*
X0241686Y0154521D01*
X0241627Y0154505D01*
X0241570Y0154485D01*
X0241515Y0154462D01*
X0241460Y0154435D01*
X0241408Y0154406D01*
X0241357Y0154373D01*
X0241308Y0154337D01*
X0241262Y0154299D01*
X0241218Y0154257D01*
X0241176Y0154213D01*
X0241138Y0154167D01*
X0241102Y0154118D01*
X0241069Y0154067D01*
X0241040Y0154015D01*
X0241013Y0153960D01*
X0240990Y0153905D01*
X0240970Y0153848D01*
X0240954Y0153789D01*
X0240941Y0153730D01*
X0240932Y0153671D01*
X0240927Y0153610D01*
X0240925Y0153550D01*
X0240925Y0147550D01*
X0240927Y0147490D01*
X0240932Y0147429D01*
X0240941Y0147370D01*
X0240954Y0147311D01*
X0240970Y0147252D01*
X0240990Y0147195D01*
X0241013Y0147140D01*
X0241040Y0147085D01*
X0241069Y0147033D01*
X0241102Y0146982D01*
X0241138Y0146933D01*
X0241176Y0146887D01*
X0241218Y0146843D01*
X0241262Y0146801D01*
X0241308Y0146763D01*
X0241357Y0146727D01*
X0241408Y0146694D01*
X0241460Y0146665D01*
X0241515Y0146638D01*
X0241570Y0146615D01*
X0241627Y0146595D01*
X0241686Y0146579D01*
X0241745Y0146566D01*
X0241804Y0146557D01*
X0241865Y0146552D01*
X0241925Y0146550D01*
X0241925Y0147050D02*
X0241865Y0147048D01*
X0241804Y0147043D01*
X0241745Y0147034D01*
X0241686Y0147021D01*
X0241627Y0147005D01*
X0241570Y0146985D01*
X0241515Y0146962D01*
X0241460Y0146935D01*
X0241408Y0146906D01*
X0241357Y0146873D01*
X0241308Y0146837D01*
X0241262Y0146799D01*
X0241218Y0146757D01*
X0241176Y0146713D01*
X0241138Y0146667D01*
X0241102Y0146618D01*
X0241069Y0146567D01*
X0241040Y0146515D01*
X0241013Y0146460D01*
X0240990Y0146405D01*
X0240970Y0146348D01*
X0240954Y0146289D01*
X0240941Y0146230D01*
X0240932Y0146171D01*
X0240927Y0146110D01*
X0240925Y0146050D01*
X0240925Y0140050D01*
X0240927Y0139990D01*
X0240932Y0139929D01*
X0240941Y0139870D01*
X0240954Y0139811D01*
X0240970Y0139752D01*
X0240990Y0139695D01*
X0241013Y0139640D01*
X0241040Y0139585D01*
X0241069Y0139533D01*
X0241102Y0139482D01*
X0241138Y0139433D01*
X0241176Y0139387D01*
X0241218Y0139343D01*
X0241262Y0139301D01*
X0241308Y0139263D01*
X0241357Y0139227D01*
X0241408Y0139194D01*
X0241460Y0139165D01*
X0241515Y0139138D01*
X0241570Y0139115D01*
X0241627Y0139095D01*
X0241686Y0139079D01*
X0241745Y0139066D01*
X0241804Y0139057D01*
X0241865Y0139052D01*
X0241925Y0139050D01*
X0210300Y0152350D02*
X0210300Y0153150D01*
X0210300Y0152350D02*
X0180300Y0152350D01*
X0180300Y0153150D01*
X0182100Y0157450D02*
X0208500Y0157450D01*
X0208576Y0157452D01*
X0208652Y0157458D01*
X0208727Y0157467D01*
X0208802Y0157481D01*
X0208876Y0157498D01*
X0208949Y0157519D01*
X0209021Y0157543D01*
X0209092Y0157572D01*
X0209161Y0157603D01*
X0209228Y0157638D01*
X0209293Y0157677D01*
X0209357Y0157719D01*
X0209418Y0157764D01*
X0209477Y0157812D01*
X0209533Y0157863D01*
X0209587Y0157917D01*
X0209638Y0157973D01*
X0209686Y0158032D01*
X0209731Y0158093D01*
X0209773Y0158157D01*
X0209812Y0158222D01*
X0209847Y0158289D01*
X0209878Y0158358D01*
X0209907Y0158429D01*
X0209931Y0158501D01*
X0209952Y0158574D01*
X0209969Y0158648D01*
X0209983Y0158723D01*
X0209992Y0158798D01*
X0209998Y0158874D01*
X0210000Y0158950D01*
X0210000Y0207150D01*
X0209998Y0207226D01*
X0209992Y0207302D01*
X0209983Y0207377D01*
X0209969Y0207452D01*
X0209952Y0207526D01*
X0209931Y0207599D01*
X0209907Y0207671D01*
X0209878Y0207742D01*
X0209847Y0207811D01*
X0209812Y0207878D01*
X0209773Y0207943D01*
X0209731Y0208007D01*
X0209686Y0208068D01*
X0209638Y0208127D01*
X0209587Y0208183D01*
X0209533Y0208237D01*
X0209477Y0208288D01*
X0209418Y0208336D01*
X0209357Y0208381D01*
X0209293Y0208423D01*
X0209228Y0208462D01*
X0209161Y0208497D01*
X0209092Y0208528D01*
X0209021Y0208557D01*
X0208949Y0208581D01*
X0208876Y0208602D01*
X0208802Y0208619D01*
X0208727Y0208633D01*
X0208652Y0208642D01*
X0208576Y0208648D01*
X0208500Y0208650D01*
X0182100Y0208650D01*
X0182024Y0208648D01*
X0181948Y0208642D01*
X0181873Y0208633D01*
X0181798Y0208619D01*
X0181724Y0208602D01*
X0181651Y0208581D01*
X0181579Y0208557D01*
X0181508Y0208528D01*
X0181439Y0208497D01*
X0181372Y0208462D01*
X0181307Y0208423D01*
X0181243Y0208381D01*
X0181182Y0208336D01*
X0181123Y0208288D01*
X0181067Y0208237D01*
X0181013Y0208183D01*
X0180962Y0208127D01*
X0180914Y0208068D01*
X0180869Y0208007D01*
X0180827Y0207943D01*
X0180788Y0207878D01*
X0180753Y0207811D01*
X0180722Y0207742D01*
X0180693Y0207671D01*
X0180669Y0207599D01*
X0180648Y0207526D01*
X0180631Y0207452D01*
X0180617Y0207377D01*
X0180608Y0207302D01*
X0180602Y0207226D01*
X0180600Y0207150D01*
X0180600Y0158950D01*
X0180602Y0158874D01*
X0180608Y0158798D01*
X0180617Y0158723D01*
X0180631Y0158648D01*
X0180648Y0158574D01*
X0180669Y0158501D01*
X0180693Y0158429D01*
X0180722Y0158358D01*
X0180753Y0158289D01*
X0180788Y0158222D01*
X0180827Y0158157D01*
X0180869Y0158093D01*
X0180914Y0158032D01*
X0180962Y0157973D01*
X0181013Y0157917D01*
X0181067Y0157863D01*
X0181123Y0157812D01*
X0181182Y0157764D01*
X0181243Y0157719D01*
X0181307Y0157677D01*
X0181372Y0157638D01*
X0181439Y0157603D01*
X0181508Y0157572D01*
X0181579Y0157543D01*
X0181651Y0157519D01*
X0181724Y0157498D01*
X0181798Y0157481D01*
X0181873Y0157467D01*
X0181948Y0157458D01*
X0182024Y0157452D01*
X0182100Y0157450D01*
X0190300Y0208650D02*
X0190302Y0208510D01*
X0190308Y0208370D01*
X0190318Y0208230D01*
X0190331Y0208090D01*
X0190349Y0207951D01*
X0190371Y0207812D01*
X0190396Y0207675D01*
X0190425Y0207537D01*
X0190458Y0207401D01*
X0190495Y0207266D01*
X0190536Y0207132D01*
X0190581Y0206999D01*
X0190629Y0206867D01*
X0190681Y0206737D01*
X0190736Y0206608D01*
X0190795Y0206481D01*
X0190858Y0206355D01*
X0190924Y0206231D01*
X0190993Y0206110D01*
X0191066Y0205990D01*
X0191143Y0205872D01*
X0191222Y0205757D01*
X0191305Y0205643D01*
X0191391Y0205533D01*
X0191480Y0205424D01*
X0191572Y0205318D01*
X0191667Y0205215D01*
X0191764Y0205114D01*
X0191865Y0205017D01*
X0191968Y0204922D01*
X0192074Y0204830D01*
X0192183Y0204741D01*
X0192293Y0204655D01*
X0192407Y0204572D01*
X0192522Y0204493D01*
X0192640Y0204416D01*
X0192760Y0204343D01*
X0192881Y0204274D01*
X0193005Y0204208D01*
X0193131Y0204145D01*
X0193258Y0204086D01*
X0193387Y0204031D01*
X0193517Y0203979D01*
X0193649Y0203931D01*
X0193782Y0203886D01*
X0193916Y0203845D01*
X0194051Y0203808D01*
X0194187Y0203775D01*
X0194325Y0203746D01*
X0194462Y0203721D01*
X0194601Y0203699D01*
X0194740Y0203681D01*
X0194880Y0203668D01*
X0195020Y0203658D01*
X0195160Y0203652D01*
X0195300Y0203650D01*
X0195440Y0203652D01*
X0195580Y0203658D01*
X0195720Y0203668D01*
X0195860Y0203681D01*
X0195999Y0203699D01*
X0196138Y0203721D01*
X0196275Y0203746D01*
X0196413Y0203775D01*
X0196549Y0203808D01*
X0196684Y0203845D01*
X0196818Y0203886D01*
X0196951Y0203931D01*
X0197083Y0203979D01*
X0197213Y0204031D01*
X0197342Y0204086D01*
X0197469Y0204145D01*
X0197595Y0204208D01*
X0197719Y0204274D01*
X0197840Y0204343D01*
X0197960Y0204416D01*
X0198078Y0204493D01*
X0198193Y0204572D01*
X0198307Y0204655D01*
X0198417Y0204741D01*
X0198526Y0204830D01*
X0198632Y0204922D01*
X0198735Y0205017D01*
X0198836Y0205114D01*
X0198933Y0205215D01*
X0199028Y0205318D01*
X0199120Y0205424D01*
X0199209Y0205533D01*
X0199295Y0205643D01*
X0199378Y0205757D01*
X0199457Y0205872D01*
X0199534Y0205990D01*
X0199607Y0206110D01*
X0199676Y0206231D01*
X0199742Y0206355D01*
X0199805Y0206481D01*
X0199864Y0206608D01*
X0199919Y0206737D01*
X0199971Y0206867D01*
X0200019Y0206999D01*
X0200064Y0207132D01*
X0200105Y0207266D01*
X0200142Y0207401D01*
X0200175Y0207537D01*
X0200204Y0207675D01*
X0200229Y0207812D01*
X0200251Y0207951D01*
X0200269Y0208090D01*
X0200282Y0208230D01*
X0200292Y0208370D01*
X0200298Y0208510D01*
X0200300Y0208650D01*
X0196500Y0213750D02*
X0194100Y0213750D01*
X0180300Y0213750D01*
X0180300Y0212950D01*
X0170900Y0210550D02*
X0170898Y0210606D01*
X0170892Y0210661D01*
X0170883Y0210716D01*
X0170869Y0210771D01*
X0170852Y0210824D01*
X0170831Y0210875D01*
X0170806Y0210926D01*
X0170778Y0210974D01*
X0170747Y0211020D01*
X0170713Y0211064D01*
X0170675Y0211106D01*
X0170635Y0211145D01*
X0170593Y0211180D01*
X0170547Y0211213D01*
X0170500Y0211243D01*
X0170451Y0211269D01*
X0170400Y0211292D01*
X0170347Y0211311D01*
X0170294Y0211326D01*
X0170239Y0211338D01*
X0170184Y0211346D01*
X0170128Y0211350D01*
X0170072Y0211350D01*
X0170016Y0211346D01*
X0169961Y0211338D01*
X0169906Y0211326D01*
X0169853Y0211311D01*
X0169800Y0211292D01*
X0169749Y0211269D01*
X0169700Y0211243D01*
X0169653Y0211213D01*
X0169607Y0211180D01*
X0169565Y0211145D01*
X0169525Y0211106D01*
X0169487Y0211064D01*
X0169453Y0211020D01*
X0169422Y0210974D01*
X0169394Y0210926D01*
X0169369Y0210875D01*
X0169348Y0210824D01*
X0169331Y0210771D01*
X0169317Y0210716D01*
X0169308Y0210661D01*
X0169302Y0210606D01*
X0169300Y0210550D01*
X0169302Y0210494D01*
X0169308Y0210439D01*
X0169317Y0210384D01*
X0169331Y0210329D01*
X0169348Y0210276D01*
X0169369Y0210225D01*
X0169394Y0210174D01*
X0169422Y0210126D01*
X0169453Y0210080D01*
X0169487Y0210036D01*
X0169525Y0209994D01*
X0169565Y0209955D01*
X0169607Y0209920D01*
X0169653Y0209887D01*
X0169700Y0209857D01*
X0169749Y0209831D01*
X0169800Y0209808D01*
X0169853Y0209789D01*
X0169906Y0209774D01*
X0169961Y0209762D01*
X0170016Y0209754D01*
X0170072Y0209750D01*
X0170128Y0209750D01*
X0170184Y0209754D01*
X0170239Y0209762D01*
X0170294Y0209774D01*
X0170347Y0209789D01*
X0170400Y0209808D01*
X0170451Y0209831D01*
X0170500Y0209857D01*
X0170547Y0209887D01*
X0170593Y0209920D01*
X0170635Y0209955D01*
X0170675Y0209994D01*
X0170713Y0210036D01*
X0170747Y0210080D01*
X0170778Y0210126D01*
X0170806Y0210174D01*
X0170831Y0210225D01*
X0170852Y0210276D01*
X0170869Y0210329D01*
X0170883Y0210384D01*
X0170892Y0210439D01*
X0170898Y0210494D01*
X0170900Y0210550D01*
X0196500Y0213750D02*
X0210300Y0213750D01*
X0210300Y0212950D01*
X0205050Y0233550D02*
X0218050Y0233550D01*
X0218137Y0233552D01*
X0218224Y0233558D01*
X0218311Y0233567D01*
X0218397Y0233580D01*
X0218483Y0233597D01*
X0218568Y0233618D01*
X0218651Y0233643D01*
X0218734Y0233671D01*
X0218815Y0233702D01*
X0218895Y0233737D01*
X0218973Y0233776D01*
X0219050Y0233818D01*
X0219125Y0233863D01*
X0219197Y0233912D01*
X0219268Y0233963D01*
X0219336Y0234018D01*
X0219401Y0234075D01*
X0219464Y0234136D01*
X0219525Y0234199D01*
X0219582Y0234264D01*
X0219637Y0234332D01*
X0219688Y0234403D01*
X0219737Y0234475D01*
X0219782Y0234550D01*
X0219824Y0234627D01*
X0219863Y0234705D01*
X0219898Y0234785D01*
X0219929Y0234866D01*
X0219957Y0234949D01*
X0219982Y0235032D01*
X0220003Y0235117D01*
X0220020Y0235203D01*
X0220033Y0235289D01*
X0220042Y0235376D01*
X0220048Y0235463D01*
X0220050Y0235550D01*
X0216550Y0238050D02*
X0212850Y0238050D01*
X0210350Y0238050D02*
X0206550Y0238050D01*
X0203050Y0235550D02*
X0203052Y0235463D01*
X0203058Y0235376D01*
X0203067Y0235289D01*
X0203080Y0235203D01*
X0203097Y0235117D01*
X0203118Y0235032D01*
X0203143Y0234949D01*
X0203171Y0234866D01*
X0203202Y0234785D01*
X0203237Y0234705D01*
X0203276Y0234627D01*
X0203318Y0234550D01*
X0203363Y0234475D01*
X0203412Y0234403D01*
X0203463Y0234332D01*
X0203518Y0234264D01*
X0203575Y0234199D01*
X0203636Y0234136D01*
X0203699Y0234075D01*
X0203764Y0234018D01*
X0203832Y0233963D01*
X0203903Y0233912D01*
X0203975Y0233863D01*
X0204050Y0233818D01*
X0204127Y0233776D01*
X0204205Y0233737D01*
X0204285Y0233702D01*
X0204366Y0233671D01*
X0204449Y0233643D01*
X0204532Y0233618D01*
X0204617Y0233597D01*
X0204703Y0233580D01*
X0204789Y0233567D01*
X0204876Y0233558D01*
X0204963Y0233552D01*
X0205050Y0233550D01*
X0203050Y0240550D02*
X0203052Y0240637D01*
X0203058Y0240724D01*
X0203067Y0240811D01*
X0203080Y0240897D01*
X0203097Y0240983D01*
X0203118Y0241068D01*
X0203143Y0241151D01*
X0203171Y0241234D01*
X0203202Y0241315D01*
X0203237Y0241395D01*
X0203276Y0241473D01*
X0203318Y0241550D01*
X0203363Y0241625D01*
X0203412Y0241697D01*
X0203463Y0241768D01*
X0203518Y0241836D01*
X0203575Y0241901D01*
X0203636Y0241964D01*
X0203699Y0242025D01*
X0203764Y0242082D01*
X0203832Y0242137D01*
X0203903Y0242188D01*
X0203975Y0242237D01*
X0204050Y0242282D01*
X0204127Y0242324D01*
X0204205Y0242363D01*
X0204285Y0242398D01*
X0204366Y0242429D01*
X0204449Y0242457D01*
X0204532Y0242482D01*
X0204617Y0242503D01*
X0204703Y0242520D01*
X0204789Y0242533D01*
X0204876Y0242542D01*
X0204963Y0242548D01*
X0205050Y0242550D01*
X0218050Y0242550D01*
X0218137Y0242548D01*
X0218224Y0242542D01*
X0218311Y0242533D01*
X0218397Y0242520D01*
X0218483Y0242503D01*
X0218568Y0242482D01*
X0218651Y0242457D01*
X0218734Y0242429D01*
X0218815Y0242398D01*
X0218895Y0242363D01*
X0218973Y0242324D01*
X0219050Y0242282D01*
X0219125Y0242237D01*
X0219197Y0242188D01*
X0219268Y0242137D01*
X0219336Y0242082D01*
X0219401Y0242025D01*
X0219464Y0241964D01*
X0219525Y0241901D01*
X0219582Y0241836D01*
X0219637Y0241768D01*
X0219688Y0241697D01*
X0219737Y0241625D01*
X0219782Y0241550D01*
X0219824Y0241473D01*
X0219863Y0241395D01*
X0219898Y0241315D01*
X0219929Y0241234D01*
X0219957Y0241151D01*
X0219982Y0241068D01*
X0220003Y0240983D01*
X0220020Y0240897D01*
X0220033Y0240811D01*
X0220042Y0240724D01*
X0220048Y0240637D01*
X0220050Y0240550D01*
X0242175Y0238675D02*
X0242175Y0233675D01*
X0244675Y0231175D01*
X0249675Y0231175D01*
X0252175Y0233675D01*
X0252175Y0238675D01*
X0249675Y0241175D01*
X0244675Y0241175D01*
X0242175Y0238675D01*
X0244675Y0241175D02*
X0242175Y0243675D01*
X0242175Y0248675D01*
X0244675Y0251175D01*
X0249675Y0251175D01*
X0252175Y0248675D01*
X0254675Y0251175D01*
X0259675Y0251175D01*
X0262175Y0248675D01*
X0264675Y0251175D01*
X0269675Y0251175D01*
X0272175Y0248675D01*
X0274675Y0251175D01*
X0279675Y0251175D01*
X0282175Y0248675D01*
X0284675Y0251175D01*
X0289675Y0251175D01*
X0292175Y0248675D01*
X0292175Y0243675D01*
X0289675Y0241175D01*
X0284675Y0241175D01*
X0282175Y0238675D01*
X0279675Y0241175D01*
X0274675Y0241175D01*
X0272175Y0238675D01*
X0272175Y0233675D01*
X0274675Y0231175D01*
X0279675Y0231175D01*
X0282175Y0233675D01*
X0282175Y0238675D01*
X0279675Y0241175D02*
X0274675Y0241175D01*
X0272175Y0243675D01*
X0272175Y0248675D01*
X0272175Y0243675D02*
X0269675Y0241175D01*
X0272175Y0238675D01*
X0269675Y0241175D02*
X0264675Y0241175D01*
X0262175Y0238675D01*
X0259675Y0241175D01*
X0254675Y0241175D01*
X0252175Y0238675D01*
X0249675Y0241175D02*
X0252175Y0243675D01*
X0252175Y0248675D01*
X0252175Y0243675D02*
X0254675Y0241175D01*
X0259675Y0241175D01*
X0262175Y0243675D01*
X0262175Y0248675D01*
X0262175Y0243675D02*
X0264675Y0241175D01*
X0269675Y0241175D01*
X0262175Y0238675D02*
X0262175Y0233675D01*
X0259675Y0231175D01*
X0254675Y0231175D01*
X0252175Y0233675D01*
X0249675Y0241175D02*
X0244675Y0241175D01*
X0262175Y0233675D02*
X0264675Y0231175D01*
X0269675Y0231175D01*
X0272175Y0233675D01*
X0282175Y0233675D02*
X0284675Y0231175D01*
X0289675Y0231175D01*
X0292175Y0233675D01*
X0292175Y0238675D01*
X0289675Y0241175D01*
X0284675Y0241175D01*
X0282175Y0243675D01*
X0279675Y0241175D01*
X0282175Y0243675D02*
X0282175Y0248675D01*
X0074800Y0211175D02*
X0055800Y0211175D01*
X0039300Y0061175D02*
X0039300Y0027175D01*
X0030300Y0032075D02*
X0030240Y0032077D01*
X0030179Y0032082D01*
X0030120Y0032091D01*
X0030061Y0032104D01*
X0030002Y0032120D01*
X0029945Y0032140D01*
X0029890Y0032163D01*
X0029835Y0032190D01*
X0029783Y0032219D01*
X0029732Y0032252D01*
X0029683Y0032288D01*
X0029637Y0032326D01*
X0029593Y0032368D01*
X0029551Y0032412D01*
X0029513Y0032458D01*
X0029477Y0032507D01*
X0029444Y0032558D01*
X0029415Y0032610D01*
X0029388Y0032665D01*
X0029365Y0032720D01*
X0029345Y0032777D01*
X0029329Y0032836D01*
X0029316Y0032895D01*
X0029307Y0032954D01*
X0029302Y0033015D01*
X0029300Y0033075D01*
X0029300Y0055075D01*
X0029302Y0055135D01*
X0029307Y0055196D01*
X0029316Y0055255D01*
X0029329Y0055314D01*
X0029345Y0055373D01*
X0029365Y0055430D01*
X0029388Y0055485D01*
X0029415Y0055540D01*
X0029444Y0055592D01*
X0029477Y0055643D01*
X0029513Y0055692D01*
X0029551Y0055738D01*
X0029593Y0055782D01*
X0029637Y0055824D01*
X0029683Y0055862D01*
X0029732Y0055898D01*
X0029783Y0055931D01*
X0029835Y0055960D01*
X0029890Y0055987D01*
X0029945Y0056010D01*
X0030002Y0056030D01*
X0030061Y0056046D01*
X0030120Y0056059D01*
X0030179Y0056068D01*
X0030240Y0056073D01*
X0030300Y0056075D01*
X0051800Y0050575D02*
X0051800Y0037575D01*
D14*
X0039300Y0061175D02*
X0039300Y0211175D01*
X0032800Y0145175D02*
X0032800Y0136175D01*
X0036800Y0137675D01*
X0036800Y0134675D01*
X0032800Y0136175D01*
X0043300Y0136175D01*
X0032800Y0136175D02*
X0032800Y0127175D01*
X0182000Y0157550D02*
X0182000Y0208550D01*
X0185750Y0089800D02*
X0185750Y0038800D01*
D15*
X0184100Y0041800D03*
X0184100Y0046800D03*
X0184100Y0051800D03*
X0184100Y0056800D03*
X0184100Y0061800D03*
X0184100Y0066800D03*
X0184100Y0071800D03*
X0184100Y0076800D03*
X0184100Y0081800D03*
X0184100Y0086800D03*
X0214000Y0086800D03*
X0214000Y0081800D03*
X0214000Y0076800D03*
X0214000Y0071800D03*
X0214000Y0066800D03*
X0214000Y0061800D03*
X0214000Y0056800D03*
X0214000Y0051800D03*
X0214000Y0046800D03*
X0214000Y0041800D03*
X0210250Y0160550D03*
X0210250Y0165550D03*
X0210250Y0170550D03*
X0210250Y0175550D03*
X0210250Y0180550D03*
X0210250Y0185550D03*
X0210250Y0190550D03*
X0210250Y0195550D03*
X0210250Y0200550D03*
X0210250Y0205550D03*
X0180350Y0205550D03*
X0180350Y0200550D03*
X0180350Y0195550D03*
X0180350Y0190550D03*
X0180350Y0185550D03*
X0180350Y0180550D03*
X0180350Y0175550D03*
X0180350Y0170550D03*
X0180350Y0165550D03*
X0180350Y0160550D03*
D16*
X0194100Y0213750D02*
X0194102Y0213681D01*
X0194108Y0213613D01*
X0194118Y0213545D01*
X0194131Y0213478D01*
X0194149Y0213412D01*
X0194170Y0213347D01*
X0194195Y0213283D01*
X0194223Y0213221D01*
X0194255Y0213160D01*
X0194290Y0213101D01*
X0194329Y0213045D01*
X0194371Y0212990D01*
X0194416Y0212939D01*
X0194464Y0212889D01*
X0194514Y0212843D01*
X0194567Y0212800D01*
X0194623Y0212759D01*
X0194680Y0212722D01*
X0194740Y0212689D01*
X0194802Y0212658D01*
X0194865Y0212632D01*
X0194929Y0212609D01*
X0194995Y0212589D01*
X0195062Y0212574D01*
X0195129Y0212562D01*
X0195197Y0212554D01*
X0195266Y0212550D01*
X0195334Y0212550D01*
X0195403Y0212554D01*
X0195471Y0212562D01*
X0195538Y0212574D01*
X0195605Y0212589D01*
X0195671Y0212609D01*
X0195735Y0212632D01*
X0195798Y0212658D01*
X0195860Y0212689D01*
X0195920Y0212722D01*
X0195977Y0212759D01*
X0196033Y0212800D01*
X0196086Y0212843D01*
X0196136Y0212889D01*
X0196184Y0212939D01*
X0196229Y0212990D01*
X0196271Y0213045D01*
X0196310Y0213101D01*
X0196345Y0213160D01*
X0196377Y0213221D01*
X0196405Y0213283D01*
X0196430Y0213347D01*
X0196451Y0213412D01*
X0196469Y0213478D01*
X0196482Y0213545D01*
X0196492Y0213613D01*
X0196498Y0213681D01*
X0196500Y0213750D01*
D17*
X0088950Y0202674D02*
X0088950Y0198470D01*
X0084746Y0202674D01*
X0083696Y0202674D01*
X0082645Y0201623D01*
X0082645Y0199521D01*
X0083696Y0198470D01*
X0082645Y0194127D02*
X0088950Y0194127D01*
X0088950Y0192025D02*
X0088950Y0196229D01*
X0084746Y0192025D02*
X0082645Y0194127D01*
X0071950Y0196229D02*
X0071950Y0192025D01*
X0067746Y0196229D01*
X0066696Y0196229D01*
X0065645Y0195178D01*
X0065645Y0193076D01*
X0066696Y0192025D01*
X0068797Y0198470D02*
X0068797Y0202674D01*
X0065645Y0201623D02*
X0068797Y0198470D01*
X0065645Y0201623D02*
X0071950Y0201623D01*
X0071399Y0082174D02*
X0072450Y0081123D01*
X0072450Y0079021D01*
X0071399Y0077970D01*
X0072450Y0075729D02*
X0072450Y0071525D01*
X0072450Y0073627D02*
X0066145Y0073627D01*
X0068246Y0071525D01*
X0067196Y0077970D02*
X0066145Y0079021D01*
X0066145Y0081123D01*
X0067196Y0082174D01*
X0068246Y0082174D01*
X0069297Y0081123D01*
X0070348Y0082174D01*
X0071399Y0082174D01*
X0069297Y0081123D02*
X0069297Y0080072D01*
X0082645Y0078627D02*
X0088950Y0078627D01*
X0088950Y0076525D02*
X0088950Y0080729D01*
X0084746Y0076525D02*
X0082645Y0078627D01*
D18*
X0216600Y0098800D02*
X0216600Y0101800D01*
X0216600Y0104800D01*
X0219100Y0104800D02*
X0219100Y0101800D01*
X0219100Y0098800D01*
X0212850Y0235050D02*
X0212850Y0238050D01*
X0212850Y0241050D01*
X0210350Y0241050D02*
X0210350Y0238050D01*
X0210350Y0235050D01*
D19*
X0220830Y0038286D02*
X0220637Y0036381D01*
X0219996Y0036176D01*
X0219398Y0035868D01*
X0217914Y0037079D01*
X0216896Y0036061D01*
X0218107Y0034577D01*
X0217799Y0033979D01*
X0217594Y0033338D01*
X0215689Y0033145D01*
X0215689Y0031705D01*
X0217594Y0031512D01*
X0217799Y0030871D01*
X0218107Y0030273D01*
X0216896Y0028789D01*
X0217914Y0027771D01*
X0219398Y0028982D01*
X0219996Y0028674D01*
X0220844Y0030720D01*
X0220465Y0030932D01*
X0220147Y0031226D01*
X0219905Y0031587D01*
X0219755Y0031994D01*
X0219704Y0032425D01*
X0219757Y0032864D01*
X0219913Y0033277D01*
X0220162Y0033642D01*
X0220491Y0033936D01*
X0220881Y0034145D01*
X0221309Y0034254D01*
X0221751Y0034259D01*
X0222181Y0034159D01*
X0222575Y0033959D01*
X0222910Y0033671D01*
X0223168Y0033312D01*
X0223332Y0032902D01*
X0223395Y0032465D01*
X0223351Y0032025D01*
X0223205Y0031609D01*
X0222964Y0031239D01*
X0222641Y0030937D01*
X0222256Y0030720D01*
X0223104Y0028674D01*
X0223702Y0028982D01*
X0225186Y0027771D01*
X0226204Y0028789D01*
X0224993Y0030273D01*
X0225301Y0030871D01*
X0225506Y0031512D01*
X0227411Y0031705D01*
X0227411Y0033145D01*
X0225506Y0033338D01*
X0225301Y0033979D01*
X0224993Y0034577D01*
X0226204Y0036061D01*
X0225186Y0037079D01*
X0223702Y0035868D01*
X0223104Y0036176D01*
X0222463Y0036381D01*
X0222270Y0038286D01*
X0220830Y0038286D01*
X0220789Y0037877D02*
X0222311Y0037877D01*
X0222371Y0037288D02*
X0220729Y0037288D01*
X0220669Y0036698D02*
X0222431Y0036698D01*
X0223234Y0036109D02*
X0219866Y0036109D01*
X0219103Y0036109D02*
X0216945Y0036109D01*
X0217337Y0035520D02*
X0225763Y0035520D01*
X0226155Y0036109D02*
X0223997Y0036109D01*
X0224720Y0036698D02*
X0225566Y0036698D01*
X0225282Y0034931D02*
X0217817Y0034931D01*
X0217986Y0034342D02*
X0225114Y0034342D01*
X0225374Y0033753D02*
X0222815Y0033753D01*
X0223227Y0033164D02*
X0227221Y0033164D01*
X0227411Y0032575D02*
X0223379Y0032575D01*
X0223337Y0031986D02*
X0227411Y0031986D01*
X0225470Y0031397D02*
X0223067Y0031397D01*
X0222412Y0030808D02*
X0225269Y0030808D01*
X0225038Y0030219D02*
X0222464Y0030219D01*
X0222708Y0029630D02*
X0225518Y0029630D01*
X0225999Y0029041D02*
X0222952Y0029041D01*
X0224352Y0028452D02*
X0225866Y0028452D01*
X0225277Y0027862D02*
X0225074Y0027862D01*
X0220392Y0029630D02*
X0217582Y0029630D01*
X0218062Y0030219D02*
X0220636Y0030219D01*
X0220687Y0030808D02*
X0217831Y0030808D01*
X0217630Y0031397D02*
X0220033Y0031397D01*
X0219758Y0031986D02*
X0215689Y0031986D01*
X0215689Y0032575D02*
X0219722Y0032575D01*
X0219870Y0033164D02*
X0215879Y0033164D01*
X0217727Y0033753D02*
X0220287Y0033753D01*
X0218380Y0036698D02*
X0217534Y0036698D01*
X0217101Y0029041D02*
X0220148Y0029041D01*
X0218748Y0028452D02*
X0217234Y0028452D01*
X0217823Y0027862D02*
X0218026Y0027862D01*
D20*
X0240175Y0031800D03*
X0240175Y0039300D03*
X0240175Y0046800D03*
X0240175Y0054300D03*
X0240175Y0061800D03*
X0240175Y0069300D03*
X0240175Y0076800D03*
X0240175Y0084300D03*
X0240175Y0091800D03*
X0240175Y0099300D03*
X0261675Y0099300D03*
X0261675Y0091800D03*
X0261675Y0084300D03*
X0261675Y0076800D03*
X0261675Y0069300D03*
X0261675Y0061800D03*
X0261675Y0054300D03*
X0261675Y0046800D03*
X0261675Y0039300D03*
X0261675Y0031800D03*
X0261675Y0143050D03*
X0261675Y0150550D03*
X0261675Y0158050D03*
X0261675Y0165550D03*
X0261675Y0173050D03*
X0261675Y0180550D03*
X0261675Y0188050D03*
X0261675Y0195550D03*
X0261675Y0203050D03*
X0261675Y0210550D03*
X0240175Y0210550D03*
X0240175Y0203050D03*
X0240175Y0195550D03*
X0240175Y0188050D03*
X0240175Y0180550D03*
X0240175Y0173050D03*
X0240175Y0165550D03*
X0240175Y0158050D03*
X0240175Y0150550D03*
X0240175Y0143050D03*
M02*
