G75*
%MOIN*%
%OFA0B0*%
%FSLAX25Y25*%
%IPPOS*%
%LPD*%
%AMOC8*
5,1,8,0,0,1.08239X$1,22.5*
%
%ADD10C,0.00394*%
%ADD11C,0.00000*%
%ADD12C,0.00039*%
D10*
X0033184Y0016111D02*
X0033184Y0248394D01*
X0044995Y0260206D02*
X0316648Y0260206D01*
X0328459Y0248394D02*
X0328459Y0016111D01*
X0316648Y0004300D02*
X0044995Y0004300D01*
D11*
X0113430Y0018247D02*
X0113432Y0018394D01*
X0113438Y0018540D01*
X0113448Y0018686D01*
X0113462Y0018832D01*
X0113480Y0018978D01*
X0113501Y0019123D01*
X0113527Y0019267D01*
X0113557Y0019411D01*
X0113590Y0019553D01*
X0113627Y0019695D01*
X0113668Y0019836D01*
X0113713Y0019975D01*
X0113762Y0020114D01*
X0113814Y0020251D01*
X0113871Y0020386D01*
X0113930Y0020520D01*
X0113994Y0020652D01*
X0114061Y0020782D01*
X0114131Y0020911D01*
X0114205Y0021038D01*
X0114282Y0021162D01*
X0114363Y0021285D01*
X0114447Y0021405D01*
X0114534Y0021523D01*
X0114624Y0021638D01*
X0114717Y0021751D01*
X0114814Y0021862D01*
X0114913Y0021970D01*
X0115015Y0022075D01*
X0115120Y0022177D01*
X0115228Y0022276D01*
X0115339Y0022373D01*
X0115452Y0022466D01*
X0115567Y0022556D01*
X0115685Y0022643D01*
X0115805Y0022727D01*
X0115928Y0022808D01*
X0116052Y0022885D01*
X0116179Y0022959D01*
X0116308Y0023029D01*
X0116438Y0023096D01*
X0116570Y0023160D01*
X0116704Y0023219D01*
X0116839Y0023276D01*
X0116976Y0023328D01*
X0117115Y0023377D01*
X0117254Y0023422D01*
X0117395Y0023463D01*
X0117537Y0023500D01*
X0117679Y0023533D01*
X0117823Y0023563D01*
X0117967Y0023589D01*
X0118112Y0023610D01*
X0118258Y0023628D01*
X0118404Y0023642D01*
X0118550Y0023652D01*
X0118696Y0023658D01*
X0118843Y0023660D01*
X0118990Y0023658D01*
X0119136Y0023652D01*
X0119282Y0023642D01*
X0119428Y0023628D01*
X0119574Y0023610D01*
X0119719Y0023589D01*
X0119863Y0023563D01*
X0120007Y0023533D01*
X0120149Y0023500D01*
X0120291Y0023463D01*
X0120432Y0023422D01*
X0120571Y0023377D01*
X0120710Y0023328D01*
X0120847Y0023276D01*
X0120982Y0023219D01*
X0121116Y0023160D01*
X0121248Y0023096D01*
X0121378Y0023029D01*
X0121507Y0022959D01*
X0121634Y0022885D01*
X0121758Y0022808D01*
X0121881Y0022727D01*
X0122001Y0022643D01*
X0122119Y0022556D01*
X0122234Y0022466D01*
X0122347Y0022373D01*
X0122458Y0022276D01*
X0122566Y0022177D01*
X0122671Y0022075D01*
X0122773Y0021970D01*
X0122872Y0021862D01*
X0122969Y0021751D01*
X0123062Y0021638D01*
X0123152Y0021523D01*
X0123239Y0021405D01*
X0123323Y0021285D01*
X0123404Y0021162D01*
X0123481Y0021038D01*
X0123555Y0020911D01*
X0123625Y0020782D01*
X0123692Y0020652D01*
X0123756Y0020520D01*
X0123815Y0020386D01*
X0123872Y0020251D01*
X0123924Y0020114D01*
X0123973Y0019975D01*
X0124018Y0019836D01*
X0124059Y0019695D01*
X0124096Y0019553D01*
X0124129Y0019411D01*
X0124159Y0019267D01*
X0124185Y0019123D01*
X0124206Y0018978D01*
X0124224Y0018832D01*
X0124238Y0018686D01*
X0124248Y0018540D01*
X0124254Y0018394D01*
X0124256Y0018247D01*
X0124254Y0018100D01*
X0124248Y0017954D01*
X0124238Y0017808D01*
X0124224Y0017662D01*
X0124206Y0017516D01*
X0124185Y0017371D01*
X0124159Y0017227D01*
X0124129Y0017083D01*
X0124096Y0016941D01*
X0124059Y0016799D01*
X0124018Y0016658D01*
X0123973Y0016519D01*
X0123924Y0016380D01*
X0123872Y0016243D01*
X0123815Y0016108D01*
X0123756Y0015974D01*
X0123692Y0015842D01*
X0123625Y0015712D01*
X0123555Y0015583D01*
X0123481Y0015456D01*
X0123404Y0015332D01*
X0123323Y0015209D01*
X0123239Y0015089D01*
X0123152Y0014971D01*
X0123062Y0014856D01*
X0122969Y0014743D01*
X0122872Y0014632D01*
X0122773Y0014524D01*
X0122671Y0014419D01*
X0122566Y0014317D01*
X0122458Y0014218D01*
X0122347Y0014121D01*
X0122234Y0014028D01*
X0122119Y0013938D01*
X0122001Y0013851D01*
X0121881Y0013767D01*
X0121758Y0013686D01*
X0121634Y0013609D01*
X0121507Y0013535D01*
X0121378Y0013465D01*
X0121248Y0013398D01*
X0121116Y0013334D01*
X0120982Y0013275D01*
X0120847Y0013218D01*
X0120710Y0013166D01*
X0120571Y0013117D01*
X0120432Y0013072D01*
X0120291Y0013031D01*
X0120149Y0012994D01*
X0120007Y0012961D01*
X0119863Y0012931D01*
X0119719Y0012905D01*
X0119574Y0012884D01*
X0119428Y0012866D01*
X0119282Y0012852D01*
X0119136Y0012842D01*
X0118990Y0012836D01*
X0118843Y0012834D01*
X0118696Y0012836D01*
X0118550Y0012842D01*
X0118404Y0012852D01*
X0118258Y0012866D01*
X0118112Y0012884D01*
X0117967Y0012905D01*
X0117823Y0012931D01*
X0117679Y0012961D01*
X0117537Y0012994D01*
X0117395Y0013031D01*
X0117254Y0013072D01*
X0117115Y0013117D01*
X0116976Y0013166D01*
X0116839Y0013218D01*
X0116704Y0013275D01*
X0116570Y0013334D01*
X0116438Y0013398D01*
X0116308Y0013465D01*
X0116179Y0013535D01*
X0116052Y0013609D01*
X0115928Y0013686D01*
X0115805Y0013767D01*
X0115685Y0013851D01*
X0115567Y0013938D01*
X0115452Y0014028D01*
X0115339Y0014121D01*
X0115228Y0014218D01*
X0115120Y0014317D01*
X0115015Y0014419D01*
X0114913Y0014524D01*
X0114814Y0014632D01*
X0114717Y0014743D01*
X0114624Y0014856D01*
X0114534Y0014971D01*
X0114447Y0015089D01*
X0114363Y0015209D01*
X0114282Y0015332D01*
X0114205Y0015456D01*
X0114131Y0015583D01*
X0114061Y0015712D01*
X0113994Y0015842D01*
X0113930Y0015974D01*
X0113871Y0016108D01*
X0113814Y0016243D01*
X0113762Y0016380D01*
X0113713Y0016519D01*
X0113668Y0016658D01*
X0113627Y0016799D01*
X0113590Y0016941D01*
X0113557Y0017083D01*
X0113527Y0017227D01*
X0113501Y0017371D01*
X0113480Y0017516D01*
X0113462Y0017662D01*
X0113448Y0017808D01*
X0113438Y0017954D01*
X0113432Y0018100D01*
X0113430Y0018247D01*
X0306344Y0018247D02*
X0306346Y0018394D01*
X0306352Y0018540D01*
X0306362Y0018686D01*
X0306376Y0018832D01*
X0306394Y0018978D01*
X0306415Y0019123D01*
X0306441Y0019267D01*
X0306471Y0019411D01*
X0306504Y0019553D01*
X0306541Y0019695D01*
X0306582Y0019836D01*
X0306627Y0019975D01*
X0306676Y0020114D01*
X0306728Y0020251D01*
X0306785Y0020386D01*
X0306844Y0020520D01*
X0306908Y0020652D01*
X0306975Y0020782D01*
X0307045Y0020911D01*
X0307119Y0021038D01*
X0307196Y0021162D01*
X0307277Y0021285D01*
X0307361Y0021405D01*
X0307448Y0021523D01*
X0307538Y0021638D01*
X0307631Y0021751D01*
X0307728Y0021862D01*
X0307827Y0021970D01*
X0307929Y0022075D01*
X0308034Y0022177D01*
X0308142Y0022276D01*
X0308253Y0022373D01*
X0308366Y0022466D01*
X0308481Y0022556D01*
X0308599Y0022643D01*
X0308719Y0022727D01*
X0308842Y0022808D01*
X0308966Y0022885D01*
X0309093Y0022959D01*
X0309222Y0023029D01*
X0309352Y0023096D01*
X0309484Y0023160D01*
X0309618Y0023219D01*
X0309753Y0023276D01*
X0309890Y0023328D01*
X0310029Y0023377D01*
X0310168Y0023422D01*
X0310309Y0023463D01*
X0310451Y0023500D01*
X0310593Y0023533D01*
X0310737Y0023563D01*
X0310881Y0023589D01*
X0311026Y0023610D01*
X0311172Y0023628D01*
X0311318Y0023642D01*
X0311464Y0023652D01*
X0311610Y0023658D01*
X0311757Y0023660D01*
X0311904Y0023658D01*
X0312050Y0023652D01*
X0312196Y0023642D01*
X0312342Y0023628D01*
X0312488Y0023610D01*
X0312633Y0023589D01*
X0312777Y0023563D01*
X0312921Y0023533D01*
X0313063Y0023500D01*
X0313205Y0023463D01*
X0313346Y0023422D01*
X0313485Y0023377D01*
X0313624Y0023328D01*
X0313761Y0023276D01*
X0313896Y0023219D01*
X0314030Y0023160D01*
X0314162Y0023096D01*
X0314292Y0023029D01*
X0314421Y0022959D01*
X0314548Y0022885D01*
X0314672Y0022808D01*
X0314795Y0022727D01*
X0314915Y0022643D01*
X0315033Y0022556D01*
X0315148Y0022466D01*
X0315261Y0022373D01*
X0315372Y0022276D01*
X0315480Y0022177D01*
X0315585Y0022075D01*
X0315687Y0021970D01*
X0315786Y0021862D01*
X0315883Y0021751D01*
X0315976Y0021638D01*
X0316066Y0021523D01*
X0316153Y0021405D01*
X0316237Y0021285D01*
X0316318Y0021162D01*
X0316395Y0021038D01*
X0316469Y0020911D01*
X0316539Y0020782D01*
X0316606Y0020652D01*
X0316670Y0020520D01*
X0316729Y0020386D01*
X0316786Y0020251D01*
X0316838Y0020114D01*
X0316887Y0019975D01*
X0316932Y0019836D01*
X0316973Y0019695D01*
X0317010Y0019553D01*
X0317043Y0019411D01*
X0317073Y0019267D01*
X0317099Y0019123D01*
X0317120Y0018978D01*
X0317138Y0018832D01*
X0317152Y0018686D01*
X0317162Y0018540D01*
X0317168Y0018394D01*
X0317170Y0018247D01*
X0317168Y0018100D01*
X0317162Y0017954D01*
X0317152Y0017808D01*
X0317138Y0017662D01*
X0317120Y0017516D01*
X0317099Y0017371D01*
X0317073Y0017227D01*
X0317043Y0017083D01*
X0317010Y0016941D01*
X0316973Y0016799D01*
X0316932Y0016658D01*
X0316887Y0016519D01*
X0316838Y0016380D01*
X0316786Y0016243D01*
X0316729Y0016108D01*
X0316670Y0015974D01*
X0316606Y0015842D01*
X0316539Y0015712D01*
X0316469Y0015583D01*
X0316395Y0015456D01*
X0316318Y0015332D01*
X0316237Y0015209D01*
X0316153Y0015089D01*
X0316066Y0014971D01*
X0315976Y0014856D01*
X0315883Y0014743D01*
X0315786Y0014632D01*
X0315687Y0014524D01*
X0315585Y0014419D01*
X0315480Y0014317D01*
X0315372Y0014218D01*
X0315261Y0014121D01*
X0315148Y0014028D01*
X0315033Y0013938D01*
X0314915Y0013851D01*
X0314795Y0013767D01*
X0314672Y0013686D01*
X0314548Y0013609D01*
X0314421Y0013535D01*
X0314292Y0013465D01*
X0314162Y0013398D01*
X0314030Y0013334D01*
X0313896Y0013275D01*
X0313761Y0013218D01*
X0313624Y0013166D01*
X0313485Y0013117D01*
X0313346Y0013072D01*
X0313205Y0013031D01*
X0313063Y0012994D01*
X0312921Y0012961D01*
X0312777Y0012931D01*
X0312633Y0012905D01*
X0312488Y0012884D01*
X0312342Y0012866D01*
X0312196Y0012852D01*
X0312050Y0012842D01*
X0311904Y0012836D01*
X0311757Y0012834D01*
X0311610Y0012836D01*
X0311464Y0012842D01*
X0311318Y0012852D01*
X0311172Y0012866D01*
X0311026Y0012884D01*
X0310881Y0012905D01*
X0310737Y0012931D01*
X0310593Y0012961D01*
X0310451Y0012994D01*
X0310309Y0013031D01*
X0310168Y0013072D01*
X0310029Y0013117D01*
X0309890Y0013166D01*
X0309753Y0013218D01*
X0309618Y0013275D01*
X0309484Y0013334D01*
X0309352Y0013398D01*
X0309222Y0013465D01*
X0309093Y0013535D01*
X0308966Y0013609D01*
X0308842Y0013686D01*
X0308719Y0013767D01*
X0308599Y0013851D01*
X0308481Y0013938D01*
X0308366Y0014028D01*
X0308253Y0014121D01*
X0308142Y0014218D01*
X0308034Y0014317D01*
X0307929Y0014419D01*
X0307827Y0014524D01*
X0307728Y0014632D01*
X0307631Y0014743D01*
X0307538Y0014856D01*
X0307448Y0014971D01*
X0307361Y0015089D01*
X0307277Y0015209D01*
X0307196Y0015332D01*
X0307119Y0015456D01*
X0307045Y0015583D01*
X0306975Y0015712D01*
X0306908Y0015842D01*
X0306844Y0015974D01*
X0306785Y0016108D01*
X0306728Y0016243D01*
X0306676Y0016380D01*
X0306627Y0016519D01*
X0306582Y0016658D01*
X0306541Y0016799D01*
X0306504Y0016941D01*
X0306471Y0017083D01*
X0306441Y0017227D01*
X0306415Y0017371D01*
X0306394Y0017516D01*
X0306376Y0017662D01*
X0306362Y0017808D01*
X0306352Y0017954D01*
X0306346Y0018100D01*
X0306344Y0018247D01*
X0306344Y0246593D02*
X0306346Y0246740D01*
X0306352Y0246886D01*
X0306362Y0247032D01*
X0306376Y0247178D01*
X0306394Y0247324D01*
X0306415Y0247469D01*
X0306441Y0247613D01*
X0306471Y0247757D01*
X0306504Y0247899D01*
X0306541Y0248041D01*
X0306582Y0248182D01*
X0306627Y0248321D01*
X0306676Y0248460D01*
X0306728Y0248597D01*
X0306785Y0248732D01*
X0306844Y0248866D01*
X0306908Y0248998D01*
X0306975Y0249128D01*
X0307045Y0249257D01*
X0307119Y0249384D01*
X0307196Y0249508D01*
X0307277Y0249631D01*
X0307361Y0249751D01*
X0307448Y0249869D01*
X0307538Y0249984D01*
X0307631Y0250097D01*
X0307728Y0250208D01*
X0307827Y0250316D01*
X0307929Y0250421D01*
X0308034Y0250523D01*
X0308142Y0250622D01*
X0308253Y0250719D01*
X0308366Y0250812D01*
X0308481Y0250902D01*
X0308599Y0250989D01*
X0308719Y0251073D01*
X0308842Y0251154D01*
X0308966Y0251231D01*
X0309093Y0251305D01*
X0309222Y0251375D01*
X0309352Y0251442D01*
X0309484Y0251506D01*
X0309618Y0251565D01*
X0309753Y0251622D01*
X0309890Y0251674D01*
X0310029Y0251723D01*
X0310168Y0251768D01*
X0310309Y0251809D01*
X0310451Y0251846D01*
X0310593Y0251879D01*
X0310737Y0251909D01*
X0310881Y0251935D01*
X0311026Y0251956D01*
X0311172Y0251974D01*
X0311318Y0251988D01*
X0311464Y0251998D01*
X0311610Y0252004D01*
X0311757Y0252006D01*
X0311904Y0252004D01*
X0312050Y0251998D01*
X0312196Y0251988D01*
X0312342Y0251974D01*
X0312488Y0251956D01*
X0312633Y0251935D01*
X0312777Y0251909D01*
X0312921Y0251879D01*
X0313063Y0251846D01*
X0313205Y0251809D01*
X0313346Y0251768D01*
X0313485Y0251723D01*
X0313624Y0251674D01*
X0313761Y0251622D01*
X0313896Y0251565D01*
X0314030Y0251506D01*
X0314162Y0251442D01*
X0314292Y0251375D01*
X0314421Y0251305D01*
X0314548Y0251231D01*
X0314672Y0251154D01*
X0314795Y0251073D01*
X0314915Y0250989D01*
X0315033Y0250902D01*
X0315148Y0250812D01*
X0315261Y0250719D01*
X0315372Y0250622D01*
X0315480Y0250523D01*
X0315585Y0250421D01*
X0315687Y0250316D01*
X0315786Y0250208D01*
X0315883Y0250097D01*
X0315976Y0249984D01*
X0316066Y0249869D01*
X0316153Y0249751D01*
X0316237Y0249631D01*
X0316318Y0249508D01*
X0316395Y0249384D01*
X0316469Y0249257D01*
X0316539Y0249128D01*
X0316606Y0248998D01*
X0316670Y0248866D01*
X0316729Y0248732D01*
X0316786Y0248597D01*
X0316838Y0248460D01*
X0316887Y0248321D01*
X0316932Y0248182D01*
X0316973Y0248041D01*
X0317010Y0247899D01*
X0317043Y0247757D01*
X0317073Y0247613D01*
X0317099Y0247469D01*
X0317120Y0247324D01*
X0317138Y0247178D01*
X0317152Y0247032D01*
X0317162Y0246886D01*
X0317168Y0246740D01*
X0317170Y0246593D01*
X0317168Y0246446D01*
X0317162Y0246300D01*
X0317152Y0246154D01*
X0317138Y0246008D01*
X0317120Y0245862D01*
X0317099Y0245717D01*
X0317073Y0245573D01*
X0317043Y0245429D01*
X0317010Y0245287D01*
X0316973Y0245145D01*
X0316932Y0245004D01*
X0316887Y0244865D01*
X0316838Y0244726D01*
X0316786Y0244589D01*
X0316729Y0244454D01*
X0316670Y0244320D01*
X0316606Y0244188D01*
X0316539Y0244058D01*
X0316469Y0243929D01*
X0316395Y0243802D01*
X0316318Y0243678D01*
X0316237Y0243555D01*
X0316153Y0243435D01*
X0316066Y0243317D01*
X0315976Y0243202D01*
X0315883Y0243089D01*
X0315786Y0242978D01*
X0315687Y0242870D01*
X0315585Y0242765D01*
X0315480Y0242663D01*
X0315372Y0242564D01*
X0315261Y0242467D01*
X0315148Y0242374D01*
X0315033Y0242284D01*
X0314915Y0242197D01*
X0314795Y0242113D01*
X0314672Y0242032D01*
X0314548Y0241955D01*
X0314421Y0241881D01*
X0314292Y0241811D01*
X0314162Y0241744D01*
X0314030Y0241680D01*
X0313896Y0241621D01*
X0313761Y0241564D01*
X0313624Y0241512D01*
X0313485Y0241463D01*
X0313346Y0241418D01*
X0313205Y0241377D01*
X0313063Y0241340D01*
X0312921Y0241307D01*
X0312777Y0241277D01*
X0312633Y0241251D01*
X0312488Y0241230D01*
X0312342Y0241212D01*
X0312196Y0241198D01*
X0312050Y0241188D01*
X0311904Y0241182D01*
X0311757Y0241180D01*
X0311610Y0241182D01*
X0311464Y0241188D01*
X0311318Y0241198D01*
X0311172Y0241212D01*
X0311026Y0241230D01*
X0310881Y0241251D01*
X0310737Y0241277D01*
X0310593Y0241307D01*
X0310451Y0241340D01*
X0310309Y0241377D01*
X0310168Y0241418D01*
X0310029Y0241463D01*
X0309890Y0241512D01*
X0309753Y0241564D01*
X0309618Y0241621D01*
X0309484Y0241680D01*
X0309352Y0241744D01*
X0309222Y0241811D01*
X0309093Y0241881D01*
X0308966Y0241955D01*
X0308842Y0242032D01*
X0308719Y0242113D01*
X0308599Y0242197D01*
X0308481Y0242284D01*
X0308366Y0242374D01*
X0308253Y0242467D01*
X0308142Y0242564D01*
X0308034Y0242663D01*
X0307929Y0242765D01*
X0307827Y0242870D01*
X0307728Y0242978D01*
X0307631Y0243089D01*
X0307538Y0243202D01*
X0307448Y0243317D01*
X0307361Y0243435D01*
X0307277Y0243555D01*
X0307196Y0243678D01*
X0307119Y0243802D01*
X0307045Y0243929D01*
X0306975Y0244058D01*
X0306908Y0244188D01*
X0306844Y0244320D01*
X0306785Y0244454D01*
X0306728Y0244589D01*
X0306676Y0244726D01*
X0306627Y0244865D01*
X0306582Y0245004D01*
X0306541Y0245145D01*
X0306504Y0245287D01*
X0306471Y0245429D01*
X0306441Y0245573D01*
X0306415Y0245717D01*
X0306394Y0245862D01*
X0306376Y0246008D01*
X0306362Y0246154D01*
X0306352Y0246300D01*
X0306346Y0246446D01*
X0306344Y0246593D01*
X0113430Y0246593D02*
X0113432Y0246740D01*
X0113438Y0246886D01*
X0113448Y0247032D01*
X0113462Y0247178D01*
X0113480Y0247324D01*
X0113501Y0247469D01*
X0113527Y0247613D01*
X0113557Y0247757D01*
X0113590Y0247899D01*
X0113627Y0248041D01*
X0113668Y0248182D01*
X0113713Y0248321D01*
X0113762Y0248460D01*
X0113814Y0248597D01*
X0113871Y0248732D01*
X0113930Y0248866D01*
X0113994Y0248998D01*
X0114061Y0249128D01*
X0114131Y0249257D01*
X0114205Y0249384D01*
X0114282Y0249508D01*
X0114363Y0249631D01*
X0114447Y0249751D01*
X0114534Y0249869D01*
X0114624Y0249984D01*
X0114717Y0250097D01*
X0114814Y0250208D01*
X0114913Y0250316D01*
X0115015Y0250421D01*
X0115120Y0250523D01*
X0115228Y0250622D01*
X0115339Y0250719D01*
X0115452Y0250812D01*
X0115567Y0250902D01*
X0115685Y0250989D01*
X0115805Y0251073D01*
X0115928Y0251154D01*
X0116052Y0251231D01*
X0116179Y0251305D01*
X0116308Y0251375D01*
X0116438Y0251442D01*
X0116570Y0251506D01*
X0116704Y0251565D01*
X0116839Y0251622D01*
X0116976Y0251674D01*
X0117115Y0251723D01*
X0117254Y0251768D01*
X0117395Y0251809D01*
X0117537Y0251846D01*
X0117679Y0251879D01*
X0117823Y0251909D01*
X0117967Y0251935D01*
X0118112Y0251956D01*
X0118258Y0251974D01*
X0118404Y0251988D01*
X0118550Y0251998D01*
X0118696Y0252004D01*
X0118843Y0252006D01*
X0118990Y0252004D01*
X0119136Y0251998D01*
X0119282Y0251988D01*
X0119428Y0251974D01*
X0119574Y0251956D01*
X0119719Y0251935D01*
X0119863Y0251909D01*
X0120007Y0251879D01*
X0120149Y0251846D01*
X0120291Y0251809D01*
X0120432Y0251768D01*
X0120571Y0251723D01*
X0120710Y0251674D01*
X0120847Y0251622D01*
X0120982Y0251565D01*
X0121116Y0251506D01*
X0121248Y0251442D01*
X0121378Y0251375D01*
X0121507Y0251305D01*
X0121634Y0251231D01*
X0121758Y0251154D01*
X0121881Y0251073D01*
X0122001Y0250989D01*
X0122119Y0250902D01*
X0122234Y0250812D01*
X0122347Y0250719D01*
X0122458Y0250622D01*
X0122566Y0250523D01*
X0122671Y0250421D01*
X0122773Y0250316D01*
X0122872Y0250208D01*
X0122969Y0250097D01*
X0123062Y0249984D01*
X0123152Y0249869D01*
X0123239Y0249751D01*
X0123323Y0249631D01*
X0123404Y0249508D01*
X0123481Y0249384D01*
X0123555Y0249257D01*
X0123625Y0249128D01*
X0123692Y0248998D01*
X0123756Y0248866D01*
X0123815Y0248732D01*
X0123872Y0248597D01*
X0123924Y0248460D01*
X0123973Y0248321D01*
X0124018Y0248182D01*
X0124059Y0248041D01*
X0124096Y0247899D01*
X0124129Y0247757D01*
X0124159Y0247613D01*
X0124185Y0247469D01*
X0124206Y0247324D01*
X0124224Y0247178D01*
X0124238Y0247032D01*
X0124248Y0246886D01*
X0124254Y0246740D01*
X0124256Y0246593D01*
X0124254Y0246446D01*
X0124248Y0246300D01*
X0124238Y0246154D01*
X0124224Y0246008D01*
X0124206Y0245862D01*
X0124185Y0245717D01*
X0124159Y0245573D01*
X0124129Y0245429D01*
X0124096Y0245287D01*
X0124059Y0245145D01*
X0124018Y0245004D01*
X0123973Y0244865D01*
X0123924Y0244726D01*
X0123872Y0244589D01*
X0123815Y0244454D01*
X0123756Y0244320D01*
X0123692Y0244188D01*
X0123625Y0244058D01*
X0123555Y0243929D01*
X0123481Y0243802D01*
X0123404Y0243678D01*
X0123323Y0243555D01*
X0123239Y0243435D01*
X0123152Y0243317D01*
X0123062Y0243202D01*
X0122969Y0243089D01*
X0122872Y0242978D01*
X0122773Y0242870D01*
X0122671Y0242765D01*
X0122566Y0242663D01*
X0122458Y0242564D01*
X0122347Y0242467D01*
X0122234Y0242374D01*
X0122119Y0242284D01*
X0122001Y0242197D01*
X0121881Y0242113D01*
X0121758Y0242032D01*
X0121634Y0241955D01*
X0121507Y0241881D01*
X0121378Y0241811D01*
X0121248Y0241744D01*
X0121116Y0241680D01*
X0120982Y0241621D01*
X0120847Y0241564D01*
X0120710Y0241512D01*
X0120571Y0241463D01*
X0120432Y0241418D01*
X0120291Y0241377D01*
X0120149Y0241340D01*
X0120007Y0241307D01*
X0119863Y0241277D01*
X0119719Y0241251D01*
X0119574Y0241230D01*
X0119428Y0241212D01*
X0119282Y0241198D01*
X0119136Y0241188D01*
X0118990Y0241182D01*
X0118843Y0241180D01*
X0118696Y0241182D01*
X0118550Y0241188D01*
X0118404Y0241198D01*
X0118258Y0241212D01*
X0118112Y0241230D01*
X0117967Y0241251D01*
X0117823Y0241277D01*
X0117679Y0241307D01*
X0117537Y0241340D01*
X0117395Y0241377D01*
X0117254Y0241418D01*
X0117115Y0241463D01*
X0116976Y0241512D01*
X0116839Y0241564D01*
X0116704Y0241621D01*
X0116570Y0241680D01*
X0116438Y0241744D01*
X0116308Y0241811D01*
X0116179Y0241881D01*
X0116052Y0241955D01*
X0115928Y0242032D01*
X0115805Y0242113D01*
X0115685Y0242197D01*
X0115567Y0242284D01*
X0115452Y0242374D01*
X0115339Y0242467D01*
X0115228Y0242564D01*
X0115120Y0242663D01*
X0115015Y0242765D01*
X0114913Y0242870D01*
X0114814Y0242978D01*
X0114717Y0243089D01*
X0114624Y0243202D01*
X0114534Y0243317D01*
X0114447Y0243435D01*
X0114363Y0243555D01*
X0114282Y0243678D01*
X0114205Y0243802D01*
X0114131Y0243929D01*
X0114061Y0244058D01*
X0113994Y0244188D01*
X0113930Y0244320D01*
X0113871Y0244454D01*
X0113814Y0244589D01*
X0113762Y0244726D01*
X0113713Y0244865D01*
X0113668Y0245004D01*
X0113627Y0245145D01*
X0113590Y0245287D01*
X0113557Y0245429D01*
X0113527Y0245573D01*
X0113501Y0245717D01*
X0113480Y0245862D01*
X0113462Y0246008D01*
X0113448Y0246154D01*
X0113438Y0246300D01*
X0113432Y0246446D01*
X0113430Y0246593D01*
D12*
X0044976Y0260382D02*
X0044976Y0260027D01*
X0044976Y0260028D02*
X0044691Y0260024D01*
X0044406Y0260013D01*
X0044122Y0259995D01*
X0043838Y0259970D01*
X0043555Y0259938D01*
X0043272Y0259900D01*
X0042991Y0259854D01*
X0042711Y0259802D01*
X0042432Y0259742D01*
X0042155Y0259676D01*
X0041880Y0259603D01*
X0041606Y0259523D01*
X0041335Y0259437D01*
X0041065Y0259344D01*
X0040798Y0259245D01*
X0040534Y0259139D01*
X0040272Y0259026D01*
X0040013Y0258907D01*
X0039757Y0258782D01*
X0039504Y0258651D01*
X0039255Y0258513D01*
X0039009Y0258370D01*
X0038766Y0258220D01*
X0038527Y0258065D01*
X0038293Y0257903D01*
X0038062Y0257736D01*
X0037835Y0257564D01*
X0037613Y0257386D01*
X0037395Y0257202D01*
X0037181Y0257013D01*
X0036972Y0256819D01*
X0036769Y0256620D01*
X0036570Y0256417D01*
X0036376Y0256208D01*
X0036187Y0255994D01*
X0036003Y0255776D01*
X0035825Y0255554D01*
X0035653Y0255327D01*
X0035486Y0255096D01*
X0035324Y0254862D01*
X0035169Y0254623D01*
X0035019Y0254380D01*
X0034876Y0254134D01*
X0034738Y0253885D01*
X0034607Y0253632D01*
X0034482Y0253376D01*
X0034363Y0253117D01*
X0034250Y0252855D01*
X0034144Y0252591D01*
X0034045Y0252324D01*
X0033952Y0252054D01*
X0033866Y0251783D01*
X0033786Y0251509D01*
X0033713Y0251234D01*
X0033647Y0250957D01*
X0033587Y0250678D01*
X0033535Y0250398D01*
X0033489Y0250117D01*
X0033451Y0249834D01*
X0033419Y0249551D01*
X0033394Y0249267D01*
X0033376Y0248983D01*
X0033365Y0248698D01*
X0033361Y0248413D01*
X0033007Y0248413D01*
X0033006Y0248413D01*
X0033010Y0248707D01*
X0033021Y0249001D01*
X0033040Y0249294D01*
X0033065Y0249586D01*
X0033098Y0249878D01*
X0033138Y0250169D01*
X0033185Y0250459D01*
X0033239Y0250747D01*
X0033300Y0251034D01*
X0033369Y0251320D01*
X0033444Y0251604D01*
X0033526Y0251886D01*
X0033615Y0252166D01*
X0033711Y0252443D01*
X0033813Y0252718D01*
X0033922Y0252991D01*
X0034038Y0253261D01*
X0034161Y0253528D01*
X0034290Y0253791D01*
X0034425Y0254052D01*
X0034567Y0254309D01*
X0034715Y0254563D01*
X0034869Y0254813D01*
X0035029Y0255059D01*
X0035195Y0255301D01*
X0035368Y0255539D01*
X0035545Y0255772D01*
X0035729Y0256002D01*
X0035918Y0256226D01*
X0036113Y0256446D01*
X0036312Y0256661D01*
X0036517Y0256872D01*
X0036728Y0257077D01*
X0036943Y0257276D01*
X0037163Y0257471D01*
X0037387Y0257660D01*
X0037617Y0257844D01*
X0037850Y0258021D01*
X0038088Y0258194D01*
X0038330Y0258360D01*
X0038576Y0258520D01*
X0038826Y0258674D01*
X0039080Y0258822D01*
X0039337Y0258964D01*
X0039598Y0259099D01*
X0039861Y0259228D01*
X0040128Y0259351D01*
X0040398Y0259467D01*
X0040671Y0259576D01*
X0040946Y0259678D01*
X0041223Y0259774D01*
X0041503Y0259863D01*
X0041785Y0259945D01*
X0042069Y0260020D01*
X0042355Y0260089D01*
X0042642Y0260150D01*
X0042930Y0260204D01*
X0043220Y0260251D01*
X0043511Y0260291D01*
X0043803Y0260324D01*
X0044095Y0260349D01*
X0044388Y0260368D01*
X0044682Y0260379D01*
X0044976Y0260383D01*
X0044976Y0260347D01*
X0044683Y0260343D01*
X0044390Y0260332D01*
X0044098Y0260313D01*
X0043806Y0260288D01*
X0043515Y0260255D01*
X0043225Y0260215D01*
X0042936Y0260168D01*
X0042649Y0260114D01*
X0042362Y0260053D01*
X0042078Y0259986D01*
X0041795Y0259911D01*
X0041514Y0259829D01*
X0041235Y0259740D01*
X0040958Y0259645D01*
X0040684Y0259542D01*
X0040412Y0259433D01*
X0040143Y0259318D01*
X0039877Y0259196D01*
X0039614Y0259067D01*
X0039354Y0258932D01*
X0039098Y0258791D01*
X0038845Y0258643D01*
X0038596Y0258490D01*
X0038350Y0258330D01*
X0038109Y0258164D01*
X0037872Y0257993D01*
X0037639Y0257815D01*
X0037410Y0257632D01*
X0037186Y0257444D01*
X0036967Y0257250D01*
X0036752Y0257051D01*
X0036543Y0256846D01*
X0036338Y0256637D01*
X0036139Y0256422D01*
X0035945Y0256203D01*
X0035757Y0255979D01*
X0035574Y0255750D01*
X0035396Y0255517D01*
X0035225Y0255280D01*
X0035059Y0255039D01*
X0034899Y0254793D01*
X0034746Y0254544D01*
X0034598Y0254291D01*
X0034457Y0254035D01*
X0034322Y0253775D01*
X0034193Y0253512D01*
X0034071Y0253246D01*
X0033956Y0252977D01*
X0033847Y0252705D01*
X0033744Y0252431D01*
X0033649Y0252154D01*
X0033560Y0251875D01*
X0033478Y0251594D01*
X0033403Y0251311D01*
X0033336Y0251027D01*
X0033275Y0250740D01*
X0033221Y0250453D01*
X0033174Y0250164D01*
X0033134Y0249874D01*
X0033101Y0249583D01*
X0033076Y0249291D01*
X0033057Y0248999D01*
X0033046Y0248706D01*
X0033042Y0248413D01*
X0033078Y0248413D01*
X0033082Y0248705D01*
X0033093Y0248997D01*
X0033112Y0249288D01*
X0033137Y0249579D01*
X0033170Y0249869D01*
X0033209Y0250158D01*
X0033256Y0250446D01*
X0033310Y0250733D01*
X0033371Y0251019D01*
X0033438Y0251303D01*
X0033513Y0251585D01*
X0033595Y0251865D01*
X0033683Y0252143D01*
X0033778Y0252419D01*
X0033880Y0252693D01*
X0033989Y0252963D01*
X0034104Y0253232D01*
X0034226Y0253497D01*
X0034354Y0253759D01*
X0034489Y0254018D01*
X0034629Y0254274D01*
X0034777Y0254526D01*
X0034930Y0254774D01*
X0035089Y0255019D01*
X0035254Y0255259D01*
X0035425Y0255496D01*
X0035602Y0255728D01*
X0035785Y0255956D01*
X0035973Y0256179D01*
X0036166Y0256398D01*
X0036365Y0256612D01*
X0036568Y0256821D01*
X0036777Y0257024D01*
X0036991Y0257223D01*
X0037210Y0257416D01*
X0037433Y0257604D01*
X0037661Y0257787D01*
X0037893Y0257964D01*
X0038130Y0258135D01*
X0038370Y0258300D01*
X0038615Y0258459D01*
X0038863Y0258612D01*
X0039115Y0258760D01*
X0039371Y0258900D01*
X0039630Y0259035D01*
X0039892Y0259163D01*
X0040157Y0259285D01*
X0040426Y0259400D01*
X0040696Y0259509D01*
X0040970Y0259611D01*
X0041246Y0259706D01*
X0041524Y0259794D01*
X0041804Y0259876D01*
X0042086Y0259951D01*
X0042370Y0260018D01*
X0042656Y0260079D01*
X0042943Y0260133D01*
X0043231Y0260180D01*
X0043520Y0260219D01*
X0043810Y0260252D01*
X0044101Y0260277D01*
X0044392Y0260296D01*
X0044684Y0260307D01*
X0044976Y0260311D01*
X0044976Y0260275D01*
X0044685Y0260271D01*
X0044394Y0260260D01*
X0044103Y0260241D01*
X0043813Y0260216D01*
X0043524Y0260184D01*
X0043236Y0260144D01*
X0042949Y0260097D01*
X0042663Y0260044D01*
X0042378Y0259983D01*
X0042095Y0259916D01*
X0041814Y0259841D01*
X0041534Y0259760D01*
X0041257Y0259672D01*
X0040982Y0259577D01*
X0040709Y0259475D01*
X0040439Y0259367D01*
X0040172Y0259252D01*
X0039908Y0259131D01*
X0039646Y0259003D01*
X0039388Y0258869D01*
X0039133Y0258728D01*
X0038882Y0258582D01*
X0038634Y0258429D01*
X0038390Y0258270D01*
X0038150Y0258105D01*
X0037915Y0257935D01*
X0037683Y0257758D01*
X0037456Y0257577D01*
X0037233Y0257389D01*
X0037015Y0257196D01*
X0036802Y0256998D01*
X0036594Y0256795D01*
X0036391Y0256587D01*
X0036193Y0256374D01*
X0036000Y0256156D01*
X0035812Y0255933D01*
X0035631Y0255706D01*
X0035454Y0255474D01*
X0035284Y0255239D01*
X0035119Y0254999D01*
X0034960Y0254755D01*
X0034807Y0254507D01*
X0034661Y0254256D01*
X0034520Y0254001D01*
X0034386Y0253743D01*
X0034258Y0253481D01*
X0034137Y0253217D01*
X0034022Y0252950D01*
X0033914Y0252680D01*
X0033812Y0252407D01*
X0033717Y0252132D01*
X0033629Y0251855D01*
X0033548Y0251575D01*
X0033473Y0251294D01*
X0033406Y0251011D01*
X0033345Y0250726D01*
X0033292Y0250440D01*
X0033245Y0250153D01*
X0033205Y0249865D01*
X0033173Y0249576D01*
X0033148Y0249286D01*
X0033129Y0248995D01*
X0033118Y0248704D01*
X0033114Y0248413D01*
X0033150Y0248413D01*
X0033154Y0248704D01*
X0033165Y0248993D01*
X0033183Y0249283D01*
X0033209Y0249572D01*
X0033241Y0249860D01*
X0033281Y0250148D01*
X0033327Y0250434D01*
X0033380Y0250719D01*
X0033441Y0251003D01*
X0033508Y0251285D01*
X0033582Y0251566D01*
X0033664Y0251844D01*
X0033751Y0252121D01*
X0033846Y0252395D01*
X0033947Y0252667D01*
X0034055Y0252936D01*
X0034170Y0253202D01*
X0034291Y0253466D01*
X0034418Y0253727D01*
X0034552Y0253984D01*
X0034692Y0254238D01*
X0034838Y0254489D01*
X0034991Y0254736D01*
X0035149Y0254979D01*
X0035313Y0255218D01*
X0035483Y0255453D01*
X0035659Y0255684D01*
X0035840Y0255910D01*
X0036027Y0256132D01*
X0036219Y0256350D01*
X0036417Y0256562D01*
X0036619Y0256770D01*
X0036827Y0256972D01*
X0037039Y0257170D01*
X0037257Y0257362D01*
X0037479Y0257549D01*
X0037705Y0257730D01*
X0037936Y0257906D01*
X0038171Y0258076D01*
X0038410Y0258240D01*
X0038653Y0258398D01*
X0038900Y0258551D01*
X0039151Y0258697D01*
X0039405Y0258837D01*
X0039662Y0258971D01*
X0039923Y0259098D01*
X0040187Y0259219D01*
X0040453Y0259334D01*
X0040722Y0259442D01*
X0040994Y0259543D01*
X0041268Y0259638D01*
X0041545Y0259725D01*
X0041823Y0259807D01*
X0042104Y0259881D01*
X0042386Y0259948D01*
X0042670Y0260009D01*
X0042955Y0260062D01*
X0043241Y0260108D01*
X0043529Y0260148D01*
X0043817Y0260180D01*
X0044106Y0260206D01*
X0044396Y0260224D01*
X0044685Y0260235D01*
X0044976Y0260239D01*
X0044976Y0260203D01*
X0044686Y0260199D01*
X0044397Y0260188D01*
X0044109Y0260170D01*
X0043821Y0260144D01*
X0043533Y0260112D01*
X0043247Y0260073D01*
X0042961Y0260027D01*
X0042677Y0259973D01*
X0042394Y0259913D01*
X0042113Y0259846D01*
X0041833Y0259772D01*
X0041555Y0259691D01*
X0041280Y0259603D01*
X0041006Y0259509D01*
X0040735Y0259408D01*
X0040467Y0259300D01*
X0040201Y0259186D01*
X0039938Y0259066D01*
X0039678Y0258939D01*
X0039422Y0258805D01*
X0039169Y0258666D01*
X0038919Y0258520D01*
X0038673Y0258368D01*
X0038430Y0258210D01*
X0038192Y0258046D01*
X0037957Y0257877D01*
X0037727Y0257702D01*
X0037502Y0257521D01*
X0037280Y0257335D01*
X0037064Y0257143D01*
X0036852Y0256946D01*
X0036645Y0256744D01*
X0036443Y0256537D01*
X0036246Y0256325D01*
X0036054Y0256109D01*
X0035868Y0255887D01*
X0035687Y0255662D01*
X0035512Y0255432D01*
X0035343Y0255197D01*
X0035179Y0254959D01*
X0035021Y0254716D01*
X0034869Y0254470D01*
X0034723Y0254220D01*
X0034584Y0253967D01*
X0034450Y0253711D01*
X0034323Y0253451D01*
X0034203Y0253188D01*
X0034089Y0252922D01*
X0033981Y0252654D01*
X0033880Y0252383D01*
X0033786Y0252109D01*
X0033698Y0251834D01*
X0033617Y0251556D01*
X0033543Y0251276D01*
X0033476Y0250995D01*
X0033416Y0250712D01*
X0033362Y0250428D01*
X0033316Y0250142D01*
X0033277Y0249856D01*
X0033245Y0249568D01*
X0033219Y0249280D01*
X0033201Y0248992D01*
X0033190Y0248703D01*
X0033186Y0248413D01*
X0033222Y0248413D01*
X0033226Y0248702D01*
X0033237Y0248990D01*
X0033255Y0249278D01*
X0033280Y0249565D01*
X0033313Y0249851D01*
X0033352Y0250137D01*
X0033398Y0250422D01*
X0033451Y0250705D01*
X0033511Y0250987D01*
X0033578Y0251268D01*
X0033652Y0251546D01*
X0033732Y0251823D01*
X0033820Y0252098D01*
X0033914Y0252371D01*
X0034015Y0252641D01*
X0034122Y0252908D01*
X0034236Y0253173D01*
X0034356Y0253435D01*
X0034483Y0253694D01*
X0034616Y0253950D01*
X0034755Y0254203D01*
X0034900Y0254452D01*
X0035051Y0254697D01*
X0035209Y0254939D01*
X0035372Y0255176D01*
X0035541Y0255410D01*
X0035716Y0255640D01*
X0035896Y0255865D01*
X0036082Y0256085D01*
X0036273Y0256301D01*
X0036469Y0256512D01*
X0036670Y0256719D01*
X0036877Y0256920D01*
X0037088Y0257116D01*
X0037304Y0257307D01*
X0037524Y0257493D01*
X0037749Y0257673D01*
X0037979Y0257848D01*
X0038213Y0258017D01*
X0038450Y0258180D01*
X0038692Y0258338D01*
X0038937Y0258489D01*
X0039186Y0258634D01*
X0039439Y0258773D01*
X0039695Y0258906D01*
X0039954Y0259033D01*
X0040216Y0259153D01*
X0040481Y0259267D01*
X0040748Y0259374D01*
X0041018Y0259475D01*
X0041291Y0259569D01*
X0041566Y0259657D01*
X0041843Y0259737D01*
X0042121Y0259811D01*
X0042402Y0259878D01*
X0042684Y0259938D01*
X0042967Y0259991D01*
X0043252Y0260037D01*
X0043538Y0260076D01*
X0043824Y0260109D01*
X0044111Y0260134D01*
X0044399Y0260152D01*
X0044687Y0260163D01*
X0044976Y0260167D01*
X0044976Y0260131D01*
X0044688Y0260127D01*
X0044401Y0260116D01*
X0044114Y0260098D01*
X0043828Y0260073D01*
X0043542Y0260041D01*
X0043257Y0260002D01*
X0042973Y0259956D01*
X0042691Y0259903D01*
X0042410Y0259843D01*
X0042130Y0259776D01*
X0041852Y0259702D01*
X0041576Y0259622D01*
X0041302Y0259535D01*
X0041031Y0259441D01*
X0040761Y0259341D01*
X0040494Y0259234D01*
X0040230Y0259120D01*
X0039969Y0259000D01*
X0039711Y0258874D01*
X0039456Y0258742D01*
X0039204Y0258603D01*
X0038956Y0258458D01*
X0038711Y0258307D01*
X0038470Y0258150D01*
X0038233Y0257988D01*
X0038000Y0257819D01*
X0037772Y0257645D01*
X0037547Y0257465D01*
X0037327Y0257280D01*
X0037112Y0257090D01*
X0036901Y0256894D01*
X0036696Y0256693D01*
X0036495Y0256488D01*
X0036299Y0256277D01*
X0036109Y0256062D01*
X0035924Y0255842D01*
X0035744Y0255617D01*
X0035570Y0255389D01*
X0035401Y0255156D01*
X0035239Y0254919D01*
X0035082Y0254678D01*
X0034931Y0254433D01*
X0034786Y0254185D01*
X0034647Y0253933D01*
X0034515Y0253678D01*
X0034389Y0253420D01*
X0034269Y0253159D01*
X0034155Y0252895D01*
X0034048Y0252628D01*
X0033948Y0252358D01*
X0033854Y0252087D01*
X0033767Y0251813D01*
X0033687Y0251537D01*
X0033613Y0251259D01*
X0033546Y0250979D01*
X0033486Y0250698D01*
X0033433Y0250416D01*
X0033387Y0250132D01*
X0033348Y0249847D01*
X0033316Y0249561D01*
X0033291Y0249275D01*
X0033273Y0248988D01*
X0033262Y0248701D01*
X0033258Y0248413D01*
X0033294Y0248413D01*
X0033298Y0248700D01*
X0033309Y0248986D01*
X0033327Y0249272D01*
X0033352Y0249558D01*
X0033384Y0249843D01*
X0033423Y0250127D01*
X0033469Y0250409D01*
X0033522Y0250691D01*
X0033581Y0250971D01*
X0033648Y0251250D01*
X0033721Y0251527D01*
X0033801Y0251802D01*
X0033888Y0252075D01*
X0033982Y0252346D01*
X0034082Y0252615D01*
X0034188Y0252881D01*
X0034302Y0253144D01*
X0034421Y0253405D01*
X0034547Y0253662D01*
X0034679Y0253916D01*
X0034817Y0254167D01*
X0034962Y0254415D01*
X0035112Y0254659D01*
X0035269Y0254899D01*
X0035431Y0255135D01*
X0035599Y0255367D01*
X0035772Y0255595D01*
X0035952Y0255819D01*
X0036136Y0256038D01*
X0036326Y0256253D01*
X0036521Y0256463D01*
X0036721Y0256668D01*
X0036926Y0256868D01*
X0037136Y0257063D01*
X0037351Y0257253D01*
X0037570Y0257437D01*
X0037794Y0257617D01*
X0038022Y0257790D01*
X0038254Y0257958D01*
X0038490Y0258120D01*
X0038730Y0258277D01*
X0038974Y0258427D01*
X0039222Y0258572D01*
X0039473Y0258710D01*
X0039727Y0258842D01*
X0039984Y0258968D01*
X0040245Y0259087D01*
X0040508Y0259201D01*
X0040774Y0259307D01*
X0041043Y0259407D01*
X0041314Y0259501D01*
X0041587Y0259588D01*
X0041862Y0259668D01*
X0042139Y0259741D01*
X0042418Y0259808D01*
X0042698Y0259867D01*
X0042980Y0259920D01*
X0043262Y0259966D01*
X0043546Y0260005D01*
X0043831Y0260037D01*
X0044117Y0260062D01*
X0044403Y0260080D01*
X0044689Y0260091D01*
X0044976Y0260095D01*
X0044976Y0260059D01*
X0044690Y0260055D01*
X0044404Y0260044D01*
X0044119Y0260026D01*
X0043835Y0260001D01*
X0043551Y0259969D01*
X0043268Y0259930D01*
X0042986Y0259885D01*
X0042705Y0259832D01*
X0042426Y0259772D01*
X0042148Y0259706D01*
X0041871Y0259633D01*
X0041597Y0259553D01*
X0041325Y0259467D01*
X0041055Y0259373D01*
X0040787Y0259274D01*
X0040522Y0259167D01*
X0040260Y0259055D01*
X0040000Y0258935D01*
X0039743Y0258810D01*
X0039490Y0258678D01*
X0039240Y0258540D01*
X0038993Y0258396D01*
X0038750Y0258246D01*
X0038510Y0258090D01*
X0038275Y0257929D01*
X0038043Y0257761D01*
X0037816Y0257588D01*
X0037593Y0257410D01*
X0037374Y0257226D01*
X0037160Y0257036D01*
X0036951Y0256842D01*
X0036747Y0256642D01*
X0036547Y0256438D01*
X0036353Y0256229D01*
X0036163Y0256015D01*
X0035979Y0255796D01*
X0035801Y0255573D01*
X0035628Y0255346D01*
X0035460Y0255114D01*
X0035299Y0254879D01*
X0035143Y0254639D01*
X0034993Y0254396D01*
X0034849Y0254149D01*
X0034711Y0253899D01*
X0034579Y0253646D01*
X0034454Y0253389D01*
X0034334Y0253129D01*
X0034222Y0252867D01*
X0034115Y0252602D01*
X0034016Y0252334D01*
X0033922Y0252064D01*
X0033836Y0251792D01*
X0033756Y0251518D01*
X0033683Y0251241D01*
X0033617Y0250963D01*
X0033557Y0250684D01*
X0033504Y0250403D01*
X0033459Y0250121D01*
X0033420Y0249838D01*
X0033388Y0249554D01*
X0033363Y0249270D01*
X0033345Y0248985D01*
X0033334Y0248699D01*
X0033330Y0248413D01*
X0328636Y0248413D02*
X0328281Y0248413D01*
X0328282Y0248413D02*
X0328278Y0248698D01*
X0328267Y0248983D01*
X0328249Y0249267D01*
X0328224Y0249551D01*
X0328192Y0249834D01*
X0328154Y0250117D01*
X0328108Y0250398D01*
X0328056Y0250678D01*
X0327996Y0250957D01*
X0327930Y0251234D01*
X0327857Y0251509D01*
X0327777Y0251783D01*
X0327691Y0252054D01*
X0327598Y0252324D01*
X0327499Y0252591D01*
X0327393Y0252855D01*
X0327280Y0253117D01*
X0327161Y0253376D01*
X0327036Y0253632D01*
X0326905Y0253885D01*
X0326767Y0254134D01*
X0326624Y0254380D01*
X0326474Y0254623D01*
X0326319Y0254862D01*
X0326157Y0255096D01*
X0325990Y0255327D01*
X0325818Y0255554D01*
X0325640Y0255776D01*
X0325456Y0255994D01*
X0325267Y0256208D01*
X0325073Y0256417D01*
X0324874Y0256620D01*
X0324671Y0256819D01*
X0324462Y0257013D01*
X0324248Y0257202D01*
X0324030Y0257386D01*
X0323808Y0257564D01*
X0323581Y0257736D01*
X0323350Y0257903D01*
X0323116Y0258065D01*
X0322877Y0258220D01*
X0322634Y0258370D01*
X0322388Y0258513D01*
X0322139Y0258651D01*
X0321886Y0258782D01*
X0321630Y0258907D01*
X0321371Y0259026D01*
X0321109Y0259139D01*
X0320845Y0259245D01*
X0320578Y0259344D01*
X0320308Y0259437D01*
X0320037Y0259523D01*
X0319763Y0259603D01*
X0319488Y0259676D01*
X0319211Y0259742D01*
X0318932Y0259802D01*
X0318652Y0259854D01*
X0318371Y0259900D01*
X0318088Y0259938D01*
X0317805Y0259970D01*
X0317521Y0259995D01*
X0317237Y0260013D01*
X0316952Y0260024D01*
X0316667Y0260028D01*
X0316667Y0260382D01*
X0316667Y0260383D01*
X0316961Y0260379D01*
X0317255Y0260368D01*
X0317548Y0260349D01*
X0317840Y0260324D01*
X0318132Y0260291D01*
X0318423Y0260251D01*
X0318713Y0260204D01*
X0319001Y0260150D01*
X0319288Y0260089D01*
X0319574Y0260020D01*
X0319858Y0259945D01*
X0320140Y0259863D01*
X0320420Y0259774D01*
X0320697Y0259678D01*
X0320972Y0259576D01*
X0321245Y0259467D01*
X0321515Y0259351D01*
X0321782Y0259228D01*
X0322045Y0259099D01*
X0322306Y0258964D01*
X0322563Y0258822D01*
X0322817Y0258674D01*
X0323067Y0258520D01*
X0323313Y0258360D01*
X0323555Y0258194D01*
X0323793Y0258021D01*
X0324026Y0257844D01*
X0324256Y0257660D01*
X0324480Y0257471D01*
X0324700Y0257276D01*
X0324915Y0257077D01*
X0325126Y0256872D01*
X0325331Y0256661D01*
X0325530Y0256446D01*
X0325725Y0256226D01*
X0325914Y0256002D01*
X0326098Y0255772D01*
X0326275Y0255539D01*
X0326448Y0255301D01*
X0326614Y0255059D01*
X0326774Y0254813D01*
X0326928Y0254563D01*
X0327076Y0254309D01*
X0327218Y0254052D01*
X0327353Y0253791D01*
X0327482Y0253528D01*
X0327605Y0253261D01*
X0327721Y0252991D01*
X0327830Y0252718D01*
X0327932Y0252443D01*
X0328028Y0252166D01*
X0328117Y0251886D01*
X0328199Y0251604D01*
X0328274Y0251320D01*
X0328343Y0251034D01*
X0328404Y0250747D01*
X0328458Y0250459D01*
X0328505Y0250169D01*
X0328545Y0249878D01*
X0328578Y0249586D01*
X0328603Y0249294D01*
X0328622Y0249001D01*
X0328633Y0248707D01*
X0328637Y0248413D01*
X0328601Y0248413D01*
X0328597Y0248706D01*
X0328586Y0248999D01*
X0328567Y0249291D01*
X0328542Y0249583D01*
X0328509Y0249874D01*
X0328469Y0250164D01*
X0328422Y0250453D01*
X0328368Y0250740D01*
X0328307Y0251027D01*
X0328240Y0251311D01*
X0328165Y0251594D01*
X0328083Y0251875D01*
X0327994Y0252154D01*
X0327899Y0252431D01*
X0327796Y0252705D01*
X0327687Y0252977D01*
X0327572Y0253246D01*
X0327450Y0253512D01*
X0327321Y0253775D01*
X0327186Y0254035D01*
X0327045Y0254291D01*
X0326897Y0254544D01*
X0326744Y0254793D01*
X0326584Y0255039D01*
X0326418Y0255280D01*
X0326247Y0255517D01*
X0326069Y0255750D01*
X0325886Y0255979D01*
X0325698Y0256203D01*
X0325504Y0256422D01*
X0325305Y0256637D01*
X0325100Y0256846D01*
X0324891Y0257051D01*
X0324676Y0257250D01*
X0324457Y0257444D01*
X0324233Y0257632D01*
X0324004Y0257815D01*
X0323771Y0257993D01*
X0323534Y0258164D01*
X0323293Y0258330D01*
X0323047Y0258490D01*
X0322798Y0258643D01*
X0322545Y0258791D01*
X0322289Y0258932D01*
X0322029Y0259067D01*
X0321766Y0259196D01*
X0321500Y0259318D01*
X0321231Y0259433D01*
X0320959Y0259542D01*
X0320685Y0259645D01*
X0320408Y0259740D01*
X0320129Y0259829D01*
X0319848Y0259911D01*
X0319565Y0259986D01*
X0319281Y0260053D01*
X0318994Y0260114D01*
X0318707Y0260168D01*
X0318418Y0260215D01*
X0318128Y0260255D01*
X0317837Y0260288D01*
X0317545Y0260313D01*
X0317253Y0260332D01*
X0316960Y0260343D01*
X0316667Y0260347D01*
X0316667Y0260311D01*
X0316959Y0260307D01*
X0317251Y0260296D01*
X0317542Y0260277D01*
X0317833Y0260252D01*
X0318123Y0260219D01*
X0318412Y0260180D01*
X0318700Y0260133D01*
X0318987Y0260079D01*
X0319273Y0260018D01*
X0319557Y0259951D01*
X0319839Y0259876D01*
X0320119Y0259794D01*
X0320397Y0259706D01*
X0320673Y0259611D01*
X0320947Y0259509D01*
X0321217Y0259400D01*
X0321486Y0259285D01*
X0321751Y0259163D01*
X0322013Y0259035D01*
X0322272Y0258900D01*
X0322528Y0258760D01*
X0322780Y0258612D01*
X0323028Y0258459D01*
X0323273Y0258300D01*
X0323513Y0258135D01*
X0323750Y0257964D01*
X0323982Y0257787D01*
X0324210Y0257604D01*
X0324433Y0257416D01*
X0324652Y0257223D01*
X0324866Y0257024D01*
X0325075Y0256821D01*
X0325278Y0256612D01*
X0325477Y0256398D01*
X0325670Y0256179D01*
X0325858Y0255956D01*
X0326041Y0255728D01*
X0326218Y0255496D01*
X0326389Y0255259D01*
X0326554Y0255019D01*
X0326713Y0254774D01*
X0326866Y0254526D01*
X0327014Y0254274D01*
X0327154Y0254018D01*
X0327289Y0253759D01*
X0327417Y0253497D01*
X0327539Y0253232D01*
X0327654Y0252963D01*
X0327763Y0252693D01*
X0327865Y0252419D01*
X0327960Y0252143D01*
X0328048Y0251865D01*
X0328130Y0251585D01*
X0328205Y0251303D01*
X0328272Y0251019D01*
X0328333Y0250733D01*
X0328387Y0250446D01*
X0328434Y0250158D01*
X0328473Y0249869D01*
X0328506Y0249579D01*
X0328531Y0249288D01*
X0328550Y0248997D01*
X0328561Y0248705D01*
X0328565Y0248413D01*
X0328529Y0248413D01*
X0328525Y0248704D01*
X0328514Y0248995D01*
X0328495Y0249286D01*
X0328470Y0249576D01*
X0328438Y0249865D01*
X0328398Y0250153D01*
X0328351Y0250440D01*
X0328298Y0250726D01*
X0328237Y0251011D01*
X0328170Y0251294D01*
X0328095Y0251575D01*
X0328014Y0251855D01*
X0327926Y0252132D01*
X0327831Y0252407D01*
X0327729Y0252680D01*
X0327621Y0252950D01*
X0327506Y0253217D01*
X0327385Y0253481D01*
X0327257Y0253743D01*
X0327123Y0254001D01*
X0326982Y0254256D01*
X0326836Y0254507D01*
X0326683Y0254755D01*
X0326524Y0254999D01*
X0326359Y0255239D01*
X0326189Y0255474D01*
X0326012Y0255706D01*
X0325831Y0255933D01*
X0325643Y0256156D01*
X0325450Y0256374D01*
X0325252Y0256587D01*
X0325049Y0256795D01*
X0324841Y0256998D01*
X0324628Y0257196D01*
X0324410Y0257389D01*
X0324187Y0257577D01*
X0323960Y0257758D01*
X0323728Y0257935D01*
X0323493Y0258105D01*
X0323253Y0258270D01*
X0323009Y0258429D01*
X0322761Y0258582D01*
X0322510Y0258728D01*
X0322255Y0258869D01*
X0321997Y0259003D01*
X0321735Y0259131D01*
X0321471Y0259252D01*
X0321204Y0259367D01*
X0320934Y0259475D01*
X0320661Y0259577D01*
X0320386Y0259672D01*
X0320109Y0259760D01*
X0319829Y0259841D01*
X0319548Y0259916D01*
X0319265Y0259983D01*
X0318980Y0260044D01*
X0318694Y0260097D01*
X0318407Y0260144D01*
X0318119Y0260184D01*
X0317830Y0260216D01*
X0317540Y0260241D01*
X0317249Y0260260D01*
X0316958Y0260271D01*
X0316667Y0260275D01*
X0316667Y0260239D01*
X0316958Y0260235D01*
X0317247Y0260224D01*
X0317537Y0260206D01*
X0317826Y0260180D01*
X0318114Y0260148D01*
X0318402Y0260108D01*
X0318688Y0260062D01*
X0318973Y0260009D01*
X0319257Y0259948D01*
X0319539Y0259881D01*
X0319820Y0259807D01*
X0320098Y0259725D01*
X0320375Y0259638D01*
X0320649Y0259543D01*
X0320921Y0259442D01*
X0321190Y0259334D01*
X0321456Y0259219D01*
X0321720Y0259098D01*
X0321981Y0258971D01*
X0322238Y0258837D01*
X0322492Y0258697D01*
X0322743Y0258551D01*
X0322990Y0258398D01*
X0323233Y0258240D01*
X0323472Y0258076D01*
X0323707Y0257906D01*
X0323938Y0257730D01*
X0324164Y0257549D01*
X0324386Y0257362D01*
X0324604Y0257170D01*
X0324816Y0256972D01*
X0325024Y0256770D01*
X0325226Y0256562D01*
X0325424Y0256350D01*
X0325616Y0256132D01*
X0325803Y0255910D01*
X0325984Y0255684D01*
X0326160Y0255453D01*
X0326330Y0255218D01*
X0326494Y0254979D01*
X0326652Y0254736D01*
X0326805Y0254489D01*
X0326951Y0254238D01*
X0327091Y0253984D01*
X0327225Y0253727D01*
X0327352Y0253466D01*
X0327473Y0253202D01*
X0327588Y0252936D01*
X0327696Y0252667D01*
X0327797Y0252395D01*
X0327892Y0252121D01*
X0327979Y0251844D01*
X0328061Y0251566D01*
X0328135Y0251285D01*
X0328202Y0251003D01*
X0328263Y0250719D01*
X0328316Y0250434D01*
X0328362Y0250148D01*
X0328402Y0249860D01*
X0328434Y0249572D01*
X0328460Y0249283D01*
X0328478Y0248993D01*
X0328489Y0248704D01*
X0328493Y0248413D01*
X0328457Y0248413D01*
X0328453Y0248703D01*
X0328442Y0248992D01*
X0328424Y0249280D01*
X0328398Y0249568D01*
X0328366Y0249856D01*
X0328327Y0250142D01*
X0328281Y0250428D01*
X0328227Y0250712D01*
X0328167Y0250995D01*
X0328100Y0251276D01*
X0328026Y0251556D01*
X0327945Y0251834D01*
X0327857Y0252109D01*
X0327763Y0252383D01*
X0327662Y0252654D01*
X0327554Y0252922D01*
X0327440Y0253188D01*
X0327320Y0253451D01*
X0327193Y0253711D01*
X0327059Y0253967D01*
X0326920Y0254220D01*
X0326774Y0254470D01*
X0326622Y0254716D01*
X0326464Y0254959D01*
X0326300Y0255197D01*
X0326131Y0255432D01*
X0325956Y0255662D01*
X0325775Y0255887D01*
X0325589Y0256109D01*
X0325397Y0256325D01*
X0325200Y0256537D01*
X0324998Y0256744D01*
X0324791Y0256946D01*
X0324579Y0257143D01*
X0324363Y0257335D01*
X0324141Y0257521D01*
X0323916Y0257702D01*
X0323686Y0257877D01*
X0323451Y0258046D01*
X0323213Y0258210D01*
X0322970Y0258368D01*
X0322724Y0258520D01*
X0322474Y0258666D01*
X0322221Y0258805D01*
X0321965Y0258939D01*
X0321705Y0259066D01*
X0321442Y0259186D01*
X0321176Y0259300D01*
X0320908Y0259408D01*
X0320637Y0259509D01*
X0320363Y0259603D01*
X0320088Y0259691D01*
X0319810Y0259772D01*
X0319530Y0259846D01*
X0319249Y0259913D01*
X0318966Y0259973D01*
X0318682Y0260027D01*
X0318396Y0260073D01*
X0318110Y0260112D01*
X0317822Y0260144D01*
X0317534Y0260170D01*
X0317246Y0260188D01*
X0316957Y0260199D01*
X0316667Y0260203D01*
X0316667Y0260167D01*
X0316956Y0260163D01*
X0317244Y0260152D01*
X0317532Y0260134D01*
X0317819Y0260109D01*
X0318105Y0260076D01*
X0318391Y0260037D01*
X0318676Y0259991D01*
X0318959Y0259938D01*
X0319241Y0259878D01*
X0319522Y0259811D01*
X0319800Y0259737D01*
X0320077Y0259657D01*
X0320352Y0259569D01*
X0320625Y0259475D01*
X0320895Y0259374D01*
X0321162Y0259267D01*
X0321427Y0259153D01*
X0321689Y0259033D01*
X0321948Y0258906D01*
X0322204Y0258773D01*
X0322457Y0258634D01*
X0322706Y0258489D01*
X0322951Y0258338D01*
X0323193Y0258180D01*
X0323430Y0258017D01*
X0323664Y0257848D01*
X0323894Y0257673D01*
X0324119Y0257493D01*
X0324339Y0257307D01*
X0324555Y0257116D01*
X0324766Y0256920D01*
X0324973Y0256719D01*
X0325174Y0256512D01*
X0325370Y0256301D01*
X0325561Y0256085D01*
X0325747Y0255865D01*
X0325927Y0255640D01*
X0326102Y0255410D01*
X0326271Y0255176D01*
X0326434Y0254939D01*
X0326592Y0254697D01*
X0326743Y0254452D01*
X0326888Y0254203D01*
X0327027Y0253950D01*
X0327160Y0253694D01*
X0327287Y0253435D01*
X0327407Y0253173D01*
X0327521Y0252908D01*
X0327628Y0252641D01*
X0327729Y0252371D01*
X0327823Y0252098D01*
X0327911Y0251823D01*
X0327991Y0251546D01*
X0328065Y0251268D01*
X0328132Y0250987D01*
X0328192Y0250705D01*
X0328245Y0250422D01*
X0328291Y0250137D01*
X0328330Y0249851D01*
X0328363Y0249565D01*
X0328388Y0249278D01*
X0328406Y0248990D01*
X0328417Y0248702D01*
X0328421Y0248413D01*
X0328385Y0248413D01*
X0328381Y0248701D01*
X0328370Y0248988D01*
X0328352Y0249275D01*
X0328327Y0249561D01*
X0328295Y0249847D01*
X0328256Y0250132D01*
X0328210Y0250416D01*
X0328157Y0250698D01*
X0328097Y0250979D01*
X0328030Y0251259D01*
X0327956Y0251537D01*
X0327876Y0251813D01*
X0327789Y0252087D01*
X0327695Y0252358D01*
X0327595Y0252628D01*
X0327488Y0252895D01*
X0327374Y0253159D01*
X0327254Y0253420D01*
X0327128Y0253678D01*
X0326996Y0253933D01*
X0326857Y0254185D01*
X0326712Y0254433D01*
X0326561Y0254678D01*
X0326404Y0254919D01*
X0326242Y0255156D01*
X0326073Y0255389D01*
X0325899Y0255617D01*
X0325719Y0255842D01*
X0325534Y0256062D01*
X0325344Y0256277D01*
X0325148Y0256488D01*
X0324947Y0256693D01*
X0324742Y0256894D01*
X0324531Y0257090D01*
X0324316Y0257280D01*
X0324096Y0257465D01*
X0323871Y0257645D01*
X0323643Y0257819D01*
X0323410Y0257988D01*
X0323173Y0258150D01*
X0322932Y0258307D01*
X0322687Y0258458D01*
X0322439Y0258603D01*
X0322187Y0258742D01*
X0321932Y0258874D01*
X0321674Y0259000D01*
X0321413Y0259120D01*
X0321149Y0259234D01*
X0320882Y0259341D01*
X0320612Y0259441D01*
X0320341Y0259535D01*
X0320067Y0259622D01*
X0319791Y0259702D01*
X0319513Y0259776D01*
X0319233Y0259843D01*
X0318952Y0259903D01*
X0318670Y0259956D01*
X0318386Y0260002D01*
X0318101Y0260041D01*
X0317815Y0260073D01*
X0317529Y0260098D01*
X0317242Y0260116D01*
X0316955Y0260127D01*
X0316667Y0260131D01*
X0316667Y0260095D01*
X0316954Y0260091D01*
X0317240Y0260080D01*
X0317526Y0260062D01*
X0317812Y0260037D01*
X0318097Y0260005D01*
X0318381Y0259966D01*
X0318663Y0259920D01*
X0318945Y0259867D01*
X0319225Y0259808D01*
X0319504Y0259741D01*
X0319781Y0259668D01*
X0320056Y0259588D01*
X0320329Y0259501D01*
X0320600Y0259407D01*
X0320869Y0259307D01*
X0321135Y0259201D01*
X0321398Y0259087D01*
X0321659Y0258968D01*
X0321916Y0258842D01*
X0322170Y0258710D01*
X0322421Y0258572D01*
X0322669Y0258427D01*
X0322913Y0258277D01*
X0323153Y0258120D01*
X0323389Y0257958D01*
X0323621Y0257790D01*
X0323849Y0257617D01*
X0324073Y0257437D01*
X0324292Y0257253D01*
X0324507Y0257063D01*
X0324717Y0256868D01*
X0324922Y0256668D01*
X0325122Y0256463D01*
X0325317Y0256253D01*
X0325507Y0256038D01*
X0325691Y0255819D01*
X0325871Y0255595D01*
X0326044Y0255367D01*
X0326212Y0255135D01*
X0326374Y0254899D01*
X0326531Y0254659D01*
X0326681Y0254415D01*
X0326826Y0254167D01*
X0326964Y0253916D01*
X0327096Y0253662D01*
X0327222Y0253405D01*
X0327341Y0253144D01*
X0327455Y0252881D01*
X0327561Y0252615D01*
X0327661Y0252346D01*
X0327755Y0252075D01*
X0327842Y0251802D01*
X0327922Y0251527D01*
X0327995Y0251250D01*
X0328062Y0250971D01*
X0328121Y0250691D01*
X0328174Y0250409D01*
X0328220Y0250127D01*
X0328259Y0249843D01*
X0328291Y0249558D01*
X0328316Y0249272D01*
X0328334Y0248986D01*
X0328345Y0248700D01*
X0328349Y0248413D01*
X0328313Y0248413D01*
X0328309Y0248699D01*
X0328298Y0248985D01*
X0328280Y0249270D01*
X0328255Y0249554D01*
X0328223Y0249838D01*
X0328184Y0250121D01*
X0328139Y0250403D01*
X0328086Y0250684D01*
X0328026Y0250963D01*
X0327960Y0251241D01*
X0327887Y0251518D01*
X0327807Y0251792D01*
X0327721Y0252064D01*
X0327627Y0252334D01*
X0327528Y0252602D01*
X0327421Y0252867D01*
X0327309Y0253129D01*
X0327189Y0253389D01*
X0327064Y0253646D01*
X0326932Y0253899D01*
X0326794Y0254149D01*
X0326650Y0254396D01*
X0326500Y0254639D01*
X0326344Y0254879D01*
X0326183Y0255114D01*
X0326015Y0255346D01*
X0325842Y0255573D01*
X0325664Y0255796D01*
X0325480Y0256015D01*
X0325290Y0256229D01*
X0325096Y0256438D01*
X0324896Y0256642D01*
X0324692Y0256842D01*
X0324483Y0257036D01*
X0324269Y0257226D01*
X0324050Y0257410D01*
X0323827Y0257588D01*
X0323600Y0257761D01*
X0323368Y0257929D01*
X0323133Y0258090D01*
X0322893Y0258246D01*
X0322650Y0258396D01*
X0322403Y0258540D01*
X0322153Y0258678D01*
X0321900Y0258810D01*
X0321643Y0258935D01*
X0321383Y0259055D01*
X0321121Y0259167D01*
X0320856Y0259274D01*
X0320588Y0259373D01*
X0320318Y0259467D01*
X0320046Y0259553D01*
X0319772Y0259633D01*
X0319495Y0259706D01*
X0319217Y0259772D01*
X0318938Y0259832D01*
X0318657Y0259885D01*
X0318375Y0259930D01*
X0318092Y0259969D01*
X0317808Y0260001D01*
X0317524Y0260026D01*
X0317239Y0260044D01*
X0316953Y0260055D01*
X0316667Y0260059D01*
X0316667Y0004123D02*
X0316667Y0004478D01*
X0316667Y0004477D02*
X0316952Y0004481D01*
X0317237Y0004492D01*
X0317521Y0004510D01*
X0317805Y0004535D01*
X0318088Y0004567D01*
X0318371Y0004605D01*
X0318652Y0004651D01*
X0318932Y0004703D01*
X0319211Y0004763D01*
X0319488Y0004829D01*
X0319763Y0004902D01*
X0320037Y0004982D01*
X0320308Y0005068D01*
X0320578Y0005161D01*
X0320845Y0005260D01*
X0321109Y0005366D01*
X0321371Y0005479D01*
X0321630Y0005598D01*
X0321886Y0005723D01*
X0322139Y0005854D01*
X0322388Y0005992D01*
X0322634Y0006135D01*
X0322877Y0006285D01*
X0323116Y0006440D01*
X0323350Y0006602D01*
X0323581Y0006769D01*
X0323808Y0006941D01*
X0324030Y0007119D01*
X0324248Y0007303D01*
X0324462Y0007492D01*
X0324671Y0007686D01*
X0324874Y0007885D01*
X0325073Y0008088D01*
X0325267Y0008297D01*
X0325456Y0008511D01*
X0325640Y0008729D01*
X0325818Y0008951D01*
X0325990Y0009178D01*
X0326157Y0009409D01*
X0326319Y0009643D01*
X0326474Y0009882D01*
X0326624Y0010125D01*
X0326767Y0010371D01*
X0326905Y0010620D01*
X0327036Y0010873D01*
X0327161Y0011129D01*
X0327280Y0011388D01*
X0327393Y0011650D01*
X0327499Y0011914D01*
X0327598Y0012181D01*
X0327691Y0012451D01*
X0327777Y0012722D01*
X0327857Y0012996D01*
X0327930Y0013271D01*
X0327996Y0013548D01*
X0328056Y0013827D01*
X0328108Y0014107D01*
X0328154Y0014388D01*
X0328192Y0014671D01*
X0328224Y0014954D01*
X0328249Y0015238D01*
X0328267Y0015522D01*
X0328278Y0015807D01*
X0328282Y0016092D01*
X0328636Y0016092D01*
X0328637Y0016092D01*
X0328633Y0015798D01*
X0328622Y0015504D01*
X0328603Y0015211D01*
X0328578Y0014919D01*
X0328545Y0014627D01*
X0328505Y0014336D01*
X0328458Y0014046D01*
X0328404Y0013758D01*
X0328343Y0013471D01*
X0328274Y0013185D01*
X0328199Y0012901D01*
X0328117Y0012619D01*
X0328028Y0012339D01*
X0327932Y0012062D01*
X0327830Y0011787D01*
X0327721Y0011514D01*
X0327605Y0011244D01*
X0327482Y0010977D01*
X0327353Y0010714D01*
X0327218Y0010453D01*
X0327076Y0010196D01*
X0326928Y0009942D01*
X0326774Y0009692D01*
X0326614Y0009446D01*
X0326448Y0009204D01*
X0326275Y0008966D01*
X0326098Y0008733D01*
X0325914Y0008503D01*
X0325725Y0008279D01*
X0325530Y0008059D01*
X0325331Y0007844D01*
X0325126Y0007633D01*
X0324915Y0007428D01*
X0324700Y0007229D01*
X0324480Y0007034D01*
X0324256Y0006845D01*
X0324026Y0006661D01*
X0323793Y0006484D01*
X0323555Y0006311D01*
X0323313Y0006145D01*
X0323067Y0005985D01*
X0322817Y0005831D01*
X0322563Y0005683D01*
X0322306Y0005541D01*
X0322045Y0005406D01*
X0321782Y0005277D01*
X0321515Y0005154D01*
X0321245Y0005038D01*
X0320972Y0004929D01*
X0320697Y0004827D01*
X0320420Y0004731D01*
X0320140Y0004642D01*
X0319858Y0004560D01*
X0319574Y0004485D01*
X0319288Y0004416D01*
X0319001Y0004355D01*
X0318713Y0004301D01*
X0318423Y0004254D01*
X0318132Y0004214D01*
X0317840Y0004181D01*
X0317548Y0004156D01*
X0317255Y0004137D01*
X0316961Y0004126D01*
X0316667Y0004122D01*
X0316667Y0004158D01*
X0316960Y0004162D01*
X0317253Y0004173D01*
X0317545Y0004192D01*
X0317837Y0004217D01*
X0318128Y0004250D01*
X0318418Y0004290D01*
X0318707Y0004337D01*
X0318994Y0004391D01*
X0319281Y0004452D01*
X0319565Y0004519D01*
X0319848Y0004594D01*
X0320129Y0004676D01*
X0320408Y0004765D01*
X0320685Y0004860D01*
X0320959Y0004963D01*
X0321231Y0005072D01*
X0321500Y0005187D01*
X0321766Y0005309D01*
X0322029Y0005438D01*
X0322289Y0005573D01*
X0322545Y0005714D01*
X0322798Y0005862D01*
X0323047Y0006015D01*
X0323293Y0006175D01*
X0323534Y0006341D01*
X0323771Y0006512D01*
X0324004Y0006690D01*
X0324233Y0006873D01*
X0324457Y0007061D01*
X0324676Y0007255D01*
X0324891Y0007454D01*
X0325100Y0007659D01*
X0325305Y0007868D01*
X0325504Y0008083D01*
X0325698Y0008302D01*
X0325886Y0008526D01*
X0326069Y0008755D01*
X0326247Y0008988D01*
X0326418Y0009225D01*
X0326584Y0009466D01*
X0326744Y0009712D01*
X0326897Y0009961D01*
X0327045Y0010214D01*
X0327186Y0010470D01*
X0327321Y0010730D01*
X0327450Y0010993D01*
X0327572Y0011259D01*
X0327687Y0011528D01*
X0327796Y0011800D01*
X0327899Y0012074D01*
X0327994Y0012351D01*
X0328083Y0012630D01*
X0328165Y0012911D01*
X0328240Y0013194D01*
X0328307Y0013478D01*
X0328368Y0013765D01*
X0328422Y0014052D01*
X0328469Y0014341D01*
X0328509Y0014631D01*
X0328542Y0014922D01*
X0328567Y0015214D01*
X0328586Y0015506D01*
X0328597Y0015799D01*
X0328601Y0016092D01*
X0328565Y0016092D01*
X0328561Y0015800D01*
X0328550Y0015508D01*
X0328531Y0015217D01*
X0328506Y0014926D01*
X0328473Y0014636D01*
X0328434Y0014347D01*
X0328387Y0014059D01*
X0328333Y0013772D01*
X0328272Y0013486D01*
X0328205Y0013202D01*
X0328130Y0012920D01*
X0328048Y0012640D01*
X0327960Y0012362D01*
X0327865Y0012086D01*
X0327763Y0011812D01*
X0327654Y0011542D01*
X0327539Y0011273D01*
X0327417Y0011008D01*
X0327289Y0010746D01*
X0327154Y0010487D01*
X0327014Y0010231D01*
X0326866Y0009979D01*
X0326713Y0009731D01*
X0326554Y0009486D01*
X0326389Y0009246D01*
X0326218Y0009009D01*
X0326041Y0008777D01*
X0325858Y0008549D01*
X0325670Y0008326D01*
X0325477Y0008107D01*
X0325278Y0007893D01*
X0325075Y0007684D01*
X0324866Y0007481D01*
X0324652Y0007282D01*
X0324433Y0007089D01*
X0324210Y0006901D01*
X0323982Y0006718D01*
X0323750Y0006541D01*
X0323513Y0006370D01*
X0323273Y0006205D01*
X0323028Y0006046D01*
X0322780Y0005893D01*
X0322528Y0005745D01*
X0322272Y0005605D01*
X0322013Y0005470D01*
X0321751Y0005342D01*
X0321486Y0005220D01*
X0321217Y0005105D01*
X0320947Y0004996D01*
X0320673Y0004894D01*
X0320397Y0004799D01*
X0320119Y0004711D01*
X0319839Y0004629D01*
X0319557Y0004554D01*
X0319273Y0004487D01*
X0318987Y0004426D01*
X0318700Y0004372D01*
X0318412Y0004325D01*
X0318123Y0004286D01*
X0317833Y0004253D01*
X0317542Y0004228D01*
X0317251Y0004209D01*
X0316959Y0004198D01*
X0316667Y0004194D01*
X0316667Y0004230D01*
X0316958Y0004234D01*
X0317249Y0004245D01*
X0317540Y0004264D01*
X0317830Y0004289D01*
X0318119Y0004321D01*
X0318407Y0004361D01*
X0318694Y0004408D01*
X0318980Y0004461D01*
X0319265Y0004522D01*
X0319548Y0004589D01*
X0319829Y0004664D01*
X0320109Y0004745D01*
X0320386Y0004833D01*
X0320661Y0004928D01*
X0320934Y0005030D01*
X0321204Y0005138D01*
X0321471Y0005253D01*
X0321735Y0005374D01*
X0321997Y0005502D01*
X0322255Y0005636D01*
X0322510Y0005777D01*
X0322761Y0005923D01*
X0323009Y0006076D01*
X0323253Y0006235D01*
X0323493Y0006400D01*
X0323728Y0006570D01*
X0323960Y0006747D01*
X0324187Y0006928D01*
X0324410Y0007116D01*
X0324628Y0007309D01*
X0324841Y0007507D01*
X0325049Y0007710D01*
X0325252Y0007918D01*
X0325450Y0008131D01*
X0325643Y0008349D01*
X0325831Y0008572D01*
X0326012Y0008799D01*
X0326189Y0009031D01*
X0326359Y0009266D01*
X0326524Y0009506D01*
X0326683Y0009750D01*
X0326836Y0009998D01*
X0326982Y0010249D01*
X0327123Y0010504D01*
X0327257Y0010762D01*
X0327385Y0011024D01*
X0327506Y0011288D01*
X0327621Y0011555D01*
X0327729Y0011825D01*
X0327831Y0012098D01*
X0327926Y0012373D01*
X0328014Y0012650D01*
X0328095Y0012930D01*
X0328170Y0013211D01*
X0328237Y0013494D01*
X0328298Y0013779D01*
X0328351Y0014065D01*
X0328398Y0014352D01*
X0328438Y0014640D01*
X0328470Y0014929D01*
X0328495Y0015219D01*
X0328514Y0015510D01*
X0328525Y0015801D01*
X0328529Y0016092D01*
X0328493Y0016092D01*
X0328489Y0015801D01*
X0328478Y0015512D01*
X0328460Y0015222D01*
X0328434Y0014933D01*
X0328402Y0014645D01*
X0328362Y0014357D01*
X0328316Y0014071D01*
X0328263Y0013786D01*
X0328202Y0013502D01*
X0328135Y0013220D01*
X0328061Y0012939D01*
X0327979Y0012661D01*
X0327892Y0012384D01*
X0327797Y0012110D01*
X0327696Y0011838D01*
X0327588Y0011569D01*
X0327473Y0011303D01*
X0327352Y0011039D01*
X0327225Y0010778D01*
X0327091Y0010521D01*
X0326951Y0010267D01*
X0326805Y0010016D01*
X0326652Y0009769D01*
X0326494Y0009526D01*
X0326330Y0009287D01*
X0326160Y0009052D01*
X0325984Y0008821D01*
X0325803Y0008595D01*
X0325616Y0008373D01*
X0325424Y0008155D01*
X0325226Y0007943D01*
X0325024Y0007735D01*
X0324816Y0007533D01*
X0324604Y0007335D01*
X0324386Y0007143D01*
X0324164Y0006956D01*
X0323938Y0006775D01*
X0323707Y0006599D01*
X0323472Y0006429D01*
X0323233Y0006265D01*
X0322990Y0006107D01*
X0322743Y0005954D01*
X0322492Y0005808D01*
X0322238Y0005668D01*
X0321981Y0005534D01*
X0321720Y0005407D01*
X0321456Y0005286D01*
X0321190Y0005171D01*
X0320921Y0005063D01*
X0320649Y0004962D01*
X0320375Y0004867D01*
X0320098Y0004780D01*
X0319820Y0004698D01*
X0319539Y0004624D01*
X0319257Y0004557D01*
X0318973Y0004496D01*
X0318688Y0004443D01*
X0318402Y0004397D01*
X0318114Y0004357D01*
X0317826Y0004325D01*
X0317537Y0004299D01*
X0317247Y0004281D01*
X0316958Y0004270D01*
X0316667Y0004266D01*
X0316667Y0004302D01*
X0316957Y0004306D01*
X0317246Y0004317D01*
X0317534Y0004335D01*
X0317822Y0004361D01*
X0318110Y0004393D01*
X0318396Y0004432D01*
X0318682Y0004478D01*
X0318966Y0004532D01*
X0319249Y0004592D01*
X0319530Y0004659D01*
X0319810Y0004733D01*
X0320088Y0004814D01*
X0320363Y0004902D01*
X0320637Y0004996D01*
X0320908Y0005097D01*
X0321176Y0005205D01*
X0321442Y0005319D01*
X0321705Y0005439D01*
X0321965Y0005566D01*
X0322221Y0005700D01*
X0322474Y0005839D01*
X0322724Y0005985D01*
X0322970Y0006137D01*
X0323213Y0006295D01*
X0323451Y0006459D01*
X0323686Y0006628D01*
X0323916Y0006803D01*
X0324141Y0006984D01*
X0324363Y0007170D01*
X0324579Y0007362D01*
X0324791Y0007559D01*
X0324998Y0007761D01*
X0325200Y0007968D01*
X0325397Y0008180D01*
X0325589Y0008396D01*
X0325775Y0008618D01*
X0325956Y0008843D01*
X0326131Y0009073D01*
X0326300Y0009308D01*
X0326464Y0009546D01*
X0326622Y0009789D01*
X0326774Y0010035D01*
X0326920Y0010285D01*
X0327059Y0010538D01*
X0327193Y0010794D01*
X0327320Y0011054D01*
X0327440Y0011317D01*
X0327554Y0011583D01*
X0327662Y0011851D01*
X0327763Y0012122D01*
X0327857Y0012396D01*
X0327945Y0012671D01*
X0328026Y0012949D01*
X0328100Y0013229D01*
X0328167Y0013510D01*
X0328227Y0013793D01*
X0328281Y0014077D01*
X0328327Y0014363D01*
X0328366Y0014649D01*
X0328398Y0014937D01*
X0328424Y0015225D01*
X0328442Y0015513D01*
X0328453Y0015802D01*
X0328457Y0016092D01*
X0328421Y0016092D01*
X0328417Y0015803D01*
X0328406Y0015515D01*
X0328388Y0015227D01*
X0328363Y0014940D01*
X0328330Y0014654D01*
X0328291Y0014368D01*
X0328245Y0014083D01*
X0328192Y0013800D01*
X0328132Y0013518D01*
X0328065Y0013237D01*
X0327991Y0012959D01*
X0327911Y0012682D01*
X0327823Y0012407D01*
X0327729Y0012134D01*
X0327628Y0011864D01*
X0327521Y0011597D01*
X0327407Y0011332D01*
X0327287Y0011070D01*
X0327160Y0010811D01*
X0327027Y0010555D01*
X0326888Y0010302D01*
X0326743Y0010053D01*
X0326592Y0009808D01*
X0326434Y0009566D01*
X0326271Y0009329D01*
X0326102Y0009095D01*
X0325927Y0008865D01*
X0325747Y0008640D01*
X0325561Y0008420D01*
X0325370Y0008204D01*
X0325174Y0007993D01*
X0324973Y0007786D01*
X0324766Y0007585D01*
X0324555Y0007389D01*
X0324339Y0007198D01*
X0324119Y0007012D01*
X0323894Y0006832D01*
X0323664Y0006657D01*
X0323430Y0006488D01*
X0323193Y0006325D01*
X0322951Y0006167D01*
X0322706Y0006016D01*
X0322457Y0005871D01*
X0322204Y0005732D01*
X0321948Y0005599D01*
X0321689Y0005472D01*
X0321427Y0005352D01*
X0321162Y0005238D01*
X0320895Y0005131D01*
X0320625Y0005030D01*
X0320352Y0004936D01*
X0320077Y0004848D01*
X0319800Y0004768D01*
X0319522Y0004694D01*
X0319241Y0004627D01*
X0318959Y0004567D01*
X0318676Y0004514D01*
X0318391Y0004468D01*
X0318105Y0004429D01*
X0317819Y0004396D01*
X0317532Y0004371D01*
X0317244Y0004353D01*
X0316956Y0004342D01*
X0316667Y0004338D01*
X0316667Y0004374D01*
X0316955Y0004378D01*
X0317242Y0004389D01*
X0317529Y0004407D01*
X0317815Y0004432D01*
X0318101Y0004464D01*
X0318386Y0004503D01*
X0318670Y0004549D01*
X0318952Y0004602D01*
X0319233Y0004662D01*
X0319513Y0004729D01*
X0319791Y0004803D01*
X0320067Y0004883D01*
X0320341Y0004970D01*
X0320612Y0005064D01*
X0320882Y0005164D01*
X0321149Y0005271D01*
X0321413Y0005385D01*
X0321674Y0005505D01*
X0321932Y0005631D01*
X0322187Y0005763D01*
X0322439Y0005902D01*
X0322687Y0006047D01*
X0322932Y0006198D01*
X0323173Y0006355D01*
X0323410Y0006517D01*
X0323643Y0006686D01*
X0323871Y0006860D01*
X0324096Y0007040D01*
X0324316Y0007225D01*
X0324531Y0007415D01*
X0324742Y0007611D01*
X0324947Y0007812D01*
X0325148Y0008017D01*
X0325344Y0008228D01*
X0325534Y0008443D01*
X0325719Y0008663D01*
X0325899Y0008888D01*
X0326073Y0009116D01*
X0326242Y0009349D01*
X0326404Y0009586D01*
X0326561Y0009827D01*
X0326712Y0010072D01*
X0326857Y0010320D01*
X0326996Y0010572D01*
X0327128Y0010827D01*
X0327254Y0011085D01*
X0327374Y0011346D01*
X0327488Y0011610D01*
X0327595Y0011877D01*
X0327695Y0012147D01*
X0327789Y0012418D01*
X0327876Y0012692D01*
X0327956Y0012968D01*
X0328030Y0013246D01*
X0328097Y0013526D01*
X0328157Y0013807D01*
X0328210Y0014089D01*
X0328256Y0014373D01*
X0328295Y0014658D01*
X0328327Y0014944D01*
X0328352Y0015230D01*
X0328370Y0015517D01*
X0328381Y0015804D01*
X0328385Y0016092D01*
X0328349Y0016092D01*
X0328345Y0015805D01*
X0328334Y0015519D01*
X0328316Y0015233D01*
X0328291Y0014947D01*
X0328259Y0014662D01*
X0328220Y0014378D01*
X0328174Y0014096D01*
X0328121Y0013814D01*
X0328062Y0013534D01*
X0327995Y0013255D01*
X0327922Y0012978D01*
X0327842Y0012703D01*
X0327755Y0012430D01*
X0327661Y0012159D01*
X0327561Y0011890D01*
X0327455Y0011624D01*
X0327341Y0011361D01*
X0327222Y0011100D01*
X0327096Y0010843D01*
X0326964Y0010589D01*
X0326826Y0010338D01*
X0326681Y0010090D01*
X0326531Y0009846D01*
X0326374Y0009606D01*
X0326212Y0009370D01*
X0326044Y0009138D01*
X0325871Y0008910D01*
X0325691Y0008686D01*
X0325507Y0008467D01*
X0325317Y0008252D01*
X0325122Y0008042D01*
X0324922Y0007837D01*
X0324717Y0007637D01*
X0324507Y0007442D01*
X0324292Y0007252D01*
X0324073Y0007068D01*
X0323849Y0006888D01*
X0323621Y0006715D01*
X0323389Y0006547D01*
X0323153Y0006385D01*
X0322913Y0006228D01*
X0322669Y0006078D01*
X0322421Y0005933D01*
X0322170Y0005795D01*
X0321916Y0005663D01*
X0321659Y0005537D01*
X0321398Y0005418D01*
X0321135Y0005304D01*
X0320869Y0005198D01*
X0320600Y0005098D01*
X0320329Y0005004D01*
X0320056Y0004917D01*
X0319781Y0004837D01*
X0319504Y0004764D01*
X0319225Y0004697D01*
X0318945Y0004638D01*
X0318663Y0004585D01*
X0318381Y0004539D01*
X0318097Y0004500D01*
X0317812Y0004468D01*
X0317526Y0004443D01*
X0317240Y0004425D01*
X0316954Y0004414D01*
X0316667Y0004410D01*
X0316667Y0004446D01*
X0316953Y0004450D01*
X0317239Y0004461D01*
X0317524Y0004479D01*
X0317808Y0004504D01*
X0318092Y0004536D01*
X0318375Y0004575D01*
X0318657Y0004620D01*
X0318938Y0004673D01*
X0319217Y0004733D01*
X0319495Y0004799D01*
X0319772Y0004872D01*
X0320046Y0004952D01*
X0320318Y0005038D01*
X0320588Y0005132D01*
X0320856Y0005231D01*
X0321121Y0005338D01*
X0321383Y0005450D01*
X0321643Y0005570D01*
X0321900Y0005695D01*
X0322153Y0005827D01*
X0322403Y0005965D01*
X0322650Y0006109D01*
X0322893Y0006259D01*
X0323133Y0006415D01*
X0323368Y0006576D01*
X0323600Y0006744D01*
X0323827Y0006917D01*
X0324050Y0007095D01*
X0324269Y0007279D01*
X0324483Y0007469D01*
X0324692Y0007663D01*
X0324896Y0007863D01*
X0325096Y0008067D01*
X0325290Y0008276D01*
X0325480Y0008490D01*
X0325664Y0008709D01*
X0325842Y0008932D01*
X0326015Y0009159D01*
X0326183Y0009391D01*
X0326344Y0009626D01*
X0326500Y0009866D01*
X0326650Y0010109D01*
X0326794Y0010356D01*
X0326932Y0010606D01*
X0327064Y0010859D01*
X0327189Y0011116D01*
X0327309Y0011376D01*
X0327421Y0011638D01*
X0327528Y0011903D01*
X0327627Y0012171D01*
X0327721Y0012441D01*
X0327807Y0012713D01*
X0327887Y0012987D01*
X0327960Y0013264D01*
X0328026Y0013542D01*
X0328086Y0013821D01*
X0328139Y0014102D01*
X0328184Y0014384D01*
X0328223Y0014667D01*
X0328255Y0014951D01*
X0328280Y0015235D01*
X0328298Y0015520D01*
X0328309Y0015806D01*
X0328313Y0016092D01*
X0033007Y0016092D02*
X0033362Y0016092D01*
X0033361Y0016092D02*
X0033365Y0015807D01*
X0033376Y0015522D01*
X0033394Y0015238D01*
X0033419Y0014954D01*
X0033451Y0014671D01*
X0033489Y0014388D01*
X0033535Y0014107D01*
X0033587Y0013827D01*
X0033647Y0013548D01*
X0033713Y0013271D01*
X0033786Y0012996D01*
X0033866Y0012722D01*
X0033952Y0012451D01*
X0034045Y0012181D01*
X0034144Y0011914D01*
X0034250Y0011650D01*
X0034363Y0011388D01*
X0034482Y0011129D01*
X0034607Y0010873D01*
X0034738Y0010620D01*
X0034876Y0010371D01*
X0035019Y0010125D01*
X0035169Y0009882D01*
X0035324Y0009643D01*
X0035486Y0009409D01*
X0035653Y0009178D01*
X0035825Y0008951D01*
X0036003Y0008729D01*
X0036187Y0008511D01*
X0036376Y0008297D01*
X0036570Y0008088D01*
X0036769Y0007885D01*
X0036972Y0007686D01*
X0037181Y0007492D01*
X0037395Y0007303D01*
X0037613Y0007119D01*
X0037835Y0006941D01*
X0038062Y0006769D01*
X0038293Y0006602D01*
X0038527Y0006440D01*
X0038766Y0006285D01*
X0039009Y0006135D01*
X0039255Y0005992D01*
X0039504Y0005854D01*
X0039757Y0005723D01*
X0040013Y0005598D01*
X0040272Y0005479D01*
X0040534Y0005366D01*
X0040798Y0005260D01*
X0041065Y0005161D01*
X0041335Y0005068D01*
X0041606Y0004982D01*
X0041880Y0004902D01*
X0042155Y0004829D01*
X0042432Y0004763D01*
X0042711Y0004703D01*
X0042991Y0004651D01*
X0043272Y0004605D01*
X0043555Y0004567D01*
X0043838Y0004535D01*
X0044122Y0004510D01*
X0044406Y0004492D01*
X0044691Y0004481D01*
X0044976Y0004477D01*
X0044976Y0004123D01*
X0044976Y0004122D01*
X0044682Y0004126D01*
X0044388Y0004137D01*
X0044095Y0004156D01*
X0043803Y0004181D01*
X0043511Y0004214D01*
X0043220Y0004254D01*
X0042930Y0004301D01*
X0042642Y0004355D01*
X0042355Y0004416D01*
X0042069Y0004485D01*
X0041785Y0004560D01*
X0041503Y0004642D01*
X0041223Y0004731D01*
X0040946Y0004827D01*
X0040671Y0004929D01*
X0040398Y0005038D01*
X0040128Y0005154D01*
X0039861Y0005277D01*
X0039598Y0005406D01*
X0039337Y0005541D01*
X0039080Y0005683D01*
X0038826Y0005831D01*
X0038576Y0005985D01*
X0038330Y0006145D01*
X0038088Y0006311D01*
X0037850Y0006484D01*
X0037617Y0006661D01*
X0037387Y0006845D01*
X0037163Y0007034D01*
X0036943Y0007229D01*
X0036728Y0007428D01*
X0036517Y0007633D01*
X0036312Y0007844D01*
X0036113Y0008059D01*
X0035918Y0008279D01*
X0035729Y0008503D01*
X0035545Y0008733D01*
X0035368Y0008966D01*
X0035195Y0009204D01*
X0035029Y0009446D01*
X0034869Y0009692D01*
X0034715Y0009942D01*
X0034567Y0010196D01*
X0034425Y0010453D01*
X0034290Y0010714D01*
X0034161Y0010977D01*
X0034038Y0011244D01*
X0033922Y0011514D01*
X0033813Y0011787D01*
X0033711Y0012062D01*
X0033615Y0012339D01*
X0033526Y0012619D01*
X0033444Y0012901D01*
X0033369Y0013185D01*
X0033300Y0013471D01*
X0033239Y0013758D01*
X0033185Y0014046D01*
X0033138Y0014336D01*
X0033098Y0014627D01*
X0033065Y0014919D01*
X0033040Y0015211D01*
X0033021Y0015504D01*
X0033010Y0015798D01*
X0033006Y0016092D01*
X0033042Y0016092D01*
X0033046Y0015799D01*
X0033057Y0015506D01*
X0033076Y0015214D01*
X0033101Y0014922D01*
X0033134Y0014631D01*
X0033174Y0014341D01*
X0033221Y0014052D01*
X0033275Y0013765D01*
X0033336Y0013478D01*
X0033403Y0013194D01*
X0033478Y0012911D01*
X0033560Y0012630D01*
X0033649Y0012351D01*
X0033744Y0012074D01*
X0033847Y0011800D01*
X0033956Y0011528D01*
X0034071Y0011259D01*
X0034193Y0010993D01*
X0034322Y0010730D01*
X0034457Y0010470D01*
X0034598Y0010214D01*
X0034746Y0009961D01*
X0034899Y0009712D01*
X0035059Y0009466D01*
X0035225Y0009225D01*
X0035396Y0008988D01*
X0035574Y0008755D01*
X0035757Y0008526D01*
X0035945Y0008302D01*
X0036139Y0008083D01*
X0036338Y0007868D01*
X0036543Y0007659D01*
X0036752Y0007454D01*
X0036967Y0007255D01*
X0037186Y0007061D01*
X0037410Y0006873D01*
X0037639Y0006690D01*
X0037872Y0006512D01*
X0038109Y0006341D01*
X0038350Y0006175D01*
X0038596Y0006015D01*
X0038845Y0005862D01*
X0039098Y0005714D01*
X0039354Y0005573D01*
X0039614Y0005438D01*
X0039877Y0005309D01*
X0040143Y0005187D01*
X0040412Y0005072D01*
X0040684Y0004963D01*
X0040958Y0004860D01*
X0041235Y0004765D01*
X0041514Y0004676D01*
X0041795Y0004594D01*
X0042078Y0004519D01*
X0042362Y0004452D01*
X0042649Y0004391D01*
X0042936Y0004337D01*
X0043225Y0004290D01*
X0043515Y0004250D01*
X0043806Y0004217D01*
X0044098Y0004192D01*
X0044390Y0004173D01*
X0044683Y0004162D01*
X0044976Y0004158D01*
X0044976Y0004194D01*
X0044684Y0004198D01*
X0044392Y0004209D01*
X0044101Y0004228D01*
X0043810Y0004253D01*
X0043520Y0004286D01*
X0043231Y0004325D01*
X0042943Y0004372D01*
X0042656Y0004426D01*
X0042370Y0004487D01*
X0042086Y0004554D01*
X0041804Y0004629D01*
X0041524Y0004711D01*
X0041246Y0004799D01*
X0040970Y0004894D01*
X0040696Y0004996D01*
X0040426Y0005105D01*
X0040157Y0005220D01*
X0039892Y0005342D01*
X0039630Y0005470D01*
X0039371Y0005605D01*
X0039115Y0005745D01*
X0038863Y0005893D01*
X0038615Y0006046D01*
X0038370Y0006205D01*
X0038130Y0006370D01*
X0037893Y0006541D01*
X0037661Y0006718D01*
X0037433Y0006901D01*
X0037210Y0007089D01*
X0036991Y0007282D01*
X0036777Y0007481D01*
X0036568Y0007684D01*
X0036365Y0007893D01*
X0036166Y0008107D01*
X0035973Y0008326D01*
X0035785Y0008549D01*
X0035602Y0008777D01*
X0035425Y0009009D01*
X0035254Y0009246D01*
X0035089Y0009486D01*
X0034930Y0009731D01*
X0034777Y0009979D01*
X0034629Y0010231D01*
X0034489Y0010487D01*
X0034354Y0010746D01*
X0034226Y0011008D01*
X0034104Y0011273D01*
X0033989Y0011542D01*
X0033880Y0011812D01*
X0033778Y0012086D01*
X0033683Y0012362D01*
X0033595Y0012640D01*
X0033513Y0012920D01*
X0033438Y0013202D01*
X0033371Y0013486D01*
X0033310Y0013772D01*
X0033256Y0014059D01*
X0033209Y0014347D01*
X0033170Y0014636D01*
X0033137Y0014926D01*
X0033112Y0015217D01*
X0033093Y0015508D01*
X0033082Y0015800D01*
X0033078Y0016092D01*
X0033114Y0016092D01*
X0033118Y0015801D01*
X0033129Y0015510D01*
X0033148Y0015219D01*
X0033173Y0014929D01*
X0033205Y0014640D01*
X0033245Y0014352D01*
X0033292Y0014065D01*
X0033345Y0013779D01*
X0033406Y0013494D01*
X0033473Y0013211D01*
X0033548Y0012930D01*
X0033629Y0012650D01*
X0033717Y0012373D01*
X0033812Y0012098D01*
X0033914Y0011825D01*
X0034022Y0011555D01*
X0034137Y0011288D01*
X0034258Y0011024D01*
X0034386Y0010762D01*
X0034520Y0010504D01*
X0034661Y0010249D01*
X0034807Y0009998D01*
X0034960Y0009750D01*
X0035119Y0009506D01*
X0035284Y0009266D01*
X0035454Y0009031D01*
X0035631Y0008799D01*
X0035812Y0008572D01*
X0036000Y0008349D01*
X0036193Y0008131D01*
X0036391Y0007918D01*
X0036594Y0007710D01*
X0036802Y0007507D01*
X0037015Y0007309D01*
X0037233Y0007116D01*
X0037456Y0006928D01*
X0037683Y0006747D01*
X0037915Y0006570D01*
X0038150Y0006400D01*
X0038390Y0006235D01*
X0038634Y0006076D01*
X0038882Y0005923D01*
X0039133Y0005777D01*
X0039388Y0005636D01*
X0039646Y0005502D01*
X0039908Y0005374D01*
X0040172Y0005253D01*
X0040439Y0005138D01*
X0040709Y0005030D01*
X0040982Y0004928D01*
X0041257Y0004833D01*
X0041534Y0004745D01*
X0041814Y0004664D01*
X0042095Y0004589D01*
X0042378Y0004522D01*
X0042663Y0004461D01*
X0042949Y0004408D01*
X0043236Y0004361D01*
X0043524Y0004321D01*
X0043813Y0004289D01*
X0044103Y0004264D01*
X0044394Y0004245D01*
X0044685Y0004234D01*
X0044976Y0004230D01*
X0044976Y0004266D01*
X0044685Y0004270D01*
X0044396Y0004281D01*
X0044106Y0004299D01*
X0043817Y0004325D01*
X0043529Y0004357D01*
X0043241Y0004397D01*
X0042955Y0004443D01*
X0042670Y0004496D01*
X0042386Y0004557D01*
X0042104Y0004624D01*
X0041823Y0004698D01*
X0041545Y0004780D01*
X0041268Y0004867D01*
X0040994Y0004962D01*
X0040722Y0005063D01*
X0040453Y0005171D01*
X0040187Y0005286D01*
X0039923Y0005407D01*
X0039662Y0005534D01*
X0039405Y0005668D01*
X0039151Y0005808D01*
X0038900Y0005954D01*
X0038653Y0006107D01*
X0038410Y0006265D01*
X0038171Y0006429D01*
X0037936Y0006599D01*
X0037705Y0006775D01*
X0037479Y0006956D01*
X0037257Y0007143D01*
X0037039Y0007335D01*
X0036827Y0007533D01*
X0036619Y0007735D01*
X0036417Y0007943D01*
X0036219Y0008155D01*
X0036027Y0008373D01*
X0035840Y0008595D01*
X0035659Y0008821D01*
X0035483Y0009052D01*
X0035313Y0009287D01*
X0035149Y0009526D01*
X0034991Y0009769D01*
X0034838Y0010016D01*
X0034692Y0010267D01*
X0034552Y0010521D01*
X0034418Y0010778D01*
X0034291Y0011039D01*
X0034170Y0011303D01*
X0034055Y0011569D01*
X0033947Y0011838D01*
X0033846Y0012110D01*
X0033751Y0012384D01*
X0033664Y0012661D01*
X0033582Y0012939D01*
X0033508Y0013220D01*
X0033441Y0013502D01*
X0033380Y0013786D01*
X0033327Y0014071D01*
X0033281Y0014357D01*
X0033241Y0014645D01*
X0033209Y0014933D01*
X0033183Y0015222D01*
X0033165Y0015512D01*
X0033154Y0015801D01*
X0033150Y0016092D01*
X0033186Y0016092D01*
X0033190Y0015802D01*
X0033201Y0015513D01*
X0033219Y0015225D01*
X0033245Y0014937D01*
X0033277Y0014649D01*
X0033316Y0014363D01*
X0033362Y0014077D01*
X0033416Y0013793D01*
X0033476Y0013510D01*
X0033543Y0013229D01*
X0033617Y0012949D01*
X0033698Y0012671D01*
X0033786Y0012396D01*
X0033880Y0012122D01*
X0033981Y0011851D01*
X0034089Y0011583D01*
X0034203Y0011317D01*
X0034323Y0011054D01*
X0034450Y0010794D01*
X0034584Y0010538D01*
X0034723Y0010285D01*
X0034869Y0010035D01*
X0035021Y0009789D01*
X0035179Y0009546D01*
X0035343Y0009308D01*
X0035512Y0009073D01*
X0035687Y0008843D01*
X0035868Y0008618D01*
X0036054Y0008396D01*
X0036246Y0008180D01*
X0036443Y0007968D01*
X0036645Y0007761D01*
X0036852Y0007559D01*
X0037064Y0007362D01*
X0037280Y0007170D01*
X0037502Y0006984D01*
X0037727Y0006803D01*
X0037957Y0006628D01*
X0038192Y0006459D01*
X0038430Y0006295D01*
X0038673Y0006137D01*
X0038919Y0005985D01*
X0039169Y0005839D01*
X0039422Y0005700D01*
X0039678Y0005566D01*
X0039938Y0005439D01*
X0040201Y0005319D01*
X0040467Y0005205D01*
X0040735Y0005097D01*
X0041006Y0004996D01*
X0041280Y0004902D01*
X0041555Y0004814D01*
X0041833Y0004733D01*
X0042113Y0004659D01*
X0042394Y0004592D01*
X0042677Y0004532D01*
X0042961Y0004478D01*
X0043247Y0004432D01*
X0043533Y0004393D01*
X0043821Y0004361D01*
X0044109Y0004335D01*
X0044397Y0004317D01*
X0044686Y0004306D01*
X0044976Y0004302D01*
X0044976Y0004338D01*
X0044687Y0004342D01*
X0044399Y0004353D01*
X0044111Y0004371D01*
X0043824Y0004396D01*
X0043538Y0004429D01*
X0043252Y0004468D01*
X0042967Y0004514D01*
X0042684Y0004567D01*
X0042402Y0004627D01*
X0042121Y0004694D01*
X0041843Y0004768D01*
X0041566Y0004848D01*
X0041291Y0004936D01*
X0041018Y0005030D01*
X0040748Y0005131D01*
X0040481Y0005238D01*
X0040216Y0005352D01*
X0039954Y0005472D01*
X0039695Y0005599D01*
X0039439Y0005732D01*
X0039186Y0005871D01*
X0038937Y0006016D01*
X0038692Y0006167D01*
X0038450Y0006325D01*
X0038213Y0006488D01*
X0037979Y0006657D01*
X0037749Y0006832D01*
X0037524Y0007012D01*
X0037304Y0007198D01*
X0037088Y0007389D01*
X0036877Y0007585D01*
X0036670Y0007786D01*
X0036469Y0007993D01*
X0036273Y0008204D01*
X0036082Y0008420D01*
X0035896Y0008640D01*
X0035716Y0008865D01*
X0035541Y0009095D01*
X0035372Y0009329D01*
X0035209Y0009566D01*
X0035051Y0009808D01*
X0034900Y0010053D01*
X0034755Y0010302D01*
X0034616Y0010555D01*
X0034483Y0010811D01*
X0034356Y0011070D01*
X0034236Y0011332D01*
X0034122Y0011597D01*
X0034015Y0011864D01*
X0033914Y0012134D01*
X0033820Y0012407D01*
X0033732Y0012682D01*
X0033652Y0012959D01*
X0033578Y0013237D01*
X0033511Y0013518D01*
X0033451Y0013800D01*
X0033398Y0014083D01*
X0033352Y0014368D01*
X0033313Y0014654D01*
X0033280Y0014940D01*
X0033255Y0015227D01*
X0033237Y0015515D01*
X0033226Y0015803D01*
X0033222Y0016092D01*
X0033258Y0016092D01*
X0033262Y0015804D01*
X0033273Y0015517D01*
X0033291Y0015230D01*
X0033316Y0014944D01*
X0033348Y0014658D01*
X0033387Y0014373D01*
X0033433Y0014089D01*
X0033486Y0013807D01*
X0033546Y0013526D01*
X0033613Y0013246D01*
X0033687Y0012968D01*
X0033767Y0012692D01*
X0033854Y0012418D01*
X0033948Y0012147D01*
X0034048Y0011877D01*
X0034155Y0011610D01*
X0034269Y0011346D01*
X0034389Y0011085D01*
X0034515Y0010827D01*
X0034647Y0010572D01*
X0034786Y0010320D01*
X0034931Y0010072D01*
X0035082Y0009827D01*
X0035239Y0009586D01*
X0035401Y0009349D01*
X0035570Y0009116D01*
X0035744Y0008888D01*
X0035924Y0008663D01*
X0036109Y0008443D01*
X0036299Y0008228D01*
X0036495Y0008017D01*
X0036696Y0007812D01*
X0036901Y0007611D01*
X0037112Y0007415D01*
X0037327Y0007225D01*
X0037547Y0007040D01*
X0037772Y0006860D01*
X0038000Y0006686D01*
X0038233Y0006517D01*
X0038470Y0006355D01*
X0038711Y0006198D01*
X0038956Y0006047D01*
X0039204Y0005902D01*
X0039456Y0005763D01*
X0039711Y0005631D01*
X0039969Y0005505D01*
X0040230Y0005385D01*
X0040494Y0005271D01*
X0040761Y0005164D01*
X0041031Y0005064D01*
X0041302Y0004970D01*
X0041576Y0004883D01*
X0041852Y0004803D01*
X0042130Y0004729D01*
X0042410Y0004662D01*
X0042691Y0004602D01*
X0042973Y0004549D01*
X0043257Y0004503D01*
X0043542Y0004464D01*
X0043828Y0004432D01*
X0044114Y0004407D01*
X0044401Y0004389D01*
X0044688Y0004378D01*
X0044976Y0004374D01*
X0044976Y0004410D01*
X0044689Y0004414D01*
X0044403Y0004425D01*
X0044117Y0004443D01*
X0043831Y0004468D01*
X0043546Y0004500D01*
X0043262Y0004539D01*
X0042980Y0004585D01*
X0042698Y0004638D01*
X0042418Y0004697D01*
X0042139Y0004764D01*
X0041862Y0004837D01*
X0041587Y0004917D01*
X0041314Y0005004D01*
X0041043Y0005098D01*
X0040774Y0005198D01*
X0040508Y0005304D01*
X0040245Y0005418D01*
X0039984Y0005537D01*
X0039727Y0005663D01*
X0039473Y0005795D01*
X0039222Y0005933D01*
X0038974Y0006078D01*
X0038730Y0006228D01*
X0038490Y0006385D01*
X0038254Y0006547D01*
X0038022Y0006715D01*
X0037794Y0006888D01*
X0037570Y0007068D01*
X0037351Y0007252D01*
X0037136Y0007442D01*
X0036926Y0007637D01*
X0036721Y0007837D01*
X0036521Y0008042D01*
X0036326Y0008252D01*
X0036136Y0008467D01*
X0035952Y0008686D01*
X0035772Y0008910D01*
X0035599Y0009138D01*
X0035431Y0009370D01*
X0035269Y0009606D01*
X0035112Y0009846D01*
X0034962Y0010090D01*
X0034817Y0010338D01*
X0034679Y0010589D01*
X0034547Y0010843D01*
X0034421Y0011100D01*
X0034302Y0011361D01*
X0034188Y0011624D01*
X0034082Y0011890D01*
X0033982Y0012159D01*
X0033888Y0012430D01*
X0033801Y0012703D01*
X0033721Y0012978D01*
X0033648Y0013255D01*
X0033581Y0013534D01*
X0033522Y0013814D01*
X0033469Y0014096D01*
X0033423Y0014378D01*
X0033384Y0014662D01*
X0033352Y0014947D01*
X0033327Y0015233D01*
X0033309Y0015519D01*
X0033298Y0015805D01*
X0033294Y0016092D01*
X0033330Y0016092D01*
X0033334Y0015806D01*
X0033345Y0015520D01*
X0033363Y0015235D01*
X0033388Y0014951D01*
X0033420Y0014667D01*
X0033459Y0014384D01*
X0033504Y0014102D01*
X0033557Y0013821D01*
X0033617Y0013542D01*
X0033683Y0013264D01*
X0033756Y0012987D01*
X0033836Y0012713D01*
X0033922Y0012441D01*
X0034016Y0012171D01*
X0034115Y0011903D01*
X0034222Y0011638D01*
X0034334Y0011376D01*
X0034454Y0011116D01*
X0034579Y0010859D01*
X0034711Y0010606D01*
X0034849Y0010356D01*
X0034993Y0010109D01*
X0035143Y0009866D01*
X0035299Y0009626D01*
X0035460Y0009391D01*
X0035628Y0009159D01*
X0035801Y0008932D01*
X0035979Y0008709D01*
X0036163Y0008490D01*
X0036353Y0008276D01*
X0036547Y0008067D01*
X0036747Y0007863D01*
X0036951Y0007663D01*
X0037160Y0007469D01*
X0037374Y0007279D01*
X0037593Y0007095D01*
X0037816Y0006917D01*
X0038043Y0006744D01*
X0038275Y0006576D01*
X0038510Y0006415D01*
X0038750Y0006259D01*
X0038993Y0006109D01*
X0039240Y0005965D01*
X0039490Y0005827D01*
X0039743Y0005695D01*
X0040000Y0005570D01*
X0040260Y0005450D01*
X0040522Y0005338D01*
X0040787Y0005231D01*
X0041055Y0005132D01*
X0041325Y0005038D01*
X0041597Y0004952D01*
X0041871Y0004872D01*
X0042148Y0004799D01*
X0042426Y0004733D01*
X0042705Y0004673D01*
X0042986Y0004620D01*
X0043268Y0004575D01*
X0043551Y0004536D01*
X0043835Y0004504D01*
X0044119Y0004479D01*
X0044404Y0004461D01*
X0044690Y0004450D01*
X0044976Y0004446D01*
M02*
