G75*
%MOIN*%
%OFA0B0*%
%FSLAX25Y25*%
%IPPOS*%
%LPD*%
%AMOC8*
5,1,8,0,0,1.08239X$1,22.5*
%
%ADD10C,0.11627*%
%ADD11C,0.06560*%
%ADD12R,0.08800X0.03400*%
%ADD13R,0.08600X0.03000*%
%ADD14C,0.24200*%
%ADD15R,0.05918X0.06706*%
%ADD16OC8,0.06560*%
%ADD17OC8,0.08000*%
%ADD18C,0.08000*%
%ADD19C,0.08200*%
%ADD20C,0.03762*%
D10*
X0118843Y0018247D03*
X0311757Y0018247D03*
X0311757Y0246593D03*
X0118843Y0246593D03*
D11*
X0157420Y0238050D02*
X0163180Y0238050D01*
X0157420Y0238050D01*
X0157420Y0228050D02*
X0163180Y0228050D01*
X0157420Y0228050D01*
X0163180Y0228050D01*
X0163180Y0218050D02*
X0157420Y0218050D01*
X0163180Y0218050D01*
X0157420Y0218050D01*
X0157420Y0208050D02*
X0163180Y0208050D01*
X0157420Y0208050D01*
X0163180Y0208050D01*
X0163180Y0198050D02*
X0157420Y0198050D01*
X0163180Y0198050D01*
X0157420Y0198050D01*
X0157420Y0188050D02*
X0163180Y0188050D01*
X0157420Y0188050D01*
X0163180Y0188050D01*
X0163180Y0178050D02*
X0157420Y0178050D01*
X0163180Y0178050D01*
X0157420Y0178050D01*
X0157420Y0168050D02*
X0163180Y0168050D01*
X0157420Y0168050D01*
X0163180Y0168050D01*
X0163180Y0158050D02*
X0157420Y0158050D01*
X0163180Y0158050D01*
X0157420Y0158050D01*
X0157420Y0148050D02*
X0163180Y0148050D01*
X0157420Y0148050D01*
X0163180Y0148050D01*
X0163180Y0138050D02*
X0157420Y0138050D01*
X0163180Y0138050D01*
X0157420Y0138050D01*
X0157420Y0128050D02*
X0163180Y0128050D01*
X0164430Y0109300D02*
X0158670Y0109300D01*
X0158670Y0099300D02*
X0164430Y0099300D01*
X0164430Y0089300D02*
X0158670Y0089300D01*
X0158670Y0079300D02*
X0164430Y0079300D01*
X0164430Y0069300D02*
X0158670Y0069300D01*
X0158670Y0059300D02*
X0164430Y0059300D01*
X0164430Y0049300D02*
X0158670Y0049300D01*
X0158670Y0039300D02*
X0164430Y0039300D01*
X0164430Y0029300D02*
X0158670Y0029300D01*
X0158670Y0019300D02*
X0164430Y0019300D01*
X0188670Y0019300D02*
X0194430Y0019300D01*
X0194430Y0029300D02*
X0188670Y0029300D01*
X0188670Y0039300D02*
X0194430Y0039300D01*
X0194430Y0049300D02*
X0188670Y0049300D01*
X0188670Y0059300D02*
X0194430Y0059300D01*
X0194430Y0069300D02*
X0188670Y0069300D01*
X0188670Y0079300D02*
X0194430Y0079300D01*
X0194430Y0089300D02*
X0188670Y0089300D01*
X0188670Y0099300D02*
X0194430Y0099300D01*
X0194430Y0109300D02*
X0188670Y0109300D01*
X0187420Y0128050D02*
X0193180Y0128050D01*
X0193180Y0138050D02*
X0187420Y0138050D01*
X0193180Y0138050D01*
X0187420Y0138050D01*
X0187420Y0148050D02*
X0193180Y0148050D01*
X0187420Y0148050D01*
X0193180Y0148050D01*
X0193180Y0158050D02*
X0187420Y0158050D01*
X0193180Y0158050D01*
X0187420Y0158050D01*
X0187420Y0168050D02*
X0193180Y0168050D01*
X0187420Y0168050D01*
X0193180Y0168050D01*
X0193180Y0178050D02*
X0187420Y0178050D01*
X0193180Y0178050D01*
X0187420Y0178050D01*
X0187420Y0188050D02*
X0193180Y0188050D01*
X0187420Y0188050D01*
X0193180Y0188050D01*
X0193180Y0198050D02*
X0187420Y0198050D01*
X0193180Y0198050D01*
X0187420Y0198050D01*
X0187420Y0208050D02*
X0193180Y0208050D01*
X0187420Y0208050D01*
X0193180Y0208050D01*
X0193180Y0218050D02*
X0187420Y0218050D01*
X0193180Y0218050D01*
X0187420Y0218050D01*
X0187420Y0228050D02*
X0193180Y0228050D01*
X0187420Y0228050D01*
X0193180Y0228050D01*
X0193180Y0238050D02*
X0187420Y0238050D01*
X0193180Y0238050D01*
X0089180Y0182925D02*
X0083420Y0182925D01*
X0083420Y0174425D02*
X0089180Y0174425D01*
X0089180Y0165925D02*
X0083420Y0165925D01*
X0083420Y0157425D02*
X0089180Y0157425D01*
X0089180Y0148925D02*
X0083420Y0148925D01*
X0083420Y0140425D02*
X0089180Y0140425D01*
X0089180Y0131925D02*
X0083420Y0131925D01*
X0083420Y0123425D02*
X0089180Y0123425D01*
X0089180Y0114925D02*
X0083420Y0114925D01*
X0083420Y0106425D02*
X0089180Y0106425D01*
X0089180Y0097925D02*
X0083420Y0097925D01*
X0083420Y0089425D02*
X0089180Y0089425D01*
X0072180Y0089425D02*
X0066420Y0089425D01*
X0066420Y0097925D02*
X0072180Y0097925D01*
X0072180Y0106425D02*
X0066420Y0106425D01*
X0066420Y0114925D02*
X0072180Y0114925D01*
X0072180Y0123425D02*
X0066420Y0123425D01*
X0066420Y0131925D02*
X0072180Y0131925D01*
X0072180Y0140425D02*
X0066420Y0140425D01*
X0066420Y0148925D02*
X0072180Y0148925D01*
X0072180Y0157425D02*
X0066420Y0157425D01*
X0066420Y0165925D02*
X0072180Y0165925D01*
X0072180Y0174425D02*
X0066420Y0174425D01*
X0066420Y0182925D02*
X0072180Y0182925D01*
D12*
X0175500Y0180550D03*
X0175500Y0185550D03*
X0175500Y0190550D03*
X0175500Y0195550D03*
X0175500Y0200550D03*
X0175500Y0205550D03*
X0175500Y0175550D03*
X0175500Y0170550D03*
X0175500Y0165550D03*
X0175500Y0160550D03*
X0215100Y0160550D03*
X0215100Y0165550D03*
X0215100Y0170550D03*
X0215100Y0175550D03*
X0215100Y0180550D03*
X0215100Y0185550D03*
X0215100Y0190550D03*
X0215100Y0195550D03*
X0215100Y0200550D03*
X0215100Y0205550D03*
X0218850Y0086800D03*
X0218850Y0081800D03*
X0218850Y0076800D03*
X0218850Y0071800D03*
X0218850Y0066800D03*
X0218850Y0061800D03*
X0218850Y0056800D03*
X0218850Y0051800D03*
X0218850Y0046800D03*
X0218850Y0041800D03*
X0179250Y0041800D03*
X0179250Y0046800D03*
X0179250Y0051800D03*
X0179250Y0056800D03*
X0179250Y0061800D03*
X0179250Y0066800D03*
X0179250Y0071800D03*
X0179250Y0076800D03*
X0179250Y0081800D03*
X0179250Y0086800D03*
D13*
X0176900Y0155550D03*
X0176900Y0160550D03*
X0176900Y0165550D03*
X0176900Y0170550D03*
X0176900Y0175550D03*
X0176900Y0180550D03*
X0176900Y0185550D03*
X0176900Y0190550D03*
X0176900Y0195550D03*
X0176900Y0200550D03*
X0176900Y0205550D03*
X0176900Y0210550D03*
X0213700Y0210550D03*
X0213700Y0205550D03*
X0213700Y0200550D03*
X0213700Y0195550D03*
X0213700Y0190550D03*
X0213700Y0185550D03*
X0213700Y0180550D03*
X0213700Y0175550D03*
X0213700Y0170550D03*
X0213700Y0165550D03*
X0213700Y0160550D03*
X0213700Y0155550D03*
D14*
X0077800Y0044075D03*
X0077800Y0228275D03*
D15*
X0207185Y0238050D03*
X0214665Y0238050D03*
X0247185Y0210550D03*
X0254665Y0210550D03*
X0254665Y0203050D03*
X0247185Y0203050D03*
X0247185Y0195550D03*
X0254665Y0195550D03*
X0254665Y0188050D03*
X0247185Y0188050D03*
X0247185Y0180550D03*
X0254665Y0180550D03*
X0254665Y0173050D03*
X0247185Y0173050D03*
X0247185Y0165550D03*
X0254665Y0165550D03*
X0254665Y0158050D03*
X0247185Y0158050D03*
X0247185Y0150550D03*
X0254665Y0150550D03*
X0254665Y0143050D03*
X0247185Y0143050D03*
X0221540Y0101800D03*
X0214060Y0101800D03*
X0247185Y0099300D03*
X0254665Y0099300D03*
X0254665Y0091800D03*
X0247185Y0091800D03*
X0247185Y0084300D03*
X0254665Y0084300D03*
X0254665Y0076800D03*
X0247185Y0076800D03*
X0247185Y0069300D03*
X0254665Y0069300D03*
X0254665Y0061800D03*
X0247185Y0061800D03*
X0247185Y0054300D03*
X0254665Y0054300D03*
X0254665Y0046800D03*
X0247185Y0046800D03*
X0247185Y0039300D03*
X0254665Y0039300D03*
X0254665Y0031800D03*
X0247185Y0031800D03*
D16*
X0235925Y0031800D03*
X0235925Y0039300D03*
X0235925Y0046800D03*
X0235925Y0054300D03*
X0235925Y0061800D03*
X0235925Y0069300D03*
X0235925Y0076800D03*
X0235925Y0084300D03*
X0235925Y0091800D03*
X0235925Y0099300D03*
X0227800Y0101800D03*
X0207800Y0101800D03*
X0235925Y0143050D03*
X0235925Y0150550D03*
X0235925Y0158050D03*
X0235925Y0165550D03*
X0235925Y0173050D03*
X0235925Y0180550D03*
X0235925Y0188050D03*
X0235925Y0195550D03*
X0235925Y0203050D03*
X0235925Y0210550D03*
X0265925Y0210550D03*
X0265925Y0203050D03*
X0265925Y0195550D03*
X0265925Y0188050D03*
X0265925Y0180550D03*
X0265925Y0173050D03*
X0265925Y0165550D03*
X0265925Y0158050D03*
X0265925Y0150550D03*
X0265925Y0143050D03*
X0265925Y0099300D03*
X0265925Y0091800D03*
X0265925Y0084300D03*
X0265925Y0076800D03*
X0265925Y0069300D03*
X0265925Y0061800D03*
X0265925Y0054300D03*
X0265925Y0046800D03*
X0265925Y0039300D03*
X0265925Y0031800D03*
X0221550Y0238050D03*
X0201550Y0238050D03*
D17*
X0127800Y0189925D03*
X0117800Y0189925D03*
X0117800Y0179925D03*
X0127800Y0179925D03*
X0127800Y0169925D03*
X0117800Y0169925D03*
X0117800Y0159925D03*
X0127800Y0159925D03*
X0127800Y0149925D03*
X0117800Y0149925D03*
X0117800Y0139925D03*
X0127800Y0139925D03*
X0127800Y0129925D03*
X0117800Y0129925D03*
X0117800Y0119925D03*
X0127800Y0119925D03*
X0127800Y0109925D03*
X0117800Y0109925D03*
X0117800Y0099925D03*
X0127800Y0099925D03*
X0127800Y0089925D03*
X0117800Y0089925D03*
X0117800Y0079925D03*
X0127800Y0079925D03*
D18*
X0247175Y0232575D02*
X0247175Y0239775D01*
X0247175Y0242575D02*
X0247175Y0249775D01*
X0257175Y0249775D02*
X0257175Y0242575D01*
X0257175Y0239775D02*
X0257175Y0232575D01*
X0267175Y0232575D02*
X0267175Y0239775D01*
X0267175Y0242575D02*
X0267175Y0249775D01*
X0277175Y0249775D02*
X0277175Y0242575D01*
X0277175Y0239775D02*
X0277175Y0232575D01*
X0287175Y0232575D02*
X0287175Y0239775D01*
X0287175Y0242575D02*
X0287175Y0249775D01*
D19*
X0306757Y0227420D03*
X0316757Y0227420D03*
X0316757Y0217420D03*
X0306757Y0217420D03*
X0306757Y0207420D03*
X0316757Y0207420D03*
X0316757Y0197420D03*
X0306757Y0197420D03*
X0306757Y0187420D03*
X0316757Y0187420D03*
X0316757Y0177420D03*
X0316757Y0167420D03*
X0306757Y0167420D03*
X0306757Y0177420D03*
X0306757Y0157420D03*
X0316757Y0157420D03*
X0316757Y0147420D03*
X0316757Y0137420D03*
X0306757Y0137420D03*
X0306757Y0147420D03*
X0306757Y0127420D03*
X0316757Y0127420D03*
X0316757Y0117420D03*
X0316757Y0107420D03*
X0306757Y0107420D03*
X0306757Y0117420D03*
X0306757Y0097420D03*
X0316757Y0097420D03*
X0316757Y0087420D03*
X0306757Y0087420D03*
X0306757Y0077420D03*
X0316757Y0077381D03*
X0316757Y0067420D03*
X0316757Y0057420D03*
X0306757Y0057420D03*
X0306757Y0067420D03*
X0306757Y0047420D03*
X0316757Y0047420D03*
X0316757Y0037420D03*
X0306757Y0037420D03*
D20*
X0293425Y0043050D03*
X0293425Y0049925D03*
X0292800Y0058050D03*
X0292800Y0065550D03*
X0292800Y0073050D03*
X0292800Y0080550D03*
X0292800Y0088050D03*
X0292800Y0095550D03*
X0226550Y0094300D03*
X0228425Y0117425D03*
X0213425Y0127425D03*
X0181550Y0119300D03*
X0172175Y0119300D03*
X0146550Y0114925D03*
X0134675Y0134925D03*
X0134675Y0144925D03*
X0134050Y0154925D03*
X0152175Y0144300D03*
X0150300Y0183675D03*
X0150300Y0192425D03*
X0150300Y0203050D03*
X0177800Y0218050D03*
X0221550Y0212425D03*
X0292175Y0202425D03*
X0296550Y0208050D03*
X0299050Y0221800D03*
X0300300Y0173050D03*
X0300300Y0149300D03*
X0200300Y0083675D03*
X0200300Y0074300D03*
X0200300Y0065550D03*
X0177800Y0094300D03*
X0146550Y0089925D03*
X0146550Y0084925D03*
X0146550Y0073675D03*
X0146550Y0064925D03*
X0146550Y0054925D03*
X0146550Y0044300D03*
X0146550Y0034300D03*
M02*
