G75*
%MOIN*%
%OFA0B0*%
%FSLAX25Y25*%
%IPPOS*%
%LPD*%
%AMOC8*
5,1,8,0,0,1.08239X$1,22.5*
%
%ADD10C,0.05760*%
%ADD11R,0.08000X0.02600*%
%ADD12R,0.07800X0.02200*%
%ADD13C,0.23400*%
%ADD14R,0.05118X0.05906*%
%ADD15OC8,0.05760*%
%ADD16OC8,0.07200*%
%ADD17C,0.07200*%
%ADD18C,0.07400*%
%ADD19C,0.01600*%
%ADD20C,0.02962*%
%ADD21C,0.01200*%
%ADD22C,0.04000*%
D10*
X0066420Y0089425D02*
X0072180Y0089425D01*
X0072180Y0097925D02*
X0066420Y0097925D01*
X0066420Y0106425D02*
X0072180Y0106425D01*
X0072180Y0114925D02*
X0066420Y0114925D01*
X0066420Y0123425D02*
X0072180Y0123425D01*
X0072180Y0131925D02*
X0066420Y0131925D01*
X0066420Y0140425D02*
X0072180Y0140425D01*
X0072180Y0148925D02*
X0066420Y0148925D01*
X0066420Y0157425D02*
X0072180Y0157425D01*
X0072180Y0165925D02*
X0066420Y0165925D01*
X0066420Y0174425D02*
X0072180Y0174425D01*
X0072180Y0182925D02*
X0066420Y0182925D01*
X0083420Y0182925D02*
X0089180Y0182925D01*
X0089180Y0174425D02*
X0083420Y0174425D01*
X0083420Y0165925D02*
X0089180Y0165925D01*
X0089180Y0157425D02*
X0083420Y0157425D01*
X0083420Y0148925D02*
X0089180Y0148925D01*
X0089180Y0140425D02*
X0083420Y0140425D01*
X0083420Y0131925D02*
X0089180Y0131925D01*
X0089180Y0123425D02*
X0083420Y0123425D01*
X0083420Y0114925D02*
X0089180Y0114925D01*
X0089180Y0106425D02*
X0083420Y0106425D01*
X0083420Y0097925D02*
X0089180Y0097925D01*
X0089180Y0089425D02*
X0083420Y0089425D01*
X0158670Y0089300D02*
X0164430Y0089300D01*
X0164430Y0079300D02*
X0158670Y0079300D01*
X0158670Y0069300D02*
X0164430Y0069300D01*
X0164430Y0059300D02*
X0158670Y0059300D01*
X0158670Y0049300D02*
X0164430Y0049300D01*
X0164430Y0039300D02*
X0158670Y0039300D01*
X0158670Y0029300D02*
X0164430Y0029300D01*
X0164430Y0019300D02*
X0158670Y0019300D01*
X0188670Y0019300D02*
X0194430Y0019300D01*
X0194430Y0029300D02*
X0188670Y0029300D01*
X0188670Y0039300D02*
X0194430Y0039300D01*
X0194430Y0049300D02*
X0188670Y0049300D01*
X0188670Y0059300D02*
X0194430Y0059300D01*
X0194430Y0069300D02*
X0188670Y0069300D01*
X0188670Y0079300D02*
X0194430Y0079300D01*
X0194430Y0089300D02*
X0188670Y0089300D01*
X0188670Y0099300D02*
X0194430Y0099300D01*
X0194430Y0109300D02*
X0188670Y0109300D01*
X0187420Y0128050D02*
X0193180Y0128050D01*
X0193180Y0138050D02*
X0187420Y0138050D01*
X0193180Y0138050D01*
X0187420Y0138050D01*
X0187420Y0148050D02*
X0193180Y0148050D01*
X0187420Y0148050D01*
X0193180Y0148050D01*
X0193180Y0158050D02*
X0187420Y0158050D01*
X0193180Y0158050D01*
X0187420Y0158050D01*
X0187420Y0168050D02*
X0193180Y0168050D01*
X0187420Y0168050D01*
X0193180Y0168050D01*
X0193180Y0178050D02*
X0187420Y0178050D01*
X0193180Y0178050D01*
X0187420Y0178050D01*
X0187420Y0188050D02*
X0193180Y0188050D01*
X0187420Y0188050D01*
X0193180Y0188050D01*
X0193180Y0198050D02*
X0187420Y0198050D01*
X0193180Y0198050D01*
X0187420Y0198050D01*
X0187420Y0208050D02*
X0193180Y0208050D01*
X0187420Y0208050D01*
X0193180Y0208050D01*
X0193180Y0218050D02*
X0187420Y0218050D01*
X0193180Y0218050D01*
X0187420Y0218050D01*
X0187420Y0228050D02*
X0193180Y0228050D01*
X0187420Y0228050D01*
X0193180Y0228050D01*
X0193180Y0238050D02*
X0187420Y0238050D01*
X0193180Y0238050D01*
X0163180Y0238050D02*
X0157420Y0238050D01*
X0163180Y0238050D01*
X0163180Y0228050D02*
X0157420Y0228050D01*
X0163180Y0228050D01*
X0157420Y0228050D01*
X0157420Y0218050D02*
X0163180Y0218050D01*
X0157420Y0218050D01*
X0163180Y0218050D01*
X0163180Y0208050D02*
X0157420Y0208050D01*
X0163180Y0208050D01*
X0157420Y0208050D01*
X0157420Y0198050D02*
X0163180Y0198050D01*
X0157420Y0198050D01*
X0163180Y0198050D01*
X0163180Y0188050D02*
X0157420Y0188050D01*
X0163180Y0188050D01*
X0157420Y0188050D01*
X0157420Y0178050D02*
X0163180Y0178050D01*
X0157420Y0178050D01*
X0163180Y0178050D01*
X0163180Y0168050D02*
X0157420Y0168050D01*
X0163180Y0168050D01*
X0157420Y0168050D01*
X0157420Y0158050D02*
X0163180Y0158050D01*
X0157420Y0158050D01*
X0163180Y0158050D01*
X0163180Y0148050D02*
X0157420Y0148050D01*
X0163180Y0148050D01*
X0157420Y0148050D01*
X0157420Y0138050D02*
X0163180Y0138050D01*
X0157420Y0138050D01*
X0163180Y0138050D01*
X0163180Y0128050D02*
X0157420Y0128050D01*
X0158670Y0109300D02*
X0164430Y0109300D01*
X0164430Y0099300D02*
X0158670Y0099300D01*
D11*
X0179250Y0086800D03*
X0179250Y0081800D03*
X0179250Y0076800D03*
X0179250Y0071800D03*
X0179250Y0066800D03*
X0179250Y0061800D03*
X0179250Y0056800D03*
X0179250Y0051800D03*
X0179250Y0046800D03*
X0179250Y0041800D03*
X0218850Y0041800D03*
X0218850Y0046800D03*
X0218850Y0051800D03*
X0218850Y0056800D03*
X0218850Y0061800D03*
X0218850Y0066800D03*
X0218850Y0071800D03*
X0218850Y0076800D03*
X0218850Y0081800D03*
X0218850Y0086800D03*
X0215100Y0160550D03*
X0215100Y0165550D03*
X0215100Y0170550D03*
X0215100Y0175550D03*
X0215100Y0180550D03*
X0215100Y0185550D03*
X0215100Y0190550D03*
X0215100Y0195550D03*
X0215100Y0200550D03*
X0215100Y0205550D03*
X0175500Y0205550D03*
X0175500Y0200550D03*
X0175500Y0195550D03*
X0175500Y0190550D03*
X0175500Y0185550D03*
X0175500Y0180550D03*
X0175500Y0175550D03*
X0175500Y0170550D03*
X0175500Y0165550D03*
X0175500Y0160550D03*
D12*
X0176900Y0160550D03*
X0176900Y0155550D03*
X0176900Y0165550D03*
X0176900Y0170550D03*
X0176900Y0175550D03*
X0176900Y0180550D03*
X0176900Y0185550D03*
X0176900Y0190550D03*
X0176900Y0195550D03*
X0176900Y0200550D03*
X0176900Y0205550D03*
X0176900Y0210550D03*
X0213700Y0210550D03*
X0213700Y0205550D03*
X0213700Y0200550D03*
X0213700Y0195550D03*
X0213700Y0190550D03*
X0213700Y0185550D03*
X0213700Y0180550D03*
X0213700Y0175550D03*
X0213700Y0170550D03*
X0213700Y0165550D03*
X0213700Y0160550D03*
X0213700Y0155550D03*
D13*
X0077800Y0228275D03*
X0077800Y0044075D03*
D14*
X0214060Y0101800D03*
X0221540Y0101800D03*
X0247185Y0099300D03*
X0254665Y0099300D03*
X0254665Y0091800D03*
X0247185Y0091800D03*
X0247185Y0084300D03*
X0254665Y0084300D03*
X0254665Y0076800D03*
X0247185Y0076800D03*
X0247185Y0069300D03*
X0254665Y0069300D03*
X0254665Y0061800D03*
X0247185Y0061800D03*
X0247185Y0054300D03*
X0254665Y0054300D03*
X0254665Y0046800D03*
X0247185Y0046800D03*
X0247185Y0039300D03*
X0254665Y0039300D03*
X0254665Y0031800D03*
X0247185Y0031800D03*
X0247185Y0143050D03*
X0254665Y0143050D03*
X0254665Y0150550D03*
X0247185Y0150550D03*
X0247185Y0158050D03*
X0254665Y0158050D03*
X0254665Y0165550D03*
X0247185Y0165550D03*
X0247185Y0173050D03*
X0254665Y0173050D03*
X0254665Y0180550D03*
X0247185Y0180550D03*
X0247185Y0188050D03*
X0254665Y0188050D03*
X0254665Y0195550D03*
X0247185Y0195550D03*
X0247185Y0203050D03*
X0254665Y0203050D03*
X0254665Y0210550D03*
X0247185Y0210550D03*
X0214665Y0238050D03*
X0207185Y0238050D03*
D15*
X0201550Y0238050D03*
X0221550Y0238050D03*
X0235925Y0210550D03*
X0235925Y0203050D03*
X0235925Y0195550D03*
X0235925Y0188050D03*
X0235925Y0180550D03*
X0235925Y0173050D03*
X0235925Y0165550D03*
X0235925Y0158050D03*
X0235925Y0150550D03*
X0235925Y0143050D03*
X0265925Y0143050D03*
X0265925Y0150550D03*
X0265925Y0158050D03*
X0265925Y0165550D03*
X0265925Y0173050D03*
X0265925Y0180550D03*
X0265925Y0188050D03*
X0265925Y0195550D03*
X0265925Y0203050D03*
X0265925Y0210550D03*
X0227800Y0101800D03*
X0235925Y0099300D03*
X0235925Y0091800D03*
X0235925Y0084300D03*
X0235925Y0076800D03*
X0235925Y0069300D03*
X0235925Y0061800D03*
X0235925Y0054300D03*
X0235925Y0046800D03*
X0235925Y0039300D03*
X0235925Y0031800D03*
X0265925Y0031800D03*
X0265925Y0039300D03*
X0265925Y0046800D03*
X0265925Y0054300D03*
X0265925Y0061800D03*
X0265925Y0069300D03*
X0265925Y0076800D03*
X0265925Y0084300D03*
X0265925Y0091800D03*
X0265925Y0099300D03*
X0207800Y0101800D03*
D16*
X0127800Y0099925D03*
X0117800Y0099925D03*
X0117800Y0089925D03*
X0127800Y0089925D03*
X0127800Y0079925D03*
X0117800Y0079925D03*
X0117800Y0109925D03*
X0127800Y0109925D03*
X0127800Y0119925D03*
X0117800Y0119925D03*
X0117800Y0129925D03*
X0127800Y0129925D03*
X0127800Y0139925D03*
X0117800Y0139925D03*
X0117800Y0149925D03*
X0127800Y0149925D03*
X0127800Y0159925D03*
X0117800Y0159925D03*
X0117800Y0169925D03*
X0127800Y0169925D03*
X0127800Y0179925D03*
X0117800Y0179925D03*
X0117800Y0189925D03*
X0127800Y0189925D03*
D17*
X0247175Y0232575D02*
X0247175Y0239775D01*
X0247175Y0242575D02*
X0247175Y0249775D01*
X0257175Y0249775D02*
X0257175Y0242575D01*
X0257175Y0239775D02*
X0257175Y0232575D01*
X0267175Y0232575D02*
X0267175Y0239775D01*
X0267175Y0242575D02*
X0267175Y0249775D01*
X0277175Y0249775D02*
X0277175Y0242575D01*
X0277175Y0239775D02*
X0277175Y0232575D01*
X0287175Y0232575D02*
X0287175Y0239775D01*
X0287175Y0242575D02*
X0287175Y0249775D01*
D18*
X0306757Y0227420D03*
X0316757Y0227420D03*
X0316757Y0217420D03*
X0306757Y0217420D03*
X0306757Y0207420D03*
X0316757Y0207420D03*
X0316757Y0197420D03*
X0306757Y0197420D03*
X0306757Y0187420D03*
X0316757Y0187420D03*
X0316757Y0177420D03*
X0316757Y0167420D03*
X0306757Y0167420D03*
X0306757Y0177420D03*
X0306757Y0157420D03*
X0316757Y0157420D03*
X0316757Y0147420D03*
X0316757Y0137420D03*
X0306757Y0137420D03*
X0306757Y0147420D03*
X0306757Y0127420D03*
X0316757Y0127420D03*
X0316757Y0117420D03*
X0316757Y0107420D03*
X0306757Y0107420D03*
X0306757Y0117420D03*
X0306757Y0097420D03*
X0316757Y0097420D03*
X0316757Y0087420D03*
X0306757Y0087420D03*
X0306757Y0077420D03*
X0316757Y0077381D03*
X0316757Y0067420D03*
X0316757Y0057420D03*
X0306757Y0057420D03*
X0306757Y0067420D03*
X0306757Y0047420D03*
X0316757Y0047420D03*
X0316757Y0037420D03*
X0306757Y0037420D03*
D19*
X0038055Y0009171D02*
X0036250Y0011655D01*
X0035302Y0014576D01*
X0035181Y0016111D01*
X0035181Y0248394D01*
X0035302Y0249930D01*
X0036250Y0252850D01*
X0038055Y0255334D01*
X0040539Y0257139D01*
X0043460Y0258088D01*
X0044995Y0258209D01*
X0316648Y0258209D01*
X0318184Y0258088D01*
X0321104Y0257139D01*
X0323588Y0255334D01*
X0325393Y0252850D01*
X0326342Y0249930D01*
X0326463Y0248394D01*
X0326463Y0016111D01*
X0326342Y0014576D01*
X0325393Y0011655D01*
X0323588Y0009171D01*
X0321104Y0007367D01*
X0318184Y0006418D01*
X0316648Y0006297D01*
X0044995Y0006297D01*
X0043460Y0006418D01*
X0040539Y0007367D01*
X0038055Y0009171D01*
X0038160Y0009096D02*
X0323484Y0009096D01*
X0324694Y0010694D02*
X0036949Y0010694D01*
X0036043Y0012293D02*
X0114596Y0012293D01*
X0114757Y0012132D02*
X0117408Y0011033D01*
X0120278Y0011033D01*
X0122929Y0012132D01*
X0124959Y0014161D01*
X0126057Y0016812D01*
X0126057Y0019682D01*
X0124959Y0022333D01*
X0122929Y0024362D01*
X0120278Y0025460D01*
X0117408Y0025460D01*
X0114757Y0024362D01*
X0112728Y0022333D01*
X0111630Y0019682D01*
X0111630Y0016812D01*
X0112728Y0014161D01*
X0114757Y0012132D01*
X0112998Y0013891D02*
X0035524Y0013891D01*
X0035230Y0015490D02*
X0112178Y0015490D01*
X0111630Y0017088D02*
X0035181Y0017088D01*
X0035181Y0018687D02*
X0111630Y0018687D01*
X0111880Y0020285D02*
X0035181Y0020285D01*
X0035181Y0021884D02*
X0112542Y0021884D01*
X0113877Y0023482D02*
X0035181Y0023482D01*
X0035181Y0025081D02*
X0116492Y0025081D01*
X0121195Y0025081D02*
X0156627Y0025081D01*
X0156019Y0025332D02*
X0157739Y0024620D01*
X0165361Y0024620D01*
X0167081Y0025332D01*
X0168397Y0026649D01*
X0168419Y0026700D01*
X0168942Y0026700D01*
X0169898Y0027096D01*
X0170629Y0027827D01*
X0170629Y0027827D01*
X0173754Y0030952D01*
X0174150Y0031908D01*
X0174150Y0039057D01*
X0174555Y0038823D01*
X0175013Y0038700D01*
X0179250Y0038700D01*
X0183487Y0038700D01*
X0183945Y0038823D01*
X0183990Y0038849D01*
X0183990Y0038369D01*
X0184702Y0036649D01*
X0186019Y0035332D01*
X0187739Y0034620D01*
X0195361Y0034620D01*
X0197081Y0035332D01*
X0198397Y0036649D01*
X0198419Y0036700D01*
X0199567Y0036700D01*
X0200523Y0037096D01*
X0201254Y0037827D01*
X0202700Y0039273D01*
X0202700Y0036627D01*
X0198211Y0032138D01*
X0197081Y0033267D01*
X0195361Y0033980D01*
X0187739Y0033980D01*
X0186019Y0033267D01*
X0184702Y0031951D01*
X0183990Y0030231D01*
X0183990Y0028369D01*
X0184702Y0026649D01*
X0186019Y0025332D01*
X0187739Y0024620D01*
X0195361Y0024620D01*
X0197081Y0025332D01*
X0198397Y0026649D01*
X0198419Y0026700D01*
X0199567Y0026700D01*
X0200523Y0027096D01*
X0201254Y0027827D01*
X0206450Y0033023D01*
X0206450Y0031002D01*
X0197898Y0022450D01*
X0197081Y0023267D01*
X0195361Y0023980D01*
X0187739Y0023980D01*
X0186019Y0023267D01*
X0184702Y0021951D01*
X0183990Y0020231D01*
X0183990Y0018369D01*
X0184702Y0016649D01*
X0186019Y0015332D01*
X0187739Y0014620D01*
X0195361Y0014620D01*
X0197081Y0015332D01*
X0198397Y0016649D01*
X0198419Y0016700D01*
X0198942Y0016700D01*
X0199898Y0017096D01*
X0200629Y0017827D01*
X0211254Y0028452D01*
X0211650Y0029408D01*
X0211650Y0039200D01*
X0213604Y0039200D01*
X0214104Y0038700D01*
X0223596Y0038700D01*
X0224096Y0039200D01*
X0224848Y0039200D01*
X0226450Y0037598D01*
X0226450Y0035033D01*
X0226846Y0034077D01*
X0230596Y0030327D01*
X0231327Y0029596D01*
X0231640Y0029466D01*
X0233986Y0027120D01*
X0237864Y0027120D01*
X0239944Y0029200D01*
X0242826Y0029200D01*
X0242826Y0028102D01*
X0243880Y0027047D01*
X0250489Y0027047D01*
X0250925Y0027483D01*
X0251361Y0027047D01*
X0257970Y0027047D01*
X0259024Y0028102D01*
X0259024Y0029200D01*
X0261906Y0029200D01*
X0263986Y0027120D01*
X0267864Y0027120D01*
X0269944Y0029200D01*
X0297348Y0029200D01*
X0300077Y0026471D01*
X0301033Y0026075D01*
X0313942Y0026075D01*
X0314898Y0026471D01*
X0315629Y0027202D01*
X0318961Y0030534D01*
X0319357Y0031490D01*
X0319357Y0032544D01*
X0319872Y0032757D01*
X0321419Y0034305D01*
X0322257Y0036326D01*
X0322257Y0038514D01*
X0321419Y0040536D01*
X0319872Y0042083D01*
X0319058Y0042420D01*
X0319872Y0042757D01*
X0321419Y0044305D01*
X0322257Y0046326D01*
X0322257Y0048514D01*
X0321419Y0050536D01*
X0319872Y0052083D01*
X0319058Y0052420D01*
X0319872Y0052757D01*
X0321419Y0054305D01*
X0322257Y0056326D01*
X0322257Y0058514D01*
X0321419Y0060536D01*
X0319872Y0062083D01*
X0319058Y0062420D01*
X0319639Y0062716D01*
X0320340Y0063225D01*
X0320952Y0063837D01*
X0321461Y0064537D01*
X0321854Y0065309D01*
X0322121Y0066132D01*
X0322257Y0066987D01*
X0322257Y0067265D01*
X0316911Y0067265D01*
X0316911Y0067575D01*
X0322257Y0067575D01*
X0322257Y0067853D01*
X0322121Y0068708D01*
X0321854Y0069531D01*
X0321461Y0070303D01*
X0320952Y0071003D01*
X0320340Y0071615D01*
X0319639Y0072124D01*
X0319101Y0072398D01*
X0319872Y0072718D01*
X0321419Y0074265D01*
X0322257Y0076287D01*
X0322257Y0078475D01*
X0321419Y0080496D01*
X0319872Y0082043D01*
X0319016Y0082398D01*
X0319639Y0082716D01*
X0320340Y0083225D01*
X0320952Y0083837D01*
X0321461Y0084537D01*
X0321854Y0085309D01*
X0322121Y0086132D01*
X0322257Y0086987D01*
X0322257Y0087265D01*
X0316911Y0087265D01*
X0316911Y0087575D01*
X0322257Y0087575D01*
X0322257Y0087853D01*
X0322121Y0088708D01*
X0321854Y0089531D01*
X0321461Y0090303D01*
X0320952Y0091003D01*
X0320340Y0091615D01*
X0319639Y0092124D01*
X0319058Y0092420D01*
X0319872Y0092757D01*
X0321419Y0094305D01*
X0322257Y0096326D01*
X0322257Y0098514D01*
X0321419Y0100536D01*
X0319872Y0102083D01*
X0319058Y0102420D01*
X0319872Y0102757D01*
X0321419Y0104305D01*
X0322257Y0106326D01*
X0322257Y0108514D01*
X0321419Y0110536D01*
X0319872Y0112083D01*
X0319058Y0112420D01*
X0319872Y0112757D01*
X0321419Y0114305D01*
X0322257Y0116326D01*
X0322257Y0118514D01*
X0321419Y0120536D01*
X0319872Y0122083D01*
X0319058Y0122420D01*
X0319872Y0122757D01*
X0321419Y0124305D01*
X0322257Y0126326D01*
X0322257Y0128514D01*
X0321419Y0130536D01*
X0319872Y0132083D01*
X0319058Y0132420D01*
X0319639Y0132716D01*
X0320340Y0133225D01*
X0320952Y0133837D01*
X0321461Y0134537D01*
X0321854Y0135309D01*
X0322121Y0136132D01*
X0322257Y0136987D01*
X0322257Y0137265D01*
X0316911Y0137265D01*
X0316911Y0137575D01*
X0322257Y0137575D01*
X0322257Y0137853D01*
X0322121Y0138708D01*
X0321854Y0139531D01*
X0321461Y0140303D01*
X0320952Y0141003D01*
X0320340Y0141615D01*
X0319639Y0142124D01*
X0319058Y0142420D01*
X0319872Y0142757D01*
X0321419Y0144305D01*
X0322257Y0146326D01*
X0322257Y0148514D01*
X0321419Y0150536D01*
X0319872Y0152083D01*
X0319058Y0152420D01*
X0319872Y0152757D01*
X0321419Y0154305D01*
X0322257Y0156326D01*
X0322257Y0158514D01*
X0321419Y0160536D01*
X0319872Y0162083D01*
X0319058Y0162420D01*
X0319639Y0162716D01*
X0320340Y0163225D01*
X0320952Y0163837D01*
X0321461Y0164537D01*
X0321854Y0165309D01*
X0322121Y0166132D01*
X0322257Y0166987D01*
X0322257Y0167265D01*
X0316911Y0167265D01*
X0316911Y0167575D01*
X0322257Y0167575D01*
X0322257Y0167853D01*
X0322121Y0168708D01*
X0321854Y0169531D01*
X0321461Y0170303D01*
X0320952Y0171003D01*
X0320340Y0171615D01*
X0319639Y0172124D01*
X0319058Y0172420D01*
X0319872Y0172757D01*
X0321419Y0174305D01*
X0322257Y0176326D01*
X0322257Y0178514D01*
X0321419Y0180536D01*
X0319872Y0182083D01*
X0319058Y0182420D01*
X0319872Y0182757D01*
X0321419Y0184305D01*
X0322257Y0186326D01*
X0322257Y0188514D01*
X0321419Y0190536D01*
X0319872Y0192083D01*
X0319058Y0192420D01*
X0319872Y0192757D01*
X0321419Y0194305D01*
X0322257Y0196326D01*
X0322257Y0198514D01*
X0321419Y0200536D01*
X0319872Y0202083D01*
X0319058Y0202420D01*
X0319639Y0202716D01*
X0320340Y0203225D01*
X0320952Y0203837D01*
X0321461Y0204537D01*
X0321854Y0205309D01*
X0322121Y0206132D01*
X0322257Y0206987D01*
X0322257Y0207265D01*
X0316911Y0207265D01*
X0316911Y0207575D01*
X0322257Y0207575D01*
X0322257Y0207853D01*
X0322121Y0208708D01*
X0321854Y0209531D01*
X0321461Y0210303D01*
X0320952Y0211003D01*
X0320340Y0211615D01*
X0319639Y0212124D01*
X0319058Y0212420D01*
X0319872Y0212757D01*
X0321419Y0214305D01*
X0322257Y0216326D01*
X0322257Y0218514D01*
X0321419Y0220536D01*
X0320557Y0221398D01*
X0320557Y0223442D01*
X0321419Y0224305D01*
X0322257Y0226326D01*
X0322257Y0228514D01*
X0321419Y0230536D01*
X0320557Y0231398D01*
X0320557Y0232974D01*
X0319978Y0234371D01*
X0316021Y0238328D01*
X0314953Y0239396D01*
X0314092Y0239753D01*
X0315843Y0240478D01*
X0317872Y0242507D01*
X0318970Y0245158D01*
X0318970Y0248028D01*
X0317872Y0250679D01*
X0315843Y0252709D01*
X0313192Y0253807D01*
X0310322Y0253807D01*
X0307671Y0252709D01*
X0305641Y0250679D01*
X0304543Y0248028D01*
X0304543Y0245158D01*
X0305641Y0242507D01*
X0307671Y0240478D01*
X0308885Y0239975D01*
X0292575Y0239975D01*
X0292575Y0240849D01*
X0292440Y0241175D01*
X0292575Y0241501D01*
X0292575Y0250849D01*
X0291753Y0252834D01*
X0290234Y0254353D01*
X0288249Y0255175D01*
X0286101Y0255175D01*
X0284116Y0254353D01*
X0282597Y0252834D01*
X0282175Y0251815D01*
X0281753Y0252834D01*
X0280234Y0254353D01*
X0278249Y0255175D01*
X0276101Y0255175D01*
X0274116Y0254353D01*
X0272597Y0252834D01*
X0272175Y0251815D01*
X0271753Y0252834D01*
X0270234Y0254353D01*
X0268249Y0255175D01*
X0266101Y0255175D01*
X0264116Y0254353D01*
X0262597Y0252834D01*
X0262175Y0251815D01*
X0261753Y0252834D01*
X0260234Y0254353D01*
X0258249Y0255175D01*
X0256101Y0255175D01*
X0254116Y0254353D01*
X0252597Y0252834D01*
X0252183Y0251835D01*
X0252179Y0251848D01*
X0251793Y0252605D01*
X0251294Y0253293D01*
X0250693Y0253894D01*
X0250005Y0254393D01*
X0249248Y0254779D01*
X0248440Y0255042D01*
X0247600Y0255175D01*
X0247375Y0255175D01*
X0247375Y0246375D01*
X0246975Y0246375D01*
X0246975Y0255175D01*
X0246750Y0255175D01*
X0245910Y0255042D01*
X0245102Y0254779D01*
X0244345Y0254393D01*
X0243657Y0253894D01*
X0243056Y0253293D01*
X0242557Y0252605D01*
X0242171Y0251848D01*
X0241908Y0251040D01*
X0241775Y0250200D01*
X0241775Y0246375D01*
X0246975Y0246375D01*
X0246975Y0245975D01*
X0241775Y0245975D01*
X0241775Y0242150D01*
X0241908Y0241310D01*
X0241952Y0241175D01*
X0241908Y0241040D01*
X0241775Y0240200D01*
X0241775Y0236375D01*
X0246975Y0236375D01*
X0246975Y0245175D01*
X0246975Y0245975D01*
X0247375Y0245975D01*
X0247375Y0236375D01*
X0246975Y0236375D01*
X0246975Y0235975D01*
X0247375Y0235975D01*
X0247375Y0227175D01*
X0247600Y0227175D01*
X0248440Y0227308D01*
X0249248Y0227571D01*
X0250005Y0227957D01*
X0250693Y0228456D01*
X0251294Y0229057D01*
X0251793Y0229745D01*
X0252179Y0230502D01*
X0252183Y0230515D01*
X0252597Y0229516D01*
X0254116Y0227997D01*
X0254575Y0227807D01*
X0254575Y0226908D01*
X0254971Y0225952D01*
X0255702Y0225221D01*
X0257577Y0223346D01*
X0258533Y0222950D01*
X0262973Y0222950D01*
X0272773Y0213150D01*
X0269944Y0213150D01*
X0267864Y0215230D01*
X0263986Y0215230D01*
X0261906Y0213150D01*
X0259024Y0213150D01*
X0259024Y0214248D01*
X0257970Y0215303D01*
X0251361Y0215303D01*
X0250925Y0214867D01*
X0250489Y0215303D01*
X0243880Y0215303D01*
X0242826Y0214248D01*
X0242826Y0213150D01*
X0239944Y0213150D01*
X0237864Y0215230D01*
X0233986Y0215230D01*
X0232579Y0213823D01*
X0231773Y0214629D01*
X0230817Y0215025D01*
X0223590Y0215025D01*
X0223409Y0215207D01*
X0222203Y0215706D01*
X0220897Y0215706D01*
X0219691Y0215207D01*
X0218768Y0214284D01*
X0218400Y0213395D01*
X0218346Y0213450D01*
X0217500Y0213450D01*
X0217500Y0226031D01*
X0216921Y0227428D01*
X0210975Y0233374D01*
X0210975Y0233683D01*
X0211001Y0233657D01*
X0211411Y0233420D01*
X0211869Y0233297D01*
X0214186Y0233297D01*
X0214186Y0237570D01*
X0215145Y0237570D01*
X0215145Y0233297D01*
X0217461Y0233297D01*
X0217919Y0233420D01*
X0218329Y0233657D01*
X0218665Y0233992D01*
X0218783Y0234198D01*
X0219611Y0233370D01*
X0221550Y0233370D01*
X0223489Y0233370D01*
X0226230Y0236111D01*
X0226230Y0238050D01*
X0226230Y0239989D01*
X0223489Y0242730D01*
X0221550Y0242730D01*
X0221550Y0238050D01*
X0221550Y0238050D01*
X0226230Y0238050D01*
X0221550Y0238050D01*
X0221550Y0238050D01*
X0221550Y0242730D01*
X0219611Y0242730D01*
X0218783Y0241902D01*
X0218665Y0242108D01*
X0218329Y0242443D01*
X0217919Y0242680D01*
X0217461Y0242803D01*
X0215145Y0242803D01*
X0215145Y0238530D01*
X0214186Y0238530D01*
X0214186Y0242803D01*
X0211869Y0242803D01*
X0211411Y0242680D01*
X0211001Y0242443D01*
X0210925Y0242367D01*
X0210489Y0242803D01*
X0203880Y0242803D01*
X0203648Y0242571D01*
X0203489Y0242730D01*
X0199611Y0242730D01*
X0198731Y0241850D01*
X0195998Y0241850D01*
X0195831Y0242017D01*
X0194111Y0242730D01*
X0186489Y0242730D01*
X0184769Y0242017D01*
X0183452Y0240701D01*
X0182740Y0238981D01*
X0182740Y0237119D01*
X0183452Y0235399D01*
X0184769Y0234082D01*
X0186489Y0233370D01*
X0186500Y0233370D01*
X0186500Y0232730D01*
X0186489Y0232730D01*
X0184769Y0232017D01*
X0183452Y0230701D01*
X0182740Y0228981D01*
X0182740Y0227119D01*
X0183452Y0225399D01*
X0184769Y0224082D01*
X0186489Y0223370D01*
X0194111Y0223370D01*
X0195831Y0224082D01*
X0197147Y0225399D01*
X0197860Y0227119D01*
X0197860Y0228981D01*
X0197147Y0230701D01*
X0195831Y0232017D01*
X0194111Y0232730D01*
X0194100Y0232730D01*
X0194100Y0233370D01*
X0194111Y0233370D01*
X0195831Y0234082D01*
X0195998Y0234250D01*
X0198731Y0234250D01*
X0199611Y0233370D01*
X0203375Y0233370D01*
X0203375Y0231044D01*
X0203954Y0229647D01*
X0205022Y0228579D01*
X0209900Y0223701D01*
X0209900Y0213450D01*
X0209775Y0213450D01*
X0209775Y0216067D01*
X0209379Y0217023D01*
X0206879Y0219523D01*
X0206148Y0220254D01*
X0205192Y0220650D01*
X0197169Y0220650D01*
X0197147Y0220701D01*
X0195831Y0222017D01*
X0194111Y0222730D01*
X0186489Y0222730D01*
X0184769Y0222017D01*
X0183452Y0220701D01*
X0182740Y0218981D01*
X0182740Y0217119D01*
X0183452Y0215399D01*
X0184769Y0214082D01*
X0186489Y0213370D01*
X0194111Y0213370D01*
X0195831Y0214082D01*
X0197147Y0215399D01*
X0197169Y0215450D01*
X0203598Y0215450D01*
X0204575Y0214473D01*
X0204575Y0208702D01*
X0203754Y0209523D01*
X0203023Y0210254D01*
X0202067Y0210650D01*
X0197169Y0210650D01*
X0197147Y0210701D01*
X0195831Y0212017D01*
X0194111Y0212730D01*
X0186489Y0212730D01*
X0184769Y0212017D01*
X0183452Y0210701D01*
X0182740Y0208981D01*
X0182740Y0207119D01*
X0183452Y0205399D01*
X0184769Y0204082D01*
X0186489Y0203370D01*
X0194111Y0203370D01*
X0195831Y0204082D01*
X0197147Y0205399D01*
X0197169Y0205450D01*
X0200473Y0205450D01*
X0200825Y0205098D01*
X0200825Y0201283D01*
X0201087Y0200650D01*
X0197169Y0200650D01*
X0197147Y0200701D01*
X0195831Y0202017D01*
X0194111Y0202730D01*
X0186489Y0202730D01*
X0184769Y0202017D01*
X0183452Y0200701D01*
X0182740Y0198981D01*
X0182740Y0197119D01*
X0183452Y0195399D01*
X0184769Y0194082D01*
X0186489Y0193370D01*
X0194111Y0193370D01*
X0195831Y0194082D01*
X0197147Y0195399D01*
X0197169Y0195450D01*
X0201098Y0195450D01*
X0208202Y0188346D01*
X0208469Y0188235D01*
X0208554Y0188150D01*
X0208252Y0188150D01*
X0206879Y0189523D01*
X0206148Y0190254D01*
X0205192Y0190650D01*
X0197169Y0190650D01*
X0197147Y0190701D01*
X0195831Y0192017D01*
X0194111Y0192730D01*
X0186489Y0192730D01*
X0184769Y0192017D01*
X0183452Y0190701D01*
X0182740Y0188981D01*
X0182740Y0187119D01*
X0183452Y0185399D01*
X0184769Y0184082D01*
X0186489Y0183370D01*
X0194111Y0183370D01*
X0195831Y0184082D01*
X0197147Y0185399D01*
X0197169Y0185450D01*
X0203598Y0185450D01*
X0205702Y0183346D01*
X0206175Y0183150D01*
X0195408Y0183150D01*
X0194452Y0182754D01*
X0194335Y0182637D01*
X0194111Y0182730D01*
X0186489Y0182730D01*
X0184769Y0182017D01*
X0183452Y0180701D01*
X0182740Y0178981D01*
X0182740Y0177119D01*
X0183452Y0175399D01*
X0184769Y0174082D01*
X0186489Y0173370D01*
X0193950Y0173370D01*
X0193950Y0172730D01*
X0186489Y0172730D01*
X0184769Y0172017D01*
X0183452Y0170701D01*
X0182740Y0168981D01*
X0182740Y0167119D01*
X0183452Y0165399D01*
X0184769Y0164082D01*
X0186489Y0163370D01*
X0194111Y0163370D01*
X0195831Y0164082D01*
X0196450Y0164702D01*
X0196450Y0163502D01*
X0195219Y0162271D01*
X0194111Y0162730D01*
X0186489Y0162730D01*
X0184769Y0162017D01*
X0183452Y0160701D01*
X0182740Y0158981D01*
X0182740Y0157119D01*
X0183452Y0155399D01*
X0184769Y0154082D01*
X0186489Y0153370D01*
X0194111Y0153370D01*
X0195200Y0153821D01*
X0195200Y0152279D01*
X0194111Y0152730D01*
X0186489Y0152730D01*
X0184769Y0152017D01*
X0183452Y0150701D01*
X0182740Y0148981D01*
X0182740Y0147119D01*
X0183452Y0145399D01*
X0184769Y0144082D01*
X0186489Y0143370D01*
X0194111Y0143370D01*
X0195831Y0144082D01*
X0197147Y0145399D01*
X0197728Y0146801D01*
X0198950Y0148023D01*
X0198950Y0142252D01*
X0197348Y0140650D01*
X0197169Y0140650D01*
X0197147Y0140701D01*
X0195831Y0142017D01*
X0194111Y0142730D01*
X0186489Y0142730D01*
X0184769Y0142017D01*
X0183452Y0140701D01*
X0182740Y0138981D01*
X0182740Y0137119D01*
X0183452Y0135399D01*
X0184769Y0134082D01*
X0186489Y0133370D01*
X0187700Y0133370D01*
X0187700Y0132730D01*
X0186489Y0132730D01*
X0184769Y0132017D01*
X0183452Y0130701D01*
X0182740Y0128981D01*
X0182740Y0127119D01*
X0183452Y0125399D01*
X0184769Y0124082D01*
X0186489Y0123370D01*
X0194111Y0123370D01*
X0195831Y0124082D01*
X0197147Y0125399D01*
X0197860Y0127119D01*
X0197860Y0128981D01*
X0197147Y0130701D01*
X0195831Y0132017D01*
X0194111Y0132730D01*
X0192900Y0132730D01*
X0192900Y0133370D01*
X0194111Y0133370D01*
X0195831Y0134082D01*
X0197147Y0135399D01*
X0197169Y0135450D01*
X0198942Y0135450D01*
X0199898Y0135846D01*
X0200629Y0136577D01*
X0203754Y0139702D01*
X0204150Y0140658D01*
X0204150Y0150098D01*
X0208000Y0153948D01*
X0208000Y0153704D01*
X0209054Y0152650D01*
X0218346Y0152650D01*
X0218646Y0152950D01*
X0222348Y0152950D01*
X0231245Y0144053D01*
X0231245Y0141111D01*
X0233986Y0138370D01*
X0237864Y0138370D01*
X0239944Y0140450D01*
X0242826Y0140450D01*
X0242826Y0139352D01*
X0243880Y0138297D01*
X0250489Y0138297D01*
X0250925Y0138733D01*
X0251361Y0138297D01*
X0257970Y0138297D01*
X0259024Y0139352D01*
X0259024Y0140450D01*
X0261906Y0140450D01*
X0263986Y0138370D01*
X0267864Y0138370D01*
X0269943Y0140450D01*
X0272973Y0140450D01*
X0298207Y0115216D01*
X0299163Y0114820D01*
X0301880Y0114820D01*
X0302094Y0114305D01*
X0303641Y0112757D01*
X0304455Y0112420D01*
X0303874Y0112124D01*
X0303174Y0111615D01*
X0302562Y0111003D01*
X0302053Y0110303D01*
X0301660Y0109531D01*
X0301392Y0108708D01*
X0301257Y0107853D01*
X0301257Y0107575D01*
X0306602Y0107575D01*
X0306602Y0107265D01*
X0301257Y0107265D01*
X0301257Y0106987D01*
X0301392Y0106132D01*
X0301660Y0105309D01*
X0301888Y0104861D01*
X0301327Y0104629D01*
X0298598Y0101900D01*
X0269943Y0101900D01*
X0267864Y0103980D01*
X0263986Y0103980D01*
X0261906Y0101900D01*
X0259024Y0101900D01*
X0259024Y0102998D01*
X0257970Y0104053D01*
X0251361Y0104053D01*
X0250925Y0103617D01*
X0250489Y0104053D01*
X0243880Y0104053D01*
X0242826Y0102998D01*
X0242826Y0101900D01*
X0239944Y0101900D01*
X0237864Y0103980D01*
X0233986Y0103980D01*
X0232480Y0102473D01*
X0232480Y0103739D01*
X0229739Y0106480D01*
X0227800Y0106480D01*
X0227800Y0101800D01*
X0227800Y0101800D01*
X0227800Y0106480D01*
X0225861Y0106480D01*
X0225390Y0106008D01*
X0225204Y0106193D01*
X0224794Y0106430D01*
X0224336Y0106553D01*
X0222020Y0106553D01*
X0222020Y0102280D01*
X0221061Y0102280D01*
X0221061Y0106553D01*
X0218744Y0106553D01*
X0218286Y0106430D01*
X0217876Y0106193D01*
X0217800Y0106117D01*
X0217364Y0106553D01*
X0210755Y0106553D01*
X0210210Y0106008D01*
X0209739Y0106480D01*
X0208494Y0106480D01*
X0202453Y0112521D01*
X0201056Y0113100D01*
X0197248Y0113100D01*
X0197081Y0113267D01*
X0195361Y0113980D01*
X0187739Y0113980D01*
X0186019Y0113267D01*
X0184702Y0111951D01*
X0183990Y0110231D01*
X0183990Y0108369D01*
X0184702Y0106649D01*
X0186019Y0105332D01*
X0187739Y0104620D01*
X0195361Y0104620D01*
X0197081Y0105332D01*
X0197248Y0105500D01*
X0198726Y0105500D01*
X0203120Y0101106D01*
X0203120Y0100782D01*
X0202398Y0101504D01*
X0201442Y0101900D01*
X0198419Y0101900D01*
X0198397Y0101951D01*
X0197081Y0103267D01*
X0195361Y0103980D01*
X0187739Y0103980D01*
X0186019Y0103267D01*
X0184702Y0101951D01*
X0183990Y0100231D01*
X0183990Y0098369D01*
X0184702Y0096649D01*
X0186019Y0095332D01*
X0187739Y0094620D01*
X0195361Y0094620D01*
X0197081Y0095332D01*
X0198397Y0096649D01*
X0198419Y0096700D01*
X0199848Y0096700D01*
X0208325Y0088223D01*
X0208325Y0088077D01*
X0205629Y0090773D01*
X0204898Y0091504D01*
X0203942Y0091900D01*
X0198419Y0091900D01*
X0198397Y0091951D01*
X0197081Y0093267D01*
X0195361Y0093980D01*
X0187739Y0093980D01*
X0186019Y0093267D01*
X0184702Y0091951D01*
X0183990Y0090231D01*
X0183990Y0089900D01*
X0181474Y0089900D01*
X0181454Y0089948D01*
X0179771Y0091631D01*
X0180582Y0092441D01*
X0181081Y0093647D01*
X0181081Y0094953D01*
X0180582Y0096159D01*
X0179659Y0097082D01*
X0178453Y0097581D01*
X0177147Y0097581D01*
X0175941Y0097082D01*
X0175131Y0096271D01*
X0174150Y0097252D01*
X0174150Y0105442D01*
X0173754Y0106398D01*
X0169379Y0110773D01*
X0168648Y0111504D01*
X0168569Y0111537D01*
X0168397Y0111951D01*
X0167081Y0113267D01*
X0165361Y0113980D01*
X0157739Y0113980D01*
X0156019Y0113267D01*
X0154702Y0111951D01*
X0153990Y0110231D01*
X0153990Y0108369D01*
X0154702Y0106649D01*
X0156019Y0105332D01*
X0157739Y0104620D01*
X0165361Y0104620D01*
X0167081Y0105332D01*
X0167273Y0105525D01*
X0168950Y0103848D01*
X0168950Y0100617D01*
X0168397Y0101951D01*
X0167081Y0103267D01*
X0165361Y0103980D01*
X0157739Y0103980D01*
X0156019Y0103267D01*
X0154702Y0101951D01*
X0153990Y0100231D01*
X0153990Y0098369D01*
X0154702Y0096649D01*
X0156019Y0095332D01*
X0157739Y0094620D01*
X0165200Y0094620D01*
X0165200Y0093980D01*
X0157739Y0093980D01*
X0156019Y0093267D01*
X0154702Y0091951D01*
X0154681Y0091900D01*
X0149215Y0091900D01*
X0148409Y0092707D01*
X0147203Y0093206D01*
X0145897Y0093206D01*
X0144691Y0092707D01*
X0143768Y0091784D01*
X0143269Y0090578D01*
X0143269Y0089272D01*
X0143768Y0088066D01*
X0144691Y0087143D01*
X0145897Y0086644D01*
X0147203Y0086644D01*
X0147338Y0086700D01*
X0154681Y0086700D01*
X0154702Y0086649D01*
X0156019Y0085332D01*
X0157739Y0084620D01*
X0165053Y0084620D01*
X0165928Y0083745D01*
X0165361Y0083980D01*
X0157739Y0083980D01*
X0156019Y0083267D01*
X0154702Y0081951D01*
X0154681Y0081900D01*
X0143252Y0081900D01*
X0139775Y0085377D01*
X0139775Y0096692D01*
X0139379Y0097648D01*
X0135629Y0101398D01*
X0134898Y0102129D01*
X0133942Y0102525D01*
X0132837Y0102525D01*
X0130437Y0104925D01*
X0133200Y0107688D01*
X0133200Y0112162D01*
X0130437Y0114925D01*
X0133200Y0117688D01*
X0133200Y0122162D01*
X0130437Y0124925D01*
X0132837Y0127325D01*
X0135192Y0127325D01*
X0136148Y0127721D01*
X0136879Y0128452D01*
X0149379Y0140952D01*
X0149775Y0141908D01*
X0149775Y0142060D01*
X0150316Y0141518D01*
X0151522Y0141019D01*
X0152828Y0141019D01*
X0154034Y0141518D01*
X0154957Y0142441D01*
X0155456Y0143647D01*
X0155456Y0143798D01*
X0156489Y0143370D01*
X0164111Y0143370D01*
X0165831Y0144082D01*
X0167147Y0145399D01*
X0167190Y0145501D01*
X0168023Y0145846D01*
X0168754Y0146577D01*
X0171254Y0149077D01*
X0171650Y0150033D01*
X0171650Y0153254D01*
X0171895Y0153010D01*
X0172305Y0152773D01*
X0172763Y0152650D01*
X0176900Y0152650D01*
X0181037Y0152650D01*
X0181495Y0152773D01*
X0181905Y0153010D01*
X0182240Y0153345D01*
X0182477Y0153755D01*
X0182600Y0154213D01*
X0182600Y0155550D01*
X0182600Y0156887D01*
X0182477Y0157345D01*
X0182240Y0157755D01*
X0181946Y0158050D01*
X0182600Y0158704D01*
X0182600Y0162396D01*
X0181946Y0163050D01*
X0182600Y0163704D01*
X0182600Y0167396D01*
X0181946Y0168050D01*
X0182600Y0168704D01*
X0182600Y0172396D01*
X0181946Y0173050D01*
X0182600Y0173704D01*
X0182600Y0177396D01*
X0181946Y0178050D01*
X0182600Y0178704D01*
X0182600Y0182396D01*
X0181946Y0183050D01*
X0182600Y0183704D01*
X0182600Y0187396D01*
X0181946Y0188050D01*
X0182600Y0188704D01*
X0182600Y0192396D01*
X0181946Y0193050D01*
X0182600Y0193704D01*
X0182600Y0197396D01*
X0181946Y0198050D01*
X0182600Y0198704D01*
X0182600Y0202396D01*
X0181946Y0203050D01*
X0182600Y0203704D01*
X0182600Y0207396D01*
X0181946Y0208050D01*
X0182600Y0208704D01*
X0182600Y0212396D01*
X0181546Y0213450D01*
X0179500Y0213450D01*
X0179500Y0214467D01*
X0179240Y0215095D01*
X0179659Y0215268D01*
X0180582Y0216191D01*
X0181081Y0217397D01*
X0181081Y0218703D01*
X0180582Y0219909D01*
X0179659Y0220832D01*
X0178453Y0221331D01*
X0177147Y0221331D01*
X0175941Y0220832D01*
X0175400Y0220290D01*
X0175400Y0232942D01*
X0175004Y0233898D01*
X0169379Y0239523D01*
X0168648Y0240254D01*
X0167692Y0240650D01*
X0167169Y0240650D01*
X0167147Y0240701D01*
X0165831Y0242017D01*
X0164111Y0242730D01*
X0156489Y0242730D01*
X0154769Y0242017D01*
X0153452Y0240701D01*
X0152740Y0238981D01*
X0152740Y0237119D01*
X0153452Y0235399D01*
X0154769Y0234082D01*
X0156489Y0233370D01*
X0164111Y0233370D01*
X0165831Y0234082D01*
X0166648Y0234900D01*
X0170200Y0231348D01*
X0170200Y0228077D01*
X0168754Y0229523D01*
X0168023Y0230254D01*
X0167190Y0230599D01*
X0167147Y0230701D01*
X0165831Y0232017D01*
X0164111Y0232730D01*
X0156489Y0232730D01*
X0154769Y0232017D01*
X0153452Y0230701D01*
X0152740Y0228981D01*
X0152740Y0227119D01*
X0153452Y0225399D01*
X0154769Y0224082D01*
X0156489Y0223370D01*
X0164111Y0223370D01*
X0165831Y0224082D01*
X0166336Y0224587D01*
X0167700Y0223223D01*
X0167700Y0219367D01*
X0167147Y0220701D01*
X0165831Y0222017D01*
X0164111Y0222730D01*
X0156489Y0222730D01*
X0154769Y0222017D01*
X0153452Y0220701D01*
X0152740Y0218981D01*
X0152740Y0217119D01*
X0153452Y0215399D01*
X0154769Y0214082D01*
X0156489Y0213370D01*
X0164111Y0213370D01*
X0165200Y0213821D01*
X0165200Y0212279D01*
X0164111Y0212730D01*
X0156489Y0212730D01*
X0154769Y0212017D01*
X0153452Y0210701D01*
X0153431Y0210650D01*
X0139158Y0210650D01*
X0138202Y0210254D01*
X0133721Y0205773D01*
X0133325Y0204817D01*
X0133325Y0165377D01*
X0131655Y0163707D01*
X0130437Y0164925D01*
X0133200Y0167688D01*
X0133200Y0172162D01*
X0130437Y0174925D01*
X0133200Y0177688D01*
X0133200Y0182162D01*
X0130437Y0184925D01*
X0133200Y0187688D01*
X0133200Y0189725D01*
X0128000Y0189725D01*
X0128000Y0190125D01*
X0127600Y0190125D01*
X0127600Y0195325D01*
X0125563Y0195325D01*
X0122800Y0192562D01*
X0120037Y0195325D01*
X0118000Y0195325D01*
X0118000Y0190125D01*
X0117600Y0190125D01*
X0117600Y0195325D01*
X0115563Y0195325D01*
X0112400Y0192162D01*
X0112400Y0190125D01*
X0117600Y0190125D01*
X0117600Y0189725D01*
X0112400Y0189725D01*
X0112400Y0187688D01*
X0112563Y0187525D01*
X0112283Y0187525D01*
X0111327Y0187129D01*
X0110596Y0186398D01*
X0101223Y0177025D01*
X0093169Y0177025D01*
X0093147Y0177076D01*
X0091831Y0178392D01*
X0091148Y0178675D01*
X0091633Y0178922D01*
X0092229Y0179355D01*
X0092750Y0179876D01*
X0093183Y0180472D01*
X0093517Y0181128D01*
X0093745Y0181829D01*
X0093860Y0182557D01*
X0093860Y0182925D01*
X0093860Y0183293D01*
X0093745Y0184021D01*
X0093517Y0184721D01*
X0093183Y0185378D01*
X0092750Y0185974D01*
X0092229Y0186495D01*
X0091633Y0186928D01*
X0090976Y0187262D01*
X0090276Y0187490D01*
X0089548Y0187605D01*
X0086300Y0187605D01*
X0086300Y0182925D01*
X0086300Y0182925D01*
X0093860Y0182925D01*
X0086300Y0182925D01*
X0086300Y0182925D01*
X0086300Y0182925D01*
X0078740Y0182925D01*
X0078740Y0183293D01*
X0078855Y0184021D01*
X0079083Y0184721D01*
X0079417Y0185378D01*
X0079850Y0185974D01*
X0080371Y0186495D01*
X0080967Y0186928D01*
X0081623Y0187262D01*
X0082324Y0187490D01*
X0083052Y0187605D01*
X0086300Y0187605D01*
X0086300Y0182925D01*
X0078740Y0182925D01*
X0078740Y0182557D01*
X0078855Y0181829D01*
X0079083Y0181128D01*
X0079417Y0180472D01*
X0079850Y0179876D01*
X0080371Y0179355D01*
X0080967Y0178922D01*
X0081452Y0178675D01*
X0080769Y0178392D01*
X0079452Y0177076D01*
X0078740Y0175356D01*
X0078740Y0173494D01*
X0079452Y0171774D01*
X0080769Y0170457D01*
X0081451Y0170175D01*
X0080769Y0169892D01*
X0079452Y0168576D01*
X0078740Y0166856D01*
X0078740Y0164994D01*
X0079452Y0163274D01*
X0080769Y0161957D01*
X0081451Y0161675D01*
X0080769Y0161392D01*
X0079452Y0160076D01*
X0078740Y0158356D01*
X0078740Y0156494D01*
X0079452Y0154774D01*
X0080769Y0153457D01*
X0081451Y0153175D01*
X0080769Y0152892D01*
X0079452Y0151576D01*
X0078740Y0149856D01*
X0078740Y0147994D01*
X0079452Y0146274D01*
X0080769Y0144957D01*
X0081451Y0144675D01*
X0080769Y0144392D01*
X0079452Y0143076D01*
X0078740Y0141356D01*
X0078740Y0139494D01*
X0079452Y0137774D01*
X0080769Y0136457D01*
X0081451Y0136175D01*
X0080769Y0135892D01*
X0079452Y0134576D01*
X0078740Y0132856D01*
X0078740Y0130994D01*
X0079452Y0129274D01*
X0080769Y0127957D01*
X0081451Y0127675D01*
X0080769Y0127392D01*
X0079452Y0126076D01*
X0078740Y0124356D01*
X0078740Y0122494D01*
X0079063Y0121714D01*
X0076860Y0123917D01*
X0076860Y0124356D01*
X0076147Y0126076D01*
X0074831Y0127392D01*
X0074148Y0127675D01*
X0074633Y0127922D01*
X0075229Y0128355D01*
X0075750Y0128876D01*
X0076183Y0129472D01*
X0076517Y0130128D01*
X0076745Y0130829D01*
X0076860Y0131557D01*
X0076860Y0131925D01*
X0076860Y0132293D01*
X0076745Y0133021D01*
X0076517Y0133721D01*
X0076183Y0134378D01*
X0075750Y0134974D01*
X0075229Y0135495D01*
X0074633Y0135928D01*
X0074147Y0136175D01*
X0074633Y0136422D01*
X0075229Y0136855D01*
X0075750Y0137376D01*
X0076183Y0137972D01*
X0076517Y0138628D01*
X0076745Y0139329D01*
X0076860Y0140057D01*
X0076860Y0140425D01*
X0076860Y0140793D01*
X0076745Y0141521D01*
X0076517Y0142221D01*
X0076183Y0142878D01*
X0075750Y0143474D01*
X0075229Y0143995D01*
X0074633Y0144428D01*
X0074147Y0144675D01*
X0074633Y0144922D01*
X0075229Y0145355D01*
X0075750Y0145876D01*
X0076183Y0146472D01*
X0076517Y0147128D01*
X0076745Y0147829D01*
X0076860Y0148557D01*
X0076860Y0148925D01*
X0076860Y0149293D01*
X0076745Y0150021D01*
X0076517Y0150721D01*
X0076183Y0151378D01*
X0075750Y0151974D01*
X0075229Y0152495D01*
X0074633Y0152928D01*
X0074147Y0153175D01*
X0074633Y0153422D01*
X0075229Y0153855D01*
X0075750Y0154376D01*
X0076183Y0154972D01*
X0076517Y0155628D01*
X0076745Y0156329D01*
X0076860Y0157057D01*
X0076860Y0157425D01*
X0076860Y0157793D01*
X0076745Y0158521D01*
X0076517Y0159221D01*
X0076183Y0159878D01*
X0075750Y0160474D01*
X0075229Y0160995D01*
X0074633Y0161428D01*
X0074147Y0161675D01*
X0074633Y0161922D01*
X0075229Y0162355D01*
X0075750Y0162876D01*
X0076183Y0163472D01*
X0076517Y0164128D01*
X0076745Y0164829D01*
X0076860Y0165557D01*
X0076860Y0165925D01*
X0076860Y0166293D01*
X0076745Y0167021D01*
X0076517Y0167721D01*
X0076183Y0168378D01*
X0075750Y0168974D01*
X0075229Y0169495D01*
X0074633Y0169928D01*
X0074147Y0170175D01*
X0074633Y0170422D01*
X0075229Y0170855D01*
X0075750Y0171376D01*
X0076183Y0171972D01*
X0076517Y0172628D01*
X0076745Y0173329D01*
X0076860Y0174057D01*
X0076860Y0174425D01*
X0076860Y0174793D01*
X0076745Y0175521D01*
X0076517Y0176221D01*
X0076183Y0176878D01*
X0075750Y0177474D01*
X0075229Y0177995D01*
X0074633Y0178428D01*
X0074147Y0178675D01*
X0074633Y0178922D01*
X0075229Y0179355D01*
X0075750Y0179876D01*
X0076183Y0180472D01*
X0076517Y0181128D01*
X0076745Y0181829D01*
X0076860Y0182557D01*
X0076860Y0182925D01*
X0076860Y0183293D01*
X0076745Y0184021D01*
X0076517Y0184721D01*
X0076183Y0185378D01*
X0075750Y0185974D01*
X0075229Y0186495D01*
X0074633Y0186928D01*
X0073976Y0187262D01*
X0073276Y0187490D01*
X0072548Y0187605D01*
X0069300Y0187605D01*
X0069300Y0182925D01*
X0069300Y0182925D01*
X0076860Y0182925D01*
X0069300Y0182925D01*
X0069300Y0182925D01*
X0069300Y0182925D01*
X0061740Y0182925D01*
X0061740Y0183293D01*
X0061855Y0184021D01*
X0062083Y0184721D01*
X0062417Y0185378D01*
X0062850Y0185974D01*
X0063371Y0186495D01*
X0063967Y0186928D01*
X0064623Y0187262D01*
X0065324Y0187490D01*
X0066052Y0187605D01*
X0069300Y0187605D01*
X0069300Y0182925D01*
X0069300Y0178245D01*
X0069300Y0174425D01*
X0076860Y0174425D01*
X0069300Y0174425D01*
X0069300Y0174425D01*
X0069300Y0174425D01*
X0069300Y0174425D01*
X0061740Y0174425D01*
X0061740Y0174793D01*
X0061855Y0175521D01*
X0062083Y0176221D01*
X0062417Y0176878D01*
X0062850Y0177474D01*
X0063371Y0177995D01*
X0063967Y0178428D01*
X0064453Y0178675D01*
X0063967Y0178922D01*
X0063371Y0179355D01*
X0062850Y0179876D01*
X0062417Y0180472D01*
X0062083Y0181128D01*
X0061855Y0181829D01*
X0061740Y0182557D01*
X0061740Y0182925D01*
X0069300Y0182925D01*
X0069300Y0182925D01*
X0069300Y0174425D01*
X0069300Y0169745D01*
X0069300Y0165925D01*
X0076860Y0165925D01*
X0069300Y0165925D01*
X0069300Y0165925D01*
X0069300Y0165925D01*
X0069300Y0165925D01*
X0061740Y0165925D01*
X0061740Y0166293D01*
X0061855Y0167021D01*
X0062083Y0167721D01*
X0062417Y0168378D01*
X0062850Y0168974D01*
X0063371Y0169495D01*
X0063967Y0169928D01*
X0064453Y0170175D01*
X0063967Y0170422D01*
X0063371Y0170855D01*
X0062850Y0171376D01*
X0062417Y0171972D01*
X0062083Y0172628D01*
X0061855Y0173329D01*
X0061740Y0174057D01*
X0061740Y0174425D01*
X0069300Y0174425D01*
X0069300Y0174425D01*
X0069300Y0165925D01*
X0069300Y0161245D01*
X0069300Y0157425D01*
X0076860Y0157425D01*
X0069300Y0157425D01*
X0069300Y0157425D01*
X0069300Y0157425D01*
X0069300Y0157425D01*
X0061740Y0157425D01*
X0061740Y0157793D01*
X0061855Y0158521D01*
X0062083Y0159221D01*
X0062417Y0159878D01*
X0062850Y0160474D01*
X0063371Y0160995D01*
X0063967Y0161428D01*
X0064453Y0161675D01*
X0063967Y0161922D01*
X0063371Y0162355D01*
X0062850Y0162876D01*
X0062417Y0163472D01*
X0062083Y0164128D01*
X0061855Y0164829D01*
X0061740Y0165557D01*
X0061740Y0165925D01*
X0069300Y0165925D01*
X0069300Y0165925D01*
X0069300Y0157425D01*
X0069300Y0153605D01*
X0069300Y0148925D01*
X0076860Y0148925D01*
X0069300Y0148925D01*
X0069300Y0148925D01*
X0069300Y0148925D01*
X0069300Y0148925D01*
X0061740Y0148925D01*
X0061740Y0149293D01*
X0061855Y0150021D01*
X0062083Y0150721D01*
X0062417Y0151378D01*
X0062850Y0151974D01*
X0063371Y0152495D01*
X0063967Y0152928D01*
X0064453Y0153175D01*
X0063967Y0153422D01*
X0063371Y0153855D01*
X0062850Y0154376D01*
X0062417Y0154972D01*
X0062083Y0155628D01*
X0061855Y0156329D01*
X0061740Y0157057D01*
X0061740Y0157425D01*
X0069300Y0157425D01*
X0069300Y0157425D01*
X0069300Y0148925D01*
X0069300Y0144245D01*
X0069300Y0140425D01*
X0076860Y0140425D01*
X0069300Y0140425D01*
X0069300Y0140425D01*
X0069300Y0140425D01*
X0069300Y0140425D01*
X0061740Y0140425D01*
X0061740Y0140793D01*
X0061855Y0141521D01*
X0062083Y0142221D01*
X0062417Y0142878D01*
X0062850Y0143474D01*
X0063371Y0143995D01*
X0063967Y0144428D01*
X0064453Y0144675D01*
X0063967Y0144922D01*
X0063371Y0145355D01*
X0062850Y0145876D01*
X0062417Y0146472D01*
X0062083Y0147128D01*
X0061855Y0147829D01*
X0061740Y0148557D01*
X0061740Y0148925D01*
X0069300Y0148925D01*
X0069300Y0148925D01*
X0069300Y0140425D01*
X0069300Y0135745D01*
X0069300Y0131925D01*
X0076860Y0131925D01*
X0069300Y0131925D01*
X0069300Y0131925D01*
X0069300Y0131925D01*
X0069300Y0131925D01*
X0061740Y0131925D01*
X0061740Y0132293D01*
X0061855Y0133021D01*
X0062083Y0133721D01*
X0062417Y0134378D01*
X0062850Y0134974D01*
X0063371Y0135495D01*
X0063967Y0135928D01*
X0064453Y0136175D01*
X0063967Y0136422D01*
X0063371Y0136855D01*
X0062850Y0137376D01*
X0062417Y0137972D01*
X0062083Y0138628D01*
X0061855Y0139329D01*
X0061740Y0140057D01*
X0061740Y0140425D01*
X0069300Y0140425D01*
X0069300Y0140425D01*
X0069300Y0131925D01*
X0061740Y0131925D01*
X0061740Y0131557D01*
X0061855Y0130829D01*
X0062083Y0130128D01*
X0062417Y0129472D01*
X0062850Y0128876D01*
X0063371Y0128355D01*
X0063967Y0127922D01*
X0064452Y0127675D01*
X0063769Y0127392D01*
X0062452Y0126076D01*
X0061740Y0124356D01*
X0061740Y0122494D01*
X0062452Y0120774D01*
X0063769Y0119457D01*
X0064451Y0119175D01*
X0063769Y0118892D01*
X0062452Y0117576D01*
X0061740Y0115856D01*
X0061740Y0113994D01*
X0062452Y0112274D01*
X0063769Y0110957D01*
X0064451Y0110675D01*
X0063769Y0110392D01*
X0062452Y0109076D01*
X0061740Y0107356D01*
X0061740Y0105494D01*
X0062452Y0103774D01*
X0063769Y0102457D01*
X0064451Y0102175D01*
X0063769Y0101892D01*
X0062452Y0100576D01*
X0061740Y0098856D01*
X0061740Y0096994D01*
X0062452Y0095274D01*
X0063769Y0093957D01*
X0064451Y0093675D01*
X0063769Y0093392D01*
X0062452Y0092076D01*
X0061740Y0090356D01*
X0061740Y0088494D01*
X0062452Y0086774D01*
X0063769Y0085457D01*
X0065489Y0084745D01*
X0073053Y0084745D01*
X0079346Y0078452D01*
X0080077Y0077721D01*
X0081033Y0077325D01*
X0112763Y0077325D01*
X0115200Y0074888D01*
X0115200Y0068783D01*
X0115596Y0067827D01*
X0124971Y0058452D01*
X0125702Y0057721D01*
X0126658Y0057325D01*
X0154422Y0057325D01*
X0154702Y0056649D01*
X0156019Y0055332D01*
X0157739Y0054620D01*
X0165361Y0054620D01*
X0166995Y0055297D01*
X0165585Y0053887D01*
X0165361Y0053980D01*
X0157739Y0053980D01*
X0156019Y0053267D01*
X0154702Y0051951D01*
X0153990Y0050231D01*
X0153990Y0048369D01*
X0154702Y0046649D01*
X0156019Y0045332D01*
X0157739Y0044620D01*
X0165361Y0044620D01*
X0166450Y0045071D01*
X0166450Y0043529D01*
X0165361Y0043980D01*
X0157739Y0043980D01*
X0156019Y0043267D01*
X0154702Y0041951D01*
X0153990Y0040231D01*
X0153990Y0038369D01*
X0154702Y0036649D01*
X0156019Y0035332D01*
X0157739Y0034620D01*
X0165361Y0034620D01*
X0167081Y0035332D01*
X0168397Y0036649D01*
X0168950Y0037983D01*
X0168950Y0033502D01*
X0167898Y0032450D01*
X0167081Y0033267D01*
X0165361Y0033980D01*
X0157739Y0033980D01*
X0156019Y0033267D01*
X0154702Y0031951D01*
X0153990Y0030231D01*
X0153990Y0028369D01*
X0154702Y0026649D01*
X0156019Y0025332D01*
X0154690Y0026679D02*
X0035181Y0026679D01*
X0035181Y0028278D02*
X0154028Y0028278D01*
X0153990Y0029876D02*
X0035181Y0029876D01*
X0035181Y0031475D02*
X0072943Y0031475D01*
X0073246Y0031349D02*
X0074516Y0030964D01*
X0075817Y0030705D01*
X0077000Y0030588D01*
X0077000Y0043275D01*
X0064313Y0043275D01*
X0064430Y0042092D01*
X0064689Y0040791D01*
X0065074Y0039521D01*
X0065581Y0038296D01*
X0066207Y0037126D01*
X0066944Y0036023D01*
X0067785Y0034998D01*
X0068723Y0034060D01*
X0069748Y0033219D01*
X0070851Y0032482D01*
X0072021Y0031856D01*
X0073246Y0031349D01*
X0069966Y0033073D02*
X0035181Y0033073D01*
X0035181Y0034672D02*
X0068111Y0034672D01*
X0066779Y0036270D02*
X0035181Y0036270D01*
X0035181Y0037869D02*
X0065810Y0037869D01*
X0065096Y0039467D02*
X0035181Y0039467D01*
X0035181Y0041066D02*
X0064634Y0041066D01*
X0064374Y0042664D02*
X0035181Y0042664D01*
X0035181Y0044263D02*
X0077000Y0044263D01*
X0077000Y0044875D02*
X0077000Y0043275D01*
X0078600Y0043275D01*
X0078600Y0044875D01*
X0077000Y0044875D01*
X0077000Y0057562D01*
X0075817Y0057445D01*
X0074516Y0057186D01*
X0073246Y0056801D01*
X0072021Y0056294D01*
X0070851Y0055668D01*
X0069748Y0054931D01*
X0068723Y0054090D01*
X0067785Y0053152D01*
X0066944Y0052127D01*
X0066207Y0051024D01*
X0065581Y0049854D01*
X0065074Y0048628D01*
X0064689Y0047359D01*
X0064430Y0046058D01*
X0064313Y0044875D01*
X0077000Y0044875D01*
X0077000Y0045861D02*
X0078600Y0045861D01*
X0078600Y0044875D02*
X0078600Y0057562D01*
X0079783Y0057445D01*
X0081084Y0057186D01*
X0082353Y0056801D01*
X0083579Y0056294D01*
X0084749Y0055668D01*
X0085852Y0054931D01*
X0086877Y0054090D01*
X0087815Y0053152D01*
X0088656Y0052127D01*
X0089393Y0051024D01*
X0090019Y0049854D01*
X0090526Y0048628D01*
X0090911Y0047359D01*
X0091170Y0046058D01*
X0091287Y0044875D01*
X0078600Y0044875D01*
X0078600Y0044263D02*
X0166450Y0044263D01*
X0169050Y0042425D02*
X0165925Y0039300D01*
X0161550Y0039300D01*
X0165486Y0034672D02*
X0168950Y0034672D01*
X0168950Y0036270D02*
X0168019Y0036270D01*
X0168903Y0037869D02*
X0168950Y0037869D01*
X0168521Y0033073D02*
X0167275Y0033073D01*
X0168425Y0029300D02*
X0171550Y0032425D01*
X0171550Y0044300D01*
X0174050Y0046800D01*
X0179250Y0046800D01*
X0179250Y0051800D02*
X0171550Y0051800D01*
X0169050Y0049300D01*
X0169050Y0042425D01*
X0174150Y0037869D02*
X0184197Y0037869D01*
X0185081Y0036270D02*
X0174150Y0036270D01*
X0174150Y0034672D02*
X0187614Y0034672D01*
X0185825Y0033073D02*
X0174150Y0033073D01*
X0173971Y0031475D02*
X0184505Y0031475D01*
X0183990Y0029876D02*
X0172678Y0029876D01*
X0171080Y0028278D02*
X0184028Y0028278D01*
X0184690Y0026679D02*
X0168410Y0026679D01*
X0166473Y0025081D02*
X0186627Y0025081D01*
X0186537Y0023482D02*
X0166531Y0023482D01*
X0166226Y0023637D02*
X0165526Y0023865D01*
X0164798Y0023980D01*
X0161550Y0023980D01*
X0161550Y0019300D01*
X0161550Y0019300D01*
X0169110Y0019300D01*
X0169110Y0019668D01*
X0168995Y0020396D01*
X0168767Y0021096D01*
X0168433Y0021753D01*
X0168000Y0022349D01*
X0167479Y0022870D01*
X0166883Y0023303D01*
X0166226Y0023637D01*
X0168338Y0021884D02*
X0184675Y0021884D01*
X0184012Y0020285D02*
X0169012Y0020285D01*
X0169110Y0019300D02*
X0161550Y0019300D01*
X0161550Y0019300D01*
X0161550Y0014620D01*
X0164798Y0014620D01*
X0165526Y0014735D01*
X0166226Y0014963D01*
X0166883Y0015297D01*
X0167479Y0015730D01*
X0168000Y0016251D01*
X0168433Y0016847D01*
X0168767Y0017503D01*
X0168995Y0018204D01*
X0169110Y0018932D01*
X0169110Y0019300D01*
X0169071Y0018687D02*
X0183990Y0018687D01*
X0184521Y0017088D02*
X0168555Y0017088D01*
X0167147Y0015490D02*
X0185862Y0015490D01*
X0191550Y0019300D02*
X0198425Y0019300D01*
X0209050Y0029925D01*
X0209050Y0040550D01*
X0210300Y0041800D01*
X0218850Y0041800D01*
X0225925Y0041800D01*
X0229050Y0038675D01*
X0229050Y0035550D01*
X0232800Y0031800D01*
X0235925Y0031800D01*
X0247185Y0031800D01*
X0242826Y0028278D02*
X0239021Y0028278D01*
X0232829Y0028278D02*
X0211080Y0028278D01*
X0211650Y0029876D02*
X0231047Y0029876D01*
X0229448Y0031475D02*
X0211650Y0031475D01*
X0211650Y0033073D02*
X0227850Y0033073D01*
X0226600Y0034672D02*
X0211650Y0034672D01*
X0211650Y0036270D02*
X0226450Y0036270D01*
X0226179Y0037869D02*
X0211650Y0037869D01*
X0205300Y0035550D02*
X0199050Y0029300D01*
X0191550Y0029300D01*
X0196473Y0025081D02*
X0200529Y0025081D01*
X0202127Y0026679D02*
X0198410Y0026679D01*
X0198930Y0023482D02*
X0196563Y0023482D01*
X0201489Y0018687D02*
X0304543Y0018687D01*
X0304543Y0019682D02*
X0304543Y0016812D01*
X0305641Y0014161D01*
X0307671Y0012132D01*
X0310322Y0011033D01*
X0313192Y0011033D01*
X0315843Y0012132D01*
X0317872Y0014161D01*
X0318970Y0016812D01*
X0318970Y0019682D01*
X0317872Y0022333D01*
X0315843Y0024362D01*
X0313192Y0025460D01*
X0310322Y0025460D01*
X0307671Y0024362D01*
X0305641Y0022333D01*
X0304543Y0019682D01*
X0304793Y0020285D02*
X0203087Y0020285D01*
X0204686Y0021884D02*
X0305455Y0021884D01*
X0306791Y0023482D02*
X0206284Y0023482D01*
X0207883Y0025081D02*
X0309405Y0025081D01*
X0314108Y0025081D02*
X0326463Y0025081D01*
X0326463Y0026679D02*
X0315106Y0026679D01*
X0316705Y0028278D02*
X0326463Y0028278D01*
X0326463Y0029876D02*
X0318303Y0029876D01*
X0319351Y0031475D02*
X0326463Y0031475D01*
X0326463Y0033073D02*
X0320188Y0033073D01*
X0321571Y0034672D02*
X0326463Y0034672D01*
X0326463Y0036270D02*
X0322234Y0036270D01*
X0322257Y0037869D02*
X0326463Y0037869D01*
X0326463Y0039467D02*
X0321862Y0039467D01*
X0320889Y0041066D02*
X0326463Y0041066D01*
X0326463Y0042664D02*
X0319647Y0042664D01*
X0321378Y0044263D02*
X0326463Y0044263D01*
X0326463Y0045861D02*
X0322064Y0045861D01*
X0322257Y0047460D02*
X0326463Y0047460D01*
X0326463Y0049058D02*
X0322031Y0049058D01*
X0321298Y0050657D02*
X0326463Y0050657D01*
X0326463Y0052255D02*
X0319455Y0052255D01*
X0320969Y0053854D02*
X0326463Y0053854D01*
X0326463Y0055452D02*
X0321895Y0055452D01*
X0322257Y0057051D02*
X0326463Y0057051D01*
X0326463Y0058649D02*
X0322201Y0058649D01*
X0321539Y0060248D02*
X0326463Y0060248D01*
X0326463Y0061846D02*
X0320109Y0061846D01*
X0320560Y0063445D02*
X0326463Y0063445D01*
X0326463Y0065043D02*
X0321719Y0065043D01*
X0322202Y0066642D02*
X0326463Y0066642D01*
X0326463Y0068240D02*
X0322195Y0068240D01*
X0321697Y0069839D02*
X0326463Y0069839D01*
X0326463Y0071437D02*
X0320517Y0071437D01*
X0320190Y0073036D02*
X0326463Y0073036D01*
X0326463Y0074634D02*
X0321572Y0074634D01*
X0322234Y0076233D02*
X0326463Y0076233D01*
X0326463Y0077832D02*
X0322257Y0077832D01*
X0321861Y0079430D02*
X0326463Y0079430D01*
X0326463Y0081029D02*
X0320887Y0081029D01*
X0319465Y0082627D02*
X0326463Y0082627D01*
X0326463Y0084226D02*
X0321234Y0084226D01*
X0322021Y0085824D02*
X0326463Y0085824D01*
X0326463Y0087423D02*
X0316911Y0087423D01*
X0322020Y0089021D02*
X0326463Y0089021D01*
X0326463Y0090620D02*
X0321230Y0090620D01*
X0319455Y0092218D02*
X0326463Y0092218D01*
X0326463Y0093817D02*
X0320931Y0093817D01*
X0321879Y0095415D02*
X0326463Y0095415D01*
X0326463Y0097014D02*
X0322257Y0097014D01*
X0322216Y0098612D02*
X0326463Y0098612D01*
X0326463Y0100211D02*
X0321554Y0100211D01*
X0320146Y0101809D02*
X0326463Y0101809D01*
X0326463Y0103408D02*
X0320522Y0103408D01*
X0321710Y0105006D02*
X0326463Y0105006D01*
X0326463Y0106605D02*
X0322257Y0106605D01*
X0322257Y0108203D02*
X0326463Y0108203D01*
X0326463Y0109802D02*
X0321723Y0109802D01*
X0320555Y0111400D02*
X0326463Y0111400D01*
X0326463Y0112999D02*
X0320114Y0112999D01*
X0321541Y0114597D02*
X0326463Y0114597D01*
X0326463Y0116196D02*
X0322203Y0116196D01*
X0322257Y0117794D02*
X0326463Y0117794D01*
X0326463Y0119393D02*
X0321893Y0119393D01*
X0320964Y0120991D02*
X0326463Y0120991D01*
X0326463Y0122590D02*
X0319468Y0122590D01*
X0321303Y0124188D02*
X0326463Y0124188D01*
X0326463Y0125787D02*
X0322033Y0125787D01*
X0322257Y0127385D02*
X0326463Y0127385D01*
X0326463Y0128984D02*
X0322062Y0128984D01*
X0321373Y0130582D02*
X0326463Y0130582D01*
X0326463Y0132181D02*
X0319635Y0132181D01*
X0320894Y0133779D02*
X0326463Y0133779D01*
X0326463Y0135378D02*
X0321876Y0135378D01*
X0322255Y0136976D02*
X0326463Y0136976D01*
X0326463Y0138575D02*
X0322142Y0138575D01*
X0321527Y0140173D02*
X0326463Y0140173D01*
X0326463Y0141772D02*
X0320124Y0141772D01*
X0320485Y0143370D02*
X0326463Y0143370D01*
X0326463Y0144969D02*
X0321695Y0144969D01*
X0322257Y0146568D02*
X0326463Y0146568D01*
X0326463Y0148166D02*
X0322257Y0148166D01*
X0321739Y0149765D02*
X0326463Y0149765D01*
X0326463Y0151363D02*
X0320592Y0151363D01*
X0320076Y0152962D02*
X0326463Y0152962D01*
X0326463Y0154560D02*
X0321525Y0154560D01*
X0322187Y0156159D02*
X0326463Y0156159D01*
X0326463Y0157757D02*
X0322257Y0157757D01*
X0321908Y0159356D02*
X0326463Y0159356D01*
X0326463Y0160954D02*
X0321001Y0160954D01*
X0319319Y0162553D02*
X0326463Y0162553D01*
X0326463Y0164151D02*
X0321180Y0164151D01*
X0321997Y0165750D02*
X0326463Y0165750D01*
X0326463Y0167348D02*
X0316911Y0167348D01*
X0321285Y0170545D02*
X0326463Y0170545D01*
X0326463Y0168947D02*
X0322044Y0168947D01*
X0319601Y0172144D02*
X0326463Y0172144D01*
X0326463Y0173742D02*
X0320857Y0173742D01*
X0321849Y0175341D02*
X0326463Y0175341D01*
X0326463Y0176939D02*
X0322257Y0176939D01*
X0322247Y0178538D02*
X0326463Y0178538D01*
X0326463Y0180136D02*
X0321585Y0180136D01*
X0320220Y0181735D02*
X0326463Y0181735D01*
X0326463Y0183333D02*
X0320448Y0183333D01*
X0321679Y0184932D02*
X0326463Y0184932D01*
X0326463Y0186530D02*
X0322257Y0186530D01*
X0322257Y0188129D02*
X0326463Y0188129D01*
X0326463Y0189727D02*
X0321754Y0189727D01*
X0320629Y0191326D02*
X0326463Y0191326D01*
X0326463Y0192924D02*
X0320039Y0192924D01*
X0321510Y0194523D02*
X0326463Y0194523D01*
X0326463Y0196121D02*
X0322172Y0196121D01*
X0322257Y0197720D02*
X0326463Y0197720D01*
X0326463Y0199318D02*
X0321924Y0199318D01*
X0321038Y0200917D02*
X0326463Y0200917D01*
X0326463Y0202515D02*
X0319245Y0202515D01*
X0321153Y0204114D02*
X0326463Y0204114D01*
X0326463Y0205712D02*
X0321985Y0205712D01*
X0322056Y0208909D02*
X0326463Y0208909D01*
X0326463Y0207311D02*
X0316911Y0207311D01*
X0321312Y0210508D02*
X0326463Y0210508D01*
X0326463Y0212106D02*
X0319664Y0212106D01*
X0320820Y0213705D02*
X0326463Y0213705D01*
X0326463Y0215303D02*
X0321833Y0215303D01*
X0322257Y0216902D02*
X0326463Y0216902D01*
X0326463Y0218501D02*
X0322257Y0218501D01*
X0321600Y0220099D02*
X0326463Y0220099D01*
X0326463Y0221698D02*
X0320557Y0221698D01*
X0320557Y0223296D02*
X0326463Y0223296D01*
X0326463Y0224895D02*
X0321664Y0224895D01*
X0322257Y0226493D02*
X0326463Y0226493D01*
X0326463Y0228092D02*
X0322257Y0228092D01*
X0321770Y0229690D02*
X0326463Y0229690D01*
X0326463Y0231289D02*
X0320666Y0231289D01*
X0320557Y0232887D02*
X0326463Y0232887D01*
X0326463Y0234486D02*
X0319863Y0234486D01*
X0318265Y0236084D02*
X0326463Y0236084D01*
X0326463Y0237683D02*
X0316666Y0237683D01*
X0316021Y0238328D02*
X0316021Y0238328D01*
X0315068Y0239281D02*
X0326463Y0239281D01*
X0326463Y0240880D02*
X0316244Y0240880D01*
X0317843Y0242478D02*
X0326463Y0242478D01*
X0326463Y0244077D02*
X0318522Y0244077D01*
X0318970Y0245675D02*
X0326463Y0245675D01*
X0326463Y0247274D02*
X0318970Y0247274D01*
X0318620Y0248872D02*
X0326425Y0248872D01*
X0326166Y0250471D02*
X0317958Y0250471D01*
X0316482Y0252069D02*
X0325647Y0252069D01*
X0324799Y0253668D02*
X0313527Y0253668D01*
X0309986Y0253668D02*
X0290919Y0253668D01*
X0292070Y0252069D02*
X0307031Y0252069D01*
X0305555Y0250471D02*
X0292575Y0250471D01*
X0292575Y0248872D02*
X0304893Y0248872D01*
X0304543Y0247274D02*
X0292575Y0247274D01*
X0292575Y0245675D02*
X0304543Y0245675D01*
X0304991Y0244077D02*
X0292575Y0244077D01*
X0292575Y0242478D02*
X0305671Y0242478D01*
X0307269Y0240880D02*
X0292562Y0240880D01*
X0282280Y0252069D02*
X0282070Y0252069D01*
X0280919Y0253668D02*
X0283431Y0253668D01*
X0273431Y0253668D02*
X0270919Y0253668D01*
X0272070Y0252069D02*
X0272280Y0252069D01*
X0263431Y0253668D02*
X0260919Y0253668D01*
X0262070Y0252069D02*
X0262280Y0252069D01*
X0253431Y0253668D02*
X0250919Y0253668D01*
X0252067Y0252069D02*
X0252280Y0252069D01*
X0247375Y0252069D02*
X0246975Y0252069D01*
X0246975Y0250471D02*
X0247375Y0250471D01*
X0247375Y0248872D02*
X0246975Y0248872D01*
X0246975Y0247274D02*
X0247375Y0247274D01*
X0247375Y0245675D02*
X0246975Y0245675D01*
X0246975Y0244077D02*
X0247375Y0244077D01*
X0247375Y0242478D02*
X0246975Y0242478D01*
X0246975Y0240880D02*
X0247375Y0240880D01*
X0247375Y0239281D02*
X0246975Y0239281D01*
X0246975Y0237683D02*
X0247375Y0237683D01*
X0246975Y0236084D02*
X0226203Y0236084D01*
X0226230Y0237683D02*
X0241775Y0237683D01*
X0241775Y0239281D02*
X0226230Y0239281D01*
X0225339Y0240880D02*
X0241883Y0240880D01*
X0241775Y0242478D02*
X0223740Y0242478D01*
X0221550Y0242478D02*
X0221550Y0242478D01*
X0221550Y0240880D02*
X0221550Y0240880D01*
X0221550Y0239281D02*
X0221550Y0239281D01*
X0221550Y0238050D02*
X0221550Y0238050D01*
X0221550Y0233370D01*
X0221550Y0238050D01*
X0221550Y0238050D01*
X0216870Y0238050D01*
X0216870Y0238530D01*
X0215145Y0238530D01*
X0215145Y0237570D01*
X0216870Y0237570D01*
X0216870Y0238050D01*
X0221550Y0238050D01*
X0221550Y0237683D02*
X0221550Y0237683D01*
X0221550Y0236084D02*
X0221550Y0236084D01*
X0221550Y0234486D02*
X0221550Y0234486D01*
X0224604Y0234486D02*
X0241775Y0234486D01*
X0241775Y0235975D02*
X0241775Y0232150D01*
X0241908Y0231310D01*
X0242171Y0230502D01*
X0242557Y0229745D01*
X0243056Y0229057D01*
X0243657Y0228456D01*
X0244345Y0227957D01*
X0245102Y0227571D01*
X0245910Y0227308D01*
X0246750Y0227175D01*
X0246975Y0227175D01*
X0246975Y0235975D01*
X0241775Y0235975D01*
X0241775Y0232887D02*
X0211462Y0232887D01*
X0213060Y0231289D02*
X0241915Y0231289D01*
X0242596Y0229690D02*
X0214659Y0229690D01*
X0216257Y0228092D02*
X0244159Y0228092D01*
X0246975Y0228092D02*
X0247375Y0228092D01*
X0247375Y0229690D02*
X0246975Y0229690D01*
X0246975Y0231289D02*
X0247375Y0231289D01*
X0247375Y0232887D02*
X0246975Y0232887D01*
X0246975Y0234486D02*
X0247375Y0234486D01*
X0251754Y0229690D02*
X0252525Y0229690D01*
X0254022Y0228092D02*
X0250191Y0228092D01*
X0254747Y0226493D02*
X0217309Y0226493D01*
X0217500Y0224895D02*
X0256028Y0224895D01*
X0257697Y0223296D02*
X0217500Y0223296D01*
X0217500Y0221698D02*
X0264226Y0221698D01*
X0265824Y0220099D02*
X0217500Y0220099D01*
X0217500Y0218501D02*
X0267423Y0218501D01*
X0269021Y0216902D02*
X0217500Y0216902D01*
X0217500Y0215303D02*
X0219925Y0215303D01*
X0218529Y0213705D02*
X0217500Y0213705D01*
X0213700Y0210550D02*
X0213700Y0206950D01*
X0215100Y0205550D01*
X0215100Y0200550D02*
X0213700Y0200550D01*
X0209050Y0200550D01*
X0207175Y0202425D01*
X0207175Y0215550D01*
X0204675Y0218050D01*
X0190300Y0218050D01*
X0185680Y0213705D02*
X0179500Y0213705D01*
X0179694Y0215303D02*
X0183548Y0215303D01*
X0182830Y0216902D02*
X0180876Y0216902D01*
X0181081Y0218501D02*
X0182740Y0218501D01*
X0183203Y0220099D02*
X0180391Y0220099D01*
X0177800Y0218050D02*
X0177175Y0218050D01*
X0174987Y0215862D01*
X0172800Y0218050D01*
X0172800Y0232425D01*
X0167175Y0238050D01*
X0160300Y0238050D01*
X0155881Y0242478D02*
X0124929Y0242478D01*
X0124959Y0242507D02*
X0126057Y0245158D01*
X0126057Y0248028D01*
X0124959Y0250679D01*
X0122929Y0252709D01*
X0120278Y0253807D01*
X0117408Y0253807D01*
X0114757Y0252709D01*
X0112728Y0250679D01*
X0111630Y0248028D01*
X0111630Y0245158D01*
X0112728Y0242507D01*
X0114757Y0240478D01*
X0117408Y0239380D01*
X0120278Y0239380D01*
X0122929Y0240478D01*
X0124959Y0242507D01*
X0125609Y0244077D02*
X0241775Y0244077D01*
X0241775Y0245675D02*
X0126057Y0245675D01*
X0126057Y0247274D02*
X0241775Y0247274D01*
X0241775Y0248872D02*
X0125707Y0248872D01*
X0125045Y0250471D02*
X0241818Y0250471D01*
X0242283Y0252069D02*
X0123569Y0252069D01*
X0120614Y0253668D02*
X0243431Y0253668D01*
X0246975Y0253668D02*
X0247375Y0253668D01*
X0257175Y0236175D02*
X0257175Y0227425D01*
X0259050Y0225550D01*
X0264050Y0225550D01*
X0275925Y0213675D01*
X0295925Y0213675D01*
X0302180Y0207420D01*
X0306757Y0207420D01*
X0304456Y0202420D02*
X0303641Y0202083D01*
X0302094Y0200536D01*
X0301650Y0199464D01*
X0301650Y0201067D01*
X0301254Y0202023D01*
X0292202Y0211075D01*
X0294848Y0211075D01*
X0300707Y0205216D01*
X0301663Y0204820D01*
X0301880Y0204820D01*
X0302094Y0204305D01*
X0303641Y0202757D01*
X0304456Y0202420D01*
X0304225Y0202515D02*
X0300762Y0202515D01*
X0301650Y0200917D02*
X0302475Y0200917D01*
X0302285Y0204114D02*
X0299163Y0204114D01*
X0300211Y0205712D02*
X0297565Y0205712D01*
X0298612Y0207311D02*
X0295966Y0207311D01*
X0297014Y0208909D02*
X0294367Y0208909D01*
X0295415Y0210508D02*
X0292769Y0210508D01*
X0289050Y0210550D02*
X0265925Y0210550D01*
X0254665Y0210550D01*
X0259024Y0213705D02*
X0262461Y0213705D01*
X0269389Y0213705D02*
X0272218Y0213705D01*
X0270620Y0215303D02*
X0223175Y0215303D01*
X0221550Y0212425D02*
X0230300Y0212425D01*
X0232175Y0210550D01*
X0235925Y0210550D01*
X0247185Y0210550D01*
X0242826Y0213705D02*
X0239389Y0213705D01*
X0235925Y0203050D02*
X0223425Y0203050D01*
X0220925Y0200550D01*
X0215100Y0200550D01*
X0215100Y0195550D02*
X0213700Y0195550D01*
X0209675Y0195550D01*
X0203425Y0201800D01*
X0203425Y0206175D01*
X0201550Y0208050D01*
X0190300Y0208050D01*
X0184984Y0212106D02*
X0182600Y0212106D01*
X0182600Y0210508D02*
X0183373Y0210508D01*
X0182740Y0208909D02*
X0182600Y0208909D01*
X0182600Y0207311D02*
X0182740Y0207311D01*
X0182600Y0205712D02*
X0183323Y0205712D01*
X0182600Y0204114D02*
X0184738Y0204114D01*
X0185971Y0202515D02*
X0182480Y0202515D01*
X0182600Y0200917D02*
X0183668Y0200917D01*
X0182880Y0199318D02*
X0182600Y0199318D01*
X0182740Y0197720D02*
X0182276Y0197720D01*
X0182600Y0196121D02*
X0183153Y0196121D01*
X0182600Y0194523D02*
X0184329Y0194523D01*
X0182071Y0192924D02*
X0203624Y0192924D01*
X0205222Y0191326D02*
X0196523Y0191326D01*
X0196271Y0194523D02*
X0202025Y0194523D01*
X0202175Y0198050D02*
X0190300Y0198050D01*
X0194629Y0202515D02*
X0200825Y0202515D01*
X0200825Y0204114D02*
X0195862Y0204114D01*
X0196932Y0200917D02*
X0200977Y0200917D01*
X0202175Y0198050D02*
X0209675Y0190550D01*
X0213700Y0190550D01*
X0215100Y0190550D01*
X0229050Y0190550D01*
X0231550Y0188050D01*
X0235925Y0188050D01*
X0247185Y0188050D01*
X0254665Y0188050D02*
X0265925Y0188050D01*
X0284050Y0188050D01*
X0287175Y0184925D01*
X0287175Y0167425D01*
X0297180Y0157420D01*
X0306757Y0157420D01*
X0311550Y0152425D02*
X0316555Y0147420D01*
X0316757Y0147420D01*
X0306757Y0137420D02*
X0302805Y0137420D01*
X0299675Y0140550D01*
X0299675Y0144925D01*
X0279050Y0165550D01*
X0279050Y0170550D01*
X0276550Y0173050D01*
X0265925Y0173050D01*
X0254665Y0173050D01*
X0247185Y0173050D02*
X0235925Y0173050D01*
X0228425Y0180550D01*
X0215100Y0180550D01*
X0213700Y0180550D01*
X0195925Y0180550D01*
X0193425Y0178050D01*
X0190300Y0178050D01*
X0184486Y0181735D02*
X0182600Y0181735D01*
X0182600Y0180136D02*
X0183219Y0180136D01*
X0182740Y0178538D02*
X0182433Y0178538D01*
X0182600Y0176939D02*
X0182815Y0176939D01*
X0182600Y0175341D02*
X0183511Y0175341D01*
X0182600Y0173742D02*
X0185591Y0173742D01*
X0185074Y0172144D02*
X0182600Y0172144D01*
X0182600Y0170545D02*
X0183388Y0170545D01*
X0182740Y0168947D02*
X0182600Y0168947D01*
X0182600Y0167348D02*
X0182740Y0167348D01*
X0182600Y0165750D02*
X0183307Y0165750D01*
X0182600Y0164151D02*
X0184700Y0164151D01*
X0186061Y0162553D02*
X0182443Y0162553D01*
X0182600Y0160954D02*
X0183706Y0160954D01*
X0182895Y0159356D02*
X0182600Y0159356D01*
X0182740Y0157757D02*
X0182238Y0157757D01*
X0182600Y0156159D02*
X0183138Y0156159D01*
X0182600Y0155550D02*
X0176900Y0155550D01*
X0176900Y0155550D01*
X0182600Y0155550D01*
X0182600Y0154560D02*
X0184291Y0154560D01*
X0181822Y0152962D02*
X0195200Y0152962D01*
X0197800Y0154300D02*
X0197800Y0150550D01*
X0195300Y0148050D01*
X0190300Y0148050D01*
X0184115Y0151363D02*
X0171650Y0151363D01*
X0171650Y0152962D02*
X0171978Y0152962D01*
X0171539Y0149765D02*
X0183065Y0149765D01*
X0182740Y0148166D02*
X0170343Y0148166D01*
X0168744Y0146568D02*
X0182968Y0146568D01*
X0183882Y0144969D02*
X0166717Y0144969D01*
X0164112Y0143370D02*
X0186488Y0143370D01*
X0184523Y0141772D02*
X0166077Y0141772D01*
X0165831Y0142017D02*
X0165141Y0142303D01*
X0164976Y0142387D01*
X0164801Y0142444D01*
X0164111Y0142730D01*
X0156489Y0142730D01*
X0155799Y0142444D01*
X0155623Y0142387D01*
X0155459Y0142303D01*
X0154769Y0142017D01*
X0153452Y0140701D01*
X0153167Y0140011D01*
X0153083Y0139846D01*
X0153026Y0139671D01*
X0152740Y0138981D01*
X0152740Y0137119D01*
X0153026Y0136429D01*
X0153083Y0136253D01*
X0153167Y0136089D01*
X0153452Y0135399D01*
X0154769Y0134082D01*
X0155459Y0133797D01*
X0155623Y0133713D01*
X0155799Y0133656D01*
X0156489Y0133370D01*
X0164111Y0133370D01*
X0164801Y0133656D01*
X0164976Y0133713D01*
X0165141Y0133797D01*
X0165831Y0134082D01*
X0166229Y0134480D01*
X0166750Y0135001D01*
X0167147Y0135399D01*
X0167433Y0136089D01*
X0167517Y0136253D01*
X0167574Y0136429D01*
X0167860Y0137119D01*
X0167860Y0137682D01*
X0167860Y0138981D01*
X0167574Y0139671D01*
X0167517Y0139846D01*
X0167433Y0140011D01*
X0167147Y0140701D01*
X0165831Y0142017D01*
X0167366Y0140173D02*
X0183234Y0140173D01*
X0182740Y0138575D02*
X0167860Y0138575D01*
X0167801Y0136976D02*
X0182799Y0136976D01*
X0183474Y0135378D02*
X0167126Y0135378D01*
X0165107Y0133779D02*
X0185501Y0133779D01*
X0185164Y0132181D02*
X0165381Y0132181D01*
X0165633Y0132053D02*
X0164976Y0132387D01*
X0164276Y0132615D01*
X0163548Y0132730D01*
X0160300Y0132730D01*
X0160300Y0128050D01*
X0160300Y0128050D01*
X0167860Y0128050D01*
X0167860Y0128418D01*
X0167745Y0129146D01*
X0167517Y0129846D01*
X0167183Y0130503D01*
X0166750Y0131099D01*
X0166229Y0131620D01*
X0165633Y0132053D01*
X0167125Y0130582D02*
X0183403Y0130582D01*
X0182741Y0128984D02*
X0167770Y0128984D01*
X0167860Y0128050D02*
X0160300Y0128050D01*
X0160300Y0128050D01*
X0160300Y0123370D01*
X0163548Y0123370D01*
X0164276Y0123485D01*
X0164976Y0123713D01*
X0165633Y0124047D01*
X0166229Y0124480D01*
X0166750Y0125001D01*
X0167183Y0125597D01*
X0167517Y0126253D01*
X0167745Y0126954D01*
X0167860Y0127682D01*
X0167860Y0128050D01*
X0167813Y0127385D02*
X0182740Y0127385D01*
X0183292Y0125787D02*
X0167279Y0125787D01*
X0165827Y0124188D02*
X0184663Y0124188D01*
X0190300Y0128050D02*
X0190300Y0138050D01*
X0198425Y0138050D01*
X0201550Y0141175D01*
X0201550Y0151175D01*
X0205925Y0155550D01*
X0205925Y0159300D01*
X0207175Y0160550D01*
X0215100Y0160550D01*
X0213700Y0159150D01*
X0213700Y0155550D01*
X0223425Y0155550D01*
X0235925Y0143050D01*
X0247185Y0143050D01*
X0242826Y0140173D02*
X0239667Y0140173D01*
X0238068Y0138575D02*
X0243602Y0138575D01*
X0250767Y0138575D02*
X0251083Y0138575D01*
X0254665Y0143050D02*
X0265925Y0143050D01*
X0274050Y0143050D01*
X0299680Y0117420D01*
X0306757Y0117420D01*
X0303400Y0112999D02*
X0201300Y0112999D01*
X0203574Y0111400D02*
X0302959Y0111400D01*
X0301797Y0109802D02*
X0205172Y0109802D01*
X0206771Y0108203D02*
X0301312Y0108203D01*
X0301317Y0106605D02*
X0208369Y0106605D01*
X0202417Y0101809D02*
X0201661Y0101809D01*
X0200818Y0103408D02*
X0196743Y0103408D01*
X0196293Y0105006D02*
X0199220Y0105006D01*
X0200925Y0099300D02*
X0191550Y0099300D01*
X0186357Y0103408D02*
X0174150Y0103408D01*
X0174150Y0105006D02*
X0186807Y0105006D01*
X0184747Y0106605D02*
X0173547Y0106605D01*
X0171949Y0108203D02*
X0184059Y0108203D01*
X0183990Y0109802D02*
X0170350Y0109802D01*
X0168752Y0111400D02*
X0184474Y0111400D01*
X0185750Y0112999D02*
X0167350Y0112999D01*
X0167175Y0109300D02*
X0161550Y0109300D01*
X0155750Y0112999D02*
X0132363Y0112999D01*
X0133200Y0111400D02*
X0154474Y0111400D01*
X0153990Y0109802D02*
X0133200Y0109802D01*
X0133200Y0108203D02*
X0154059Y0108203D01*
X0154747Y0106605D02*
X0132116Y0106605D01*
X0130518Y0105006D02*
X0156807Y0105006D01*
X0156357Y0103408D02*
X0131954Y0103408D01*
X0135218Y0101809D02*
X0154644Y0101809D01*
X0153990Y0100211D02*
X0136816Y0100211D01*
X0138415Y0098612D02*
X0153990Y0098612D01*
X0154551Y0097014D02*
X0139642Y0097014D01*
X0139775Y0095415D02*
X0155936Y0095415D01*
X0157345Y0093817D02*
X0139775Y0093817D01*
X0139775Y0092218D02*
X0144203Y0092218D01*
X0143286Y0090620D02*
X0139775Y0090620D01*
X0139775Y0089021D02*
X0143373Y0089021D01*
X0144412Y0087423D02*
X0139775Y0087423D01*
X0139775Y0085824D02*
X0155527Y0085824D01*
X0155379Y0082627D02*
X0142525Y0082627D01*
X0140926Y0084226D02*
X0165447Y0084226D01*
X0164675Y0079300D02*
X0161550Y0079300D01*
X0142175Y0079300D01*
X0137175Y0084300D01*
X0137175Y0096175D01*
X0133425Y0099925D01*
X0127800Y0099925D01*
X0127800Y0100550D01*
X0123425Y0104925D01*
X0095300Y0104925D01*
X0094050Y0106175D01*
X0086550Y0106175D01*
X0086300Y0106425D01*
X0093425Y0110550D02*
X0094050Y0109925D01*
X0117800Y0109925D01*
X0123425Y0114925D02*
X0086300Y0114925D01*
X0078425Y0110550D02*
X0074050Y0114925D01*
X0069300Y0114925D01*
X0063326Y0111400D02*
X0035181Y0111400D01*
X0035181Y0109802D02*
X0063178Y0109802D01*
X0062091Y0108203D02*
X0035181Y0108203D01*
X0035181Y0106605D02*
X0061740Y0106605D01*
X0061942Y0105006D02*
X0035181Y0105006D01*
X0035181Y0103408D02*
X0062819Y0103408D01*
X0063686Y0101809D02*
X0035181Y0101809D01*
X0035181Y0100211D02*
X0062301Y0100211D01*
X0061740Y0098612D02*
X0035181Y0098612D01*
X0035181Y0097014D02*
X0061740Y0097014D01*
X0062394Y0095415D02*
X0035181Y0095415D01*
X0035181Y0093817D02*
X0064109Y0093817D01*
X0062595Y0092218D02*
X0035181Y0092218D01*
X0035181Y0090620D02*
X0061849Y0090620D01*
X0061740Y0089021D02*
X0035181Y0089021D01*
X0035181Y0087423D02*
X0062184Y0087423D01*
X0063402Y0085824D02*
X0035181Y0085824D01*
X0035181Y0084226D02*
X0073572Y0084226D01*
X0075171Y0082627D02*
X0035181Y0082627D01*
X0035181Y0081029D02*
X0076770Y0081029D01*
X0078368Y0079430D02*
X0035181Y0079430D01*
X0035181Y0077832D02*
X0079967Y0077832D01*
X0079346Y0078452D02*
X0079346Y0078452D01*
X0081550Y0079925D02*
X0117800Y0079925D01*
X0117800Y0069300D01*
X0127175Y0059925D01*
X0160925Y0059925D01*
X0161550Y0059300D01*
X0168425Y0059300D01*
X0170925Y0061800D01*
X0179250Y0061800D01*
X0179250Y0056800D02*
X0172175Y0056800D01*
X0164675Y0049300D01*
X0161550Y0049300D01*
X0157435Y0053854D02*
X0087113Y0053854D01*
X0088551Y0052255D02*
X0155007Y0052255D01*
X0154166Y0050657D02*
X0089589Y0050657D01*
X0090348Y0049058D02*
X0153990Y0049058D01*
X0154367Y0047460D02*
X0090881Y0047460D01*
X0091189Y0045861D02*
X0155490Y0045861D01*
X0155416Y0042664D02*
X0091226Y0042664D01*
X0091170Y0042092D02*
X0091287Y0043275D01*
X0078600Y0043275D01*
X0078600Y0030588D01*
X0079783Y0030705D01*
X0081084Y0030964D01*
X0082353Y0031349D01*
X0083579Y0031856D01*
X0084749Y0032482D01*
X0085852Y0033219D01*
X0086877Y0034060D01*
X0087815Y0034998D01*
X0088656Y0036023D01*
X0089393Y0037126D01*
X0090019Y0038296D01*
X0090526Y0039521D01*
X0090911Y0040791D01*
X0091170Y0042092D01*
X0090966Y0041066D02*
X0154336Y0041066D01*
X0153990Y0039467D02*
X0090504Y0039467D01*
X0089790Y0037869D02*
X0154197Y0037869D01*
X0155081Y0036270D02*
X0088821Y0036270D01*
X0087489Y0034672D02*
X0157614Y0034672D01*
X0155825Y0033073D02*
X0085634Y0033073D01*
X0082657Y0031475D02*
X0154505Y0031475D01*
X0161550Y0029300D02*
X0168425Y0029300D01*
X0161550Y0023980D02*
X0158302Y0023980D01*
X0157574Y0023865D01*
X0156873Y0023637D01*
X0156217Y0023303D01*
X0155621Y0022870D01*
X0155100Y0022349D01*
X0154667Y0021753D01*
X0154333Y0021096D01*
X0154105Y0020396D01*
X0153990Y0019668D01*
X0153990Y0019300D01*
X0161550Y0019300D01*
X0161550Y0019300D01*
X0161550Y0019300D01*
X0161550Y0023980D01*
X0161550Y0023482D02*
X0161550Y0023482D01*
X0161550Y0021884D02*
X0161550Y0021884D01*
X0161550Y0020285D02*
X0161550Y0020285D01*
X0161550Y0019300D02*
X0153990Y0019300D01*
X0153990Y0018932D01*
X0154105Y0018204D01*
X0154333Y0017503D01*
X0154667Y0016847D01*
X0155100Y0016251D01*
X0155621Y0015730D01*
X0156217Y0015297D01*
X0156873Y0014963D01*
X0157574Y0014735D01*
X0158302Y0014620D01*
X0161550Y0014620D01*
X0161550Y0019300D01*
X0161550Y0018687D02*
X0161550Y0018687D01*
X0161550Y0017088D02*
X0161550Y0017088D01*
X0161550Y0015490D02*
X0161550Y0015490D01*
X0155953Y0015490D02*
X0125509Y0015490D01*
X0126057Y0017088D02*
X0154545Y0017088D01*
X0154029Y0018687D02*
X0126057Y0018687D01*
X0125807Y0020285D02*
X0154088Y0020285D01*
X0154762Y0021884D02*
X0125145Y0021884D01*
X0123809Y0023482D02*
X0156569Y0023482D01*
X0179250Y0038700D02*
X0179250Y0041800D01*
X0179250Y0038700D01*
X0179250Y0039467D02*
X0179250Y0039467D01*
X0179250Y0041066D02*
X0179250Y0041066D01*
X0179250Y0041800D02*
X0179250Y0041800D01*
X0191550Y0039300D02*
X0199050Y0039300D01*
X0201550Y0041800D01*
X0201550Y0048675D01*
X0204675Y0051800D01*
X0218850Y0051800D01*
X0228425Y0051800D01*
X0233425Y0046800D01*
X0235925Y0046800D01*
X0247185Y0046800D01*
X0254665Y0046800D02*
X0265925Y0046800D01*
X0300300Y0046800D01*
X0300925Y0047425D01*
X0306752Y0047425D01*
X0306757Y0047420D01*
X0300166Y0049925D02*
X0299452Y0049629D01*
X0299223Y0049400D01*
X0269943Y0049400D01*
X0268793Y0050550D01*
X0269944Y0051700D01*
X0297973Y0051700D01*
X0299452Y0050221D01*
X0300166Y0049925D01*
X0299016Y0050657D02*
X0268900Y0050657D01*
X0265925Y0054300D02*
X0299050Y0054300D01*
X0300925Y0052425D01*
X0298398Y0056900D02*
X0269944Y0056900D01*
X0268793Y0058050D01*
X0269943Y0059200D01*
X0296098Y0059200D01*
X0298398Y0056900D01*
X0298247Y0057051D02*
X0269793Y0057051D01*
X0269393Y0058649D02*
X0296649Y0058649D01*
X0297175Y0061800D02*
X0301550Y0057425D01*
X0306752Y0057425D01*
X0306757Y0057420D01*
X0304456Y0062420D02*
X0303641Y0062083D01*
X0302105Y0060547D01*
X0298648Y0064004D01*
X0297692Y0064400D01*
X0296658Y0064400D01*
X0269943Y0064400D01*
X0268793Y0065550D01*
X0269943Y0066700D01*
X0298598Y0066700D01*
X0299346Y0065952D01*
X0300077Y0065221D01*
X0301033Y0064825D01*
X0301878Y0064825D01*
X0302094Y0064305D01*
X0303641Y0062757D01*
X0304456Y0062420D01*
X0303405Y0061846D02*
X0300806Y0061846D01*
X0299207Y0063445D02*
X0302954Y0063445D01*
X0300505Y0065043D02*
X0269300Y0065043D01*
X0269885Y0066642D02*
X0298656Y0066642D01*
X0299675Y0069300D02*
X0301550Y0067425D01*
X0306752Y0067425D01*
X0306757Y0067420D01*
X0302800Y0072425D02*
X0298425Y0076800D01*
X0265925Y0076800D01*
X0254665Y0076800D01*
X0247185Y0076800D02*
X0235925Y0076800D01*
X0229050Y0076800D01*
X0224050Y0071800D01*
X0218850Y0071800D01*
X0212175Y0071800D01*
X0204675Y0079300D01*
X0191550Y0079300D01*
X0195361Y0083980D02*
X0187739Y0083980D01*
X0186019Y0083267D01*
X0185050Y0082298D01*
X0185050Y0083846D01*
X0184596Y0084300D01*
X0185050Y0084754D01*
X0185050Y0086302D01*
X0186019Y0085332D01*
X0187739Y0084620D01*
X0195361Y0084620D01*
X0197081Y0085332D01*
X0198397Y0086649D01*
X0198419Y0086700D01*
X0202348Y0086700D01*
X0204575Y0084473D01*
X0204575Y0081908D01*
X0204578Y0081900D01*
X0198419Y0081900D01*
X0198397Y0081951D01*
X0197081Y0083267D01*
X0195361Y0083980D01*
X0197721Y0082627D02*
X0204575Y0082627D01*
X0204575Y0084226D02*
X0184670Y0084226D01*
X0185050Y0085824D02*
X0185527Y0085824D01*
X0185379Y0082627D02*
X0185050Y0082627D01*
X0179250Y0081800D02*
X0174675Y0081800D01*
X0172175Y0084300D01*
X0172175Y0088675D01*
X0167800Y0093050D01*
X0167800Y0097425D01*
X0165925Y0099300D01*
X0161550Y0099300D01*
X0166743Y0103408D02*
X0168950Y0103408D01*
X0168950Y0101809D02*
X0168456Y0101809D01*
X0167792Y0105006D02*
X0166293Y0105006D01*
X0167175Y0109300D02*
X0171550Y0104925D01*
X0171550Y0096175D01*
X0175612Y0092112D01*
X0177800Y0094300D01*
X0175612Y0092112D02*
X0179250Y0088475D01*
X0179250Y0086800D01*
X0180782Y0090620D02*
X0184151Y0090620D01*
X0184970Y0092218D02*
X0180358Y0092218D01*
X0181081Y0093817D02*
X0187345Y0093817D01*
X0185936Y0095415D02*
X0180890Y0095415D01*
X0179727Y0097014D02*
X0184551Y0097014D01*
X0183990Y0098612D02*
X0174150Y0098612D01*
X0174150Y0100211D02*
X0183990Y0100211D01*
X0184644Y0101809D02*
X0174150Y0101809D01*
X0174388Y0097014D02*
X0175873Y0097014D01*
X0164050Y0089300D02*
X0161550Y0089300D01*
X0147175Y0089300D01*
X0146550Y0089925D01*
X0148897Y0092218D02*
X0154970Y0092218D01*
X0164050Y0089300D02*
X0169675Y0083675D01*
X0169675Y0079300D01*
X0172175Y0076800D01*
X0179250Y0076800D01*
X0179250Y0071800D02*
X0170300Y0071800D01*
X0167800Y0074300D01*
X0167800Y0076175D01*
X0164675Y0079300D01*
X0165200Y0074620D02*
X0157739Y0074620D01*
X0156019Y0075332D01*
X0154702Y0076649D01*
X0154681Y0076700D01*
X0141658Y0076700D01*
X0140702Y0077096D01*
X0135702Y0082096D01*
X0134971Y0082827D01*
X0134575Y0083783D01*
X0134575Y0095098D01*
X0132592Y0097081D01*
X0130437Y0094925D01*
X0133200Y0092162D01*
X0133200Y0087688D01*
X0130437Y0084925D01*
X0133200Y0082162D01*
X0133200Y0077688D01*
X0130037Y0074525D01*
X0125563Y0074525D01*
X0122800Y0077288D01*
X0120400Y0074888D01*
X0120400Y0070377D01*
X0128252Y0062525D01*
X0155276Y0062525D01*
X0156019Y0063267D01*
X0157739Y0063980D01*
X0165361Y0063980D01*
X0167081Y0063267D01*
X0167898Y0062450D01*
X0169452Y0064004D01*
X0169925Y0064200D01*
X0167283Y0064200D01*
X0166327Y0064596D01*
X0166027Y0064896D01*
X0165361Y0064620D01*
X0157739Y0064620D01*
X0156019Y0065332D01*
X0154702Y0066649D01*
X0153990Y0068369D01*
X0153990Y0070231D01*
X0154702Y0071951D01*
X0156019Y0073267D01*
X0157739Y0073980D01*
X0165200Y0073980D01*
X0165200Y0074620D01*
X0165300Y0069300D02*
X0161550Y0069300D01*
X0165300Y0069300D02*
X0167800Y0066800D01*
X0179250Y0066800D01*
X0185050Y0066302D02*
X0186019Y0065332D01*
X0187739Y0064620D01*
X0195361Y0064620D01*
X0197081Y0065332D01*
X0198397Y0066649D01*
X0198419Y0066700D01*
X0207973Y0066700D01*
X0210077Y0064596D01*
X0210550Y0064400D01*
X0200408Y0064400D01*
X0199452Y0064004D01*
X0197898Y0062450D01*
X0197081Y0063267D01*
X0195361Y0063980D01*
X0187739Y0063980D01*
X0186019Y0063267D01*
X0185050Y0062298D01*
X0185050Y0063846D01*
X0184596Y0064300D01*
X0185050Y0064754D01*
X0185050Y0066302D01*
X0185050Y0065043D02*
X0186717Y0065043D01*
X0186447Y0063445D02*
X0185050Y0063445D01*
X0191550Y0059300D02*
X0198425Y0059300D01*
X0200925Y0061800D01*
X0218850Y0061800D01*
X0235925Y0061800D01*
X0247185Y0061800D01*
X0254665Y0061800D02*
X0265925Y0061800D01*
X0297175Y0061800D01*
X0299675Y0069300D02*
X0265925Y0069300D01*
X0254665Y0069300D01*
X0247185Y0069300D02*
X0235925Y0069300D01*
X0226550Y0069300D01*
X0224050Y0066800D01*
X0218850Y0066800D01*
X0211550Y0066800D01*
X0209050Y0069300D01*
X0191550Y0069300D01*
X0195361Y0073980D02*
X0197081Y0073267D01*
X0198397Y0071951D01*
X0198419Y0071900D01*
X0208398Y0071900D01*
X0203598Y0076700D01*
X0198419Y0076700D01*
X0198397Y0076649D01*
X0197081Y0075332D01*
X0195361Y0074620D01*
X0187739Y0074620D01*
X0186019Y0075332D01*
X0185050Y0076302D01*
X0185050Y0074754D01*
X0184596Y0074300D01*
X0185050Y0073846D01*
X0185050Y0072298D01*
X0186019Y0073267D01*
X0187739Y0073980D01*
X0195361Y0073980D01*
X0195396Y0074634D02*
X0205664Y0074634D01*
X0207262Y0073036D02*
X0197312Y0073036D01*
X0197982Y0076233D02*
X0204065Y0076233D01*
X0207175Y0082425D02*
X0207175Y0085550D01*
X0203425Y0089300D01*
X0191550Y0089300D01*
X0195755Y0093817D02*
X0202731Y0093817D01*
X0201133Y0095415D02*
X0197164Y0095415D01*
X0198130Y0092218D02*
X0204330Y0092218D01*
X0205782Y0090620D02*
X0205928Y0090620D01*
X0207381Y0089021D02*
X0207527Y0089021D01*
X0210925Y0089300D02*
X0200925Y0099300D01*
X0210925Y0089300D02*
X0210925Y0083675D01*
X0212800Y0081800D01*
X0218850Y0081800D01*
X0223425Y0081800D01*
X0233425Y0091800D01*
X0235925Y0091800D01*
X0247185Y0091800D01*
X0254665Y0091800D02*
X0265925Y0091800D01*
X0302377Y0091800D01*
X0306757Y0087420D01*
X0301257Y0087423D02*
X0269421Y0087423D01*
X0269943Y0086900D02*
X0268793Y0088050D01*
X0269943Y0089200D01*
X0301300Y0089200D01*
X0301470Y0089030D01*
X0301257Y0088514D01*
X0301257Y0086543D01*
X0300394Y0086900D01*
X0269943Y0086900D01*
X0269765Y0089021D02*
X0301467Y0089021D01*
X0299877Y0084300D02*
X0306757Y0077420D01*
X0301257Y0077645D02*
X0299898Y0079004D01*
X0298942Y0079400D01*
X0297908Y0079400D01*
X0269943Y0079400D01*
X0268793Y0080550D01*
X0269943Y0081700D01*
X0298800Y0081700D01*
X0301470Y0079030D01*
X0301257Y0078514D01*
X0301257Y0077645D01*
X0301257Y0077832D02*
X0301070Y0077832D01*
X0301070Y0079430D02*
X0269913Y0079430D01*
X0269272Y0081029D02*
X0299471Y0081029D01*
X0299877Y0084300D02*
X0265925Y0084300D01*
X0254665Y0084300D01*
X0247185Y0084300D02*
X0235925Y0084300D01*
X0231550Y0084300D01*
X0224050Y0076800D01*
X0218850Y0076800D01*
X0212800Y0076800D01*
X0207175Y0082425D01*
X0203224Y0085824D02*
X0197573Y0085824D01*
X0187704Y0074634D02*
X0184930Y0074634D01*
X0185050Y0073036D02*
X0185787Y0073036D01*
X0185118Y0076233D02*
X0185050Y0076233D01*
X0196383Y0065043D02*
X0209630Y0065043D01*
X0208031Y0066642D02*
X0198390Y0066642D01*
X0198893Y0063445D02*
X0196653Y0063445D01*
X0201550Y0056800D02*
X0199050Y0054300D01*
X0199050Y0050550D01*
X0197800Y0049300D01*
X0191550Y0049300D01*
X0201550Y0056800D02*
X0218850Y0056800D01*
X0233425Y0056800D01*
X0235925Y0054300D01*
X0247185Y0054300D01*
X0254665Y0054300D02*
X0265925Y0054300D01*
X0269943Y0044200D02*
X0299648Y0044200D01*
X0297348Y0041900D01*
X0269944Y0041900D01*
X0268793Y0043050D01*
X0269943Y0044200D01*
X0269179Y0042664D02*
X0298112Y0042664D01*
X0298425Y0039300D02*
X0265925Y0039300D01*
X0254665Y0039300D01*
X0247185Y0039300D02*
X0235925Y0039300D01*
X0233425Y0039300D01*
X0225925Y0046800D01*
X0218850Y0046800D01*
X0207175Y0046800D01*
X0205300Y0044925D01*
X0205300Y0035550D01*
X0202343Y0036270D02*
X0198019Y0036270D01*
X0195486Y0034672D02*
X0200745Y0034672D01*
X0199146Y0033073D02*
X0197275Y0033073D01*
X0201296Y0037869D02*
X0202700Y0037869D01*
X0204902Y0031475D02*
X0206450Y0031475D01*
X0205324Y0029876D02*
X0203303Y0029876D01*
X0203726Y0028278D02*
X0201705Y0028278D01*
X0209481Y0026679D02*
X0299869Y0026679D01*
X0298270Y0028278D02*
X0269021Y0028278D01*
X0265925Y0031800D02*
X0298425Y0031800D01*
X0301550Y0028675D01*
X0313425Y0028675D01*
X0316757Y0032007D01*
X0316757Y0037420D01*
X0311757Y0035119D02*
X0312094Y0034305D01*
X0313641Y0032757D01*
X0313775Y0032702D01*
X0312348Y0031275D01*
X0302627Y0031275D01*
X0300629Y0033273D01*
X0299898Y0034004D01*
X0298942Y0034400D01*
X0269944Y0034400D01*
X0268793Y0035550D01*
X0269944Y0036700D01*
X0298942Y0036700D01*
X0299898Y0037096D01*
X0300629Y0037827D01*
X0301370Y0038568D01*
X0301257Y0037853D01*
X0301257Y0037575D01*
X0306602Y0037575D01*
X0306602Y0037265D01*
X0306911Y0037265D01*
X0306911Y0031920D01*
X0307190Y0031920D01*
X0308045Y0032056D01*
X0308868Y0032323D01*
X0309639Y0032716D01*
X0310340Y0033225D01*
X0310952Y0033837D01*
X0311461Y0034537D01*
X0311757Y0035119D01*
X0311942Y0034672D02*
X0311529Y0034672D01*
X0310131Y0033073D02*
X0313325Y0033073D01*
X0312548Y0031475D02*
X0302427Y0031475D01*
X0303382Y0033073D02*
X0300829Y0033073D01*
X0302562Y0033837D02*
X0303174Y0033225D01*
X0303874Y0032716D01*
X0304645Y0032323D01*
X0305469Y0032056D01*
X0306324Y0031920D01*
X0306602Y0031920D01*
X0306602Y0037265D01*
X0301257Y0037265D01*
X0301257Y0036987D01*
X0301392Y0036132D01*
X0301660Y0035309D01*
X0302053Y0034537D01*
X0302562Y0033837D01*
X0301984Y0034672D02*
X0269672Y0034672D01*
X0269514Y0036270D02*
X0301370Y0036270D01*
X0301259Y0037869D02*
X0300671Y0037869D01*
X0298425Y0039300D02*
X0301550Y0042425D01*
X0306602Y0036270D02*
X0306911Y0036270D01*
X0306911Y0034672D02*
X0306602Y0034672D01*
X0306602Y0033073D02*
X0306911Y0033073D01*
X0312175Y0042425D02*
X0316757Y0047007D01*
X0316757Y0047420D01*
X0312175Y0052425D02*
X0316757Y0057007D01*
X0316757Y0057420D01*
X0311801Y0072425D02*
X0316757Y0077381D01*
X0299648Y0071900D02*
X0269943Y0071900D01*
X0268793Y0073050D01*
X0269943Y0074200D01*
X0297348Y0074200D01*
X0299648Y0071900D01*
X0298512Y0073036D02*
X0268807Y0073036D01*
X0269943Y0094400D02*
X0268793Y0095550D01*
X0269943Y0096700D01*
X0300192Y0096700D01*
X0301148Y0097096D01*
X0301257Y0097205D01*
X0301257Y0096326D01*
X0302055Y0094400D01*
X0269943Y0094400D01*
X0268928Y0095415D02*
X0301634Y0095415D01*
X0301257Y0097014D02*
X0300949Y0097014D01*
X0299675Y0099300D02*
X0265925Y0099300D01*
X0254665Y0099300D01*
X0258615Y0103408D02*
X0263414Y0103408D01*
X0268436Y0103408D02*
X0300106Y0103408D01*
X0301814Y0105006D02*
X0231212Y0105006D01*
X0232480Y0103408D02*
X0233414Y0103408D01*
X0234050Y0099300D02*
X0229050Y0094300D01*
X0226550Y0094300D01*
X0223460Y0095415D02*
X0219559Y0095415D01*
X0220578Y0094396D02*
X0217860Y0097114D01*
X0217860Y0097423D01*
X0217876Y0097407D01*
X0218286Y0097170D01*
X0218744Y0097047D01*
X0221061Y0097047D01*
X0221061Y0101320D01*
X0222020Y0101320D01*
X0222020Y0097047D01*
X0224336Y0097047D01*
X0224794Y0097170D01*
X0225204Y0097407D01*
X0225390Y0097592D01*
X0225546Y0097436D01*
X0224691Y0097082D01*
X0223768Y0096159D01*
X0223269Y0094953D01*
X0223269Y0093647D01*
X0223768Y0092441D01*
X0224691Y0091518D01*
X0225897Y0091019D01*
X0227203Y0091019D01*
X0228409Y0091518D01*
X0228590Y0091700D01*
X0229567Y0091700D01*
X0229705Y0091757D01*
X0224650Y0086702D01*
X0224650Y0088846D01*
X0223596Y0089900D01*
X0222225Y0089900D01*
X0222225Y0091931D01*
X0221646Y0093328D01*
X0220578Y0094396D01*
X0221157Y0093817D02*
X0223269Y0093817D01*
X0223992Y0092218D02*
X0222106Y0092218D01*
X0222225Y0090620D02*
X0228568Y0090620D01*
X0226969Y0089021D02*
X0224474Y0089021D01*
X0224650Y0087423D02*
X0225371Y0087423D01*
X0224623Y0097014D02*
X0217960Y0097014D01*
X0221061Y0098612D02*
X0222020Y0098612D01*
X0222020Y0100211D02*
X0221061Y0100211D01*
X0222020Y0101320D02*
X0222020Y0102280D01*
X0223120Y0102280D01*
X0223120Y0101800D01*
X0227800Y0101800D01*
X0227800Y0101800D01*
X0223120Y0101800D01*
X0223120Y0101320D01*
X0222020Y0101320D01*
X0222020Y0101809D02*
X0223120Y0101809D01*
X0222020Y0103408D02*
X0221061Y0103408D01*
X0221061Y0105006D02*
X0222020Y0105006D01*
X0227800Y0105006D02*
X0227800Y0105006D01*
X0227800Y0103408D02*
X0227800Y0103408D01*
X0227800Y0101809D02*
X0227800Y0101809D01*
X0234050Y0099300D02*
X0235925Y0099300D01*
X0247185Y0099300D01*
X0243235Y0103408D02*
X0238436Y0103408D01*
X0197308Y0125787D02*
X0287636Y0125787D01*
X0286038Y0127385D02*
X0197860Y0127385D01*
X0197859Y0128984D02*
X0284439Y0128984D01*
X0282841Y0130582D02*
X0197197Y0130582D01*
X0195436Y0132181D02*
X0281242Y0132181D01*
X0279644Y0133779D02*
X0195099Y0133779D01*
X0197126Y0135378D02*
X0278045Y0135378D01*
X0276447Y0136976D02*
X0201028Y0136976D01*
X0202627Y0138575D02*
X0233782Y0138575D01*
X0232183Y0140173D02*
X0203949Y0140173D01*
X0204150Y0141772D02*
X0231245Y0141772D01*
X0231245Y0143370D02*
X0204150Y0143370D01*
X0204150Y0144969D02*
X0230329Y0144969D01*
X0228731Y0146568D02*
X0204150Y0146568D01*
X0204150Y0148166D02*
X0227132Y0148166D01*
X0225534Y0149765D02*
X0204150Y0149765D01*
X0205415Y0151363D02*
X0223935Y0151363D01*
X0235925Y0150550D02*
X0220925Y0165550D01*
X0215100Y0165550D01*
X0213700Y0165550D01*
X0204050Y0165550D01*
X0201550Y0163050D01*
X0201550Y0158050D01*
X0197800Y0154300D01*
X0194675Y0158050D02*
X0190300Y0158050D01*
X0194675Y0158050D02*
X0199050Y0162425D01*
X0199050Y0168050D01*
X0201550Y0170550D01*
X0213700Y0170550D01*
X0215100Y0170550D01*
X0223425Y0170550D01*
X0235925Y0158050D01*
X0247185Y0158050D01*
X0254665Y0158050D02*
X0265925Y0158050D01*
X0274050Y0158050D01*
X0290925Y0141175D01*
X0290925Y0136800D01*
X0300305Y0127420D01*
X0306757Y0127420D01*
X0302175Y0132425D02*
X0295300Y0139300D01*
X0295300Y0143675D01*
X0273425Y0165550D01*
X0265925Y0165550D01*
X0254665Y0165550D01*
X0247185Y0165550D02*
X0235925Y0165550D01*
X0225925Y0175550D01*
X0215100Y0175550D01*
X0213700Y0175550D01*
X0199050Y0175550D01*
X0196550Y0173050D01*
X0196550Y0171175D01*
X0193425Y0168050D01*
X0190300Y0168050D01*
X0195900Y0164151D02*
X0196450Y0164151D01*
X0195501Y0162553D02*
X0194539Y0162553D01*
X0207013Y0152962D02*
X0208743Y0152962D01*
X0198950Y0146568D02*
X0197631Y0146568D01*
X0196717Y0144969D02*
X0198950Y0144969D01*
X0198950Y0143370D02*
X0194112Y0143370D01*
X0196077Y0141772D02*
X0198470Y0141772D01*
X0195937Y0124188D02*
X0289235Y0124188D01*
X0290833Y0122590D02*
X0132772Y0122590D01*
X0133200Y0120991D02*
X0292432Y0120991D01*
X0294030Y0119393D02*
X0133200Y0119393D01*
X0133200Y0117794D02*
X0295629Y0117794D01*
X0297227Y0116196D02*
X0131708Y0116196D01*
X0130764Y0114597D02*
X0301973Y0114597D01*
X0300300Y0122425D02*
X0285300Y0137425D01*
X0285300Y0141175D01*
X0275925Y0150550D01*
X0265925Y0150550D01*
X0254665Y0150550D01*
X0247185Y0150550D02*
X0235925Y0150550D01*
X0259024Y0140173D02*
X0262183Y0140173D01*
X0263782Y0138575D02*
X0258248Y0138575D01*
X0268068Y0138575D02*
X0274848Y0138575D01*
X0273250Y0140173D02*
X0269667Y0140173D01*
X0282175Y0167425D02*
X0297175Y0152425D01*
X0298252Y0150025D02*
X0301883Y0150025D01*
X0301257Y0148514D01*
X0301257Y0147020D01*
X0298252Y0150025D01*
X0298512Y0149765D02*
X0301775Y0149765D01*
X0301257Y0148166D02*
X0300111Y0148166D01*
X0299050Y0162425D02*
X0291550Y0169925D01*
X0291550Y0189925D01*
X0285925Y0195550D01*
X0265925Y0195550D01*
X0254665Y0195550D01*
X0247185Y0195550D02*
X0235925Y0195550D01*
X0215100Y0195550D01*
X0206821Y0189727D02*
X0206675Y0189727D01*
X0206879Y0189523D02*
X0206879Y0189523D01*
X0204675Y0188050D02*
X0190300Y0188050D01*
X0183920Y0184932D02*
X0182600Y0184932D01*
X0182600Y0186530D02*
X0182984Y0186530D01*
X0182740Y0188129D02*
X0182024Y0188129D01*
X0182600Y0189727D02*
X0183049Y0189727D01*
X0182600Y0191326D02*
X0184077Y0191326D01*
X0176900Y0190550D02*
X0175500Y0190550D01*
X0169675Y0190550D01*
X0162800Y0197425D01*
X0160925Y0197425D01*
X0143425Y0197425D01*
X0139675Y0193675D01*
X0139675Y0155550D01*
X0134050Y0149925D01*
X0127800Y0149925D01*
X0122800Y0154925D01*
X0113425Y0154925D01*
X0107425Y0148925D01*
X0086300Y0148925D01*
X0080936Y0152962D02*
X0074566Y0152962D01*
X0075883Y0154560D02*
X0079666Y0154560D01*
X0078879Y0156159D02*
X0076689Y0156159D01*
X0076860Y0157757D02*
X0078740Y0157757D01*
X0079154Y0159356D02*
X0076449Y0159356D01*
X0075269Y0160954D02*
X0080331Y0160954D01*
X0080174Y0162553D02*
X0075426Y0162553D01*
X0076524Y0164151D02*
X0079089Y0164151D01*
X0078740Y0165750D02*
X0076860Y0165750D01*
X0076638Y0167348D02*
X0078944Y0167348D01*
X0079823Y0168947D02*
X0075769Y0168947D01*
X0074802Y0170545D02*
X0080681Y0170545D01*
X0079299Y0172144D02*
X0076270Y0172144D01*
X0076810Y0173742D02*
X0078740Y0173742D01*
X0078740Y0175341D02*
X0076773Y0175341D01*
X0076138Y0176939D02*
X0079396Y0176939D01*
X0081120Y0178538D02*
X0074417Y0178538D01*
X0075939Y0180136D02*
X0079661Y0180136D01*
X0078886Y0181735D02*
X0076714Y0181735D01*
X0076854Y0183333D02*
X0078746Y0183333D01*
X0079190Y0184932D02*
X0076410Y0184932D01*
X0075180Y0186530D02*
X0080420Y0186530D01*
X0086300Y0186530D02*
X0086300Y0186530D01*
X0086300Y0184932D02*
X0086300Y0184932D01*
X0086300Y0183333D02*
X0086300Y0183333D01*
X0092180Y0186530D02*
X0110728Y0186530D01*
X0109130Y0184932D02*
X0093410Y0184932D01*
X0093854Y0183333D02*
X0107531Y0183333D01*
X0105933Y0181735D02*
X0093714Y0181735D01*
X0092939Y0180136D02*
X0104334Y0180136D01*
X0102736Y0178538D02*
X0091480Y0178538D01*
X0086300Y0174425D02*
X0102300Y0174425D01*
X0112800Y0184925D01*
X0122800Y0184925D01*
X0127800Y0179925D01*
X0130852Y0175341D02*
X0133325Y0175341D01*
X0133325Y0176939D02*
X0132451Y0176939D01*
X0133200Y0178538D02*
X0133325Y0178538D01*
X0133325Y0180136D02*
X0133200Y0180136D01*
X0133200Y0181735D02*
X0133325Y0181735D01*
X0133325Y0183333D02*
X0132028Y0183333D01*
X0133325Y0184932D02*
X0130444Y0184932D01*
X0132042Y0186530D02*
X0133325Y0186530D01*
X0133325Y0188129D02*
X0133200Y0188129D01*
X0133325Y0189727D02*
X0128000Y0189727D01*
X0128000Y0190125D02*
X0133200Y0190125D01*
X0133200Y0192162D01*
X0130037Y0195325D01*
X0128000Y0195325D01*
X0128000Y0190125D01*
X0127600Y0190125D02*
X0127600Y0189725D01*
X0118000Y0189725D01*
X0118000Y0190125D01*
X0123200Y0190125D01*
X0127600Y0190125D01*
X0127600Y0189727D02*
X0118000Y0189727D01*
X0117600Y0189727D02*
X0035181Y0189727D01*
X0035181Y0188129D02*
X0112400Y0188129D01*
X0112400Y0191326D02*
X0035181Y0191326D01*
X0035181Y0192924D02*
X0113163Y0192924D01*
X0114761Y0194523D02*
X0035181Y0194523D01*
X0035181Y0196121D02*
X0133325Y0196121D01*
X0133325Y0194523D02*
X0130839Y0194523D01*
X0132437Y0192924D02*
X0133325Y0192924D01*
X0133325Y0191326D02*
X0133200Y0191326D01*
X0128000Y0191326D02*
X0127600Y0191326D01*
X0127600Y0192924D02*
X0128000Y0192924D01*
X0128000Y0194523D02*
X0127600Y0194523D01*
X0124761Y0194523D02*
X0120839Y0194523D01*
X0122437Y0192924D02*
X0123163Y0192924D01*
X0118000Y0192924D02*
X0117600Y0192924D01*
X0117600Y0191326D02*
X0118000Y0191326D01*
X0118000Y0194523D02*
X0117600Y0194523D01*
X0112400Y0180848D02*
X0112400Y0180125D01*
X0117600Y0180125D01*
X0117600Y0179725D01*
X0112400Y0179725D01*
X0112400Y0177688D01*
X0112664Y0177424D01*
X0111952Y0177129D01*
X0111221Y0176398D01*
X0103348Y0168525D01*
X0093169Y0168525D01*
X0093147Y0168576D01*
X0091831Y0169892D01*
X0091149Y0170175D01*
X0091831Y0170457D01*
X0093147Y0171774D01*
X0093169Y0171825D01*
X0102817Y0171825D01*
X0103773Y0172221D01*
X0112400Y0180848D01*
X0112400Y0180136D02*
X0111688Y0180136D01*
X0112400Y0178538D02*
X0110090Y0178538D01*
X0108491Y0176939D02*
X0111762Y0176939D01*
X0110164Y0175341D02*
X0106893Y0175341D01*
X0105294Y0173742D02*
X0108565Y0173742D01*
X0106967Y0172144D02*
X0103587Y0172144D01*
X0105368Y0170545D02*
X0091919Y0170545D01*
X0092777Y0168947D02*
X0103770Y0168947D01*
X0104425Y0165925D02*
X0113425Y0174925D01*
X0122800Y0174925D01*
X0127800Y0169925D01*
X0131620Y0173742D02*
X0133325Y0173742D01*
X0133325Y0172144D02*
X0133200Y0172144D01*
X0133200Y0170545D02*
X0133325Y0170545D01*
X0133325Y0168947D02*
X0133200Y0168947D01*
X0133325Y0167348D02*
X0132860Y0167348D01*
X0133325Y0165750D02*
X0131261Y0165750D01*
X0131211Y0164151D02*
X0132099Y0164151D01*
X0135925Y0164300D02*
X0135925Y0204300D01*
X0139675Y0208050D01*
X0160300Y0208050D01*
X0167800Y0200550D01*
X0167800Y0197425D01*
X0169675Y0195550D01*
X0175500Y0195550D01*
X0176900Y0195550D01*
X0175500Y0200550D02*
X0171550Y0200550D01*
X0167800Y0204300D01*
X0167800Y0214925D01*
X0164675Y0218050D01*
X0160300Y0218050D01*
X0164920Y0213705D02*
X0165200Y0213705D01*
X0167397Y0220099D02*
X0167700Y0220099D01*
X0167700Y0221698D02*
X0166151Y0221698D01*
X0167627Y0223296D02*
X0090350Y0223296D01*
X0090526Y0223721D02*
X0090911Y0224991D01*
X0091170Y0226292D01*
X0091287Y0227475D01*
X0078600Y0227475D01*
X0078600Y0229075D01*
X0077000Y0229075D01*
X0077000Y0241762D01*
X0075817Y0241645D01*
X0074516Y0241386D01*
X0073246Y0241001D01*
X0072021Y0240494D01*
X0070851Y0239868D01*
X0069748Y0239131D01*
X0068723Y0238290D01*
X0067785Y0237352D01*
X0066944Y0236327D01*
X0066207Y0235224D01*
X0065581Y0234054D01*
X0065074Y0232828D01*
X0064689Y0231559D01*
X0064430Y0230258D01*
X0064313Y0229075D01*
X0077000Y0229075D01*
X0077000Y0227475D01*
X0064313Y0227475D01*
X0064430Y0226292D01*
X0064689Y0224991D01*
X0065074Y0223721D01*
X0065581Y0222496D01*
X0066207Y0221326D01*
X0066944Y0220223D01*
X0067785Y0219198D01*
X0068723Y0218260D01*
X0069748Y0217419D01*
X0070851Y0216682D01*
X0072021Y0216056D01*
X0073246Y0215549D01*
X0074516Y0215164D01*
X0075817Y0214905D01*
X0077000Y0214788D01*
X0077000Y0227475D01*
X0078600Y0227475D01*
X0078600Y0214788D01*
X0079783Y0214905D01*
X0081084Y0215164D01*
X0082353Y0215549D01*
X0083579Y0216056D01*
X0084749Y0216682D01*
X0085852Y0217419D01*
X0086877Y0218260D01*
X0087815Y0219198D01*
X0088656Y0220223D01*
X0089393Y0221326D01*
X0090019Y0222496D01*
X0090526Y0223721D01*
X0090882Y0224895D02*
X0153957Y0224895D01*
X0152999Y0226493D02*
X0091190Y0226493D01*
X0091287Y0229075D02*
X0091170Y0230258D01*
X0090911Y0231559D01*
X0090526Y0232828D01*
X0090019Y0234054D01*
X0089393Y0235224D01*
X0088656Y0236327D01*
X0087815Y0237352D01*
X0086877Y0238290D01*
X0085852Y0239131D01*
X0084749Y0239868D01*
X0083579Y0240494D01*
X0082353Y0241001D01*
X0081084Y0241386D01*
X0079783Y0241645D01*
X0078600Y0241762D01*
X0078600Y0229075D01*
X0091287Y0229075D01*
X0091226Y0229690D02*
X0153034Y0229690D01*
X0152740Y0228092D02*
X0078600Y0228092D01*
X0078600Y0229690D02*
X0077000Y0229690D01*
X0077000Y0228092D02*
X0035181Y0228092D01*
X0035181Y0229690D02*
X0064374Y0229690D01*
X0064635Y0231289D02*
X0035181Y0231289D01*
X0035181Y0232887D02*
X0065098Y0232887D01*
X0065812Y0234486D02*
X0035181Y0234486D01*
X0035181Y0236084D02*
X0066782Y0236084D01*
X0068116Y0237683D02*
X0035181Y0237683D01*
X0035181Y0239281D02*
X0069973Y0239281D01*
X0072953Y0240880D02*
X0035181Y0240880D01*
X0035181Y0242478D02*
X0112757Y0242478D01*
X0112078Y0244077D02*
X0035181Y0244077D01*
X0035181Y0245675D02*
X0111630Y0245675D01*
X0111630Y0247274D02*
X0035181Y0247274D01*
X0035218Y0248872D02*
X0111980Y0248872D01*
X0112642Y0250471D02*
X0035477Y0250471D01*
X0035997Y0252069D02*
X0114118Y0252069D01*
X0117073Y0253668D02*
X0036845Y0253668D01*
X0038006Y0255266D02*
X0323637Y0255266D01*
X0321481Y0256865D02*
X0040162Y0256865D01*
X0077000Y0240880D02*
X0078600Y0240880D01*
X0078600Y0239281D02*
X0077000Y0239281D01*
X0077000Y0237683D02*
X0078600Y0237683D01*
X0078600Y0236084D02*
X0077000Y0236084D01*
X0077000Y0234486D02*
X0078600Y0234486D01*
X0078600Y0232887D02*
X0077000Y0232887D01*
X0077000Y0231289D02*
X0078600Y0231289D01*
X0078600Y0226493D02*
X0077000Y0226493D01*
X0077000Y0224895D02*
X0078600Y0224895D01*
X0078600Y0223296D02*
X0077000Y0223296D01*
X0077000Y0221698D02*
X0078600Y0221698D01*
X0078600Y0220099D02*
X0077000Y0220099D01*
X0077000Y0218501D02*
X0078600Y0218501D01*
X0078600Y0216902D02*
X0077000Y0216902D01*
X0077000Y0215303D02*
X0078600Y0215303D01*
X0081545Y0215303D02*
X0153548Y0215303D01*
X0152830Y0216902D02*
X0085078Y0216902D01*
X0087117Y0218501D02*
X0152740Y0218501D01*
X0153203Y0220099D02*
X0088554Y0220099D01*
X0089592Y0221698D02*
X0154449Y0221698D01*
X0160300Y0228050D02*
X0166550Y0228050D01*
X0170300Y0224300D01*
X0170300Y0206800D01*
X0171863Y0205237D01*
X0174987Y0205237D01*
X0175300Y0205550D01*
X0176900Y0205550D01*
X0175500Y0205550D01*
X0176900Y0210550D02*
X0176900Y0213950D01*
X0174987Y0215862D01*
X0175400Y0221698D02*
X0184449Y0221698D01*
X0183957Y0224895D02*
X0175400Y0224895D01*
X0175400Y0226493D02*
X0182999Y0226493D01*
X0182740Y0228092D02*
X0175400Y0228092D01*
X0175400Y0229690D02*
X0183034Y0229690D01*
X0184040Y0231289D02*
X0175400Y0231289D01*
X0175400Y0232887D02*
X0186500Y0232887D01*
X0184366Y0234486D02*
X0174416Y0234486D01*
X0172818Y0236084D02*
X0183169Y0236084D01*
X0182740Y0237683D02*
X0171219Y0237683D01*
X0169621Y0239281D02*
X0182864Y0239281D01*
X0183631Y0240880D02*
X0166969Y0240880D01*
X0164719Y0242478D02*
X0185881Y0242478D01*
X0194719Y0242478D02*
X0199360Y0242478D01*
X0203375Y0232887D02*
X0194100Y0232887D01*
X0196560Y0231289D02*
X0203375Y0231289D01*
X0203936Y0229690D02*
X0197566Y0229690D01*
X0197860Y0228092D02*
X0205509Y0228092D01*
X0207108Y0226493D02*
X0197601Y0226493D01*
X0196643Y0224895D02*
X0208706Y0224895D01*
X0209900Y0223296D02*
X0175400Y0223296D01*
X0170200Y0228092D02*
X0170185Y0228092D01*
X0170200Y0229690D02*
X0168587Y0229690D01*
X0170200Y0231289D02*
X0166560Y0231289D01*
X0168661Y0232887D02*
X0090502Y0232887D01*
X0090965Y0231289D02*
X0154040Y0231289D01*
X0154366Y0234486D02*
X0089788Y0234486D01*
X0088818Y0236084D02*
X0153169Y0236084D01*
X0152740Y0237683D02*
X0087484Y0237683D01*
X0085627Y0239281D02*
X0152864Y0239281D01*
X0153631Y0240880D02*
X0123331Y0240880D01*
X0114356Y0240880D02*
X0082647Y0240880D01*
X0064410Y0226493D02*
X0035181Y0226493D01*
X0035181Y0224895D02*
X0064718Y0224895D01*
X0065250Y0223296D02*
X0035181Y0223296D01*
X0035181Y0221698D02*
X0066008Y0221698D01*
X0067046Y0220099D02*
X0035181Y0220099D01*
X0035181Y0218501D02*
X0068483Y0218501D01*
X0070522Y0216902D02*
X0035181Y0216902D01*
X0035181Y0215303D02*
X0074055Y0215303D01*
X0069300Y0186530D02*
X0069300Y0186530D01*
X0069300Y0184932D02*
X0069300Y0184932D01*
X0069300Y0183333D02*
X0069300Y0183333D01*
X0069300Y0181735D02*
X0069300Y0181735D01*
X0069300Y0180136D02*
X0069300Y0180136D01*
X0069300Y0178538D02*
X0069300Y0178538D01*
X0069300Y0176939D02*
X0069300Y0176939D01*
X0069300Y0175341D02*
X0069300Y0175341D01*
X0069300Y0173742D02*
X0069300Y0173742D01*
X0069300Y0172144D02*
X0069300Y0172144D01*
X0069300Y0170545D02*
X0069300Y0170545D01*
X0069300Y0168947D02*
X0069300Y0168947D01*
X0069300Y0167348D02*
X0069300Y0167348D01*
X0069300Y0165750D02*
X0069300Y0165750D01*
X0069300Y0164151D02*
X0069300Y0164151D01*
X0069300Y0162553D02*
X0069300Y0162553D01*
X0069300Y0160954D02*
X0069300Y0160954D01*
X0069300Y0159356D02*
X0069300Y0159356D01*
X0069300Y0157757D02*
X0069300Y0157757D01*
X0069300Y0156159D02*
X0069300Y0156159D01*
X0069300Y0154560D02*
X0069300Y0154560D01*
X0069300Y0152962D02*
X0069300Y0152962D01*
X0069300Y0151363D02*
X0069300Y0151363D01*
X0069300Y0149765D02*
X0069300Y0149765D01*
X0069300Y0148166D02*
X0069300Y0148166D01*
X0069300Y0146568D02*
X0069300Y0146568D01*
X0069300Y0144969D02*
X0069300Y0144969D01*
X0069300Y0143370D02*
X0069300Y0143370D01*
X0069300Y0141772D02*
X0069300Y0141772D01*
X0069300Y0140173D02*
X0069300Y0140173D01*
X0069300Y0138575D02*
X0069300Y0138575D01*
X0069300Y0136976D02*
X0069300Y0136976D01*
X0069300Y0135378D02*
X0069300Y0135378D01*
X0069300Y0133779D02*
X0069300Y0133779D01*
X0069300Y0132181D02*
X0069300Y0132181D01*
X0075346Y0135378D02*
X0080254Y0135378D01*
X0080250Y0136976D02*
X0075350Y0136976D01*
X0076490Y0138575D02*
X0079121Y0138575D01*
X0078740Y0140173D02*
X0076860Y0140173D01*
X0076663Y0141772D02*
X0078912Y0141772D01*
X0079747Y0143370D02*
X0075825Y0143370D01*
X0074697Y0144969D02*
X0080757Y0144969D01*
X0079331Y0146568D02*
X0076231Y0146568D01*
X0076798Y0148166D02*
X0078740Y0148166D01*
X0078740Y0149765D02*
X0076785Y0149765D01*
X0076190Y0151363D02*
X0079364Y0151363D01*
X0086300Y0157425D02*
X0105925Y0157425D01*
X0113425Y0164925D01*
X0122800Y0164925D01*
X0127800Y0159925D01*
X0131550Y0159925D01*
X0135925Y0164300D01*
X0137075Y0161773D02*
X0137075Y0156627D01*
X0132973Y0152525D01*
X0132837Y0152525D01*
X0130437Y0154925D01*
X0133200Y0157688D01*
X0133200Y0157898D01*
X0137075Y0161773D01*
X0137075Y0160954D02*
X0136256Y0160954D01*
X0137075Y0159356D02*
X0134658Y0159356D01*
X0133200Y0157757D02*
X0137075Y0157757D01*
X0136607Y0156159D02*
X0131670Y0156159D01*
X0130802Y0154560D02*
X0135008Y0154560D01*
X0133410Y0152962D02*
X0132400Y0152962D01*
X0136254Y0148452D02*
X0140825Y0153023D01*
X0140825Y0149752D01*
X0133598Y0142525D01*
X0132837Y0142525D01*
X0130437Y0144925D01*
X0132837Y0147325D01*
X0134567Y0147325D01*
X0135523Y0147721D01*
X0136254Y0148452D01*
X0135968Y0148166D02*
X0139239Y0148166D01*
X0140825Y0149765D02*
X0137566Y0149765D01*
X0139165Y0151363D02*
X0140825Y0151363D01*
X0140825Y0152962D02*
X0140763Y0152962D01*
X0143425Y0148675D02*
X0134675Y0139925D01*
X0127800Y0139925D01*
X0122800Y0144925D01*
X0113425Y0144925D01*
X0108925Y0140425D01*
X0086300Y0140425D01*
X0091149Y0144675D02*
X0091831Y0144957D01*
X0093147Y0146274D01*
X0093169Y0146325D01*
X0107942Y0146325D01*
X0108898Y0146721D01*
X0112400Y0150223D01*
X0112400Y0150125D01*
X0117600Y0150125D01*
X0117600Y0149725D01*
X0112400Y0149725D01*
X0112400Y0147688D01*
X0112664Y0147424D01*
X0111952Y0147129D01*
X0111221Y0146398D01*
X0107848Y0143025D01*
X0093169Y0143025D01*
X0093147Y0143076D01*
X0091831Y0144392D01*
X0091149Y0144675D01*
X0091842Y0144969D02*
X0109792Y0144969D01*
X0108528Y0146568D02*
X0111391Y0146568D01*
X0112400Y0148166D02*
X0110343Y0148166D01*
X0111941Y0149765D02*
X0117600Y0149765D01*
X0109383Y0154560D02*
X0092934Y0154560D01*
X0093147Y0154774D02*
X0093169Y0154825D01*
X0106442Y0154825D01*
X0107398Y0155221D01*
X0112400Y0160223D01*
X0112400Y0160125D01*
X0117600Y0160125D01*
X0117600Y0159725D01*
X0112400Y0159725D01*
X0112400Y0157688D01*
X0112664Y0157424D01*
X0111952Y0157129D01*
X0111221Y0156398D01*
X0106348Y0151525D01*
X0093169Y0151525D01*
X0093147Y0151576D01*
X0091831Y0152892D01*
X0091149Y0153175D01*
X0091831Y0153457D01*
X0093147Y0154774D01*
X0091664Y0152962D02*
X0107785Y0152962D01*
X0108336Y0156159D02*
X0110982Y0156159D01*
X0109934Y0157757D02*
X0112400Y0157757D01*
X0112400Y0159356D02*
X0111533Y0159356D01*
X0107376Y0162553D02*
X0092426Y0162553D01*
X0091831Y0161957D02*
X0093147Y0163274D01*
X0093169Y0163325D01*
X0104942Y0163325D01*
X0105898Y0163721D01*
X0112400Y0170223D01*
X0112400Y0170125D01*
X0117600Y0170125D01*
X0117600Y0169725D01*
X0112400Y0169725D01*
X0112400Y0167688D01*
X0112664Y0167424D01*
X0111952Y0167129D01*
X0111221Y0166398D01*
X0104848Y0160025D01*
X0093169Y0160025D01*
X0093147Y0160076D01*
X0091831Y0161392D01*
X0091149Y0161675D01*
X0091831Y0161957D01*
X0092269Y0160954D02*
X0105777Y0160954D01*
X0106328Y0164151D02*
X0108974Y0164151D01*
X0107927Y0165750D02*
X0110573Y0165750D01*
X0109525Y0167348D02*
X0112481Y0167348D01*
X0112400Y0168947D02*
X0111124Y0168947D01*
X0104425Y0165925D02*
X0086300Y0165925D01*
X0063798Y0170545D02*
X0035181Y0170545D01*
X0035181Y0168947D02*
X0062831Y0168947D01*
X0061962Y0167348D02*
X0035181Y0167348D01*
X0035181Y0165750D02*
X0061740Y0165750D01*
X0062076Y0164151D02*
X0035181Y0164151D01*
X0035181Y0162553D02*
X0063174Y0162553D01*
X0063331Y0160954D02*
X0035181Y0160954D01*
X0035181Y0159356D02*
X0062151Y0159356D01*
X0061740Y0157757D02*
X0035181Y0157757D01*
X0035181Y0156159D02*
X0061911Y0156159D01*
X0062717Y0154560D02*
X0035181Y0154560D01*
X0035181Y0152962D02*
X0064034Y0152962D01*
X0062410Y0151363D02*
X0035181Y0151363D01*
X0035181Y0149765D02*
X0061815Y0149765D01*
X0061802Y0148166D02*
X0035181Y0148166D01*
X0035181Y0146568D02*
X0062369Y0146568D01*
X0063903Y0144969D02*
X0035181Y0144969D01*
X0035181Y0143370D02*
X0062775Y0143370D01*
X0061937Y0141772D02*
X0035181Y0141772D01*
X0035181Y0140173D02*
X0061740Y0140173D01*
X0062110Y0138575D02*
X0035181Y0138575D01*
X0035181Y0136976D02*
X0063250Y0136976D01*
X0063254Y0135378D02*
X0035181Y0135378D01*
X0035181Y0133779D02*
X0062112Y0133779D01*
X0061740Y0132181D02*
X0035181Y0132181D01*
X0035181Y0130582D02*
X0061935Y0130582D01*
X0062772Y0128984D02*
X0035181Y0128984D01*
X0035181Y0127385D02*
X0063762Y0127385D01*
X0062333Y0125787D02*
X0035181Y0125787D01*
X0035181Y0124188D02*
X0061740Y0124188D01*
X0061740Y0122590D02*
X0035181Y0122590D01*
X0035181Y0120991D02*
X0062362Y0120991D01*
X0063925Y0119393D02*
X0035181Y0119393D01*
X0035181Y0117794D02*
X0062671Y0117794D01*
X0061881Y0116196D02*
X0035181Y0116196D01*
X0035181Y0114597D02*
X0061740Y0114597D01*
X0062152Y0112999D02*
X0035181Y0112999D01*
X0069300Y0106425D02*
X0073800Y0106425D01*
X0077800Y0102425D01*
X0073550Y0097925D02*
X0069300Y0097925D01*
X0073550Y0097925D02*
X0077800Y0093675D01*
X0092800Y0093675D01*
X0096550Y0089925D01*
X0117800Y0089925D01*
X0122800Y0084925D02*
X0090800Y0084925D01*
X0086300Y0089425D01*
X0086300Y0097925D02*
X0094175Y0097925D01*
X0097175Y0094925D01*
X0122800Y0094925D01*
X0127800Y0089925D01*
X0131336Y0085824D02*
X0134575Y0085824D01*
X0134575Y0084226D02*
X0131136Y0084226D01*
X0132735Y0082627D02*
X0135171Y0082627D01*
X0136770Y0081029D02*
X0133200Y0081029D01*
X0133200Y0079430D02*
X0138368Y0079430D01*
X0139967Y0077832D02*
X0133200Y0077832D01*
X0131745Y0076233D02*
X0155118Y0076233D01*
X0157704Y0074634D02*
X0130146Y0074634D01*
X0125454Y0074634D02*
X0120400Y0074634D01*
X0120400Y0073036D02*
X0155787Y0073036D01*
X0154490Y0071437D02*
X0120400Y0071437D01*
X0120938Y0069839D02*
X0153990Y0069839D01*
X0154043Y0068240D02*
X0122536Y0068240D01*
X0124135Y0066642D02*
X0154710Y0066642D01*
X0156717Y0065043D02*
X0125734Y0065043D01*
X0127332Y0063445D02*
X0156447Y0063445D01*
X0154536Y0057051D02*
X0081530Y0057051D01*
X0078600Y0057051D02*
X0077000Y0057051D01*
X0077000Y0055452D02*
X0078600Y0055452D01*
X0078600Y0053854D02*
X0077000Y0053854D01*
X0077000Y0052255D02*
X0078600Y0052255D01*
X0078600Y0050657D02*
X0077000Y0050657D01*
X0077000Y0049058D02*
X0078600Y0049058D01*
X0078600Y0047460D02*
X0077000Y0047460D01*
X0077000Y0042664D02*
X0078600Y0042664D01*
X0078600Y0041066D02*
X0077000Y0041066D01*
X0077000Y0039467D02*
X0078600Y0039467D01*
X0078600Y0037869D02*
X0077000Y0037869D01*
X0077000Y0036270D02*
X0078600Y0036270D01*
X0078600Y0034672D02*
X0077000Y0034672D01*
X0077000Y0033073D02*
X0078600Y0033073D01*
X0078600Y0031475D02*
X0077000Y0031475D01*
X0064411Y0045861D02*
X0035181Y0045861D01*
X0035181Y0047460D02*
X0064719Y0047460D01*
X0065252Y0049058D02*
X0035181Y0049058D01*
X0035181Y0050657D02*
X0066011Y0050657D01*
X0067049Y0052255D02*
X0035181Y0052255D01*
X0035181Y0053854D02*
X0068487Y0053854D01*
X0070528Y0055452D02*
X0035181Y0055452D01*
X0035181Y0057051D02*
X0074070Y0057051D01*
X0085072Y0055452D02*
X0155899Y0055452D01*
X0166653Y0063445D02*
X0168893Y0063445D01*
X0134575Y0087423D02*
X0132934Y0087423D01*
X0133200Y0089021D02*
X0134575Y0089021D01*
X0134575Y0090620D02*
X0133200Y0090620D01*
X0133144Y0092218D02*
X0134575Y0092218D01*
X0134575Y0093817D02*
X0131545Y0093817D01*
X0130927Y0095415D02*
X0134258Y0095415D01*
X0132659Y0097014D02*
X0132525Y0097014D01*
X0117800Y0099925D02*
X0099050Y0099925D01*
X0096550Y0102425D01*
X0094050Y0119300D02*
X0094675Y0119925D01*
X0117800Y0119925D01*
X0123425Y0114925D02*
X0127800Y0110550D01*
X0127800Y0109925D01*
X0127800Y0119925D02*
X0122800Y0124925D01*
X0114675Y0124925D01*
X0113175Y0123425D01*
X0086300Y0123425D01*
X0080762Y0127385D02*
X0074838Y0127385D01*
X0075828Y0128984D02*
X0079743Y0128984D01*
X0078911Y0130582D02*
X0076665Y0130582D01*
X0076860Y0132181D02*
X0078740Y0132181D01*
X0079123Y0133779D02*
X0076488Y0133779D01*
X0076267Y0125787D02*
X0079333Y0125787D01*
X0078740Y0124188D02*
X0076860Y0124188D01*
X0078187Y0122590D02*
X0078740Y0122590D01*
X0077800Y0119300D02*
X0073675Y0123425D01*
X0069300Y0123425D01*
X0086300Y0131925D02*
X0109800Y0131925D01*
X0112800Y0134925D01*
X0122800Y0134925D01*
X0127800Y0129925D01*
X0134675Y0129925D01*
X0147175Y0142425D01*
X0147175Y0174925D01*
X0150300Y0178050D01*
X0160300Y0178050D01*
X0167800Y0178050D01*
X0170300Y0180550D01*
X0175500Y0180550D01*
X0176900Y0180550D01*
X0176900Y0185550D02*
X0175500Y0185550D01*
X0166550Y0185550D01*
X0164050Y0188050D01*
X0160300Y0188050D01*
X0146550Y0188050D01*
X0143425Y0184925D01*
X0143425Y0148675D01*
X0144575Y0146148D02*
X0144575Y0143502D01*
X0133598Y0132525D01*
X0132837Y0132525D01*
X0130437Y0134925D01*
X0132837Y0137325D01*
X0135192Y0137325D01*
X0136148Y0137721D01*
X0136879Y0138452D01*
X0144575Y0146148D01*
X0144575Y0144969D02*
X0143396Y0144969D01*
X0144444Y0143370D02*
X0141797Y0143370D01*
X0142845Y0141772D02*
X0140199Y0141772D01*
X0141247Y0140173D02*
X0138600Y0140173D01*
X0139648Y0138575D02*
X0137002Y0138575D01*
X0138049Y0136976D02*
X0132488Y0136976D01*
X0130890Y0135378D02*
X0136451Y0135378D01*
X0134852Y0133779D02*
X0131582Y0133779D01*
X0137411Y0128984D02*
X0152830Y0128984D01*
X0152855Y0129146D02*
X0152740Y0128418D01*
X0152740Y0128050D01*
X0160300Y0128050D01*
X0160300Y0128050D01*
X0160300Y0128050D01*
X0160300Y0132730D01*
X0157052Y0132730D01*
X0156324Y0132615D01*
X0155623Y0132387D01*
X0154967Y0132053D01*
X0154371Y0131620D01*
X0153850Y0131099D01*
X0153417Y0130503D01*
X0153083Y0129846D01*
X0152855Y0129146D01*
X0152740Y0128050D02*
X0152740Y0127682D01*
X0152855Y0126954D01*
X0153083Y0126253D01*
X0153417Y0125597D01*
X0153850Y0125001D01*
X0154371Y0124480D01*
X0154967Y0124047D01*
X0155623Y0123713D01*
X0156324Y0123485D01*
X0157052Y0123370D01*
X0160300Y0123370D01*
X0160300Y0128050D01*
X0152740Y0128050D01*
X0152787Y0127385D02*
X0135338Y0127385D01*
X0139009Y0130582D02*
X0153475Y0130582D01*
X0155219Y0132181D02*
X0140608Y0132181D01*
X0142206Y0133779D02*
X0155493Y0133779D01*
X0153474Y0135378D02*
X0143805Y0135378D01*
X0145403Y0136976D02*
X0152799Y0136976D01*
X0152740Y0138575D02*
X0147002Y0138575D01*
X0148600Y0140173D02*
X0153234Y0140173D01*
X0154287Y0141772D02*
X0154523Y0141772D01*
X0155341Y0143370D02*
X0156488Y0143370D01*
X0152175Y0144300D02*
X0152175Y0156800D01*
X0153425Y0158050D01*
X0160300Y0158050D01*
X0162800Y0158050D01*
X0164675Y0159925D01*
X0164675Y0163050D01*
X0167800Y0166175D01*
X0167800Y0168675D01*
X0169675Y0170550D01*
X0175500Y0170550D01*
X0175500Y0165550D02*
X0170300Y0165550D01*
X0169050Y0164300D01*
X0169050Y0150550D01*
X0166550Y0148050D01*
X0160300Y0148050D01*
X0150063Y0141772D02*
X0149719Y0141772D01*
X0160300Y0132181D02*
X0160300Y0132181D01*
X0160300Y0130582D02*
X0160300Y0130582D01*
X0160300Y0128984D02*
X0160300Y0128984D01*
X0160300Y0127385D02*
X0160300Y0127385D01*
X0160300Y0125787D02*
X0160300Y0125787D01*
X0160300Y0124188D02*
X0160300Y0124188D01*
X0154773Y0124188D02*
X0131173Y0124188D01*
X0131299Y0125787D02*
X0153321Y0125787D01*
X0134444Y0143370D02*
X0131991Y0143370D01*
X0130481Y0144969D02*
X0136042Y0144969D01*
X0137641Y0146568D02*
X0132079Y0146568D01*
X0117600Y0140125D02*
X0117600Y0139725D01*
X0112400Y0139725D01*
X0112400Y0137688D01*
X0112563Y0137525D01*
X0112283Y0137525D01*
X0111327Y0137129D01*
X0110596Y0136398D01*
X0108723Y0134525D01*
X0093169Y0134525D01*
X0093147Y0134576D01*
X0091831Y0135892D01*
X0091149Y0136175D01*
X0091831Y0136457D01*
X0093147Y0137774D01*
X0093169Y0137825D01*
X0109442Y0137825D01*
X0110398Y0138221D01*
X0112400Y0140223D01*
X0112400Y0140125D01*
X0117600Y0140125D01*
X0112400Y0140173D02*
X0112350Y0140173D01*
X0112400Y0138575D02*
X0110752Y0138575D01*
X0111174Y0136976D02*
X0092350Y0136976D01*
X0092346Y0135378D02*
X0109576Y0135378D01*
X0112400Y0130848D02*
X0112400Y0130125D01*
X0117600Y0130125D01*
X0117600Y0129725D01*
X0112400Y0129725D01*
X0112400Y0127688D01*
X0113081Y0127008D01*
X0112471Y0126398D01*
X0112098Y0126025D01*
X0093169Y0126025D01*
X0093147Y0126076D01*
X0091831Y0127392D01*
X0091149Y0127675D01*
X0091831Y0127957D01*
X0093147Y0129274D01*
X0093169Y0129325D01*
X0110317Y0129325D01*
X0111273Y0129721D01*
X0112400Y0130848D01*
X0112400Y0130582D02*
X0112134Y0130582D01*
X0112400Y0128984D02*
X0092857Y0128984D01*
X0091838Y0127385D02*
X0112703Y0127385D01*
X0108194Y0143370D02*
X0092853Y0143370D01*
X0062330Y0172144D02*
X0035181Y0172144D01*
X0035181Y0173742D02*
X0061790Y0173742D01*
X0061827Y0175341D02*
X0035181Y0175341D01*
X0035181Y0176939D02*
X0062462Y0176939D01*
X0064183Y0178538D02*
X0035181Y0178538D01*
X0035181Y0180136D02*
X0062661Y0180136D01*
X0061886Y0181735D02*
X0035181Y0181735D01*
X0035181Y0183333D02*
X0061746Y0183333D01*
X0062190Y0184932D02*
X0035181Y0184932D01*
X0035181Y0186530D02*
X0063420Y0186530D01*
X0035181Y0197720D02*
X0133325Y0197720D01*
X0133325Y0199318D02*
X0035181Y0199318D01*
X0035181Y0200917D02*
X0133325Y0200917D01*
X0133325Y0202515D02*
X0035181Y0202515D01*
X0035181Y0204114D02*
X0133325Y0204114D01*
X0133696Y0205712D02*
X0035181Y0205712D01*
X0035181Y0207311D02*
X0135259Y0207311D01*
X0136858Y0208909D02*
X0035181Y0208909D01*
X0035181Y0210508D02*
X0138815Y0210508D01*
X0140752Y0205450D02*
X0153431Y0205450D01*
X0153452Y0205399D01*
X0154769Y0204082D01*
X0156489Y0203370D01*
X0161303Y0203370D01*
X0161943Y0202730D01*
X0156489Y0202730D01*
X0154769Y0202017D01*
X0153452Y0200701D01*
X0153172Y0200025D01*
X0142908Y0200025D01*
X0141952Y0199629D01*
X0138525Y0196202D01*
X0138525Y0203223D01*
X0140752Y0205450D01*
X0139416Y0204114D02*
X0154738Y0204114D01*
X0155971Y0202515D02*
X0138525Y0202515D01*
X0138525Y0200917D02*
X0153668Y0200917D01*
X0154026Y0194825D02*
X0154769Y0194082D01*
X0156489Y0193370D01*
X0163178Y0193370D01*
X0163818Y0192730D01*
X0156489Y0192730D01*
X0154769Y0192017D01*
X0153452Y0190701D01*
X0153431Y0190650D01*
X0146033Y0190650D01*
X0145077Y0190254D01*
X0142275Y0187452D01*
X0142275Y0192598D01*
X0144502Y0194825D01*
X0154026Y0194825D01*
X0154329Y0194523D02*
X0144200Y0194523D01*
X0142601Y0192924D02*
X0163624Y0192924D01*
X0160925Y0197425D02*
X0160300Y0198050D01*
X0154077Y0191326D02*
X0142275Y0191326D01*
X0142275Y0189727D02*
X0144550Y0189727D01*
X0142952Y0188129D02*
X0142275Y0188129D01*
X0146025Y0183848D02*
X0147627Y0185450D01*
X0153431Y0185450D01*
X0153452Y0185399D01*
X0154769Y0184082D01*
X0156489Y0183370D01*
X0164111Y0183370D01*
X0164777Y0183646D01*
X0165077Y0183346D01*
X0166033Y0182950D01*
X0169300Y0182950D01*
X0168827Y0182754D01*
X0166961Y0180888D01*
X0165831Y0182017D01*
X0164111Y0182730D01*
X0156489Y0182730D01*
X0154769Y0182017D01*
X0153452Y0180701D01*
X0153431Y0180650D01*
X0149783Y0180650D01*
X0148827Y0180254D01*
X0146025Y0177452D01*
X0146025Y0183848D01*
X0146025Y0183333D02*
X0165108Y0183333D01*
X0166114Y0181735D02*
X0167808Y0181735D01*
X0170300Y0175550D02*
X0162800Y0168050D01*
X0160300Y0168050D01*
X0170300Y0175550D02*
X0175500Y0175550D01*
X0182229Y0183333D02*
X0205733Y0183333D01*
X0204116Y0184932D02*
X0196680Y0184932D01*
X0204675Y0188050D02*
X0207175Y0185550D01*
X0213700Y0185550D01*
X0215100Y0185550D01*
X0229050Y0185550D01*
X0234050Y0180550D01*
X0235925Y0180550D01*
X0247185Y0180550D01*
X0254665Y0180550D02*
X0265925Y0180550D01*
X0279675Y0180550D01*
X0282175Y0178050D01*
X0282175Y0167425D01*
X0295925Y0171800D02*
X0295925Y0193675D01*
X0286550Y0203050D01*
X0265925Y0203050D01*
X0254665Y0203050D01*
X0247185Y0203050D02*
X0235925Y0203050D01*
X0209900Y0213705D02*
X0209775Y0213705D01*
X0209775Y0215303D02*
X0209900Y0215303D01*
X0209900Y0216902D02*
X0209429Y0216902D01*
X0209900Y0218501D02*
X0207901Y0218501D01*
X0206303Y0220099D02*
X0209900Y0220099D01*
X0209900Y0221698D02*
X0196151Y0221698D01*
X0197052Y0215303D02*
X0203745Y0215303D01*
X0204575Y0213705D02*
X0194920Y0213705D01*
X0195616Y0212106D02*
X0204575Y0212106D01*
X0204575Y0210508D02*
X0202410Y0210508D01*
X0204367Y0208909D02*
X0204575Y0208909D01*
X0214186Y0234486D02*
X0215145Y0234486D01*
X0215145Y0236084D02*
X0214186Y0236084D01*
X0215145Y0237683D02*
X0216870Y0237683D01*
X0215145Y0239281D02*
X0214186Y0239281D01*
X0214186Y0240880D02*
X0215145Y0240880D01*
X0215145Y0242478D02*
X0214186Y0242478D01*
X0211062Y0242478D02*
X0210814Y0242478D01*
X0218269Y0242478D02*
X0219360Y0242478D01*
X0267175Y0236175D02*
X0267175Y0228050D01*
X0277805Y0217420D01*
X0306757Y0217420D01*
X0301880Y0220020D02*
X0278882Y0220020D01*
X0270569Y0228333D01*
X0271753Y0229516D01*
X0272175Y0230535D01*
X0272597Y0229516D01*
X0273375Y0228738D01*
X0273375Y0227294D01*
X0273954Y0225897D01*
X0275022Y0224829D01*
X0278772Y0221079D01*
X0280169Y0220500D01*
X0293556Y0220500D01*
X0294953Y0221079D01*
X0296021Y0222147D01*
X0297494Y0223620D01*
X0302779Y0223620D01*
X0303641Y0222757D01*
X0304456Y0222420D01*
X0303641Y0222083D01*
X0302094Y0220536D01*
X0301880Y0220020D01*
X0301913Y0220099D02*
X0278803Y0220099D01*
X0278153Y0221698D02*
X0277204Y0221698D01*
X0276555Y0223296D02*
X0275606Y0223296D01*
X0274956Y0224895D02*
X0274007Y0224895D01*
X0273707Y0226493D02*
X0272409Y0226493D01*
X0273375Y0228092D02*
X0270810Y0228092D01*
X0271825Y0229690D02*
X0272525Y0229690D01*
X0295572Y0221698D02*
X0303256Y0221698D01*
X0303103Y0223296D02*
X0297170Y0223296D01*
X0289050Y0210550D02*
X0299050Y0200550D01*
X0299050Y0179925D01*
X0301555Y0177420D01*
X0306757Y0177420D01*
X0304456Y0172420D02*
X0303641Y0172083D01*
X0302094Y0170536D01*
X0301880Y0170020D01*
X0301382Y0170020D01*
X0298525Y0172877D01*
X0298525Y0176773D01*
X0300082Y0175216D01*
X0301038Y0174820D01*
X0301880Y0174820D01*
X0302094Y0174305D01*
X0303641Y0172757D01*
X0304456Y0172420D01*
X0303788Y0172144D02*
X0299258Y0172144D01*
X0298525Y0173742D02*
X0302656Y0173742D01*
X0299957Y0175341D02*
X0298525Y0175341D01*
X0295925Y0171800D02*
X0300305Y0167420D01*
X0306757Y0167420D01*
X0302104Y0170545D02*
X0300857Y0170545D01*
X0312175Y0162425D02*
X0316757Y0157843D01*
X0316757Y0157420D01*
X0312175Y0132425D02*
X0316757Y0127843D01*
X0316757Y0127420D01*
X0312175Y0122425D02*
X0316757Y0117843D01*
X0316757Y0117420D01*
X0316757Y0107420D02*
X0316545Y0107420D01*
X0311550Y0102425D01*
X0302800Y0102425D02*
X0299675Y0099300D01*
X0265925Y0031800D02*
X0254665Y0031800D01*
X0259024Y0028278D02*
X0262829Y0028278D01*
X0304543Y0017088D02*
X0199879Y0017088D01*
X0197238Y0015490D02*
X0305091Y0015490D01*
X0305911Y0013891D02*
X0124689Y0013891D01*
X0123090Y0012293D02*
X0307510Y0012293D01*
X0316004Y0012293D02*
X0325600Y0012293D01*
X0326119Y0013891D02*
X0317602Y0013891D01*
X0318422Y0015490D02*
X0326414Y0015490D01*
X0326463Y0017088D02*
X0318970Y0017088D01*
X0318970Y0018687D02*
X0326463Y0018687D01*
X0326463Y0020285D02*
X0318720Y0020285D01*
X0318058Y0021884D02*
X0326463Y0021884D01*
X0326463Y0023482D02*
X0316723Y0023482D01*
X0321284Y0007497D02*
X0040360Y0007497D01*
X0040539Y0007367D02*
X0040539Y0007367D01*
X0035181Y0058649D02*
X0124774Y0058649D01*
X0123175Y0060248D02*
X0035181Y0060248D01*
X0035181Y0061846D02*
X0121577Y0061846D01*
X0119978Y0063445D02*
X0035181Y0063445D01*
X0035181Y0065043D02*
X0118380Y0065043D01*
X0116781Y0066642D02*
X0035181Y0066642D01*
X0035181Y0068240D02*
X0115425Y0068240D01*
X0115200Y0069839D02*
X0035181Y0069839D01*
X0035181Y0071437D02*
X0115200Y0071437D01*
X0115200Y0073036D02*
X0035181Y0073036D01*
X0035181Y0074634D02*
X0115200Y0074634D01*
X0113855Y0076233D02*
X0035181Y0076233D01*
X0069300Y0089425D02*
X0072050Y0089425D01*
X0081550Y0079925D01*
X0121745Y0076233D02*
X0123855Y0076233D01*
X0127800Y0079925D02*
X0122800Y0084925D01*
X0176900Y0152650D02*
X0176900Y0155550D01*
X0176900Y0152650D01*
X0176900Y0152962D02*
X0176900Y0152962D01*
X0176900Y0154560D02*
X0176900Y0154560D01*
X0176900Y0155550D02*
X0176900Y0155550D01*
X0148709Y0180136D02*
X0146025Y0180136D01*
X0146025Y0178538D02*
X0147111Y0178538D01*
X0146025Y0181735D02*
X0154486Y0181735D01*
X0153920Y0184932D02*
X0147109Y0184932D01*
X0140043Y0197720D02*
X0138525Y0197720D01*
X0138525Y0199318D02*
X0141641Y0199318D01*
X0154984Y0212106D02*
X0035181Y0212106D01*
X0035181Y0213705D02*
X0155680Y0213705D01*
X0166234Y0234486D02*
X0167062Y0234486D01*
X0169379Y0239523D02*
X0169379Y0239523D01*
X0268793Y0206800D02*
X0269944Y0205650D01*
X0287067Y0205650D01*
X0288023Y0205254D01*
X0288754Y0204523D01*
X0296450Y0196827D01*
X0296450Y0199473D01*
X0287973Y0207950D01*
X0269944Y0207950D01*
X0268793Y0206800D01*
X0269304Y0207311D02*
X0288612Y0207311D01*
X0290211Y0205712D02*
X0269881Y0205712D01*
X0289163Y0204114D02*
X0291809Y0204114D01*
X0290762Y0202515D02*
X0293408Y0202515D01*
X0292360Y0200917D02*
X0295006Y0200917D01*
X0293959Y0199318D02*
X0296450Y0199318D01*
X0296450Y0197720D02*
X0295557Y0197720D01*
D20*
X0292175Y0202425D03*
X0296550Y0208050D03*
X0299050Y0221800D03*
X0300300Y0173050D03*
X0300300Y0149300D03*
X0292800Y0095550D03*
X0292800Y0088050D03*
X0292800Y0080550D03*
X0292800Y0073050D03*
X0292800Y0065550D03*
X0292800Y0058050D03*
X0293425Y0049925D03*
X0293425Y0043050D03*
X0226550Y0094300D03*
X0228425Y0117425D03*
X0213425Y0127425D03*
X0181550Y0119300D03*
X0172175Y0119300D03*
X0146550Y0114925D03*
X0134675Y0134925D03*
X0134675Y0144925D03*
X0134050Y0154925D03*
X0152175Y0144300D03*
X0150300Y0183675D03*
X0150300Y0192425D03*
X0150300Y0203050D03*
X0177800Y0218050D03*
X0221550Y0212425D03*
X0177800Y0094300D03*
X0200300Y0083675D03*
X0200300Y0074300D03*
X0200300Y0065550D03*
X0146550Y0064925D03*
X0146550Y0073675D03*
X0146550Y0084925D03*
X0146550Y0089925D03*
X0146550Y0054925D03*
X0146550Y0044300D03*
X0146550Y0034300D03*
D21*
X0096550Y0102425D02*
X0077800Y0102425D01*
X0078425Y0110550D02*
X0093425Y0110550D01*
X0094050Y0119300D02*
X0077800Y0119300D01*
X0297175Y0152425D02*
X0311550Y0152425D01*
X0312175Y0162425D02*
X0299050Y0162425D01*
X0302175Y0132425D02*
X0312175Y0132425D01*
X0312175Y0122425D02*
X0300300Y0122425D01*
X0302800Y0102425D02*
X0311550Y0102425D01*
X0311801Y0072425D02*
X0302800Y0072425D01*
X0300925Y0052425D02*
X0312175Y0052425D01*
X0312175Y0042425D02*
X0301550Y0042425D01*
D22*
X0218850Y0086800D02*
X0218425Y0087225D01*
X0218425Y0091175D01*
X0214060Y0095540D01*
X0214060Y0101800D01*
X0207800Y0101800D01*
X0200300Y0109300D01*
X0191550Y0109300D01*
X0160300Y0128050D02*
X0160300Y0138050D01*
X0176900Y0155550D02*
X0175500Y0156950D01*
X0175500Y0160550D01*
X0213700Y0210550D02*
X0213700Y0225275D01*
X0207175Y0231800D01*
X0207175Y0238040D01*
X0207185Y0238050D01*
X0201550Y0238050D01*
X0190300Y0238050D01*
X0190300Y0228050D01*
X0257175Y0236175D02*
X0257175Y0246175D01*
X0267175Y0246175D02*
X0267175Y0236175D01*
X0277175Y0236175D02*
X0277175Y0228050D01*
X0280925Y0224300D01*
X0292800Y0224300D01*
X0295920Y0227420D01*
X0306757Y0227420D01*
X0316757Y0227420D02*
X0316757Y0217420D01*
X0316757Y0227420D02*
X0316757Y0232218D01*
X0312800Y0236175D01*
X0287175Y0236175D01*
X0287175Y0246175D01*
X0277175Y0246175D02*
X0277175Y0236175D01*
M02*
