G75*
%MOIN*%
%OFA0B0*%
%FSLAX25Y25*%
%IPPOS*%
%LPD*%
%AMOC8*
5,1,8,0,0,1.08239X$1,22.5*
%
%ADD10R,0.08000X0.02600*%
%ADD11R,0.07800X0.02200*%
%ADD12R,0.05118X0.05906*%
D10*
X0179250Y0041800D03*
X0179250Y0046800D03*
X0179250Y0051800D03*
X0179250Y0056800D03*
X0179250Y0061800D03*
X0179250Y0066800D03*
X0179250Y0071800D03*
X0179250Y0076800D03*
X0179250Y0081800D03*
X0179250Y0086800D03*
X0218850Y0086800D03*
X0218850Y0081800D03*
X0218850Y0076800D03*
X0218850Y0071800D03*
X0218850Y0066800D03*
X0218850Y0061800D03*
X0218850Y0056800D03*
X0218850Y0051800D03*
X0218850Y0046800D03*
X0218850Y0041800D03*
X0215100Y0160550D03*
X0215100Y0165550D03*
X0215100Y0170550D03*
X0215100Y0175550D03*
X0215100Y0180550D03*
X0215100Y0185550D03*
X0215100Y0190550D03*
X0215100Y0195550D03*
X0215100Y0200550D03*
X0215100Y0205550D03*
X0175500Y0205550D03*
X0175500Y0200550D03*
X0175500Y0195550D03*
X0175500Y0190550D03*
X0175500Y0185550D03*
X0175500Y0180550D03*
X0175500Y0175550D03*
X0175500Y0170550D03*
X0175500Y0165550D03*
X0175500Y0160550D03*
D11*
X0176900Y0160550D03*
X0176900Y0155550D03*
X0176900Y0165550D03*
X0176900Y0170550D03*
X0176900Y0175550D03*
X0176900Y0180550D03*
X0176900Y0185550D03*
X0176900Y0190550D03*
X0176900Y0195550D03*
X0176900Y0200550D03*
X0176900Y0205550D03*
X0176900Y0210550D03*
X0213700Y0210550D03*
X0213700Y0205550D03*
X0213700Y0200550D03*
X0213700Y0195550D03*
X0213700Y0190550D03*
X0213700Y0185550D03*
X0213700Y0180550D03*
X0213700Y0175550D03*
X0213700Y0170550D03*
X0213700Y0165550D03*
X0213700Y0160550D03*
X0213700Y0155550D03*
D12*
X0247185Y0158050D03*
X0254665Y0158050D03*
X0254665Y0150550D03*
X0247185Y0150550D03*
X0247185Y0143050D03*
X0254665Y0143050D03*
X0254665Y0165550D03*
X0247185Y0165550D03*
X0247185Y0173050D03*
X0254665Y0173050D03*
X0254665Y0180550D03*
X0247185Y0180550D03*
X0247185Y0188050D03*
X0254665Y0188050D03*
X0254665Y0195550D03*
X0247185Y0195550D03*
X0247185Y0203050D03*
X0254665Y0203050D03*
X0254665Y0210550D03*
X0247185Y0210550D03*
X0214665Y0238050D03*
X0207185Y0238050D03*
X0214060Y0101800D03*
X0221540Y0101800D03*
X0247185Y0099300D03*
X0254665Y0099300D03*
X0254665Y0091800D03*
X0247185Y0091800D03*
X0247185Y0084300D03*
X0254665Y0084300D03*
X0254665Y0076800D03*
X0247185Y0076800D03*
X0247185Y0069300D03*
X0254665Y0069300D03*
X0254665Y0061800D03*
X0247185Y0061800D03*
X0247185Y0054300D03*
X0254665Y0054300D03*
X0254665Y0046800D03*
X0247185Y0046800D03*
X0247185Y0039300D03*
X0254665Y0039300D03*
X0254665Y0031800D03*
X0247185Y0031800D03*
M02*
