%
M48
M72
T01C0.0236
T02C0.0320
T03C0.0382
T04C0.0400
T05C0.1083
T06C0.1300
%
T01
X14655Y3430
X14655Y4430
X14655Y5493
X14655Y6493
X14655Y7368
X14655Y8493
X14655Y8993
X17780Y9430
X20030Y8368
X20030Y7430
X20030Y6555
X22655Y9430
X22843Y11743
X21343Y12743
X18155Y11930
X17218Y11930
X14655Y11493
X13468Y13493
X13468Y14493
X13405Y15493
X15218Y14430
X15030Y18368
X15030Y19243
X15030Y20305
X17780Y21805
X22155Y21243
X29218Y20243
X29655Y20805
X29905Y22180
X30030Y17305
X30030Y14930
X29280Y9555
X29280Y8805
X29280Y8055
X29280Y7305
X29280Y6555
X29280Y5805
X29343Y4993
X29343Y4305
T02
X26593Y3930
X26593Y3180
X26593Y4680
X26593Y5430
X26593Y6180
X26593Y6930
X26593Y7680
X26593Y8430
X26593Y9180
X26593Y9930
X23593Y9930
X23593Y9180
X23593Y8430
X23593Y7680
X23593Y6930
X23593Y6180
X23593Y5430
X23593Y4680
X23593Y3930
X23593Y3180
X19155Y2930
X19155Y1930
X19155Y3930
X19155Y4930
X19155Y5930
X19155Y6930
X19155Y7930
X19155Y8930
X19155Y9930
X19155Y10930
X20780Y10180
X22780Y10180
X19030Y12805
X19030Y13805
X19030Y13805
X19030Y13805
X19030Y14805
X19030Y14805
X19030Y14805
X19030Y15805
X19030Y15805
X19030Y15805
X19030Y16805
X19030Y16805
X19030Y16805
X19030Y17805
X19030Y17805
X19030Y17805
X19030Y18805
X19030Y18805
X19030Y18805
X19030Y19805
X19030Y19805
X19030Y19805
X19030Y20805
X19030Y20805
X19030Y20805
X19030Y21805
X19030Y21805
X19030Y21805
X19030Y22805
X19030Y22805
X19030Y22805
X19030Y23805
X19030Y23805
X20155Y23805
X22155Y23805
X23593Y21055
X23593Y20305
X23593Y19555
X23593Y18805
X23593Y18055
X23593Y17305
X23593Y16555
X23593Y15805
X23593Y15055
X23593Y14305
X26593Y14305
X26593Y15055
X26593Y15805
X26593Y16555
X26593Y17305
X26593Y18055
X26593Y18805
X26593Y19555
X26593Y20305
X26593Y21055
X16030Y20805
X16030Y20805
X16030Y20805
X16030Y21805
X16030Y21805
X16030Y21805
X16030Y22805
X16030Y22805
X16030Y22805
X16030Y23805
X16030Y23805
X16030Y19805
X16030Y19805
X16030Y19805
X16030Y18805
X16030Y18805
X16030Y18805
X16030Y17805
X16030Y17805
X16030Y17805
X16030Y16805
X16030Y16805
X16030Y16805
X16030Y15805
X16030Y15805
X16030Y15805
X16030Y14805
X16030Y14805
X16030Y14805
X16030Y13805
X16030Y13805
X16030Y13805
X16030Y12805
X16155Y10930
X16155Y9930
X16155Y8930
X16155Y7930
X16155Y6930
X16155Y5930
X16155Y4930
X16155Y3930
X16155Y2930
X16155Y1930
X8630Y8943
X8630Y9793
X8630Y10643
X8630Y11493
X8630Y12343
X8630Y13193
X8630Y14043
X8630Y14893
X8630Y15743
X8630Y16593
X8630Y17443
X8630Y18293
X6930Y18293
X6930Y17443
X6930Y16593
X6930Y15743
X6930Y14893
X6930Y14043
X6930Y13193
X6930Y12343
X6930Y11493
X6930Y10643
X6930Y9793
X6930Y8943
T03
X30676Y8742
X31676Y8742
X31676Y7738
X30676Y7742
X30676Y6742
X31676Y6742
X31676Y5742
X30676Y5742
X30676Y4742
X31676Y4742
X31676Y3742
X30676Y3742
X30676Y9742
X31676Y9742
X31676Y10742
X31676Y11742
X30676Y11742
X30676Y10742
X30676Y12742
X31676Y12742
X31676Y13742
X31676Y14742
X30676Y14742
X30676Y13742
X30676Y15742
X31676Y15742
X31676Y16742
X31676Y17742
X30676Y17742
X30676Y16742
X30676Y18742
X31676Y18742
X31676Y19742
X31676Y20742
X30676Y20742
X30676Y19742
X30676Y21742
X31676Y21742
X31676Y22742
X30676Y22742
T04
X28718Y23618
X27718Y23618
X26718Y23618
X25718Y23618
X24718Y23618
X24718Y24618
X25718Y24618
X26718Y24618
X27718Y24618
X28718Y24618
X12780Y18993
X11780Y18993
X11780Y17993
X12780Y17993
X12780Y16993
X11780Y16993
X11780Y15993
X12780Y15993
X12780Y14993
X11780Y14993
X11780Y13993
X12780Y13993
X12780Y12993
X11780Y12993
X11780Y11993
X12780Y11993
X12780Y10993
X11780Y10993
X11780Y9993
X12780Y9993
X12780Y8993
X11780Y8993
X11780Y7993
X12780Y7993
T05
X11884Y1825
X31176Y1825
X31176Y24659
X11884Y24659
T06
X7780Y4408
X7780Y22828
M30
