G75*
%MOIN*%
%OFA0B0*%
%FSLAX25Y25*%
%IPPOS*%
%LPD*%
%AMOC8*
5,1,8,0,0,1.08239X$1,22.5*
%
%ADD10C,0.05760*%
%ADD11C,0.23400*%
%ADD12OC8,0.05760*%
%ADD13OC8,0.07200*%
%ADD14C,0.07200*%
%ADD15C,0.07400*%
%ADD16C,0.01600*%
%ADD17C,0.02962*%
%ADD18C,0.04000*%
D10*
X0066420Y0089425D02*
X0072180Y0089425D01*
X0072180Y0097925D02*
X0066420Y0097925D01*
X0066420Y0106425D02*
X0072180Y0106425D01*
X0072180Y0114925D02*
X0066420Y0114925D01*
X0066420Y0123425D02*
X0072180Y0123425D01*
X0072180Y0131925D02*
X0066420Y0131925D01*
X0066420Y0140425D02*
X0072180Y0140425D01*
X0072180Y0148925D02*
X0066420Y0148925D01*
X0066420Y0157425D02*
X0072180Y0157425D01*
X0072180Y0165925D02*
X0066420Y0165925D01*
X0066420Y0174425D02*
X0072180Y0174425D01*
X0072180Y0182925D02*
X0066420Y0182925D01*
X0083420Y0182925D02*
X0089180Y0182925D01*
X0089180Y0174425D02*
X0083420Y0174425D01*
X0083420Y0165925D02*
X0089180Y0165925D01*
X0089180Y0157425D02*
X0083420Y0157425D01*
X0083420Y0148925D02*
X0089180Y0148925D01*
X0089180Y0140425D02*
X0083420Y0140425D01*
X0083420Y0131925D02*
X0089180Y0131925D01*
X0089180Y0123425D02*
X0083420Y0123425D01*
X0083420Y0114925D02*
X0089180Y0114925D01*
X0089180Y0106425D02*
X0083420Y0106425D01*
X0083420Y0097925D02*
X0089180Y0097925D01*
X0089180Y0089425D02*
X0083420Y0089425D01*
X0158670Y0089300D02*
X0164430Y0089300D01*
X0164430Y0079300D02*
X0158670Y0079300D01*
X0158670Y0069300D02*
X0164430Y0069300D01*
X0164430Y0059300D02*
X0158670Y0059300D01*
X0158670Y0049300D02*
X0164430Y0049300D01*
X0164430Y0039300D02*
X0158670Y0039300D01*
X0158670Y0029300D02*
X0164430Y0029300D01*
X0164430Y0019300D02*
X0158670Y0019300D01*
X0188670Y0019300D02*
X0194430Y0019300D01*
X0194430Y0029300D02*
X0188670Y0029300D01*
X0188670Y0039300D02*
X0194430Y0039300D01*
X0194430Y0049300D02*
X0188670Y0049300D01*
X0188670Y0059300D02*
X0194430Y0059300D01*
X0194430Y0069300D02*
X0188670Y0069300D01*
X0188670Y0079300D02*
X0194430Y0079300D01*
X0194430Y0089300D02*
X0188670Y0089300D01*
X0188670Y0099300D02*
X0194430Y0099300D01*
X0194430Y0109300D02*
X0188670Y0109300D01*
X0187420Y0128050D02*
X0193180Y0128050D01*
X0193180Y0138050D02*
X0187420Y0138050D01*
X0193180Y0138050D01*
X0187420Y0138050D01*
X0187420Y0148050D02*
X0193180Y0148050D01*
X0187420Y0148050D01*
X0193180Y0148050D01*
X0193180Y0158050D02*
X0187420Y0158050D01*
X0193180Y0158050D01*
X0187420Y0158050D01*
X0187420Y0168050D02*
X0193180Y0168050D01*
X0187420Y0168050D01*
X0193180Y0168050D01*
X0193180Y0178050D02*
X0187420Y0178050D01*
X0193180Y0178050D01*
X0187420Y0178050D01*
X0187420Y0188050D02*
X0193180Y0188050D01*
X0187420Y0188050D01*
X0193180Y0188050D01*
X0193180Y0198050D02*
X0187420Y0198050D01*
X0193180Y0198050D01*
X0187420Y0198050D01*
X0187420Y0208050D02*
X0193180Y0208050D01*
X0187420Y0208050D01*
X0193180Y0208050D01*
X0193180Y0218050D02*
X0187420Y0218050D01*
X0193180Y0218050D01*
X0187420Y0218050D01*
X0187420Y0228050D02*
X0193180Y0228050D01*
X0187420Y0228050D01*
X0193180Y0228050D01*
X0193180Y0238050D02*
X0187420Y0238050D01*
X0193180Y0238050D01*
X0163180Y0238050D02*
X0157420Y0238050D01*
X0163180Y0238050D01*
X0163180Y0228050D02*
X0157420Y0228050D01*
X0163180Y0228050D01*
X0157420Y0228050D01*
X0157420Y0218050D02*
X0163180Y0218050D01*
X0157420Y0218050D01*
X0163180Y0218050D01*
X0163180Y0208050D02*
X0157420Y0208050D01*
X0163180Y0208050D01*
X0157420Y0208050D01*
X0157420Y0198050D02*
X0163180Y0198050D01*
X0157420Y0198050D01*
X0163180Y0198050D01*
X0163180Y0188050D02*
X0157420Y0188050D01*
X0163180Y0188050D01*
X0157420Y0188050D01*
X0157420Y0178050D02*
X0163180Y0178050D01*
X0157420Y0178050D01*
X0163180Y0178050D01*
X0163180Y0168050D02*
X0157420Y0168050D01*
X0163180Y0168050D01*
X0157420Y0168050D01*
X0157420Y0158050D02*
X0163180Y0158050D01*
X0157420Y0158050D01*
X0163180Y0158050D01*
X0163180Y0148050D02*
X0157420Y0148050D01*
X0163180Y0148050D01*
X0157420Y0148050D01*
X0157420Y0138050D02*
X0163180Y0138050D01*
X0157420Y0138050D01*
X0163180Y0138050D01*
X0163180Y0128050D02*
X0157420Y0128050D01*
X0158670Y0109300D02*
X0164430Y0109300D01*
X0164430Y0099300D02*
X0158670Y0099300D01*
D11*
X0077800Y0044075D03*
X0077800Y0228275D03*
D12*
X0201550Y0238050D03*
X0221550Y0238050D03*
X0235925Y0210550D03*
X0235925Y0203050D03*
X0235925Y0195550D03*
X0235925Y0188050D03*
X0235925Y0180550D03*
X0235925Y0173050D03*
X0235925Y0165550D03*
X0235925Y0158050D03*
X0235925Y0150550D03*
X0235925Y0143050D03*
X0265925Y0143050D03*
X0265925Y0150550D03*
X0265925Y0158050D03*
X0265925Y0165550D03*
X0265925Y0173050D03*
X0265925Y0180550D03*
X0265925Y0188050D03*
X0265925Y0195550D03*
X0265925Y0203050D03*
X0265925Y0210550D03*
X0227800Y0101800D03*
X0235925Y0099300D03*
X0235925Y0091800D03*
X0235925Y0084300D03*
X0235925Y0076800D03*
X0235925Y0069300D03*
X0235925Y0061800D03*
X0235925Y0054300D03*
X0235925Y0046800D03*
X0235925Y0039300D03*
X0235925Y0031800D03*
X0265925Y0031800D03*
X0265925Y0039300D03*
X0265925Y0046800D03*
X0265925Y0054300D03*
X0265925Y0061800D03*
X0265925Y0069300D03*
X0265925Y0076800D03*
X0265925Y0084300D03*
X0265925Y0091800D03*
X0265925Y0099300D03*
X0207800Y0101800D03*
D13*
X0127800Y0099925D03*
X0117800Y0099925D03*
X0117800Y0089925D03*
X0127800Y0089925D03*
X0127800Y0079925D03*
X0117800Y0079925D03*
X0117800Y0109925D03*
X0127800Y0109925D03*
X0127800Y0119925D03*
X0117800Y0119925D03*
X0117800Y0129925D03*
X0127800Y0129925D03*
X0127800Y0139925D03*
X0117800Y0139925D03*
X0117800Y0149925D03*
X0127800Y0149925D03*
X0127800Y0159925D03*
X0117800Y0159925D03*
X0117800Y0169925D03*
X0127800Y0169925D03*
X0127800Y0179925D03*
X0117800Y0179925D03*
X0117800Y0189925D03*
X0127800Y0189925D03*
D14*
X0247175Y0232575D02*
X0247175Y0239775D01*
X0247175Y0242575D02*
X0247175Y0249775D01*
X0257175Y0249775D02*
X0257175Y0242575D01*
X0257175Y0239775D02*
X0257175Y0232575D01*
X0267175Y0232575D02*
X0267175Y0239775D01*
X0267175Y0242575D02*
X0267175Y0249775D01*
X0277175Y0249775D02*
X0277175Y0242575D01*
X0277175Y0239775D02*
X0277175Y0232575D01*
X0287175Y0232575D02*
X0287175Y0239775D01*
X0287175Y0242575D02*
X0287175Y0249775D01*
D15*
X0306757Y0227420D03*
X0316757Y0227420D03*
X0316757Y0217420D03*
X0306757Y0217420D03*
X0306757Y0207420D03*
X0316757Y0207420D03*
X0316757Y0197420D03*
X0306757Y0197420D03*
X0306757Y0187420D03*
X0316757Y0187420D03*
X0316757Y0177420D03*
X0316757Y0167420D03*
X0306757Y0167420D03*
X0306757Y0177420D03*
X0306757Y0157420D03*
X0316757Y0157420D03*
X0316757Y0147420D03*
X0316757Y0137420D03*
X0306757Y0137420D03*
X0306757Y0147420D03*
X0306757Y0127420D03*
X0316757Y0127420D03*
X0316757Y0117420D03*
X0316757Y0107420D03*
X0306757Y0107420D03*
X0306757Y0117420D03*
X0306757Y0097420D03*
X0316757Y0097420D03*
X0316757Y0087420D03*
X0306757Y0087420D03*
X0306757Y0077420D03*
X0316757Y0077381D03*
X0316757Y0067420D03*
X0316757Y0057420D03*
X0306757Y0057420D03*
X0306757Y0067420D03*
X0306757Y0047420D03*
X0316757Y0047420D03*
X0316757Y0037420D03*
X0306757Y0037420D03*
D16*
X0038055Y0009171D02*
X0036250Y0011655D01*
X0035302Y0014576D01*
X0035181Y0016111D01*
X0035181Y0248394D01*
X0035302Y0249930D01*
X0036250Y0252850D01*
X0038055Y0255334D01*
X0040539Y0257139D01*
X0043460Y0258088D01*
X0044995Y0258209D01*
X0316648Y0258209D01*
X0318184Y0258088D01*
X0321104Y0257139D01*
X0323588Y0255334D01*
X0325393Y0252850D01*
X0326342Y0249930D01*
X0326463Y0248394D01*
X0326463Y0016111D01*
X0326342Y0014576D01*
X0325393Y0011655D01*
X0323588Y0009171D01*
X0321104Y0007367D01*
X0318184Y0006418D01*
X0316648Y0006297D01*
X0315821Y0006297D01*
X0044995Y0006297D01*
X0043460Y0006418D01*
X0040539Y0007367D01*
X0038055Y0009171D01*
X0038160Y0009096D02*
X0323484Y0009096D01*
X0324694Y0010694D02*
X0036949Y0010694D01*
X0036043Y0012293D02*
X0114596Y0012293D01*
X0114757Y0012132D02*
X0117408Y0011033D01*
X0120278Y0011033D01*
X0122929Y0012132D01*
X0124959Y0014161D01*
X0126057Y0016812D01*
X0126057Y0019682D01*
X0124959Y0022333D01*
X0122929Y0024362D01*
X0120278Y0025460D01*
X0117408Y0025460D01*
X0114757Y0024362D01*
X0112728Y0022333D01*
X0111630Y0019682D01*
X0111630Y0016812D01*
X0112728Y0014161D01*
X0114757Y0012132D01*
X0112998Y0013891D02*
X0035524Y0013891D01*
X0035230Y0015490D02*
X0112178Y0015490D01*
X0111630Y0017088D02*
X0035181Y0017088D01*
X0035181Y0018687D02*
X0111630Y0018687D01*
X0111880Y0020285D02*
X0035181Y0020285D01*
X0035181Y0021884D02*
X0112542Y0021884D01*
X0113877Y0023482D02*
X0035181Y0023482D01*
X0035181Y0025081D02*
X0116492Y0025081D01*
X0121195Y0025081D02*
X0156627Y0025081D01*
X0156019Y0025332D02*
X0157739Y0024620D01*
X0165361Y0024620D01*
X0167081Y0025332D01*
X0168397Y0026649D01*
X0169110Y0028369D01*
X0169110Y0030231D01*
X0168397Y0031951D01*
X0167081Y0033267D01*
X0165361Y0033980D01*
X0157739Y0033980D01*
X0156019Y0033267D01*
X0154702Y0031951D01*
X0154681Y0031900D01*
X0139502Y0031900D01*
X0104775Y0066627D01*
X0104775Y0067050D01*
X0104971Y0066577D01*
X0133721Y0037827D01*
X0134452Y0037096D01*
X0135408Y0036700D01*
X0154681Y0036700D01*
X0154702Y0036649D01*
X0156019Y0035332D01*
X0157739Y0034620D01*
X0165361Y0034620D01*
X0167081Y0035332D01*
X0168397Y0036649D01*
X0169110Y0038369D01*
X0169110Y0040231D01*
X0168397Y0041951D01*
X0167081Y0043267D01*
X0165361Y0043980D01*
X0157739Y0043980D01*
X0156019Y0043267D01*
X0154702Y0041951D01*
X0154681Y0041900D01*
X0137002Y0041900D01*
X0132202Y0046700D01*
X0154681Y0046700D01*
X0154702Y0046649D01*
X0156019Y0045332D01*
X0157739Y0044620D01*
X0165361Y0044620D01*
X0167081Y0045332D01*
X0168397Y0046649D01*
X0169110Y0048369D01*
X0169110Y0050231D01*
X0168397Y0051951D01*
X0167081Y0053267D01*
X0165361Y0053980D01*
X0157739Y0053980D01*
X0156019Y0053267D01*
X0154702Y0051951D01*
X0154681Y0051900D01*
X0133252Y0051900D01*
X0113525Y0071627D01*
X0113525Y0076563D01*
X0115563Y0074525D01*
X0120037Y0074525D01*
X0120200Y0074688D01*
X0120200Y0071908D01*
X0120596Y0070952D01*
X0121327Y0070221D01*
X0124452Y0067096D01*
X0125408Y0066700D01*
X0154681Y0066700D01*
X0154702Y0066649D01*
X0156019Y0065332D01*
X0157739Y0064620D01*
X0165361Y0064620D01*
X0167081Y0065332D01*
X0168397Y0066649D01*
X0169110Y0068369D01*
X0169110Y0070231D01*
X0168397Y0071951D01*
X0167081Y0073267D01*
X0165361Y0073980D01*
X0157739Y0073980D01*
X0156019Y0073267D01*
X0154702Y0071951D01*
X0154681Y0071900D01*
X0127002Y0071900D01*
X0125400Y0073502D01*
X0125400Y0074688D01*
X0125563Y0074525D01*
X0130037Y0074525D01*
X0132837Y0077325D01*
X0149567Y0077325D01*
X0150523Y0077721D01*
X0154667Y0081865D01*
X0153990Y0080231D01*
X0153990Y0078369D01*
X0154702Y0076649D01*
X0156019Y0075332D01*
X0157739Y0074620D01*
X0165361Y0074620D01*
X0167081Y0075332D01*
X0168397Y0076649D01*
X0169110Y0078369D01*
X0169110Y0080231D01*
X0168397Y0081951D01*
X0167081Y0083267D01*
X0165361Y0083980D01*
X0157739Y0083980D01*
X0156019Y0083267D01*
X0155665Y0082913D01*
X0156025Y0083783D01*
X0156025Y0085330D01*
X0157739Y0084620D01*
X0165361Y0084620D01*
X0167081Y0085332D01*
X0168397Y0086649D01*
X0169110Y0088369D01*
X0169110Y0090231D01*
X0168397Y0091951D01*
X0167081Y0093267D01*
X0165361Y0093980D01*
X0157739Y0093980D01*
X0156025Y0093270D01*
X0156025Y0095330D01*
X0157739Y0094620D01*
X0165361Y0094620D01*
X0167081Y0095332D01*
X0168397Y0096649D01*
X0169110Y0098369D01*
X0169110Y0100231D01*
X0168397Y0101951D01*
X0167081Y0103267D01*
X0165361Y0103980D01*
X0157739Y0103980D01*
X0156019Y0103267D01*
X0154702Y0101951D01*
X0154531Y0101537D01*
X0154452Y0101504D01*
X0153721Y0100773D01*
X0151221Y0098273D01*
X0150825Y0097317D01*
X0150825Y0085377D01*
X0147973Y0082525D01*
X0132837Y0082525D01*
X0130437Y0084925D01*
X0132837Y0087325D01*
X0144510Y0087325D01*
X0144691Y0087143D01*
X0145897Y0086644D01*
X0147203Y0086644D01*
X0148409Y0087143D01*
X0149332Y0088066D01*
X0149831Y0089272D01*
X0149831Y0090578D01*
X0149332Y0091784D01*
X0148409Y0092707D01*
X0147203Y0093206D01*
X0145897Y0093206D01*
X0144691Y0092707D01*
X0144510Y0092525D01*
X0132837Y0092525D01*
X0130437Y0094925D01*
X0133200Y0097688D01*
X0133200Y0102162D01*
X0130437Y0104925D01*
X0133200Y0107688D01*
X0133200Y0112162D01*
X0130437Y0114925D01*
X0132837Y0117325D01*
X0163942Y0117325D01*
X0164898Y0117721D01*
X0165629Y0118452D01*
X0171879Y0124702D01*
X0172275Y0125658D01*
X0172275Y0166067D01*
X0171879Y0167023D01*
X0171148Y0167754D01*
X0168648Y0170254D01*
X0167692Y0170650D01*
X0167169Y0170650D01*
X0167147Y0170701D01*
X0165831Y0172017D01*
X0164111Y0172730D01*
X0156489Y0172730D01*
X0154769Y0172017D01*
X0153452Y0170701D01*
X0152740Y0168981D01*
X0152740Y0167119D01*
X0153452Y0165399D01*
X0154769Y0164082D01*
X0156489Y0163370D01*
X0164111Y0163370D01*
X0165831Y0164082D01*
X0166648Y0164900D01*
X0167075Y0164473D01*
X0167075Y0160773D01*
X0165831Y0162017D01*
X0164111Y0162730D01*
X0156489Y0162730D01*
X0154769Y0162017D01*
X0153452Y0160701D01*
X0152740Y0158981D01*
X0152740Y0157119D01*
X0153452Y0155399D01*
X0154769Y0154082D01*
X0156489Y0153370D01*
X0164111Y0153370D01*
X0165831Y0154082D01*
X0167075Y0155327D01*
X0167075Y0150773D01*
X0165831Y0152017D01*
X0164111Y0152730D01*
X0156489Y0152730D01*
X0154769Y0152017D01*
X0153452Y0150701D01*
X0153431Y0150650D01*
X0153252Y0150650D01*
X0151025Y0152877D01*
X0151025Y0168567D01*
X0150629Y0169523D01*
X0145629Y0174523D01*
X0144898Y0175254D01*
X0143942Y0175650D01*
X0140752Y0175650D01*
X0135004Y0181398D01*
X0134273Y0182129D01*
X0133317Y0182525D01*
X0132837Y0182525D01*
X0130437Y0184925D01*
X0133200Y0187688D01*
X0133200Y0189725D01*
X0128000Y0189725D01*
X0128000Y0190125D01*
X0127600Y0190125D01*
X0127600Y0195325D01*
X0125563Y0195325D01*
X0122800Y0192562D01*
X0120037Y0195325D01*
X0118000Y0195325D01*
X0118000Y0190125D01*
X0117600Y0190125D01*
X0117600Y0195325D01*
X0115563Y0195325D01*
X0112400Y0192162D01*
X0112400Y0190125D01*
X0117600Y0190125D01*
X0117600Y0189725D01*
X0112400Y0189725D01*
X0112400Y0187688D01*
X0115163Y0184925D01*
X0112400Y0182162D01*
X0112400Y0180125D01*
X0117600Y0180125D01*
X0117600Y0189725D01*
X0118000Y0189725D01*
X0118000Y0190125D01*
X0123200Y0190125D01*
X0127600Y0190125D01*
X0127600Y0189725D01*
X0118000Y0189725D01*
X0118000Y0184525D01*
X0118000Y0180125D01*
X0117600Y0180125D01*
X0117600Y0179725D01*
X0112400Y0179725D01*
X0112400Y0177688D01*
X0115163Y0174925D01*
X0112400Y0172162D01*
X0112400Y0170125D01*
X0117600Y0170125D01*
X0117600Y0179725D01*
X0118000Y0179725D01*
X0118000Y0174525D01*
X0118000Y0170125D01*
X0117600Y0170125D01*
X0117600Y0169725D01*
X0112400Y0169725D01*
X0112400Y0167688D01*
X0115163Y0164925D01*
X0112400Y0162162D01*
X0112400Y0160125D01*
X0117600Y0160125D01*
X0117600Y0169725D01*
X0118000Y0169725D01*
X0118000Y0164525D01*
X0118000Y0160125D01*
X0117600Y0160125D01*
X0117600Y0159725D01*
X0112400Y0159725D01*
X0112400Y0157688D01*
X0115163Y0154925D01*
X0112400Y0152162D01*
X0112400Y0150125D01*
X0117600Y0150125D01*
X0117600Y0159725D01*
X0118000Y0159725D01*
X0118000Y0155325D01*
X0118000Y0150125D01*
X0117600Y0150125D01*
X0117600Y0149725D01*
X0112400Y0149725D01*
X0112400Y0147688D01*
X0115163Y0144925D01*
X0112400Y0142162D01*
X0112400Y0140125D01*
X0117600Y0140125D01*
X0117600Y0149725D01*
X0118000Y0149725D01*
X0118000Y0145325D01*
X0118000Y0140125D01*
X0117600Y0140125D01*
X0117600Y0139725D01*
X0112400Y0139725D01*
X0112400Y0137688D01*
X0115163Y0134925D01*
X0112400Y0132162D01*
X0112400Y0130125D01*
X0117600Y0130125D01*
X0117600Y0139725D01*
X0118000Y0139725D01*
X0118000Y0134525D01*
X0118000Y0130125D01*
X0117600Y0130125D01*
X0117600Y0129725D01*
X0112400Y0129725D01*
X0112400Y0127688D01*
X0115163Y0124925D01*
X0113945Y0123707D01*
X0111650Y0126002D01*
X0111650Y0211973D01*
X0115127Y0215450D01*
X0153431Y0215450D01*
X0153452Y0215399D01*
X0154769Y0214082D01*
X0156489Y0213370D01*
X0164111Y0213370D01*
X0165831Y0214082D01*
X0167147Y0215399D01*
X0167860Y0217119D01*
X0167860Y0218981D01*
X0167147Y0220701D01*
X0165831Y0222017D01*
X0164111Y0222730D01*
X0156489Y0222730D01*
X0154769Y0222017D01*
X0153452Y0220701D01*
X0153431Y0220650D01*
X0113533Y0220650D01*
X0112577Y0220254D01*
X0111846Y0219523D01*
X0106846Y0214523D01*
X0106450Y0213567D01*
X0106450Y0124408D01*
X0106846Y0123452D01*
X0107577Y0122721D01*
X0112400Y0117898D01*
X0112400Y0117688D01*
X0115163Y0114925D01*
X0112763Y0112525D01*
X0111033Y0112525D01*
X0110077Y0112129D01*
X0100702Y0102754D01*
X0099971Y0102023D01*
X0099575Y0101067D01*
X0099575Y0065033D01*
X0099971Y0064077D01*
X0136952Y0027096D01*
X0137908Y0026700D01*
X0154681Y0026700D01*
X0154702Y0026649D01*
X0156019Y0025332D01*
X0154690Y0026679D02*
X0035181Y0026679D01*
X0035181Y0028278D02*
X0135770Y0028278D01*
X0134172Y0029876D02*
X0035181Y0029876D01*
X0035181Y0031475D02*
X0072943Y0031475D01*
X0073246Y0031349D02*
X0074516Y0030964D01*
X0075817Y0030705D01*
X0077000Y0030588D01*
X0077000Y0043275D01*
X0064313Y0043275D01*
X0064430Y0042092D01*
X0064689Y0040791D01*
X0065074Y0039521D01*
X0065581Y0038296D01*
X0066207Y0037126D01*
X0066944Y0036023D01*
X0067785Y0034998D01*
X0068723Y0034060D01*
X0069748Y0033219D01*
X0070851Y0032482D01*
X0072021Y0031856D01*
X0073246Y0031349D01*
X0069966Y0033073D02*
X0035181Y0033073D01*
X0035181Y0034672D02*
X0068111Y0034672D01*
X0066779Y0036270D02*
X0035181Y0036270D01*
X0035181Y0037869D02*
X0065810Y0037869D01*
X0065096Y0039467D02*
X0035181Y0039467D01*
X0035181Y0041066D02*
X0064634Y0041066D01*
X0064374Y0042664D02*
X0035181Y0042664D01*
X0035181Y0044263D02*
X0077000Y0044263D01*
X0077000Y0044875D02*
X0077000Y0043275D01*
X0078600Y0043275D01*
X0078600Y0044875D01*
X0077000Y0044875D01*
X0077000Y0057562D01*
X0075817Y0057445D01*
X0074516Y0057186D01*
X0073246Y0056801D01*
X0072021Y0056294D01*
X0070851Y0055668D01*
X0069748Y0054931D01*
X0068723Y0054090D01*
X0067785Y0053152D01*
X0066944Y0052127D01*
X0066207Y0051024D01*
X0065581Y0049854D01*
X0065074Y0048628D01*
X0064689Y0047359D01*
X0064430Y0046058D01*
X0064313Y0044875D01*
X0077000Y0044875D01*
X0077000Y0045861D02*
X0078600Y0045861D01*
X0078600Y0044875D02*
X0078600Y0057562D01*
X0079783Y0057445D01*
X0081084Y0057186D01*
X0082353Y0056801D01*
X0083579Y0056294D01*
X0084749Y0055668D01*
X0085852Y0054931D01*
X0086877Y0054090D01*
X0087815Y0053152D01*
X0088656Y0052127D01*
X0089393Y0051024D01*
X0090019Y0049854D01*
X0090526Y0048628D01*
X0090911Y0047359D01*
X0091170Y0046058D01*
X0091287Y0044875D01*
X0078600Y0044875D01*
X0078600Y0044263D02*
X0119785Y0044263D01*
X0118187Y0045861D02*
X0091189Y0045861D01*
X0090881Y0047460D02*
X0116588Y0047460D01*
X0114990Y0049058D02*
X0090348Y0049058D01*
X0089589Y0050657D02*
X0113391Y0050657D01*
X0111793Y0052255D02*
X0088551Y0052255D01*
X0087113Y0053854D02*
X0110194Y0053854D01*
X0108596Y0055452D02*
X0085072Y0055452D01*
X0081530Y0057051D02*
X0106997Y0057051D01*
X0105399Y0058649D02*
X0035181Y0058649D01*
X0035181Y0057051D02*
X0074070Y0057051D01*
X0077000Y0057051D02*
X0078600Y0057051D01*
X0078600Y0055452D02*
X0077000Y0055452D01*
X0077000Y0053854D02*
X0078600Y0053854D01*
X0078600Y0052255D02*
X0077000Y0052255D01*
X0077000Y0050657D02*
X0078600Y0050657D01*
X0078600Y0049058D02*
X0077000Y0049058D01*
X0077000Y0047460D02*
X0078600Y0047460D01*
X0078600Y0043275D02*
X0091287Y0043275D01*
X0091170Y0042092D01*
X0090911Y0040791D01*
X0090526Y0039521D01*
X0090019Y0038296D01*
X0089393Y0037126D01*
X0088656Y0036023D01*
X0087815Y0034998D01*
X0086877Y0034060D01*
X0085852Y0033219D01*
X0084749Y0032482D01*
X0083579Y0031856D01*
X0082353Y0031349D01*
X0081084Y0030964D01*
X0079783Y0030705D01*
X0078600Y0030588D01*
X0078600Y0043275D01*
X0078600Y0042664D02*
X0077000Y0042664D01*
X0077000Y0041066D02*
X0078600Y0041066D01*
X0078600Y0039467D02*
X0077000Y0039467D01*
X0077000Y0037869D02*
X0078600Y0037869D01*
X0078600Y0036270D02*
X0077000Y0036270D01*
X0077000Y0034672D02*
X0078600Y0034672D01*
X0078600Y0033073D02*
X0077000Y0033073D01*
X0077000Y0031475D02*
X0078600Y0031475D01*
X0082657Y0031475D02*
X0132573Y0031475D01*
X0130975Y0033073D02*
X0085634Y0033073D01*
X0087489Y0034672D02*
X0129376Y0034672D01*
X0127778Y0036270D02*
X0088821Y0036270D01*
X0089790Y0037869D02*
X0126179Y0037869D01*
X0124581Y0039467D02*
X0090504Y0039467D01*
X0090966Y0041066D02*
X0122982Y0041066D01*
X0121384Y0042664D02*
X0091226Y0042664D01*
X0070528Y0055452D02*
X0035181Y0055452D01*
X0035181Y0053854D02*
X0068487Y0053854D01*
X0067049Y0052255D02*
X0035181Y0052255D01*
X0035181Y0050657D02*
X0066011Y0050657D01*
X0065252Y0049058D02*
X0035181Y0049058D01*
X0035181Y0047460D02*
X0064719Y0047460D01*
X0064411Y0045861D02*
X0035181Y0045861D01*
X0035181Y0060248D02*
X0103800Y0060248D01*
X0102202Y0061846D02*
X0035181Y0061846D01*
X0035181Y0063445D02*
X0100603Y0063445D01*
X0099575Y0065043D02*
X0035181Y0065043D01*
X0035181Y0066642D02*
X0099575Y0066642D01*
X0099575Y0068240D02*
X0035181Y0068240D01*
X0035181Y0069839D02*
X0099575Y0069839D01*
X0099575Y0071437D02*
X0035181Y0071437D01*
X0035181Y0073036D02*
X0099575Y0073036D01*
X0099575Y0074634D02*
X0035181Y0074634D01*
X0035181Y0076233D02*
X0099575Y0076233D01*
X0099575Y0077832D02*
X0035181Y0077832D01*
X0035181Y0079430D02*
X0099575Y0079430D01*
X0099575Y0081029D02*
X0035181Y0081029D01*
X0035181Y0082627D02*
X0099575Y0082627D01*
X0099575Y0084226D02*
X0035181Y0084226D01*
X0035181Y0085824D02*
X0063402Y0085824D01*
X0063769Y0085457D02*
X0065489Y0084745D01*
X0073111Y0084745D01*
X0074831Y0085457D01*
X0076147Y0086774D01*
X0076860Y0088494D01*
X0076860Y0090356D01*
X0076147Y0092076D01*
X0074831Y0093392D01*
X0074149Y0093675D01*
X0074831Y0093957D01*
X0076147Y0095274D01*
X0076860Y0096994D01*
X0076860Y0098856D01*
X0076147Y0100576D01*
X0074831Y0101892D01*
X0074149Y0102175D01*
X0074831Y0102457D01*
X0076147Y0103774D01*
X0076860Y0105494D01*
X0076860Y0107356D01*
X0076147Y0109076D01*
X0074831Y0110392D01*
X0074149Y0110675D01*
X0074831Y0110957D01*
X0076147Y0112274D01*
X0076860Y0113994D01*
X0076860Y0115856D01*
X0076147Y0117576D01*
X0074831Y0118892D01*
X0074149Y0119175D01*
X0074831Y0119457D01*
X0076147Y0120774D01*
X0076860Y0122494D01*
X0076860Y0124356D01*
X0076147Y0126076D01*
X0074831Y0127392D01*
X0074148Y0127675D01*
X0074633Y0127922D01*
X0075229Y0128355D01*
X0075750Y0128876D01*
X0076183Y0129472D01*
X0076517Y0130128D01*
X0076745Y0130829D01*
X0076860Y0131557D01*
X0076860Y0131925D01*
X0076860Y0132293D01*
X0076745Y0133021D01*
X0076517Y0133721D01*
X0076183Y0134378D01*
X0075750Y0134974D01*
X0075229Y0135495D01*
X0074633Y0135928D01*
X0074147Y0136175D01*
X0074633Y0136422D01*
X0075229Y0136855D01*
X0075750Y0137376D01*
X0076183Y0137972D01*
X0076517Y0138628D01*
X0076745Y0139329D01*
X0076860Y0140057D01*
X0076860Y0140425D01*
X0076860Y0140793D01*
X0076745Y0141521D01*
X0076517Y0142221D01*
X0076183Y0142878D01*
X0075750Y0143474D01*
X0075229Y0143995D01*
X0074633Y0144428D01*
X0074147Y0144675D01*
X0074633Y0144922D01*
X0075229Y0145355D01*
X0075750Y0145876D01*
X0076183Y0146472D01*
X0076517Y0147128D01*
X0076745Y0147829D01*
X0076860Y0148557D01*
X0076860Y0148925D01*
X0076860Y0149293D01*
X0076745Y0150021D01*
X0076517Y0150721D01*
X0076183Y0151378D01*
X0075750Y0151974D01*
X0075229Y0152495D01*
X0074633Y0152928D01*
X0074147Y0153175D01*
X0074633Y0153422D01*
X0075229Y0153855D01*
X0075750Y0154376D01*
X0076183Y0154972D01*
X0076517Y0155628D01*
X0076745Y0156329D01*
X0076860Y0157057D01*
X0076860Y0157425D01*
X0076860Y0157793D01*
X0076745Y0158521D01*
X0076517Y0159221D01*
X0076183Y0159878D01*
X0075750Y0160474D01*
X0075229Y0160995D01*
X0074633Y0161428D01*
X0074147Y0161675D01*
X0074633Y0161922D01*
X0075229Y0162355D01*
X0075750Y0162876D01*
X0076183Y0163472D01*
X0076517Y0164128D01*
X0076745Y0164829D01*
X0076860Y0165557D01*
X0076860Y0165925D01*
X0076860Y0166293D01*
X0076745Y0167021D01*
X0076517Y0167721D01*
X0076183Y0168378D01*
X0075750Y0168974D01*
X0075229Y0169495D01*
X0074633Y0169928D01*
X0074147Y0170175D01*
X0074633Y0170422D01*
X0075229Y0170855D01*
X0075750Y0171376D01*
X0076183Y0171972D01*
X0076517Y0172628D01*
X0076745Y0173329D01*
X0076860Y0174057D01*
X0076860Y0174425D01*
X0076860Y0174793D01*
X0076745Y0175521D01*
X0076517Y0176221D01*
X0076183Y0176878D01*
X0075750Y0177474D01*
X0075229Y0177995D01*
X0074633Y0178428D01*
X0074147Y0178675D01*
X0074633Y0178922D01*
X0075229Y0179355D01*
X0075750Y0179876D01*
X0076183Y0180472D01*
X0076517Y0181128D01*
X0076745Y0181829D01*
X0076860Y0182557D01*
X0076860Y0182925D01*
X0076860Y0183293D01*
X0076745Y0184021D01*
X0076517Y0184721D01*
X0076183Y0185378D01*
X0075750Y0185974D01*
X0075229Y0186495D01*
X0074633Y0186928D01*
X0073976Y0187262D01*
X0073276Y0187490D01*
X0072548Y0187605D01*
X0069300Y0187605D01*
X0069300Y0182925D01*
X0069300Y0182925D01*
X0076860Y0182925D01*
X0069300Y0182925D01*
X0069300Y0182925D01*
X0069300Y0187605D01*
X0066052Y0187605D01*
X0065324Y0187490D01*
X0064623Y0187262D01*
X0063967Y0186928D01*
X0063371Y0186495D01*
X0062850Y0185974D01*
X0062417Y0185378D01*
X0062083Y0184721D01*
X0061855Y0184021D01*
X0061740Y0183293D01*
X0061740Y0182925D01*
X0069300Y0182925D01*
X0069300Y0182925D01*
X0069300Y0178245D01*
X0069300Y0174425D01*
X0076860Y0174425D01*
X0069300Y0174425D01*
X0069300Y0174425D01*
X0069300Y0174425D01*
X0069300Y0174425D01*
X0061740Y0174425D01*
X0061740Y0174793D01*
X0061855Y0175521D01*
X0062083Y0176221D01*
X0062417Y0176878D01*
X0062850Y0177474D01*
X0063371Y0177995D01*
X0063967Y0178428D01*
X0064453Y0178675D01*
X0063967Y0178922D01*
X0063371Y0179355D01*
X0062850Y0179876D01*
X0062417Y0180472D01*
X0062083Y0181128D01*
X0061855Y0181829D01*
X0061740Y0182557D01*
X0061740Y0182925D01*
X0069300Y0182925D01*
X0069300Y0182925D01*
X0069300Y0174425D01*
X0069300Y0169745D01*
X0069300Y0165925D01*
X0076860Y0165925D01*
X0069300Y0165925D01*
X0069300Y0165925D01*
X0069300Y0165925D01*
X0069300Y0165925D01*
X0061740Y0165925D01*
X0061740Y0166293D01*
X0061855Y0167021D01*
X0062083Y0167721D01*
X0062417Y0168378D01*
X0062850Y0168974D01*
X0063371Y0169495D01*
X0063967Y0169928D01*
X0064453Y0170175D01*
X0063967Y0170422D01*
X0063371Y0170855D01*
X0062850Y0171376D01*
X0062417Y0171972D01*
X0062083Y0172628D01*
X0061855Y0173329D01*
X0061740Y0174057D01*
X0061740Y0174425D01*
X0069300Y0174425D01*
X0069300Y0174425D01*
X0069300Y0165925D01*
X0069300Y0162105D01*
X0069300Y0157425D01*
X0076860Y0157425D01*
X0069300Y0157425D01*
X0069300Y0157425D01*
X0069300Y0157425D01*
X0069300Y0157425D01*
X0061740Y0157425D01*
X0061740Y0157793D01*
X0061855Y0158521D01*
X0062083Y0159221D01*
X0062417Y0159878D01*
X0062850Y0160474D01*
X0063371Y0160995D01*
X0063967Y0161428D01*
X0064453Y0161675D01*
X0063967Y0161922D01*
X0063371Y0162355D01*
X0062850Y0162876D01*
X0062417Y0163472D01*
X0062083Y0164128D01*
X0061855Y0164829D01*
X0061740Y0165557D01*
X0061740Y0165925D01*
X0069300Y0165925D01*
X0069300Y0165925D01*
X0069300Y0157425D01*
X0069300Y0152745D01*
X0069300Y0148925D01*
X0076860Y0148925D01*
X0069300Y0148925D01*
X0069300Y0148925D01*
X0069300Y0148925D01*
X0069300Y0148925D01*
X0061740Y0148925D01*
X0061740Y0149293D01*
X0061855Y0150021D01*
X0062083Y0150721D01*
X0062417Y0151378D01*
X0062850Y0151974D01*
X0063371Y0152495D01*
X0063967Y0152928D01*
X0064453Y0153175D01*
X0063967Y0153422D01*
X0063371Y0153855D01*
X0062850Y0154376D01*
X0062417Y0154972D01*
X0062083Y0155628D01*
X0061855Y0156329D01*
X0061740Y0157057D01*
X0061740Y0157425D01*
X0069300Y0157425D01*
X0069300Y0157425D01*
X0069300Y0148925D01*
X0069300Y0144245D01*
X0069300Y0140425D01*
X0076860Y0140425D01*
X0069300Y0140425D01*
X0069300Y0140425D01*
X0069300Y0140425D01*
X0069300Y0140425D01*
X0061740Y0140425D01*
X0061740Y0140793D01*
X0061855Y0141521D01*
X0062083Y0142221D01*
X0062417Y0142878D01*
X0062850Y0143474D01*
X0063371Y0143995D01*
X0063967Y0144428D01*
X0064453Y0144675D01*
X0063967Y0144922D01*
X0063371Y0145355D01*
X0062850Y0145876D01*
X0062417Y0146472D01*
X0062083Y0147128D01*
X0061855Y0147829D01*
X0061740Y0148557D01*
X0061740Y0148925D01*
X0069300Y0148925D01*
X0069300Y0148925D01*
X0069300Y0140425D01*
X0069300Y0135745D01*
X0069300Y0131925D01*
X0076860Y0131925D01*
X0069300Y0131925D01*
X0069300Y0131925D01*
X0069300Y0131925D01*
X0069300Y0131925D01*
X0061740Y0131925D01*
X0061740Y0132293D01*
X0061855Y0133021D01*
X0062083Y0133721D01*
X0062417Y0134378D01*
X0062850Y0134974D01*
X0063371Y0135495D01*
X0063967Y0135928D01*
X0064453Y0136175D01*
X0063967Y0136422D01*
X0063371Y0136855D01*
X0062850Y0137376D01*
X0062417Y0137972D01*
X0062083Y0138628D01*
X0061855Y0139329D01*
X0061740Y0140057D01*
X0061740Y0140425D01*
X0069300Y0140425D01*
X0069300Y0140425D01*
X0069300Y0131925D01*
X0061740Y0131925D01*
X0061740Y0131557D01*
X0061855Y0130829D01*
X0062083Y0130128D01*
X0062417Y0129472D01*
X0062850Y0128876D01*
X0063371Y0128355D01*
X0063967Y0127922D01*
X0064452Y0127675D01*
X0063769Y0127392D01*
X0062452Y0126076D01*
X0061740Y0124356D01*
X0061740Y0122494D01*
X0062452Y0120774D01*
X0063769Y0119457D01*
X0064451Y0119175D01*
X0063769Y0118892D01*
X0062452Y0117576D01*
X0061740Y0115856D01*
X0061740Y0113994D01*
X0062452Y0112274D01*
X0063769Y0110957D01*
X0064451Y0110675D01*
X0063769Y0110392D01*
X0062452Y0109076D01*
X0061740Y0107356D01*
X0061740Y0105494D01*
X0062452Y0103774D01*
X0063769Y0102457D01*
X0064451Y0102175D01*
X0063769Y0101892D01*
X0062452Y0100576D01*
X0061740Y0098856D01*
X0061740Y0096994D01*
X0062452Y0095274D01*
X0063769Y0093957D01*
X0064451Y0093675D01*
X0063769Y0093392D01*
X0062452Y0092076D01*
X0061740Y0090356D01*
X0061740Y0088494D01*
X0062452Y0086774D01*
X0063769Y0085457D01*
X0062184Y0087423D02*
X0035181Y0087423D01*
X0035181Y0089021D02*
X0061740Y0089021D01*
X0061849Y0090620D02*
X0035181Y0090620D01*
X0035181Y0092218D02*
X0062595Y0092218D01*
X0064109Y0093817D02*
X0035181Y0093817D01*
X0035181Y0095415D02*
X0062394Y0095415D01*
X0061740Y0097014D02*
X0035181Y0097014D01*
X0035181Y0098612D02*
X0061740Y0098612D01*
X0062301Y0100211D02*
X0035181Y0100211D01*
X0035181Y0101809D02*
X0063686Y0101809D01*
X0062819Y0103408D02*
X0035181Y0103408D01*
X0035181Y0105006D02*
X0061942Y0105006D01*
X0061740Y0106605D02*
X0035181Y0106605D01*
X0035181Y0108203D02*
X0062091Y0108203D01*
X0063178Y0109802D02*
X0035181Y0109802D01*
X0035181Y0111400D02*
X0063326Y0111400D01*
X0062152Y0112999D02*
X0035181Y0112999D01*
X0035181Y0114597D02*
X0061740Y0114597D01*
X0061881Y0116196D02*
X0035181Y0116196D01*
X0035181Y0117794D02*
X0062671Y0117794D01*
X0063925Y0119393D02*
X0035181Y0119393D01*
X0035181Y0120991D02*
X0062362Y0120991D01*
X0061740Y0122590D02*
X0035181Y0122590D01*
X0035181Y0124188D02*
X0061740Y0124188D01*
X0062333Y0125787D02*
X0035181Y0125787D01*
X0035181Y0127385D02*
X0063762Y0127385D01*
X0062772Y0128984D02*
X0035181Y0128984D01*
X0035181Y0130582D02*
X0061935Y0130582D01*
X0061740Y0132181D02*
X0035181Y0132181D01*
X0035181Y0133779D02*
X0062112Y0133779D01*
X0063254Y0135378D02*
X0035181Y0135378D01*
X0035181Y0136976D02*
X0063250Y0136976D01*
X0062110Y0138575D02*
X0035181Y0138575D01*
X0035181Y0140173D02*
X0061740Y0140173D01*
X0061937Y0141772D02*
X0035181Y0141772D01*
X0035181Y0143370D02*
X0062775Y0143370D01*
X0063903Y0144969D02*
X0035181Y0144969D01*
X0035181Y0146568D02*
X0062369Y0146568D01*
X0061802Y0148166D02*
X0035181Y0148166D01*
X0035181Y0149765D02*
X0061815Y0149765D01*
X0062410Y0151363D02*
X0035181Y0151363D01*
X0035181Y0152962D02*
X0064034Y0152962D01*
X0062717Y0154560D02*
X0035181Y0154560D01*
X0035181Y0156159D02*
X0061911Y0156159D01*
X0061740Y0157757D02*
X0035181Y0157757D01*
X0035181Y0159356D02*
X0062151Y0159356D01*
X0063331Y0160954D02*
X0035181Y0160954D01*
X0035181Y0162553D02*
X0063174Y0162553D01*
X0062076Y0164151D02*
X0035181Y0164151D01*
X0035181Y0165750D02*
X0061740Y0165750D01*
X0061962Y0167348D02*
X0035181Y0167348D01*
X0035181Y0168947D02*
X0062831Y0168947D01*
X0063798Y0170545D02*
X0035181Y0170545D01*
X0035181Y0172144D02*
X0062330Y0172144D01*
X0061790Y0173742D02*
X0035181Y0173742D01*
X0035181Y0175341D02*
X0061827Y0175341D01*
X0062462Y0176939D02*
X0035181Y0176939D01*
X0035181Y0178538D02*
X0064183Y0178538D01*
X0062661Y0180136D02*
X0035181Y0180136D01*
X0035181Y0181735D02*
X0061886Y0181735D01*
X0061746Y0183333D02*
X0035181Y0183333D01*
X0035181Y0184932D02*
X0062190Y0184932D01*
X0063420Y0186530D02*
X0035181Y0186530D01*
X0035181Y0188129D02*
X0106450Y0188129D01*
X0106450Y0189727D02*
X0035181Y0189727D01*
X0035181Y0191326D02*
X0106450Y0191326D01*
X0106450Y0192924D02*
X0035181Y0192924D01*
X0035181Y0194523D02*
X0106450Y0194523D01*
X0106450Y0196121D02*
X0035181Y0196121D01*
X0035181Y0197720D02*
X0106450Y0197720D01*
X0106450Y0199318D02*
X0035181Y0199318D01*
X0035181Y0200917D02*
X0106450Y0200917D01*
X0106450Y0202515D02*
X0035181Y0202515D01*
X0035181Y0204114D02*
X0106450Y0204114D01*
X0106450Y0205712D02*
X0035181Y0205712D01*
X0035181Y0207311D02*
X0106450Y0207311D01*
X0106450Y0208909D02*
X0035181Y0208909D01*
X0035181Y0210508D02*
X0106450Y0210508D01*
X0106450Y0212106D02*
X0035181Y0212106D01*
X0035181Y0213705D02*
X0106507Y0213705D01*
X0107627Y0215303D02*
X0081545Y0215303D01*
X0081084Y0215164D02*
X0082353Y0215549D01*
X0083579Y0216056D01*
X0084749Y0216682D01*
X0085852Y0217419D01*
X0086877Y0218260D01*
X0087815Y0219198D01*
X0088656Y0220223D01*
X0089393Y0221326D01*
X0090019Y0222496D01*
X0090526Y0223721D01*
X0090911Y0224991D01*
X0091170Y0226292D01*
X0091287Y0227475D01*
X0078600Y0227475D01*
X0078600Y0229075D01*
X0077000Y0229075D01*
X0077000Y0241762D01*
X0075817Y0241645D01*
X0074516Y0241386D01*
X0073246Y0241001D01*
X0072021Y0240494D01*
X0070851Y0239868D01*
X0069748Y0239131D01*
X0068723Y0238290D01*
X0067785Y0237352D01*
X0066944Y0236327D01*
X0066207Y0235224D01*
X0065581Y0234054D01*
X0065074Y0232828D01*
X0064689Y0231559D01*
X0064430Y0230258D01*
X0064313Y0229075D01*
X0077000Y0229075D01*
X0077000Y0227475D01*
X0064313Y0227475D01*
X0064430Y0226292D01*
X0064689Y0224991D01*
X0065074Y0223721D01*
X0065581Y0222496D01*
X0066207Y0221326D01*
X0066944Y0220223D01*
X0067785Y0219198D01*
X0068723Y0218260D01*
X0069748Y0217419D01*
X0070851Y0216682D01*
X0072021Y0216056D01*
X0073246Y0215549D01*
X0074516Y0215164D01*
X0075817Y0214905D01*
X0077000Y0214788D01*
X0077000Y0227475D01*
X0078600Y0227475D01*
X0078600Y0214788D01*
X0079783Y0214905D01*
X0081084Y0215164D01*
X0078600Y0215303D02*
X0077000Y0215303D01*
X0077000Y0216902D02*
X0078600Y0216902D01*
X0078600Y0218501D02*
X0077000Y0218501D01*
X0077000Y0220099D02*
X0078600Y0220099D01*
X0078600Y0221698D02*
X0077000Y0221698D01*
X0077000Y0223296D02*
X0078600Y0223296D01*
X0078600Y0224895D02*
X0077000Y0224895D01*
X0077000Y0226493D02*
X0078600Y0226493D01*
X0078600Y0228092D02*
X0152740Y0228092D01*
X0152740Y0228981D02*
X0152740Y0227119D01*
X0153452Y0225399D01*
X0154769Y0224082D01*
X0156489Y0223370D01*
X0164111Y0223370D01*
X0165831Y0224082D01*
X0167147Y0225399D01*
X0167169Y0225450D01*
X0167973Y0225450D01*
X0170200Y0223223D01*
X0170200Y0206908D01*
X0170596Y0205952D01*
X0174575Y0201973D01*
X0174575Y0095088D01*
X0174519Y0094953D01*
X0174519Y0093647D01*
X0175018Y0092441D01*
X0175941Y0091518D01*
X0177147Y0091019D01*
X0178453Y0091019D01*
X0179659Y0091518D01*
X0179840Y0091700D01*
X0184599Y0091700D01*
X0183990Y0090231D01*
X0183990Y0088369D01*
X0184702Y0086649D01*
X0186019Y0085332D01*
X0187739Y0084620D01*
X0195361Y0084620D01*
X0197081Y0085332D01*
X0198397Y0086649D01*
X0199110Y0088369D01*
X0199110Y0090231D01*
X0198501Y0091700D01*
X0224510Y0091700D01*
X0224691Y0091518D01*
X0225897Y0091019D01*
X0227203Y0091019D01*
X0228409Y0091518D01*
X0229332Y0092441D01*
X0229831Y0093647D01*
X0229831Y0094953D01*
X0229332Y0096159D01*
X0228409Y0097082D01*
X0228316Y0097120D01*
X0229739Y0097120D01*
X0231245Y0098627D01*
X0231245Y0097361D01*
X0233056Y0095550D01*
X0231245Y0093739D01*
X0231245Y0089861D01*
X0233056Y0088050D01*
X0231245Y0086239D01*
X0231245Y0082361D01*
X0233056Y0080550D01*
X0231245Y0078739D01*
X0231245Y0074861D01*
X0233056Y0073050D01*
X0231245Y0071239D01*
X0231245Y0067361D01*
X0233056Y0065550D01*
X0231245Y0063739D01*
X0231245Y0059861D01*
X0233056Y0058050D01*
X0231245Y0056239D01*
X0231245Y0052361D01*
X0233056Y0050550D01*
X0231245Y0048739D01*
X0231245Y0044861D01*
X0233056Y0043050D01*
X0231245Y0041239D01*
X0231245Y0037361D01*
X0233056Y0035550D01*
X0231245Y0033739D01*
X0231245Y0029861D01*
X0233986Y0027120D01*
X0237864Y0027120D01*
X0240605Y0029861D01*
X0240605Y0033739D01*
X0238793Y0035550D01*
X0240605Y0037361D01*
X0240605Y0041239D01*
X0238793Y0043050D01*
X0240605Y0044861D01*
X0240605Y0048739D01*
X0238793Y0050550D01*
X0240605Y0052361D01*
X0240605Y0056239D01*
X0238793Y0058050D01*
X0240605Y0059861D01*
X0240605Y0063739D01*
X0238793Y0065550D01*
X0240605Y0067361D01*
X0240605Y0071239D01*
X0238793Y0073050D01*
X0240605Y0074861D01*
X0240605Y0078739D01*
X0238793Y0080550D01*
X0240605Y0082361D01*
X0240605Y0086239D01*
X0238793Y0088050D01*
X0240605Y0089861D01*
X0240605Y0093739D01*
X0238793Y0095550D01*
X0240605Y0097361D01*
X0240605Y0101239D01*
X0237864Y0103980D01*
X0233986Y0103980D01*
X0232480Y0102473D01*
X0232480Y0103739D01*
X0229739Y0106480D01*
X0227800Y0106480D01*
X0227800Y0101800D01*
X0227800Y0101800D01*
X0227800Y0101800D01*
X0223120Y0101800D01*
X0223120Y0103739D01*
X0225861Y0106480D01*
X0227800Y0106480D01*
X0227800Y0101800D01*
X0223120Y0101800D01*
X0223120Y0099861D01*
X0225546Y0097436D01*
X0224691Y0097082D01*
X0224510Y0096900D01*
X0198501Y0096900D01*
X0199110Y0098369D01*
X0199110Y0100231D01*
X0198397Y0101951D01*
X0197081Y0103267D01*
X0195361Y0103980D01*
X0187739Y0103980D01*
X0186019Y0103267D01*
X0184702Y0101951D01*
X0183990Y0100231D01*
X0183990Y0098369D01*
X0184599Y0096900D01*
X0179840Y0096900D01*
X0179775Y0096965D01*
X0179775Y0203567D01*
X0179379Y0204523D01*
X0178648Y0205254D01*
X0175400Y0208502D01*
X0175400Y0215810D01*
X0175941Y0215268D01*
X0177147Y0214769D01*
X0177404Y0214769D01*
X0180946Y0211227D01*
X0181292Y0210870D01*
X0181312Y0210861D01*
X0181327Y0210846D01*
X0181785Y0210656D01*
X0182241Y0210459D01*
X0182263Y0210458D01*
X0182283Y0210450D01*
X0182779Y0210450D01*
X0183345Y0210441D01*
X0182740Y0208981D01*
X0182740Y0207119D01*
X0183452Y0205399D01*
X0184769Y0204082D01*
X0186489Y0203370D01*
X0194111Y0203370D01*
X0195831Y0204082D01*
X0197147Y0205399D01*
X0197860Y0207119D01*
X0197860Y0208981D01*
X0197349Y0210215D01*
X0219477Y0209858D01*
X0219691Y0209643D01*
X0220897Y0209144D01*
X0222203Y0209144D01*
X0223409Y0209643D01*
X0224000Y0210235D01*
X0224000Y0130249D01*
X0206272Y0112521D01*
X0205204Y0111453D01*
X0204625Y0110056D01*
X0204625Y0105244D01*
X0203120Y0103739D01*
X0203120Y0099861D01*
X0205861Y0097120D01*
X0209739Y0097120D01*
X0212480Y0099861D01*
X0212480Y0103739D01*
X0212225Y0103994D01*
X0212225Y0107726D01*
X0231021Y0126522D01*
X0231600Y0127919D01*
X0231600Y0140757D01*
X0233986Y0138370D01*
X0237864Y0138370D01*
X0240605Y0141111D01*
X0240605Y0144989D01*
X0238793Y0146800D01*
X0240605Y0148611D01*
X0240605Y0152489D01*
X0238793Y0154300D01*
X0240605Y0156111D01*
X0240605Y0159989D01*
X0238793Y0161800D01*
X0240605Y0163611D01*
X0240605Y0167489D01*
X0238793Y0169300D01*
X0240605Y0171111D01*
X0240605Y0174989D01*
X0238793Y0176800D01*
X0240605Y0178611D01*
X0240605Y0182489D01*
X0238793Y0184300D01*
X0240605Y0186111D01*
X0240605Y0189989D01*
X0238793Y0191800D01*
X0240605Y0193611D01*
X0240605Y0197489D01*
X0238793Y0199300D01*
X0240605Y0201111D01*
X0240605Y0204989D01*
X0238793Y0206800D01*
X0240605Y0208611D01*
X0240605Y0212489D01*
X0237864Y0215230D01*
X0233986Y0215230D01*
X0231600Y0212843D01*
X0231600Y0220500D01*
X0284806Y0220500D01*
X0286203Y0221079D01*
X0287271Y0222147D01*
X0290396Y0225272D01*
X0290975Y0226669D01*
X0290975Y0228738D01*
X0291753Y0229516D01*
X0292575Y0231501D01*
X0292575Y0240849D01*
X0292440Y0241175D01*
X0292575Y0241501D01*
X0292575Y0250849D01*
X0291753Y0252834D01*
X0290234Y0254353D01*
X0288249Y0255175D01*
X0286101Y0255175D01*
X0284116Y0254353D01*
X0282597Y0252834D01*
X0282175Y0251815D01*
X0281753Y0252834D01*
X0280234Y0254353D01*
X0278249Y0255175D01*
X0276101Y0255175D01*
X0274116Y0254353D01*
X0272597Y0252834D01*
X0272175Y0251815D01*
X0271753Y0252834D01*
X0270234Y0254353D01*
X0268249Y0255175D01*
X0266101Y0255175D01*
X0264116Y0254353D01*
X0262597Y0252834D01*
X0262175Y0251815D01*
X0261753Y0252834D01*
X0260234Y0254353D01*
X0258249Y0255175D01*
X0256101Y0255175D01*
X0254116Y0254353D01*
X0252597Y0252834D01*
X0252183Y0251835D01*
X0252179Y0251848D01*
X0251793Y0252605D01*
X0251294Y0253293D01*
X0250693Y0253894D01*
X0250005Y0254393D01*
X0249248Y0254779D01*
X0248440Y0255042D01*
X0247600Y0255175D01*
X0247375Y0255175D01*
X0247375Y0246375D01*
X0246975Y0246375D01*
X0246975Y0255175D01*
X0246750Y0255175D01*
X0245910Y0255042D01*
X0245102Y0254779D01*
X0244345Y0254393D01*
X0243657Y0253894D01*
X0243056Y0253293D01*
X0242557Y0252605D01*
X0242171Y0251848D01*
X0241908Y0251040D01*
X0241775Y0250200D01*
X0241775Y0246375D01*
X0246975Y0246375D01*
X0246975Y0245975D01*
X0241775Y0245975D01*
X0241775Y0242150D01*
X0241908Y0241310D01*
X0241952Y0241175D01*
X0241908Y0241040D01*
X0241775Y0240200D01*
X0241775Y0236375D01*
X0246975Y0236375D01*
X0246975Y0237175D01*
X0246975Y0245975D01*
X0247375Y0245975D01*
X0247375Y0236375D01*
X0246975Y0236375D01*
X0246975Y0235975D01*
X0241775Y0235975D01*
X0241775Y0232150D01*
X0241908Y0231310D01*
X0242171Y0230502D01*
X0242557Y0229745D01*
X0243056Y0229057D01*
X0243657Y0228456D01*
X0244147Y0228100D01*
X0216874Y0228100D01*
X0206230Y0238744D01*
X0206230Y0239989D01*
X0203489Y0242730D01*
X0199611Y0242730D01*
X0197275Y0240393D01*
X0197147Y0240701D01*
X0195831Y0242017D01*
X0194111Y0242730D01*
X0186489Y0242730D01*
X0184769Y0242017D01*
X0183452Y0240701D01*
X0182740Y0238981D01*
X0182740Y0237119D01*
X0183452Y0235399D01*
X0184769Y0234082D01*
X0186489Y0233370D01*
X0194111Y0233370D01*
X0195831Y0234082D01*
X0197147Y0235399D01*
X0197275Y0235707D01*
X0199611Y0233370D01*
X0200856Y0233370D01*
X0212079Y0222147D01*
X0213147Y0221079D01*
X0214544Y0220500D01*
X0224000Y0220500D01*
X0224000Y0214615D01*
X0223409Y0215207D01*
X0222203Y0215706D01*
X0220897Y0215706D01*
X0219691Y0215207D01*
X0219543Y0215058D01*
X0197156Y0215419D01*
X0197860Y0217119D01*
X0197860Y0218981D01*
X0197147Y0220701D01*
X0195831Y0222017D01*
X0194111Y0222730D01*
X0186489Y0222730D01*
X0184769Y0222017D01*
X0183452Y0220701D01*
X0182740Y0218981D01*
X0182740Y0217119D01*
X0182975Y0216552D01*
X0181081Y0218446D01*
X0181081Y0218703D01*
X0180582Y0219909D01*
X0179659Y0220832D01*
X0178453Y0221331D01*
X0177147Y0221331D01*
X0175941Y0220832D01*
X0175400Y0220290D01*
X0175400Y0224817D01*
X0175004Y0225773D01*
X0174273Y0226504D01*
X0174273Y0226504D01*
X0170523Y0230254D01*
X0169567Y0230650D01*
X0167169Y0230650D01*
X0167147Y0230701D01*
X0165831Y0232017D01*
X0164111Y0232730D01*
X0156489Y0232730D01*
X0154769Y0232017D01*
X0153452Y0230701D01*
X0152740Y0228981D01*
X0153034Y0229690D02*
X0091226Y0229690D01*
X0091170Y0230258D02*
X0090911Y0231559D01*
X0090526Y0232828D01*
X0090019Y0234054D01*
X0089393Y0235224D01*
X0088656Y0236327D01*
X0087815Y0237352D01*
X0086877Y0238290D01*
X0085852Y0239131D01*
X0084749Y0239868D01*
X0083579Y0240494D01*
X0082353Y0241001D01*
X0081084Y0241386D01*
X0079783Y0241645D01*
X0078600Y0241762D01*
X0078600Y0229075D01*
X0091287Y0229075D01*
X0091170Y0230258D01*
X0090965Y0231289D02*
X0154040Y0231289D01*
X0154769Y0234082D02*
X0156489Y0233370D01*
X0164111Y0233370D01*
X0165831Y0234082D01*
X0167147Y0235399D01*
X0167860Y0237119D01*
X0167860Y0238981D01*
X0167147Y0240701D01*
X0165831Y0242017D01*
X0164111Y0242730D01*
X0156489Y0242730D01*
X0154769Y0242017D01*
X0153452Y0240701D01*
X0152740Y0238981D01*
X0152740Y0237119D01*
X0153452Y0235399D01*
X0154769Y0234082D01*
X0154366Y0234486D02*
X0089788Y0234486D01*
X0090502Y0232887D02*
X0201339Y0232887D01*
X0202937Y0231289D02*
X0196560Y0231289D01*
X0197147Y0230701D02*
X0195831Y0232017D01*
X0194111Y0232730D01*
X0186489Y0232730D01*
X0184769Y0232017D01*
X0183452Y0230701D01*
X0182740Y0228981D01*
X0182740Y0227119D01*
X0183452Y0225399D01*
X0184769Y0224082D01*
X0186489Y0223370D01*
X0194111Y0223370D01*
X0195831Y0224082D01*
X0197147Y0225399D01*
X0197860Y0227119D01*
X0197860Y0228981D01*
X0197147Y0230701D01*
X0197566Y0229690D02*
X0204536Y0229690D01*
X0206134Y0228092D02*
X0197860Y0228092D01*
X0197601Y0226493D02*
X0207733Y0226493D01*
X0209331Y0224895D02*
X0196643Y0224895D01*
X0196151Y0221698D02*
X0212528Y0221698D01*
X0210930Y0223296D02*
X0175400Y0223296D01*
X0175400Y0221698D02*
X0184449Y0221698D01*
X0183203Y0220099D02*
X0180391Y0220099D01*
X0181081Y0218501D02*
X0182740Y0218501D01*
X0182830Y0216902D02*
X0182625Y0216902D01*
X0182800Y0213050D02*
X0177800Y0218050D01*
X0175906Y0215303D02*
X0175400Y0215303D01*
X0175400Y0213705D02*
X0178468Y0213705D01*
X0180067Y0212106D02*
X0175400Y0212106D01*
X0175400Y0210508D02*
X0182127Y0210508D01*
X0182740Y0208909D02*
X0175400Y0208909D01*
X0176591Y0207311D02*
X0182740Y0207311D01*
X0183323Y0205712D02*
X0178190Y0205712D01*
X0179549Y0204114D02*
X0184738Y0204114D01*
X0185971Y0202515D02*
X0179775Y0202515D01*
X0179775Y0200917D02*
X0183668Y0200917D01*
X0183452Y0200701D02*
X0182740Y0198981D01*
X0182740Y0197119D01*
X0183452Y0195399D01*
X0184769Y0194082D01*
X0186489Y0193370D01*
X0194111Y0193370D01*
X0195831Y0194082D01*
X0197147Y0195399D01*
X0197860Y0197119D01*
X0197860Y0198981D01*
X0197147Y0200701D01*
X0195831Y0202017D01*
X0194111Y0202730D01*
X0186489Y0202730D01*
X0184769Y0202017D01*
X0183452Y0200701D01*
X0182880Y0199318D02*
X0179775Y0199318D01*
X0179775Y0197720D02*
X0182740Y0197720D01*
X0183153Y0196121D02*
X0179775Y0196121D01*
X0179775Y0194523D02*
X0184329Y0194523D01*
X0184769Y0192017D02*
X0183452Y0190701D01*
X0182740Y0188981D01*
X0182740Y0187119D01*
X0183452Y0185399D01*
X0184769Y0184082D01*
X0186489Y0183370D01*
X0194111Y0183370D01*
X0195831Y0184082D01*
X0197147Y0185399D01*
X0197860Y0187119D01*
X0197860Y0188981D01*
X0197147Y0190701D01*
X0195831Y0192017D01*
X0194111Y0192730D01*
X0186489Y0192730D01*
X0184769Y0192017D01*
X0184077Y0191326D02*
X0179775Y0191326D01*
X0179775Y0192924D02*
X0224000Y0192924D01*
X0224000Y0191326D02*
X0196523Y0191326D01*
X0197551Y0189727D02*
X0224000Y0189727D01*
X0224000Y0188129D02*
X0197860Y0188129D01*
X0197616Y0186530D02*
X0224000Y0186530D01*
X0224000Y0184932D02*
X0196680Y0184932D01*
X0195831Y0182017D02*
X0194111Y0182730D01*
X0186489Y0182730D01*
X0184769Y0182017D01*
X0183452Y0180701D01*
X0182740Y0178981D01*
X0182740Y0177119D01*
X0183452Y0175399D01*
X0184769Y0174082D01*
X0186489Y0173370D01*
X0194111Y0173370D01*
X0195831Y0174082D01*
X0197147Y0175399D01*
X0197860Y0177119D01*
X0197860Y0178981D01*
X0197147Y0180701D01*
X0195831Y0182017D01*
X0196114Y0181735D02*
X0224000Y0181735D01*
X0224000Y0183333D02*
X0179775Y0183333D01*
X0179775Y0181735D02*
X0184486Y0181735D01*
X0183219Y0180136D02*
X0179775Y0180136D01*
X0179775Y0178538D02*
X0182740Y0178538D01*
X0182815Y0176939D02*
X0179775Y0176939D01*
X0179775Y0175341D02*
X0183511Y0175341D01*
X0185591Y0173742D02*
X0179775Y0173742D01*
X0179775Y0172144D02*
X0185074Y0172144D01*
X0184769Y0172017D02*
X0186489Y0172730D01*
X0194111Y0172730D01*
X0195831Y0172017D01*
X0197147Y0170701D01*
X0197860Y0168981D01*
X0197860Y0167119D01*
X0197147Y0165399D01*
X0195831Y0164082D01*
X0194111Y0163370D01*
X0186489Y0163370D01*
X0184769Y0164082D01*
X0183452Y0165399D01*
X0182740Y0167119D01*
X0182740Y0168981D01*
X0183452Y0170701D01*
X0184769Y0172017D01*
X0183388Y0170545D02*
X0179775Y0170545D01*
X0179775Y0168947D02*
X0182740Y0168947D01*
X0182740Y0167348D02*
X0179775Y0167348D01*
X0179775Y0165750D02*
X0183307Y0165750D01*
X0184700Y0164151D02*
X0179775Y0164151D01*
X0179775Y0162553D02*
X0186061Y0162553D01*
X0186489Y0162730D02*
X0184769Y0162017D01*
X0183452Y0160701D01*
X0182740Y0158981D01*
X0182740Y0157119D01*
X0183452Y0155399D01*
X0184769Y0154082D01*
X0186489Y0153370D01*
X0194111Y0153370D01*
X0195831Y0154082D01*
X0197147Y0155399D01*
X0197860Y0157119D01*
X0197860Y0158981D01*
X0197147Y0160701D01*
X0195831Y0162017D01*
X0194111Y0162730D01*
X0186489Y0162730D01*
X0183706Y0160954D02*
X0179775Y0160954D01*
X0179775Y0159356D02*
X0182895Y0159356D01*
X0182740Y0157757D02*
X0179775Y0157757D01*
X0179775Y0156159D02*
X0183138Y0156159D01*
X0184291Y0154560D02*
X0179775Y0154560D01*
X0179775Y0152962D02*
X0224000Y0152962D01*
X0224000Y0154560D02*
X0196309Y0154560D01*
X0197462Y0156159D02*
X0224000Y0156159D01*
X0224000Y0157757D02*
X0197860Y0157757D01*
X0197705Y0159356D02*
X0224000Y0159356D01*
X0224000Y0160954D02*
X0196894Y0160954D01*
X0194539Y0162553D02*
X0224000Y0162553D01*
X0224000Y0164151D02*
X0195900Y0164151D01*
X0197293Y0165750D02*
X0224000Y0165750D01*
X0224000Y0167348D02*
X0197860Y0167348D01*
X0197860Y0168947D02*
X0224000Y0168947D01*
X0224000Y0170545D02*
X0197212Y0170545D01*
X0195526Y0172144D02*
X0224000Y0172144D01*
X0224000Y0173742D02*
X0195009Y0173742D01*
X0197089Y0175341D02*
X0224000Y0175341D01*
X0224000Y0176939D02*
X0197785Y0176939D01*
X0197860Y0178538D02*
X0224000Y0178538D01*
X0224000Y0180136D02*
X0197381Y0180136D01*
X0183920Y0184932D02*
X0179775Y0184932D01*
X0179775Y0186530D02*
X0182984Y0186530D01*
X0182740Y0188129D02*
X0179775Y0188129D01*
X0179775Y0189727D02*
X0183049Y0189727D01*
X0174575Y0189727D02*
X0167551Y0189727D01*
X0167860Y0188981D02*
X0167147Y0190701D01*
X0165831Y0192017D01*
X0164111Y0192730D01*
X0156489Y0192730D01*
X0154769Y0192017D01*
X0153452Y0190701D01*
X0152740Y0188981D01*
X0152740Y0187119D01*
X0153452Y0185399D01*
X0154769Y0184082D01*
X0156489Y0183370D01*
X0164111Y0183370D01*
X0165831Y0184082D01*
X0167147Y0185399D01*
X0167860Y0187119D01*
X0167860Y0188981D01*
X0167860Y0188129D02*
X0174575Y0188129D01*
X0174575Y0186530D02*
X0167616Y0186530D01*
X0166680Y0184932D02*
X0174575Y0184932D01*
X0174575Y0183333D02*
X0132028Y0183333D01*
X0130444Y0184932D02*
X0153920Y0184932D01*
X0152984Y0186530D02*
X0132042Y0186530D01*
X0133200Y0188129D02*
X0152740Y0188129D01*
X0153049Y0189727D02*
X0128000Y0189727D01*
X0128000Y0190125D02*
X0133200Y0190125D01*
X0133200Y0192162D01*
X0130037Y0195325D01*
X0128000Y0195325D01*
X0128000Y0190125D01*
X0127600Y0189727D02*
X0118000Y0189727D01*
X0117600Y0189727D02*
X0111650Y0189727D01*
X0111650Y0188129D02*
X0112400Y0188129D01*
X0111650Y0186530D02*
X0113558Y0186530D01*
X0115156Y0184932D02*
X0111650Y0184932D01*
X0111650Y0183333D02*
X0113572Y0183333D01*
X0112400Y0181735D02*
X0111650Y0181735D01*
X0111650Y0180136D02*
X0112400Y0180136D01*
X0112400Y0178538D02*
X0111650Y0178538D01*
X0111650Y0176939D02*
X0113149Y0176939D01*
X0111650Y0175341D02*
X0114748Y0175341D01*
X0113980Y0173742D02*
X0111650Y0173742D01*
X0111650Y0172144D02*
X0112400Y0172144D01*
X0112400Y0170545D02*
X0111650Y0170545D01*
X0111650Y0168947D02*
X0112400Y0168947D01*
X0112740Y0167348D02*
X0111650Y0167348D01*
X0111650Y0165750D02*
X0114339Y0165750D01*
X0114389Y0164151D02*
X0111650Y0164151D01*
X0111650Y0162553D02*
X0112791Y0162553D01*
X0112400Y0160954D02*
X0111650Y0160954D01*
X0111650Y0159356D02*
X0112400Y0159356D01*
X0112400Y0157757D02*
X0111650Y0157757D01*
X0111650Y0156159D02*
X0113930Y0156159D01*
X0114798Y0154560D02*
X0111650Y0154560D01*
X0111650Y0152962D02*
X0113200Y0152962D01*
X0112400Y0151363D02*
X0111650Y0151363D01*
X0111650Y0149765D02*
X0117600Y0149765D01*
X0117600Y0151363D02*
X0118000Y0151363D01*
X0118000Y0152962D02*
X0117600Y0152962D01*
X0117600Y0154560D02*
X0118000Y0154560D01*
X0118000Y0156159D02*
X0117600Y0156159D01*
X0117600Y0157757D02*
X0118000Y0157757D01*
X0118000Y0159356D02*
X0117600Y0159356D01*
X0117600Y0160954D02*
X0118000Y0160954D01*
X0118000Y0162553D02*
X0117600Y0162553D01*
X0117600Y0164151D02*
X0118000Y0164151D01*
X0118000Y0165750D02*
X0117600Y0165750D01*
X0117600Y0167348D02*
X0118000Y0167348D01*
X0118000Y0168947D02*
X0117600Y0168947D01*
X0117600Y0170545D02*
X0118000Y0170545D01*
X0118000Y0172144D02*
X0117600Y0172144D01*
X0117600Y0173742D02*
X0118000Y0173742D01*
X0118000Y0175341D02*
X0117600Y0175341D01*
X0117600Y0176939D02*
X0118000Y0176939D01*
X0118000Y0178538D02*
X0117600Y0178538D01*
X0117600Y0180136D02*
X0118000Y0180136D01*
X0118000Y0181735D02*
X0117600Y0181735D01*
X0117600Y0183333D02*
X0118000Y0183333D01*
X0118000Y0184932D02*
X0117600Y0184932D01*
X0117600Y0186530D02*
X0118000Y0186530D01*
X0118000Y0188129D02*
X0117600Y0188129D01*
X0117600Y0191326D02*
X0118000Y0191326D01*
X0118000Y0192924D02*
X0117600Y0192924D01*
X0117600Y0194523D02*
X0118000Y0194523D01*
X0120839Y0194523D02*
X0124761Y0194523D01*
X0123163Y0192924D02*
X0122437Y0192924D01*
X0127600Y0192924D02*
X0128000Y0192924D01*
X0128000Y0191326D02*
X0127600Y0191326D01*
X0127600Y0194523D02*
X0128000Y0194523D01*
X0130839Y0194523D02*
X0154329Y0194523D01*
X0154769Y0194082D02*
X0156489Y0193370D01*
X0164111Y0193370D01*
X0165831Y0194082D01*
X0167147Y0195399D01*
X0167860Y0197119D01*
X0167860Y0198981D01*
X0167147Y0200701D01*
X0165831Y0202017D01*
X0164111Y0202730D01*
X0156489Y0202730D01*
X0154769Y0202017D01*
X0153452Y0200701D01*
X0152740Y0198981D01*
X0152740Y0197119D01*
X0153452Y0195399D01*
X0154769Y0194082D01*
X0153153Y0196121D02*
X0111650Y0196121D01*
X0111650Y0194523D02*
X0114761Y0194523D01*
X0113163Y0192924D02*
X0111650Y0192924D01*
X0111650Y0191326D02*
X0112400Y0191326D01*
X0111650Y0197720D02*
X0152740Y0197720D01*
X0152880Y0199318D02*
X0111650Y0199318D01*
X0111650Y0200917D02*
X0153668Y0200917D01*
X0155971Y0202515D02*
X0111650Y0202515D01*
X0111650Y0204114D02*
X0154738Y0204114D01*
X0154769Y0204082D02*
X0156489Y0203370D01*
X0164111Y0203370D01*
X0165831Y0204082D01*
X0167147Y0205399D01*
X0167860Y0207119D01*
X0167860Y0208981D01*
X0167147Y0210701D01*
X0165831Y0212017D01*
X0164111Y0212730D01*
X0156489Y0212730D01*
X0154769Y0212017D01*
X0153452Y0210701D01*
X0152740Y0208981D01*
X0152740Y0207119D01*
X0153452Y0205399D01*
X0154769Y0204082D01*
X0153323Y0205712D02*
X0111650Y0205712D01*
X0111650Y0207311D02*
X0152740Y0207311D01*
X0152740Y0208909D02*
X0111650Y0208909D01*
X0111650Y0210508D02*
X0153373Y0210508D01*
X0154984Y0212106D02*
X0111783Y0212106D01*
X0113382Y0213705D02*
X0155680Y0213705D01*
X0153548Y0215303D02*
X0114980Y0215303D01*
X0114050Y0218050D02*
X0160300Y0218050D01*
X0164920Y0213705D02*
X0170200Y0213705D01*
X0170200Y0215303D02*
X0167052Y0215303D01*
X0167770Y0216902D02*
X0170200Y0216902D01*
X0170200Y0218501D02*
X0167860Y0218501D01*
X0167397Y0220099D02*
X0170200Y0220099D01*
X0170200Y0221698D02*
X0166151Y0221698D01*
X0166643Y0224895D02*
X0168528Y0224895D01*
X0170127Y0223296D02*
X0090350Y0223296D01*
X0090882Y0224895D02*
X0153957Y0224895D01*
X0152999Y0226493D02*
X0091190Y0226493D01*
X0089592Y0221698D02*
X0154449Y0221698D01*
X0160300Y0228050D02*
X0169050Y0228050D01*
X0172800Y0224300D01*
X0172800Y0207425D01*
X0177175Y0203050D01*
X0177175Y0094925D01*
X0177800Y0094300D01*
X0226550Y0094300D01*
X0229640Y0095415D02*
X0232922Y0095415D01*
X0231593Y0097014D02*
X0228477Y0097014D01*
X0231231Y0098612D02*
X0231245Y0098612D01*
X0227800Y0101809D02*
X0227800Y0101809D01*
X0227800Y0103408D02*
X0227800Y0103408D01*
X0227800Y0105006D02*
X0227800Y0105006D01*
X0231212Y0105006D02*
X0301814Y0105006D01*
X0301660Y0105309D02*
X0302053Y0104537D01*
X0302562Y0103837D01*
X0303174Y0103225D01*
X0303874Y0102716D01*
X0304455Y0102420D01*
X0303641Y0102083D01*
X0302094Y0100536D01*
X0301257Y0098514D01*
X0301257Y0096326D01*
X0302094Y0094305D01*
X0303641Y0092757D01*
X0304456Y0092420D01*
X0303641Y0092083D01*
X0302094Y0090536D01*
X0301257Y0088514D01*
X0301257Y0086326D01*
X0302094Y0084305D01*
X0303641Y0082757D01*
X0304456Y0082420D01*
X0303641Y0082083D01*
X0302094Y0080536D01*
X0301257Y0078514D01*
X0301257Y0076326D01*
X0302094Y0074305D01*
X0303641Y0072757D01*
X0304456Y0072420D01*
X0303641Y0072083D01*
X0302094Y0070536D01*
X0301257Y0068514D01*
X0301257Y0066326D01*
X0302094Y0064305D01*
X0303641Y0062757D01*
X0304456Y0062420D01*
X0303641Y0062083D01*
X0302094Y0060536D01*
X0301257Y0058514D01*
X0301257Y0056326D01*
X0302094Y0054305D01*
X0303641Y0052757D01*
X0304456Y0052420D01*
X0303641Y0052083D01*
X0302094Y0050536D01*
X0301257Y0048514D01*
X0301257Y0046326D01*
X0302094Y0044305D01*
X0303641Y0042757D01*
X0304455Y0042420D01*
X0303874Y0042124D01*
X0303174Y0041615D01*
X0302562Y0041003D01*
X0302053Y0040303D01*
X0301660Y0039531D01*
X0301392Y0038708D01*
X0301257Y0037853D01*
X0301257Y0037575D01*
X0306602Y0037575D01*
X0306602Y0037265D01*
X0306911Y0037265D01*
X0306911Y0031920D01*
X0307190Y0031920D01*
X0308045Y0032056D01*
X0308868Y0032323D01*
X0309639Y0032716D01*
X0310340Y0033225D01*
X0310952Y0033837D01*
X0311461Y0034537D01*
X0311757Y0035119D01*
X0312094Y0034305D01*
X0313641Y0032757D01*
X0315663Y0031920D01*
X0317851Y0031920D01*
X0319872Y0032757D01*
X0321419Y0034305D01*
X0322257Y0036326D01*
X0322257Y0038514D01*
X0321419Y0040536D01*
X0319872Y0042083D01*
X0319058Y0042420D01*
X0319872Y0042757D01*
X0321419Y0044305D01*
X0322257Y0046326D01*
X0322257Y0048514D01*
X0321419Y0050536D01*
X0319872Y0052083D01*
X0319058Y0052420D01*
X0319872Y0052757D01*
X0321419Y0054305D01*
X0322257Y0056326D01*
X0322257Y0058514D01*
X0321419Y0060536D01*
X0319872Y0062083D01*
X0319058Y0062420D01*
X0319639Y0062716D01*
X0320340Y0063225D01*
X0320952Y0063837D01*
X0321461Y0064537D01*
X0321854Y0065309D01*
X0322121Y0066132D01*
X0322257Y0066987D01*
X0322257Y0067265D01*
X0316911Y0067265D01*
X0316911Y0067575D01*
X0322257Y0067575D01*
X0322257Y0067853D01*
X0322121Y0068708D01*
X0321854Y0069531D01*
X0321461Y0070303D01*
X0320952Y0071003D01*
X0320340Y0071615D01*
X0319639Y0072124D01*
X0319101Y0072398D01*
X0319872Y0072718D01*
X0321419Y0074265D01*
X0322257Y0076287D01*
X0322257Y0078475D01*
X0321419Y0080496D01*
X0319872Y0082043D01*
X0319016Y0082398D01*
X0319639Y0082716D01*
X0320340Y0083225D01*
X0320952Y0083837D01*
X0321461Y0084537D01*
X0321854Y0085309D01*
X0322121Y0086132D01*
X0322257Y0086987D01*
X0322257Y0087265D01*
X0316911Y0087265D01*
X0316911Y0087575D01*
X0322257Y0087575D01*
X0322257Y0087853D01*
X0322121Y0088708D01*
X0321854Y0089531D01*
X0321461Y0090303D01*
X0320952Y0091003D01*
X0320340Y0091615D01*
X0319639Y0092124D01*
X0319058Y0092420D01*
X0319872Y0092757D01*
X0321419Y0094305D01*
X0322257Y0096326D01*
X0322257Y0098514D01*
X0321419Y0100536D01*
X0319872Y0102083D01*
X0319058Y0102420D01*
X0319872Y0102757D01*
X0321419Y0104305D01*
X0322257Y0106326D01*
X0322257Y0108514D01*
X0321419Y0110536D01*
X0319872Y0112083D01*
X0319058Y0112420D01*
X0319872Y0112757D01*
X0321419Y0114305D01*
X0322257Y0116326D01*
X0322257Y0118514D01*
X0321419Y0120536D01*
X0319872Y0122083D01*
X0319058Y0122420D01*
X0319872Y0122757D01*
X0321419Y0124305D01*
X0322257Y0126326D01*
X0322257Y0128514D01*
X0321419Y0130536D01*
X0319872Y0132083D01*
X0319058Y0132420D01*
X0319639Y0132716D01*
X0320340Y0133225D01*
X0320952Y0133837D01*
X0321461Y0134537D01*
X0321854Y0135309D01*
X0322121Y0136132D01*
X0322257Y0136987D01*
X0322257Y0137265D01*
X0316911Y0137265D01*
X0316911Y0137575D01*
X0322257Y0137575D01*
X0322257Y0137853D01*
X0322121Y0138708D01*
X0321854Y0139531D01*
X0321461Y0140303D01*
X0320952Y0141003D01*
X0320340Y0141615D01*
X0319639Y0142124D01*
X0319058Y0142420D01*
X0319872Y0142757D01*
X0321419Y0144305D01*
X0322257Y0146326D01*
X0322257Y0148514D01*
X0321419Y0150536D01*
X0319872Y0152083D01*
X0319058Y0152420D01*
X0319872Y0152757D01*
X0321419Y0154305D01*
X0322257Y0156326D01*
X0322257Y0158514D01*
X0321419Y0160536D01*
X0319872Y0162083D01*
X0319058Y0162420D01*
X0319639Y0162716D01*
X0320340Y0163225D01*
X0320952Y0163837D01*
X0321461Y0164537D01*
X0321854Y0165309D01*
X0322121Y0166132D01*
X0322257Y0166987D01*
X0322257Y0167265D01*
X0316911Y0167265D01*
X0316911Y0167575D01*
X0322257Y0167575D01*
X0322257Y0167853D01*
X0322121Y0168708D01*
X0321854Y0169531D01*
X0321461Y0170303D01*
X0320952Y0171003D01*
X0320340Y0171615D01*
X0319639Y0172124D01*
X0319058Y0172420D01*
X0319872Y0172757D01*
X0321419Y0174305D01*
X0322257Y0176326D01*
X0322257Y0178514D01*
X0321419Y0180536D01*
X0319872Y0182083D01*
X0319058Y0182420D01*
X0319872Y0182757D01*
X0321419Y0184305D01*
X0322257Y0186326D01*
X0322257Y0188514D01*
X0321419Y0190536D01*
X0319872Y0192083D01*
X0319058Y0192420D01*
X0319872Y0192757D01*
X0321419Y0194305D01*
X0322257Y0196326D01*
X0322257Y0198514D01*
X0321419Y0200536D01*
X0319872Y0202083D01*
X0319058Y0202420D01*
X0319639Y0202716D01*
X0320340Y0203225D01*
X0320952Y0203837D01*
X0321461Y0204537D01*
X0321854Y0205309D01*
X0322121Y0206132D01*
X0322257Y0206987D01*
X0322257Y0207265D01*
X0316911Y0207265D01*
X0316911Y0207575D01*
X0322257Y0207575D01*
X0322257Y0207853D01*
X0322121Y0208708D01*
X0321854Y0209531D01*
X0321461Y0210303D01*
X0320952Y0211003D01*
X0320340Y0211615D01*
X0319639Y0212124D01*
X0319058Y0212420D01*
X0319872Y0212757D01*
X0321419Y0214305D01*
X0322257Y0216326D01*
X0322257Y0218514D01*
X0321419Y0220536D01*
X0319872Y0222083D01*
X0319058Y0222420D01*
X0319872Y0222757D01*
X0321419Y0224305D01*
X0322257Y0226326D01*
X0322257Y0228514D01*
X0321419Y0230536D01*
X0319872Y0232083D01*
X0317851Y0232920D01*
X0315663Y0232920D01*
X0313641Y0232083D01*
X0312094Y0230536D01*
X0311757Y0229721D01*
X0311419Y0230536D01*
X0309872Y0232083D01*
X0307851Y0232920D01*
X0305663Y0232920D01*
X0303641Y0232083D01*
X0302094Y0230536D01*
X0301257Y0228514D01*
X0301257Y0226326D01*
X0302094Y0224305D01*
X0303641Y0222757D01*
X0304456Y0222420D01*
X0303641Y0222083D01*
X0302094Y0220536D01*
X0301257Y0218514D01*
X0301257Y0216326D01*
X0302094Y0214305D01*
X0303641Y0212757D01*
X0304456Y0212420D01*
X0303641Y0212083D01*
X0302094Y0210536D01*
X0301257Y0208514D01*
X0301257Y0206326D01*
X0302094Y0204305D01*
X0303641Y0202757D01*
X0304456Y0202420D01*
X0303641Y0202083D01*
X0302094Y0200536D01*
X0301257Y0198514D01*
X0301257Y0196326D01*
X0302094Y0194305D01*
X0303641Y0192757D01*
X0304455Y0192420D01*
X0303874Y0192124D01*
X0303174Y0191615D01*
X0302562Y0191003D01*
X0302053Y0190303D01*
X0301660Y0189531D01*
X0301392Y0188708D01*
X0301257Y0187853D01*
X0301257Y0187575D01*
X0306602Y0187575D01*
X0306602Y0187265D01*
X0301257Y0187265D01*
X0301257Y0186987D01*
X0301392Y0186132D01*
X0301660Y0185309D01*
X0302053Y0184537D01*
X0302562Y0183837D01*
X0303174Y0183225D01*
X0303874Y0182716D01*
X0304455Y0182420D01*
X0303641Y0182083D01*
X0302094Y0180536D01*
X0301257Y0178514D01*
X0301257Y0176326D01*
X0302094Y0174305D01*
X0303641Y0172757D01*
X0304456Y0172420D01*
X0303641Y0172083D01*
X0302094Y0170536D01*
X0301257Y0168514D01*
X0301257Y0166326D01*
X0302094Y0164305D01*
X0303641Y0162757D01*
X0304456Y0162420D01*
X0303641Y0162083D01*
X0302094Y0160536D01*
X0301257Y0158514D01*
X0301257Y0156326D01*
X0302094Y0154305D01*
X0303641Y0152757D01*
X0304456Y0152420D01*
X0303641Y0152083D01*
X0302094Y0150536D01*
X0301257Y0148514D01*
X0301257Y0146326D01*
X0302094Y0144305D01*
X0303641Y0142757D01*
X0304456Y0142420D01*
X0303641Y0142083D01*
X0302094Y0140536D01*
X0301257Y0138514D01*
X0301257Y0136326D01*
X0302094Y0134305D01*
X0303641Y0132757D01*
X0304456Y0132420D01*
X0303641Y0132083D01*
X0302094Y0130536D01*
X0301257Y0128514D01*
X0301257Y0126326D01*
X0302094Y0124305D01*
X0303641Y0122757D01*
X0304456Y0122420D01*
X0303641Y0122083D01*
X0302094Y0120536D01*
X0301257Y0118514D01*
X0301257Y0116326D01*
X0302094Y0114305D01*
X0303641Y0112757D01*
X0304455Y0112420D01*
X0303874Y0112124D01*
X0303174Y0111615D01*
X0302562Y0111003D01*
X0302053Y0110303D01*
X0301660Y0109531D01*
X0301392Y0108708D01*
X0301257Y0107853D01*
X0301257Y0107575D01*
X0306602Y0107575D01*
X0306602Y0107265D01*
X0301257Y0107265D01*
X0301257Y0106987D01*
X0301392Y0106132D01*
X0301660Y0105309D01*
X0301317Y0106605D02*
X0212225Y0106605D01*
X0212225Y0105006D02*
X0224388Y0105006D01*
X0223120Y0103408D02*
X0212480Y0103408D01*
X0212480Y0101809D02*
X0223120Y0101809D01*
X0223120Y0100211D02*
X0212480Y0100211D01*
X0211231Y0098612D02*
X0224369Y0098612D01*
X0224623Y0097014D02*
X0198549Y0097014D01*
X0199110Y0098612D02*
X0204369Y0098612D01*
X0203120Y0100211D02*
X0199110Y0100211D01*
X0198456Y0101809D02*
X0203120Y0101809D01*
X0203120Y0103408D02*
X0196743Y0103408D01*
X0196293Y0105006D02*
X0204388Y0105006D01*
X0204625Y0106605D02*
X0198353Y0106605D01*
X0198397Y0106649D02*
X0199110Y0108369D01*
X0199110Y0110231D01*
X0198397Y0111951D01*
X0197081Y0113267D01*
X0195361Y0113980D01*
X0187739Y0113980D01*
X0186019Y0113267D01*
X0184702Y0111951D01*
X0183990Y0110231D01*
X0183990Y0108369D01*
X0184702Y0106649D01*
X0186019Y0105332D01*
X0187739Y0104620D01*
X0195361Y0104620D01*
X0197081Y0105332D01*
X0198397Y0106649D01*
X0199041Y0108203D02*
X0204625Y0108203D01*
X0204625Y0109802D02*
X0199110Y0109802D01*
X0198626Y0111400D02*
X0205182Y0111400D01*
X0206750Y0112999D02*
X0197350Y0112999D01*
X0208348Y0114597D02*
X0179775Y0114597D01*
X0179775Y0112999D02*
X0185750Y0112999D01*
X0184474Y0111400D02*
X0179775Y0111400D01*
X0179775Y0109802D02*
X0183990Y0109802D01*
X0184059Y0108203D02*
X0179775Y0108203D01*
X0179775Y0106605D02*
X0184747Y0106605D01*
X0186807Y0105006D02*
X0179775Y0105006D01*
X0179775Y0103408D02*
X0186357Y0103408D01*
X0184644Y0101809D02*
X0179775Y0101809D01*
X0179775Y0100211D02*
X0183990Y0100211D01*
X0183990Y0098612D02*
X0179775Y0098612D01*
X0179775Y0097014D02*
X0184551Y0097014D01*
X0184151Y0090620D02*
X0168949Y0090620D01*
X0169110Y0089021D02*
X0183990Y0089021D01*
X0184382Y0087423D02*
X0168718Y0087423D01*
X0167573Y0085824D02*
X0185527Y0085824D01*
X0186019Y0083267D02*
X0184702Y0081951D01*
X0183990Y0080231D01*
X0183990Y0078369D01*
X0184702Y0076649D01*
X0186019Y0075332D01*
X0187739Y0074620D01*
X0195361Y0074620D01*
X0197081Y0075332D01*
X0198397Y0076649D01*
X0199110Y0078369D01*
X0199110Y0080231D01*
X0198397Y0081951D01*
X0197081Y0083267D01*
X0195361Y0083980D01*
X0187739Y0083980D01*
X0186019Y0083267D01*
X0185379Y0082627D02*
X0167721Y0082627D01*
X0168780Y0081029D02*
X0184320Y0081029D01*
X0183990Y0079430D02*
X0169110Y0079430D01*
X0168887Y0077832D02*
X0184213Y0077832D01*
X0185118Y0076233D02*
X0167982Y0076233D01*
X0165396Y0074634D02*
X0187704Y0074634D01*
X0187739Y0073980D02*
X0186019Y0073267D01*
X0184702Y0071951D01*
X0183990Y0070231D01*
X0183990Y0068369D01*
X0184702Y0066649D01*
X0186019Y0065332D01*
X0187739Y0064620D01*
X0195361Y0064620D01*
X0197081Y0065332D01*
X0198397Y0066649D01*
X0199110Y0068369D01*
X0199110Y0070231D01*
X0198397Y0071951D01*
X0197081Y0073267D01*
X0195361Y0073980D01*
X0187739Y0073980D01*
X0185787Y0073036D02*
X0167313Y0073036D01*
X0168610Y0071437D02*
X0184490Y0071437D01*
X0183990Y0069839D02*
X0169110Y0069839D01*
X0169057Y0068240D02*
X0184043Y0068240D01*
X0184710Y0066642D02*
X0168390Y0066642D01*
X0166383Y0065043D02*
X0186717Y0065043D01*
X0187739Y0063980D02*
X0186019Y0063267D01*
X0184702Y0061951D01*
X0183990Y0060231D01*
X0183990Y0058369D01*
X0184702Y0056649D01*
X0186019Y0055332D01*
X0187739Y0054620D01*
X0195361Y0054620D01*
X0197081Y0055332D01*
X0198397Y0056649D01*
X0199110Y0058369D01*
X0199110Y0060231D01*
X0198397Y0061951D01*
X0197081Y0063267D01*
X0195361Y0063980D01*
X0187739Y0063980D01*
X0186447Y0063445D02*
X0166653Y0063445D01*
X0167081Y0063267D02*
X0165361Y0063980D01*
X0157739Y0063980D01*
X0156019Y0063267D01*
X0154702Y0061951D01*
X0153990Y0060231D01*
X0153990Y0058369D01*
X0154702Y0056649D01*
X0156019Y0055332D01*
X0157739Y0054620D01*
X0165361Y0054620D01*
X0167081Y0055332D01*
X0168397Y0056649D01*
X0169110Y0058369D01*
X0169110Y0060231D01*
X0168397Y0061951D01*
X0167081Y0063267D01*
X0168441Y0061846D02*
X0184659Y0061846D01*
X0183997Y0060248D02*
X0169103Y0060248D01*
X0169110Y0058649D02*
X0183990Y0058649D01*
X0184536Y0057051D02*
X0168564Y0057051D01*
X0167201Y0055452D02*
X0185899Y0055452D01*
X0186019Y0053267D02*
X0184702Y0051951D01*
X0183990Y0050231D01*
X0183990Y0048369D01*
X0184702Y0046649D01*
X0186019Y0045332D01*
X0187739Y0044620D01*
X0195361Y0044620D01*
X0197081Y0045332D01*
X0198397Y0046649D01*
X0199110Y0048369D01*
X0199110Y0050231D01*
X0198397Y0051951D01*
X0197081Y0053267D01*
X0195361Y0053980D01*
X0187739Y0053980D01*
X0186019Y0053267D01*
X0185007Y0052255D02*
X0168093Y0052255D01*
X0168934Y0050657D02*
X0184166Y0050657D01*
X0183990Y0049058D02*
X0169110Y0049058D01*
X0168733Y0047460D02*
X0184367Y0047460D01*
X0185490Y0045861D02*
X0167610Y0045861D01*
X0167684Y0042664D02*
X0185416Y0042664D01*
X0186019Y0043267D02*
X0184702Y0041951D01*
X0183990Y0040231D01*
X0183990Y0038369D01*
X0184702Y0036649D01*
X0186019Y0035332D01*
X0187739Y0034620D01*
X0195361Y0034620D01*
X0197081Y0035332D01*
X0198397Y0036649D01*
X0199110Y0038369D01*
X0199110Y0040231D01*
X0198397Y0041951D01*
X0197081Y0043267D01*
X0195361Y0043980D01*
X0187739Y0043980D01*
X0186019Y0043267D01*
X0184336Y0041066D02*
X0168764Y0041066D01*
X0169110Y0039467D02*
X0183990Y0039467D01*
X0184197Y0037869D02*
X0168903Y0037869D01*
X0168019Y0036270D02*
X0185081Y0036270D01*
X0187614Y0034672D02*
X0165486Y0034672D01*
X0167275Y0033073D02*
X0185825Y0033073D01*
X0186019Y0033267D02*
X0184702Y0031951D01*
X0183990Y0030231D01*
X0183990Y0028369D01*
X0184702Y0026649D01*
X0186019Y0025332D01*
X0187739Y0024620D01*
X0195361Y0024620D01*
X0197081Y0025332D01*
X0198397Y0026649D01*
X0199110Y0028369D01*
X0199110Y0030231D01*
X0198397Y0031951D01*
X0197081Y0033267D01*
X0195361Y0033980D01*
X0187739Y0033980D01*
X0186019Y0033267D01*
X0184505Y0031475D02*
X0168595Y0031475D01*
X0169110Y0029876D02*
X0183990Y0029876D01*
X0184028Y0028278D02*
X0169072Y0028278D01*
X0168410Y0026679D02*
X0184690Y0026679D01*
X0186627Y0025081D02*
X0166473Y0025081D01*
X0166226Y0023637D02*
X0165526Y0023865D01*
X0164798Y0023980D01*
X0161550Y0023980D01*
X0161550Y0019300D01*
X0161550Y0019300D01*
X0169110Y0019300D01*
X0169110Y0019668D01*
X0168995Y0020396D01*
X0168767Y0021096D01*
X0168433Y0021753D01*
X0168000Y0022349D01*
X0167479Y0022870D01*
X0166883Y0023303D01*
X0166226Y0023637D01*
X0166531Y0023482D02*
X0186537Y0023482D01*
X0186019Y0023267D02*
X0184702Y0021951D01*
X0183990Y0020231D01*
X0183990Y0018369D01*
X0184702Y0016649D01*
X0186019Y0015332D01*
X0187739Y0014620D01*
X0195361Y0014620D01*
X0197081Y0015332D01*
X0198397Y0016649D01*
X0199110Y0018369D01*
X0199110Y0020231D01*
X0198397Y0021951D01*
X0197081Y0023267D01*
X0195361Y0023980D01*
X0187739Y0023980D01*
X0186019Y0023267D01*
X0184675Y0021884D02*
X0168338Y0021884D01*
X0169012Y0020285D02*
X0184012Y0020285D01*
X0183990Y0018687D02*
X0169071Y0018687D01*
X0169110Y0018932D02*
X0168995Y0018204D01*
X0168767Y0017503D01*
X0168433Y0016847D01*
X0168000Y0016251D01*
X0167479Y0015730D01*
X0166883Y0015297D01*
X0166226Y0014963D01*
X0165526Y0014735D01*
X0164798Y0014620D01*
X0161550Y0014620D01*
X0161550Y0019300D01*
X0161550Y0019300D01*
X0161550Y0019300D01*
X0161550Y0019300D01*
X0153990Y0019300D01*
X0153990Y0019668D01*
X0154105Y0020396D01*
X0154333Y0021096D01*
X0154667Y0021753D01*
X0155100Y0022349D01*
X0155621Y0022870D01*
X0156217Y0023303D01*
X0156873Y0023637D01*
X0157574Y0023865D01*
X0158302Y0023980D01*
X0161550Y0023980D01*
X0161550Y0019300D01*
X0169110Y0019300D01*
X0169110Y0018932D01*
X0168555Y0017088D02*
X0184521Y0017088D01*
X0185862Y0015490D02*
X0167147Y0015490D01*
X0161550Y0015490D02*
X0161550Y0015490D01*
X0161550Y0014620D02*
X0161550Y0019300D01*
X0153990Y0019300D01*
X0153990Y0018932D01*
X0154105Y0018204D01*
X0154333Y0017503D01*
X0154667Y0016847D01*
X0155100Y0016251D01*
X0155621Y0015730D01*
X0156217Y0015297D01*
X0156873Y0014963D01*
X0157574Y0014735D01*
X0158302Y0014620D01*
X0161550Y0014620D01*
X0161550Y0017088D02*
X0161550Y0017088D01*
X0161550Y0018687D02*
X0161550Y0018687D01*
X0161550Y0020285D02*
X0161550Y0020285D01*
X0161550Y0021884D02*
X0161550Y0021884D01*
X0161550Y0023482D02*
X0161550Y0023482D01*
X0156569Y0023482D02*
X0123809Y0023482D01*
X0125145Y0021884D02*
X0154762Y0021884D01*
X0154088Y0020285D02*
X0125807Y0020285D01*
X0126057Y0018687D02*
X0154029Y0018687D01*
X0154545Y0017088D02*
X0126057Y0017088D01*
X0125509Y0015490D02*
X0155953Y0015490D01*
X0161550Y0029300D02*
X0138425Y0029300D01*
X0102175Y0065550D01*
X0102175Y0100550D01*
X0111550Y0109925D01*
X0117800Y0109925D01*
X0114836Y0114597D02*
X0093860Y0114597D01*
X0093860Y0113994D02*
X0093860Y0115856D01*
X0093147Y0117576D01*
X0091831Y0118892D01*
X0091149Y0119175D01*
X0091831Y0119457D01*
X0093147Y0120774D01*
X0093860Y0122494D01*
X0093860Y0124356D01*
X0093147Y0126076D01*
X0091831Y0127392D01*
X0091149Y0127675D01*
X0091831Y0127957D01*
X0093147Y0129274D01*
X0093860Y0130994D01*
X0093860Y0132856D01*
X0093147Y0134576D01*
X0091831Y0135892D01*
X0091149Y0136175D01*
X0091831Y0136457D01*
X0093147Y0137774D01*
X0093860Y0139494D01*
X0093860Y0141356D01*
X0093147Y0143076D01*
X0091831Y0144392D01*
X0091149Y0144675D01*
X0091831Y0144957D01*
X0093147Y0146274D01*
X0093860Y0147994D01*
X0093860Y0149856D01*
X0093147Y0151576D01*
X0091831Y0152892D01*
X0091149Y0153175D01*
X0091831Y0153457D01*
X0093147Y0154774D01*
X0093860Y0156494D01*
X0093860Y0158356D01*
X0093147Y0160076D01*
X0091831Y0161392D01*
X0091149Y0161675D01*
X0091831Y0161957D01*
X0093147Y0163274D01*
X0093860Y0164994D01*
X0093860Y0166856D01*
X0093147Y0168576D01*
X0091831Y0169892D01*
X0091149Y0170175D01*
X0091831Y0170457D01*
X0093147Y0171774D01*
X0093860Y0173494D01*
X0093860Y0175356D01*
X0093147Y0177076D01*
X0091831Y0178392D01*
X0091148Y0178675D01*
X0091633Y0178922D01*
X0092229Y0179355D01*
X0092750Y0179876D01*
X0093183Y0180472D01*
X0093517Y0181128D01*
X0093745Y0181829D01*
X0093860Y0182557D01*
X0093860Y0182925D01*
X0093860Y0183293D01*
X0093745Y0184021D01*
X0093517Y0184721D01*
X0093183Y0185378D01*
X0092750Y0185974D01*
X0092229Y0186495D01*
X0091633Y0186928D01*
X0090976Y0187262D01*
X0090276Y0187490D01*
X0089548Y0187605D01*
X0086300Y0187605D01*
X0086300Y0182925D01*
X0086300Y0182925D01*
X0093860Y0182925D01*
X0086300Y0182925D01*
X0086300Y0182925D01*
X0086300Y0187605D01*
X0083052Y0187605D01*
X0082324Y0187490D01*
X0081623Y0187262D01*
X0080967Y0186928D01*
X0080371Y0186495D01*
X0079850Y0185974D01*
X0079417Y0185378D01*
X0079083Y0184721D01*
X0078855Y0184021D01*
X0078740Y0183293D01*
X0078740Y0182925D01*
X0086300Y0182925D01*
X0086300Y0182925D01*
X0078740Y0182925D01*
X0078740Y0182557D01*
X0078855Y0181829D01*
X0079083Y0181128D01*
X0079417Y0180472D01*
X0079850Y0179876D01*
X0080371Y0179355D01*
X0080967Y0178922D01*
X0081452Y0178675D01*
X0080769Y0178392D01*
X0079452Y0177076D01*
X0078740Y0175356D01*
X0078740Y0173494D01*
X0079452Y0171774D01*
X0080769Y0170457D01*
X0081451Y0170175D01*
X0080769Y0169892D01*
X0079452Y0168576D01*
X0078740Y0166856D01*
X0078740Y0164994D01*
X0079452Y0163274D01*
X0080769Y0161957D01*
X0081451Y0161675D01*
X0080769Y0161392D01*
X0079452Y0160076D01*
X0078740Y0158356D01*
X0078740Y0156494D01*
X0079452Y0154774D01*
X0080769Y0153457D01*
X0081451Y0153175D01*
X0080769Y0152892D01*
X0079452Y0151576D01*
X0078740Y0149856D01*
X0078740Y0147994D01*
X0079452Y0146274D01*
X0080769Y0144957D01*
X0081451Y0144675D01*
X0080769Y0144392D01*
X0079452Y0143076D01*
X0078740Y0141356D01*
X0078740Y0139494D01*
X0079452Y0137774D01*
X0080769Y0136457D01*
X0081451Y0136175D01*
X0080769Y0135892D01*
X0079452Y0134576D01*
X0078740Y0132856D01*
X0078740Y0130994D01*
X0079452Y0129274D01*
X0080769Y0127957D01*
X0081451Y0127675D01*
X0080769Y0127392D01*
X0079452Y0126076D01*
X0078740Y0124356D01*
X0078740Y0122494D01*
X0079452Y0120774D01*
X0080769Y0119457D01*
X0081451Y0119175D01*
X0080769Y0118892D01*
X0079452Y0117576D01*
X0078740Y0115856D01*
X0078740Y0113994D01*
X0079452Y0112274D01*
X0080769Y0110957D01*
X0081451Y0110675D01*
X0080769Y0110392D01*
X0079452Y0109076D01*
X0078740Y0107356D01*
X0078740Y0105494D01*
X0079452Y0103774D01*
X0080769Y0102457D01*
X0081451Y0102175D01*
X0080769Y0101892D01*
X0079452Y0100576D01*
X0078740Y0098856D01*
X0078740Y0096994D01*
X0079452Y0095274D01*
X0080769Y0093957D01*
X0081451Y0093675D01*
X0080769Y0093392D01*
X0079452Y0092076D01*
X0078740Y0090356D01*
X0078740Y0088494D01*
X0079452Y0086774D01*
X0080769Y0085457D01*
X0082489Y0084745D01*
X0090111Y0084745D01*
X0091831Y0085457D01*
X0093147Y0086774D01*
X0093860Y0088494D01*
X0093860Y0090356D01*
X0093147Y0092076D01*
X0091831Y0093392D01*
X0091149Y0093675D01*
X0091831Y0093957D01*
X0093147Y0095274D01*
X0093860Y0096994D01*
X0093860Y0098856D01*
X0093147Y0100576D01*
X0091831Y0101892D01*
X0091149Y0102175D01*
X0091831Y0102457D01*
X0093147Y0103774D01*
X0093860Y0105494D01*
X0093860Y0107356D01*
X0093147Y0109076D01*
X0091831Y0110392D01*
X0091149Y0110675D01*
X0091831Y0110957D01*
X0093147Y0112274D01*
X0093860Y0113994D01*
X0093448Y0112999D02*
X0113237Y0112999D01*
X0113892Y0116196D02*
X0093719Y0116196D01*
X0092929Y0117794D02*
X0112400Y0117794D01*
X0110905Y0119393D02*
X0091675Y0119393D01*
X0093238Y0120991D02*
X0109307Y0120991D01*
X0107708Y0122590D02*
X0093860Y0122590D01*
X0093860Y0124188D02*
X0106541Y0124188D01*
X0106450Y0125787D02*
X0093267Y0125787D01*
X0091838Y0127385D02*
X0106450Y0127385D01*
X0106450Y0128984D02*
X0092857Y0128984D01*
X0093689Y0130582D02*
X0106450Y0130582D01*
X0106450Y0132181D02*
X0093860Y0132181D01*
X0093477Y0133779D02*
X0106450Y0133779D01*
X0106450Y0135378D02*
X0092346Y0135378D01*
X0092350Y0136976D02*
X0106450Y0136976D01*
X0106450Y0138575D02*
X0093479Y0138575D01*
X0093860Y0140173D02*
X0106450Y0140173D01*
X0106450Y0141772D02*
X0093688Y0141772D01*
X0092853Y0143370D02*
X0106450Y0143370D01*
X0106450Y0144969D02*
X0091842Y0144969D01*
X0093269Y0146568D02*
X0106450Y0146568D01*
X0106450Y0148166D02*
X0093860Y0148166D01*
X0093860Y0149765D02*
X0106450Y0149765D01*
X0106450Y0151363D02*
X0093236Y0151363D01*
X0091664Y0152962D02*
X0106450Y0152962D01*
X0106450Y0154560D02*
X0092934Y0154560D01*
X0093721Y0156159D02*
X0106450Y0156159D01*
X0106450Y0157757D02*
X0093860Y0157757D01*
X0093446Y0159356D02*
X0106450Y0159356D01*
X0106450Y0160954D02*
X0092269Y0160954D01*
X0092426Y0162553D02*
X0106450Y0162553D01*
X0106450Y0164151D02*
X0093511Y0164151D01*
X0093860Y0165750D02*
X0106450Y0165750D01*
X0106450Y0167348D02*
X0093656Y0167348D01*
X0092777Y0168947D02*
X0106450Y0168947D01*
X0106450Y0170545D02*
X0091919Y0170545D01*
X0093301Y0172144D02*
X0106450Y0172144D01*
X0106450Y0173742D02*
X0093860Y0173742D01*
X0093860Y0175341D02*
X0106450Y0175341D01*
X0106450Y0176939D02*
X0093204Y0176939D01*
X0091480Y0178538D02*
X0106450Y0178538D01*
X0106450Y0180136D02*
X0092939Y0180136D01*
X0093714Y0181735D02*
X0106450Y0181735D01*
X0106450Y0183333D02*
X0093854Y0183333D01*
X0093410Y0184932D02*
X0106450Y0184932D01*
X0106450Y0186530D02*
X0092180Y0186530D01*
X0086300Y0186530D02*
X0086300Y0186530D01*
X0086300Y0184932D02*
X0086300Y0184932D01*
X0086300Y0183333D02*
X0086300Y0183333D01*
X0080420Y0186530D02*
X0075180Y0186530D01*
X0076410Y0184932D02*
X0079190Y0184932D01*
X0078746Y0183333D02*
X0076854Y0183333D01*
X0076714Y0181735D02*
X0078886Y0181735D01*
X0079661Y0180136D02*
X0075939Y0180136D01*
X0074417Y0178538D02*
X0081120Y0178538D01*
X0079396Y0176939D02*
X0076138Y0176939D01*
X0076773Y0175341D02*
X0078740Y0175341D01*
X0078740Y0173742D02*
X0076810Y0173742D01*
X0076270Y0172144D02*
X0079299Y0172144D01*
X0080681Y0170545D02*
X0074802Y0170545D01*
X0075769Y0168947D02*
X0079823Y0168947D01*
X0078944Y0167348D02*
X0076638Y0167348D01*
X0076860Y0165750D02*
X0078740Y0165750D01*
X0079089Y0164151D02*
X0076524Y0164151D01*
X0075426Y0162553D02*
X0080174Y0162553D01*
X0080331Y0160954D02*
X0075269Y0160954D01*
X0076449Y0159356D02*
X0079154Y0159356D01*
X0078740Y0157757D02*
X0076860Y0157757D01*
X0076689Y0156159D02*
X0078879Y0156159D01*
X0079666Y0154560D02*
X0075883Y0154560D01*
X0074566Y0152962D02*
X0080936Y0152962D01*
X0079364Y0151363D02*
X0076190Y0151363D01*
X0076785Y0149765D02*
X0078740Y0149765D01*
X0078740Y0148166D02*
X0076798Y0148166D01*
X0076231Y0146568D02*
X0079331Y0146568D01*
X0080757Y0144969D02*
X0074697Y0144969D01*
X0075825Y0143370D02*
X0079747Y0143370D01*
X0078912Y0141772D02*
X0076663Y0141772D01*
X0076860Y0140173D02*
X0078740Y0140173D01*
X0079121Y0138575D02*
X0076490Y0138575D01*
X0075350Y0136976D02*
X0080250Y0136976D01*
X0080254Y0135378D02*
X0075346Y0135378D01*
X0076488Y0133779D02*
X0079123Y0133779D01*
X0078740Y0132181D02*
X0076860Y0132181D01*
X0076665Y0130582D02*
X0078911Y0130582D01*
X0079743Y0128984D02*
X0075828Y0128984D01*
X0074838Y0127385D02*
X0080762Y0127385D01*
X0079333Y0125787D02*
X0076267Y0125787D01*
X0076860Y0124188D02*
X0078740Y0124188D01*
X0078740Y0122590D02*
X0076860Y0122590D01*
X0076238Y0120991D02*
X0079362Y0120991D01*
X0080925Y0119393D02*
X0074675Y0119393D01*
X0075929Y0117794D02*
X0079671Y0117794D01*
X0078881Y0116196D02*
X0076719Y0116196D01*
X0076860Y0114597D02*
X0078740Y0114597D01*
X0079152Y0112999D02*
X0076448Y0112999D01*
X0075274Y0111400D02*
X0080326Y0111400D01*
X0080178Y0109802D02*
X0075422Y0109802D01*
X0076509Y0108203D02*
X0079091Y0108203D01*
X0078740Y0106605D02*
X0076860Y0106605D01*
X0076658Y0105006D02*
X0078942Y0105006D01*
X0079819Y0103408D02*
X0075781Y0103408D01*
X0074914Y0101809D02*
X0080686Y0101809D01*
X0079301Y0100211D02*
X0076299Y0100211D01*
X0076860Y0098612D02*
X0078740Y0098612D01*
X0078740Y0097014D02*
X0076860Y0097014D01*
X0076206Y0095415D02*
X0079394Y0095415D01*
X0081109Y0093817D02*
X0074491Y0093817D01*
X0076005Y0092218D02*
X0079595Y0092218D01*
X0078849Y0090620D02*
X0076751Y0090620D01*
X0076860Y0089021D02*
X0078740Y0089021D01*
X0079184Y0087423D02*
X0076416Y0087423D01*
X0075198Y0085824D02*
X0080402Y0085824D01*
X0092198Y0085824D02*
X0099575Y0085824D01*
X0099575Y0087423D02*
X0093416Y0087423D01*
X0093860Y0089021D02*
X0099575Y0089021D01*
X0099575Y0090620D02*
X0093751Y0090620D01*
X0093005Y0092218D02*
X0099575Y0092218D01*
X0099575Y0093817D02*
X0091491Y0093817D01*
X0093206Y0095415D02*
X0099575Y0095415D01*
X0099575Y0097014D02*
X0093860Y0097014D01*
X0093860Y0098612D02*
X0099575Y0098612D01*
X0099575Y0100211D02*
X0093299Y0100211D01*
X0091914Y0101809D02*
X0099882Y0101809D01*
X0101356Y0103408D02*
X0092781Y0103408D01*
X0093658Y0105006D02*
X0102954Y0105006D01*
X0104553Y0106605D02*
X0093860Y0106605D01*
X0093509Y0108203D02*
X0106151Y0108203D01*
X0107750Y0109802D02*
X0092422Y0109802D01*
X0092274Y0111400D02*
X0109348Y0111400D01*
X0114050Y0119925D02*
X0109050Y0124925D01*
X0109050Y0213050D01*
X0114050Y0218050D01*
X0112422Y0220099D02*
X0088554Y0220099D01*
X0087117Y0218501D02*
X0110824Y0218501D01*
X0109225Y0216902D02*
X0085078Y0216902D01*
X0074055Y0215303D02*
X0035181Y0215303D01*
X0035181Y0216902D02*
X0070522Y0216902D01*
X0068483Y0218501D02*
X0035181Y0218501D01*
X0035181Y0220099D02*
X0067046Y0220099D01*
X0066008Y0221698D02*
X0035181Y0221698D01*
X0035181Y0223296D02*
X0065250Y0223296D01*
X0064718Y0224895D02*
X0035181Y0224895D01*
X0035181Y0226493D02*
X0064410Y0226493D01*
X0064374Y0229690D02*
X0035181Y0229690D01*
X0035181Y0228092D02*
X0077000Y0228092D01*
X0077000Y0229690D02*
X0078600Y0229690D01*
X0078600Y0231289D02*
X0077000Y0231289D01*
X0077000Y0232887D02*
X0078600Y0232887D01*
X0078600Y0234486D02*
X0077000Y0234486D01*
X0077000Y0236084D02*
X0078600Y0236084D01*
X0078600Y0237683D02*
X0077000Y0237683D01*
X0077000Y0239281D02*
X0078600Y0239281D01*
X0078600Y0240880D02*
X0077000Y0240880D01*
X0072953Y0240880D02*
X0035181Y0240880D01*
X0035181Y0242478D02*
X0112757Y0242478D01*
X0112728Y0242507D02*
X0114757Y0240478D01*
X0117408Y0239380D01*
X0120278Y0239380D01*
X0122929Y0240478D01*
X0124959Y0242507D01*
X0126057Y0245158D01*
X0126057Y0248028D01*
X0124959Y0250679D01*
X0122929Y0252709D01*
X0120278Y0253807D01*
X0117408Y0253807D01*
X0114757Y0252709D01*
X0112728Y0250679D01*
X0111630Y0248028D01*
X0111630Y0245158D01*
X0112728Y0242507D01*
X0112078Y0244077D02*
X0035181Y0244077D01*
X0035181Y0245675D02*
X0111630Y0245675D01*
X0111630Y0247274D02*
X0035181Y0247274D01*
X0035218Y0248872D02*
X0111980Y0248872D01*
X0112642Y0250471D02*
X0035477Y0250471D01*
X0035997Y0252069D02*
X0114118Y0252069D01*
X0117073Y0253668D02*
X0036845Y0253668D01*
X0038006Y0255266D02*
X0323637Y0255266D01*
X0324799Y0253668D02*
X0313527Y0253668D01*
X0313192Y0253807D02*
X0310322Y0253807D01*
X0307671Y0252709D01*
X0305641Y0250679D01*
X0304543Y0248028D01*
X0304543Y0245158D01*
X0305641Y0242507D01*
X0307671Y0240478D01*
X0310322Y0239380D01*
X0313192Y0239380D01*
X0315843Y0240478D01*
X0317872Y0242507D01*
X0318970Y0245158D01*
X0318970Y0248028D01*
X0317872Y0250679D01*
X0315843Y0252709D01*
X0313192Y0253807D01*
X0309986Y0253668D02*
X0290919Y0253668D01*
X0292070Y0252069D02*
X0307031Y0252069D01*
X0305555Y0250471D02*
X0292575Y0250471D01*
X0292575Y0248872D02*
X0304893Y0248872D01*
X0304543Y0247274D02*
X0292575Y0247274D01*
X0292575Y0245675D02*
X0304543Y0245675D01*
X0304991Y0244077D02*
X0292575Y0244077D01*
X0292575Y0242478D02*
X0305671Y0242478D01*
X0307269Y0240880D02*
X0292562Y0240880D01*
X0292575Y0239281D02*
X0326463Y0239281D01*
X0326463Y0237683D02*
X0292575Y0237683D01*
X0292575Y0236084D02*
X0326463Y0236084D01*
X0326463Y0234486D02*
X0292575Y0234486D01*
X0292575Y0232887D02*
X0305583Y0232887D01*
X0307930Y0232887D02*
X0315583Y0232887D01*
X0317930Y0232887D02*
X0326463Y0232887D01*
X0326463Y0231289D02*
X0320666Y0231289D01*
X0321770Y0229690D02*
X0326463Y0229690D01*
X0326463Y0228092D02*
X0322257Y0228092D01*
X0322257Y0226493D02*
X0326463Y0226493D01*
X0326463Y0224895D02*
X0321664Y0224895D01*
X0320411Y0223296D02*
X0326463Y0223296D01*
X0326463Y0221698D02*
X0320257Y0221698D01*
X0321600Y0220099D02*
X0326463Y0220099D01*
X0326463Y0218501D02*
X0322257Y0218501D01*
X0322257Y0216902D02*
X0326463Y0216902D01*
X0326463Y0215303D02*
X0321833Y0215303D01*
X0320820Y0213705D02*
X0326463Y0213705D01*
X0326463Y0212106D02*
X0319664Y0212106D01*
X0321312Y0210508D02*
X0326463Y0210508D01*
X0326463Y0208909D02*
X0322056Y0208909D01*
X0321985Y0205712D02*
X0326463Y0205712D01*
X0326463Y0204114D02*
X0321153Y0204114D01*
X0319245Y0202515D02*
X0326463Y0202515D01*
X0326463Y0200917D02*
X0321038Y0200917D01*
X0321924Y0199318D02*
X0326463Y0199318D01*
X0326463Y0197720D02*
X0322257Y0197720D01*
X0322172Y0196121D02*
X0326463Y0196121D01*
X0326463Y0194523D02*
X0321510Y0194523D01*
X0320039Y0192924D02*
X0326463Y0192924D01*
X0326463Y0191326D02*
X0320629Y0191326D01*
X0321754Y0189727D02*
X0326463Y0189727D01*
X0326463Y0188129D02*
X0322257Y0188129D01*
X0322257Y0186530D02*
X0326463Y0186530D01*
X0326463Y0184932D02*
X0321679Y0184932D01*
X0320448Y0183333D02*
X0326463Y0183333D01*
X0326463Y0181735D02*
X0320220Y0181735D01*
X0321585Y0180136D02*
X0326463Y0180136D01*
X0326463Y0178538D02*
X0322247Y0178538D01*
X0322257Y0176939D02*
X0326463Y0176939D01*
X0326463Y0175341D02*
X0321849Y0175341D01*
X0320857Y0173742D02*
X0326463Y0173742D01*
X0326463Y0172144D02*
X0319601Y0172144D01*
X0321285Y0170545D02*
X0326463Y0170545D01*
X0326463Y0168947D02*
X0322044Y0168947D01*
X0321997Y0165750D02*
X0326463Y0165750D01*
X0326463Y0167348D02*
X0316911Y0167348D01*
X0321180Y0164151D02*
X0326463Y0164151D01*
X0326463Y0162553D02*
X0319319Y0162553D01*
X0321001Y0160954D02*
X0326463Y0160954D01*
X0326463Y0159356D02*
X0321908Y0159356D01*
X0322257Y0157757D02*
X0326463Y0157757D01*
X0326463Y0156159D02*
X0322187Y0156159D01*
X0321525Y0154560D02*
X0326463Y0154560D01*
X0326463Y0152962D02*
X0320076Y0152962D01*
X0320592Y0151363D02*
X0326463Y0151363D01*
X0326463Y0149765D02*
X0321739Y0149765D01*
X0322257Y0148166D02*
X0326463Y0148166D01*
X0326463Y0146568D02*
X0322257Y0146568D01*
X0321695Y0144969D02*
X0326463Y0144969D01*
X0326463Y0143370D02*
X0320485Y0143370D01*
X0320124Y0141772D02*
X0326463Y0141772D01*
X0326463Y0140173D02*
X0321527Y0140173D01*
X0322142Y0138575D02*
X0326463Y0138575D01*
X0326463Y0136976D02*
X0322255Y0136976D01*
X0321876Y0135378D02*
X0326463Y0135378D01*
X0326463Y0133779D02*
X0320894Y0133779D01*
X0319635Y0132181D02*
X0326463Y0132181D01*
X0326463Y0130582D02*
X0321373Y0130582D01*
X0322062Y0128984D02*
X0326463Y0128984D01*
X0326463Y0127385D02*
X0322257Y0127385D01*
X0322033Y0125787D02*
X0326463Y0125787D01*
X0326463Y0124188D02*
X0321303Y0124188D01*
X0319468Y0122590D02*
X0326463Y0122590D01*
X0326463Y0120991D02*
X0320964Y0120991D01*
X0321893Y0119393D02*
X0326463Y0119393D01*
X0326463Y0117794D02*
X0322257Y0117794D01*
X0322203Y0116196D02*
X0326463Y0116196D01*
X0326463Y0114597D02*
X0321541Y0114597D01*
X0320114Y0112999D02*
X0326463Y0112999D01*
X0326463Y0111400D02*
X0320555Y0111400D01*
X0321723Y0109802D02*
X0326463Y0109802D01*
X0326463Y0108203D02*
X0322257Y0108203D01*
X0322257Y0106605D02*
X0326463Y0106605D01*
X0326463Y0105006D02*
X0321710Y0105006D01*
X0320522Y0103408D02*
X0326463Y0103408D01*
X0326463Y0101809D02*
X0320146Y0101809D01*
X0321554Y0100211D02*
X0326463Y0100211D01*
X0326463Y0098612D02*
X0322216Y0098612D01*
X0322257Y0097014D02*
X0326463Y0097014D01*
X0326463Y0095415D02*
X0321879Y0095415D01*
X0320931Y0093817D02*
X0326463Y0093817D01*
X0326463Y0092218D02*
X0319455Y0092218D01*
X0321230Y0090620D02*
X0326463Y0090620D01*
X0326463Y0089021D02*
X0322020Y0089021D01*
X0322021Y0085824D02*
X0326463Y0085824D01*
X0326463Y0084226D02*
X0321234Y0084226D01*
X0319465Y0082627D02*
X0326463Y0082627D01*
X0326463Y0081029D02*
X0320887Y0081029D01*
X0321861Y0079430D02*
X0326463Y0079430D01*
X0326463Y0077832D02*
X0322257Y0077832D01*
X0322234Y0076233D02*
X0326463Y0076233D01*
X0326463Y0074634D02*
X0321572Y0074634D01*
X0320190Y0073036D02*
X0326463Y0073036D01*
X0326463Y0071437D02*
X0320517Y0071437D01*
X0321697Y0069839D02*
X0326463Y0069839D01*
X0326463Y0068240D02*
X0322195Y0068240D01*
X0322202Y0066642D02*
X0326463Y0066642D01*
X0326463Y0065043D02*
X0321719Y0065043D01*
X0320560Y0063445D02*
X0326463Y0063445D01*
X0326463Y0061846D02*
X0320109Y0061846D01*
X0321539Y0060248D02*
X0326463Y0060248D01*
X0326463Y0058649D02*
X0322201Y0058649D01*
X0322257Y0057051D02*
X0326463Y0057051D01*
X0326463Y0055452D02*
X0321895Y0055452D01*
X0320969Y0053854D02*
X0326463Y0053854D01*
X0326463Y0052255D02*
X0319455Y0052255D01*
X0321298Y0050657D02*
X0326463Y0050657D01*
X0326463Y0049058D02*
X0322031Y0049058D01*
X0322257Y0047460D02*
X0326463Y0047460D01*
X0326463Y0045861D02*
X0322064Y0045861D01*
X0321378Y0044263D02*
X0326463Y0044263D01*
X0326463Y0042664D02*
X0319647Y0042664D01*
X0320889Y0041066D02*
X0326463Y0041066D01*
X0326463Y0039467D02*
X0321862Y0039467D01*
X0322257Y0037869D02*
X0326463Y0037869D01*
X0326463Y0036270D02*
X0322234Y0036270D01*
X0321571Y0034672D02*
X0326463Y0034672D01*
X0326463Y0033073D02*
X0320188Y0033073D01*
X0326463Y0031475D02*
X0270605Y0031475D01*
X0270605Y0033073D02*
X0303382Y0033073D01*
X0303174Y0033225D02*
X0303874Y0032716D01*
X0304645Y0032323D01*
X0305469Y0032056D01*
X0306324Y0031920D01*
X0306602Y0031920D01*
X0306602Y0037265D01*
X0301257Y0037265D01*
X0301257Y0036987D01*
X0301392Y0036132D01*
X0301660Y0035309D01*
X0302053Y0034537D01*
X0302562Y0033837D01*
X0303174Y0033225D01*
X0301984Y0034672D02*
X0269672Y0034672D01*
X0268793Y0035550D02*
X0270605Y0037361D01*
X0270605Y0041239D01*
X0268793Y0043050D01*
X0270605Y0044861D01*
X0270605Y0048739D01*
X0268793Y0050550D01*
X0270605Y0052361D01*
X0270605Y0056239D01*
X0268793Y0058050D01*
X0270605Y0059861D01*
X0270605Y0063739D01*
X0268793Y0065550D01*
X0270605Y0067361D01*
X0270605Y0071239D01*
X0268793Y0073050D01*
X0270605Y0074861D01*
X0270605Y0078739D01*
X0268793Y0080550D01*
X0270605Y0082361D01*
X0270605Y0086239D01*
X0268793Y0088050D01*
X0270605Y0089861D01*
X0270605Y0093739D01*
X0268793Y0095550D01*
X0270605Y0097361D01*
X0270605Y0101239D01*
X0267864Y0103980D01*
X0263986Y0103980D01*
X0261245Y0101239D01*
X0261245Y0097361D01*
X0263056Y0095550D01*
X0261245Y0093739D01*
X0261245Y0089861D01*
X0263056Y0088050D01*
X0261245Y0086239D01*
X0261245Y0082361D01*
X0263056Y0080550D01*
X0261245Y0078739D01*
X0261245Y0074861D01*
X0263056Y0073050D01*
X0261245Y0071239D01*
X0261245Y0067361D01*
X0263056Y0065550D01*
X0261245Y0063739D01*
X0261245Y0059861D01*
X0263056Y0058050D01*
X0261245Y0056239D01*
X0261245Y0052361D01*
X0263056Y0050550D01*
X0261245Y0048739D01*
X0261245Y0044861D01*
X0263056Y0043050D01*
X0261245Y0041239D01*
X0261245Y0037361D01*
X0263056Y0035550D01*
X0261245Y0033739D01*
X0261245Y0029861D01*
X0263986Y0027120D01*
X0267864Y0027120D01*
X0270605Y0029861D01*
X0270605Y0033739D01*
X0268793Y0035550D01*
X0269514Y0036270D02*
X0301370Y0036270D01*
X0301259Y0037869D02*
X0270605Y0037869D01*
X0270605Y0039467D02*
X0301639Y0039467D01*
X0302624Y0041066D02*
X0270605Y0041066D01*
X0269179Y0042664D02*
X0303866Y0042664D01*
X0302136Y0044263D02*
X0270006Y0044263D01*
X0270605Y0045861D02*
X0301449Y0045861D01*
X0301257Y0047460D02*
X0270605Y0047460D01*
X0270285Y0049058D02*
X0301482Y0049058D01*
X0302215Y0050657D02*
X0268900Y0050657D01*
X0270499Y0052255D02*
X0304058Y0052255D01*
X0302545Y0053854D02*
X0270605Y0053854D01*
X0270605Y0055452D02*
X0301619Y0055452D01*
X0301257Y0057051D02*
X0269793Y0057051D01*
X0269393Y0058649D02*
X0301313Y0058649D01*
X0301975Y0060248D02*
X0270605Y0060248D01*
X0270605Y0061846D02*
X0303405Y0061846D01*
X0302954Y0063445D02*
X0270605Y0063445D01*
X0269300Y0065043D02*
X0301788Y0065043D01*
X0301257Y0066642D02*
X0269885Y0066642D01*
X0270605Y0068240D02*
X0301257Y0068240D01*
X0301805Y0069839D02*
X0270605Y0069839D01*
X0270406Y0071437D02*
X0302996Y0071437D01*
X0303363Y0073036D02*
X0268808Y0073036D01*
X0270378Y0074634D02*
X0301957Y0074634D01*
X0301295Y0076233D02*
X0270605Y0076233D01*
X0270605Y0077832D02*
X0301257Y0077832D01*
X0301636Y0079430D02*
X0269913Y0079430D01*
X0269272Y0081029D02*
X0302587Y0081029D01*
X0303956Y0082627D02*
X0270605Y0082627D01*
X0270605Y0084226D02*
X0302173Y0084226D01*
X0301465Y0085824D02*
X0270605Y0085824D01*
X0269421Y0087423D02*
X0301257Y0087423D01*
X0301467Y0089021D02*
X0269765Y0089021D01*
X0270605Y0090620D02*
X0302178Y0090620D01*
X0303968Y0092218D02*
X0270605Y0092218D01*
X0270527Y0093817D02*
X0302582Y0093817D01*
X0301634Y0095415D02*
X0268928Y0095415D01*
X0270257Y0097014D02*
X0301257Y0097014D01*
X0301297Y0098612D02*
X0270605Y0098612D01*
X0270605Y0100211D02*
X0301959Y0100211D01*
X0303368Y0101809D02*
X0270034Y0101809D01*
X0268436Y0103408D02*
X0302991Y0103408D01*
X0301312Y0108203D02*
X0212702Y0108203D01*
X0214301Y0109802D02*
X0301797Y0109802D01*
X0302959Y0111400D02*
X0215899Y0111400D01*
X0217498Y0112999D02*
X0303400Y0112999D01*
X0301973Y0114597D02*
X0219096Y0114597D01*
X0220695Y0116196D02*
X0301311Y0116196D01*
X0301257Y0117794D02*
X0222293Y0117794D01*
X0223892Y0119393D02*
X0301621Y0119393D01*
X0302550Y0120991D02*
X0225490Y0120991D01*
X0227089Y0122590D02*
X0304046Y0122590D01*
X0302210Y0124188D02*
X0228687Y0124188D01*
X0230286Y0125787D02*
X0301480Y0125787D01*
X0301257Y0127385D02*
X0231379Y0127385D01*
X0231600Y0128984D02*
X0301451Y0128984D01*
X0302141Y0130582D02*
X0231600Y0130582D01*
X0231600Y0132181D02*
X0303878Y0132181D01*
X0302619Y0133779D02*
X0231600Y0133779D01*
X0231600Y0135378D02*
X0301649Y0135378D01*
X0301257Y0136976D02*
X0231600Y0136976D01*
X0231600Y0138575D02*
X0233782Y0138575D01*
X0232183Y0140173D02*
X0231600Y0140173D01*
X0238068Y0138575D02*
X0263782Y0138575D01*
X0263986Y0138370D02*
X0267864Y0138370D01*
X0270605Y0141111D01*
X0270605Y0144989D01*
X0268793Y0146800D01*
X0270605Y0148611D01*
X0270605Y0152489D01*
X0268793Y0154300D01*
X0270605Y0156111D01*
X0270605Y0159989D01*
X0268793Y0161800D01*
X0270605Y0163611D01*
X0270605Y0167489D01*
X0268793Y0169300D01*
X0270605Y0171111D01*
X0270605Y0174989D01*
X0268793Y0176800D01*
X0270605Y0178611D01*
X0270605Y0182489D01*
X0268793Y0184300D01*
X0270605Y0186111D01*
X0270605Y0189989D01*
X0268793Y0191800D01*
X0270605Y0193611D01*
X0270605Y0197489D01*
X0268793Y0199300D01*
X0270605Y0201111D01*
X0270605Y0204989D01*
X0268793Y0206800D01*
X0270605Y0208611D01*
X0270605Y0212489D01*
X0267864Y0215230D01*
X0263986Y0215230D01*
X0261245Y0212489D01*
X0261245Y0208611D01*
X0263056Y0206800D01*
X0261245Y0204989D01*
X0261245Y0201111D01*
X0263056Y0199300D01*
X0261245Y0197489D01*
X0261245Y0193611D01*
X0263056Y0191800D01*
X0261245Y0189989D01*
X0261245Y0186111D01*
X0263056Y0184300D01*
X0261245Y0182489D01*
X0261245Y0178611D01*
X0263056Y0176800D01*
X0261245Y0174989D01*
X0261245Y0171111D01*
X0263056Y0169300D01*
X0261245Y0167489D01*
X0261245Y0163611D01*
X0263056Y0161800D01*
X0261245Y0159989D01*
X0261245Y0156111D01*
X0263056Y0154300D01*
X0261245Y0152489D01*
X0261245Y0148611D01*
X0263056Y0146800D01*
X0261245Y0144989D01*
X0261245Y0141111D01*
X0263986Y0138370D01*
X0262183Y0140173D02*
X0239667Y0140173D01*
X0240605Y0141772D02*
X0261245Y0141772D01*
X0261245Y0143370D02*
X0240605Y0143370D01*
X0240605Y0144969D02*
X0261245Y0144969D01*
X0262824Y0146568D02*
X0239026Y0146568D01*
X0240160Y0148166D02*
X0261690Y0148166D01*
X0261245Y0149765D02*
X0240605Y0149765D01*
X0240605Y0151363D02*
X0261245Y0151363D01*
X0261718Y0152962D02*
X0240132Y0152962D01*
X0239054Y0154560D02*
X0262796Y0154560D01*
X0261245Y0156159D02*
X0240605Y0156159D01*
X0240605Y0157757D02*
X0261245Y0157757D01*
X0261245Y0159356D02*
X0240605Y0159356D01*
X0239639Y0160954D02*
X0262211Y0160954D01*
X0262304Y0162553D02*
X0239546Y0162553D01*
X0240605Y0164151D02*
X0261245Y0164151D01*
X0261245Y0165750D02*
X0240605Y0165750D01*
X0240605Y0167348D02*
X0261245Y0167348D01*
X0262703Y0168947D02*
X0239147Y0168947D01*
X0240039Y0170545D02*
X0261811Y0170545D01*
X0261245Y0172144D02*
X0240605Y0172144D01*
X0240605Y0173742D02*
X0261245Y0173742D01*
X0261597Y0175341D02*
X0240253Y0175341D01*
X0238933Y0176939D02*
X0262917Y0176939D01*
X0261319Y0178538D02*
X0240531Y0178538D01*
X0240605Y0180136D02*
X0261245Y0180136D01*
X0261245Y0181735D02*
X0240605Y0181735D01*
X0239760Y0183333D02*
X0262090Y0183333D01*
X0262425Y0184932D02*
X0239425Y0184932D01*
X0240605Y0186530D02*
X0261245Y0186530D01*
X0261245Y0188129D02*
X0240605Y0188129D01*
X0240605Y0189727D02*
X0261245Y0189727D01*
X0262582Y0191326D02*
X0239268Y0191326D01*
X0239918Y0192924D02*
X0261932Y0192924D01*
X0261245Y0194523D02*
X0240605Y0194523D01*
X0240605Y0196121D02*
X0261245Y0196121D01*
X0261476Y0197720D02*
X0240374Y0197720D01*
X0238812Y0199318D02*
X0263038Y0199318D01*
X0261440Y0200917D02*
X0240410Y0200917D01*
X0240605Y0202515D02*
X0261245Y0202515D01*
X0261245Y0204114D02*
X0240605Y0204114D01*
X0239881Y0205712D02*
X0261969Y0205712D01*
X0262546Y0207311D02*
X0239304Y0207311D01*
X0240605Y0208909D02*
X0261245Y0208909D01*
X0261245Y0210508D02*
X0240605Y0210508D01*
X0240605Y0212106D02*
X0261245Y0212106D01*
X0262461Y0213705D02*
X0239389Y0213705D01*
X0232461Y0213705D02*
X0231600Y0213705D01*
X0231600Y0215303D02*
X0301680Y0215303D01*
X0301257Y0216902D02*
X0231600Y0216902D01*
X0231600Y0218501D02*
X0301257Y0218501D01*
X0301913Y0220099D02*
X0231600Y0220099D01*
X0224000Y0220099D02*
X0197397Y0220099D01*
X0197860Y0218501D02*
X0224000Y0218501D01*
X0224000Y0216902D02*
X0197770Y0216902D01*
X0204303Y0215303D02*
X0219925Y0215303D01*
X0223175Y0215303D02*
X0224000Y0215303D01*
X0221550Y0212425D02*
X0182800Y0213050D01*
X0170200Y0212106D02*
X0165616Y0212106D01*
X0167227Y0210508D02*
X0170200Y0210508D01*
X0170200Y0208909D02*
X0167860Y0208909D01*
X0167860Y0207311D02*
X0170200Y0207311D01*
X0170836Y0205712D02*
X0167277Y0205712D01*
X0165862Y0204114D02*
X0172434Y0204114D01*
X0174033Y0202515D02*
X0164629Y0202515D01*
X0166932Y0200917D02*
X0174575Y0200917D01*
X0174575Y0199318D02*
X0167720Y0199318D01*
X0167860Y0197720D02*
X0174575Y0197720D01*
X0174575Y0196121D02*
X0167447Y0196121D01*
X0166271Y0194523D02*
X0174575Y0194523D01*
X0174575Y0192924D02*
X0132437Y0192924D01*
X0133200Y0191326D02*
X0154077Y0191326D01*
X0156489Y0182730D02*
X0154769Y0182017D01*
X0153452Y0180701D01*
X0152740Y0178981D01*
X0152740Y0177119D01*
X0153452Y0175399D01*
X0154769Y0174082D01*
X0156489Y0173370D01*
X0164111Y0173370D01*
X0165831Y0174082D01*
X0167147Y0175399D01*
X0167860Y0177119D01*
X0167860Y0178981D01*
X0167147Y0180701D01*
X0165831Y0182017D01*
X0164111Y0182730D01*
X0156489Y0182730D01*
X0154486Y0181735D02*
X0134667Y0181735D01*
X0136266Y0180136D02*
X0153219Y0180136D01*
X0152740Y0178538D02*
X0137864Y0178538D01*
X0139463Y0176939D02*
X0152815Y0176939D01*
X0153511Y0175341D02*
X0144689Y0175341D01*
X0146410Y0173742D02*
X0155591Y0173742D01*
X0155074Y0172144D02*
X0148008Y0172144D01*
X0149607Y0170545D02*
X0153388Y0170545D01*
X0152740Y0168947D02*
X0150868Y0168947D01*
X0151025Y0167348D02*
X0152740Y0167348D01*
X0153307Y0165750D02*
X0151025Y0165750D01*
X0151025Y0164151D02*
X0154700Y0164151D01*
X0156061Y0162553D02*
X0151025Y0162553D01*
X0151025Y0160954D02*
X0153706Y0160954D01*
X0152895Y0159356D02*
X0151025Y0159356D01*
X0151025Y0157757D02*
X0152740Y0157757D01*
X0153138Y0156159D02*
X0151025Y0156159D01*
X0151025Y0154560D02*
X0154291Y0154560D01*
X0154115Y0151363D02*
X0152539Y0151363D01*
X0151025Y0152962D02*
X0167075Y0152962D01*
X0167075Y0154560D02*
X0166309Y0154560D01*
X0166485Y0151363D02*
X0167075Y0151363D01*
X0172275Y0151363D02*
X0174575Y0151363D01*
X0174575Y0149765D02*
X0172275Y0149765D01*
X0172275Y0148166D02*
X0174575Y0148166D01*
X0174575Y0146568D02*
X0172275Y0146568D01*
X0172275Y0144969D02*
X0174575Y0144969D01*
X0174575Y0143370D02*
X0172275Y0143370D01*
X0172275Y0141772D02*
X0174575Y0141772D01*
X0174575Y0140173D02*
X0172275Y0140173D01*
X0172275Y0138575D02*
X0174575Y0138575D01*
X0174575Y0136976D02*
X0172275Y0136976D01*
X0172275Y0135378D02*
X0174575Y0135378D01*
X0174575Y0133779D02*
X0172275Y0133779D01*
X0172275Y0132181D02*
X0174575Y0132181D01*
X0174575Y0130582D02*
X0172275Y0130582D01*
X0172275Y0128984D02*
X0174575Y0128984D01*
X0174575Y0127385D02*
X0172275Y0127385D01*
X0172275Y0125787D02*
X0174575Y0125787D01*
X0174575Y0124188D02*
X0171365Y0124188D01*
X0169767Y0122590D02*
X0174575Y0122590D01*
X0174575Y0120991D02*
X0168168Y0120991D01*
X0166570Y0119393D02*
X0174575Y0119393D01*
X0174575Y0117794D02*
X0164971Y0117794D01*
X0163425Y0119925D02*
X0127800Y0119925D01*
X0131708Y0116196D02*
X0174575Y0116196D01*
X0174575Y0114597D02*
X0130764Y0114597D01*
X0132363Y0112999D02*
X0155750Y0112999D01*
X0156019Y0113267D02*
X0154702Y0111951D01*
X0153990Y0110231D01*
X0153990Y0108369D01*
X0154702Y0106649D01*
X0156019Y0105332D01*
X0157739Y0104620D01*
X0165361Y0104620D01*
X0167081Y0105332D01*
X0168397Y0106649D01*
X0169110Y0108369D01*
X0169110Y0110231D01*
X0168397Y0111951D01*
X0167081Y0113267D01*
X0165361Y0113980D01*
X0157739Y0113980D01*
X0156019Y0113267D01*
X0154474Y0111400D02*
X0133200Y0111400D01*
X0133200Y0109802D02*
X0153990Y0109802D01*
X0154059Y0108203D02*
X0133200Y0108203D01*
X0132116Y0106605D02*
X0154747Y0106605D01*
X0156807Y0105006D02*
X0130518Y0105006D01*
X0131954Y0103408D02*
X0156357Y0103408D01*
X0154644Y0101809D02*
X0133200Y0101809D01*
X0133200Y0100211D02*
X0153159Y0100211D01*
X0151560Y0098612D02*
X0133200Y0098612D01*
X0132525Y0097014D02*
X0150825Y0097014D01*
X0150825Y0095415D02*
X0130927Y0095415D01*
X0131545Y0093817D02*
X0150825Y0093817D01*
X0150825Y0092218D02*
X0148897Y0092218D01*
X0149814Y0090620D02*
X0150825Y0090620D01*
X0150825Y0089021D02*
X0149727Y0089021D01*
X0148688Y0087423D02*
X0150825Y0087423D01*
X0150825Y0085824D02*
X0131336Y0085824D01*
X0131136Y0084226D02*
X0149674Y0084226D01*
X0148075Y0082627D02*
X0132735Y0082627D01*
X0127800Y0079925D02*
X0149050Y0079925D01*
X0153425Y0084300D01*
X0153425Y0096800D01*
X0155925Y0099300D01*
X0161550Y0099300D01*
X0164050Y0099300D01*
X0166743Y0103408D02*
X0174575Y0103408D01*
X0174575Y0105006D02*
X0166293Y0105006D01*
X0168353Y0106605D02*
X0174575Y0106605D01*
X0174575Y0108203D02*
X0169041Y0108203D01*
X0169110Y0109802D02*
X0174575Y0109802D01*
X0174575Y0111400D02*
X0168626Y0111400D01*
X0167350Y0112999D02*
X0174575Y0112999D01*
X0179775Y0116196D02*
X0209947Y0116196D01*
X0211545Y0117794D02*
X0179775Y0117794D01*
X0179775Y0119393D02*
X0213144Y0119393D01*
X0214742Y0120991D02*
X0179775Y0120991D01*
X0179775Y0122590D02*
X0216341Y0122590D01*
X0217939Y0124188D02*
X0195937Y0124188D01*
X0195831Y0124082D02*
X0197147Y0125399D01*
X0197860Y0127119D01*
X0197860Y0128981D01*
X0197147Y0130701D01*
X0195831Y0132017D01*
X0194111Y0132730D01*
X0186489Y0132730D01*
X0184769Y0132017D01*
X0183452Y0130701D01*
X0182740Y0128981D01*
X0182740Y0127119D01*
X0183452Y0125399D01*
X0184769Y0124082D01*
X0186489Y0123370D01*
X0194111Y0123370D01*
X0195831Y0124082D01*
X0197308Y0125787D02*
X0219538Y0125787D01*
X0221136Y0127385D02*
X0197860Y0127385D01*
X0197859Y0128984D02*
X0222735Y0128984D01*
X0224000Y0130582D02*
X0197197Y0130582D01*
X0195436Y0132181D02*
X0224000Y0132181D01*
X0224000Y0133779D02*
X0195099Y0133779D01*
X0195831Y0134082D02*
X0194111Y0133370D01*
X0186489Y0133370D01*
X0184769Y0134082D01*
X0183452Y0135399D01*
X0182740Y0137119D01*
X0182740Y0138981D01*
X0183452Y0140701D01*
X0184769Y0142017D01*
X0186489Y0142730D01*
X0194111Y0142730D01*
X0195831Y0142017D01*
X0197147Y0140701D01*
X0197860Y0138981D01*
X0197860Y0137119D01*
X0197147Y0135399D01*
X0195831Y0134082D01*
X0197126Y0135378D02*
X0224000Y0135378D01*
X0224000Y0136976D02*
X0197801Y0136976D01*
X0197860Y0138575D02*
X0224000Y0138575D01*
X0224000Y0140173D02*
X0197366Y0140173D01*
X0196077Y0141772D02*
X0224000Y0141772D01*
X0224000Y0143370D02*
X0194112Y0143370D01*
X0194111Y0143370D02*
X0195831Y0144082D01*
X0197147Y0145399D01*
X0197860Y0147119D01*
X0197860Y0148981D01*
X0197147Y0150701D01*
X0195831Y0152017D01*
X0194111Y0152730D01*
X0186489Y0152730D01*
X0184769Y0152017D01*
X0183452Y0150701D01*
X0182740Y0148981D01*
X0182740Y0147119D01*
X0183452Y0145399D01*
X0184769Y0144082D01*
X0186489Y0143370D01*
X0194111Y0143370D01*
X0196717Y0144969D02*
X0224000Y0144969D01*
X0224000Y0146568D02*
X0197631Y0146568D01*
X0197860Y0148166D02*
X0224000Y0148166D01*
X0224000Y0149765D02*
X0197535Y0149765D01*
X0196485Y0151363D02*
X0224000Y0151363D01*
X0186488Y0143370D02*
X0179775Y0143370D01*
X0179775Y0141772D02*
X0184523Y0141772D01*
X0183234Y0140173D02*
X0179775Y0140173D01*
X0179775Y0138575D02*
X0182740Y0138575D01*
X0182799Y0136976D02*
X0179775Y0136976D01*
X0179775Y0135378D02*
X0183474Y0135378D01*
X0185501Y0133779D02*
X0179775Y0133779D01*
X0179775Y0132181D02*
X0185164Y0132181D01*
X0183403Y0130582D02*
X0179775Y0130582D01*
X0179775Y0128984D02*
X0182741Y0128984D01*
X0182740Y0127385D02*
X0179775Y0127385D01*
X0179775Y0125787D02*
X0183292Y0125787D01*
X0184663Y0124188D02*
X0179775Y0124188D01*
X0169675Y0126175D02*
X0163425Y0119925D01*
X0162348Y0122525D02*
X0132837Y0122525D01*
X0130437Y0124925D01*
X0133200Y0127688D01*
X0133200Y0132162D01*
X0130437Y0134925D01*
X0133200Y0137688D01*
X0133200Y0142162D01*
X0130437Y0144925D01*
X0133200Y0147688D01*
X0133200Y0152162D01*
X0130437Y0154925D01*
X0133200Y0157688D01*
X0133200Y0162162D01*
X0130437Y0164925D01*
X0132837Y0167325D01*
X0140473Y0167325D01*
X0142075Y0165723D01*
X0142075Y0146908D01*
X0142471Y0145952D01*
X0143202Y0145221D01*
X0146327Y0142096D01*
X0147283Y0141700D01*
X0150135Y0141700D01*
X0150316Y0141518D01*
X0151522Y0141019D01*
X0152828Y0141019D01*
X0154034Y0141518D01*
X0154957Y0142441D01*
X0155456Y0143647D01*
X0155456Y0143798D01*
X0156489Y0143370D01*
X0164111Y0143370D01*
X0165831Y0144082D01*
X0167075Y0145327D01*
X0167075Y0140773D01*
X0166750Y0141099D01*
X0166229Y0141620D01*
X0166229Y0141620D01*
X0165831Y0142017D01*
X0165141Y0142303D01*
X0164976Y0142387D01*
X0164801Y0142444D01*
X0164111Y0142730D01*
X0156489Y0142730D01*
X0155799Y0142444D01*
X0155623Y0142387D01*
X0155459Y0142303D01*
X0154769Y0142017D01*
X0154371Y0141620D01*
X0153850Y0141099D01*
X0153850Y0141099D01*
X0153452Y0140701D01*
X0153167Y0140011D01*
X0153083Y0139846D01*
X0153026Y0139671D01*
X0152740Y0138981D01*
X0152740Y0137119D01*
X0153026Y0136429D01*
X0153083Y0136253D01*
X0153167Y0136089D01*
X0153452Y0135399D01*
X0153850Y0135001D01*
X0154371Y0134480D01*
X0154769Y0134082D01*
X0155459Y0133797D01*
X0155623Y0133713D01*
X0155799Y0133656D01*
X0156489Y0133370D01*
X0164111Y0133370D01*
X0164801Y0133656D01*
X0164976Y0133713D01*
X0165141Y0133797D01*
X0165831Y0134082D01*
X0166229Y0134480D01*
X0166750Y0135001D01*
X0167075Y0135327D01*
X0167075Y0130651D01*
X0166750Y0131099D01*
X0166229Y0131620D01*
X0165633Y0132053D01*
X0164976Y0132387D01*
X0164276Y0132615D01*
X0163548Y0132730D01*
X0160300Y0132730D01*
X0160300Y0128050D01*
X0160300Y0128050D01*
X0160300Y0123370D01*
X0163193Y0123370D01*
X0162348Y0122525D01*
X0162413Y0122590D02*
X0132772Y0122590D01*
X0131173Y0124188D02*
X0154773Y0124188D01*
X0154967Y0124047D02*
X0155623Y0123713D01*
X0156324Y0123485D01*
X0157052Y0123370D01*
X0160300Y0123370D01*
X0160300Y0128050D01*
X0160300Y0128050D01*
X0160300Y0128050D01*
X0152740Y0128050D01*
X0152740Y0128418D01*
X0152855Y0129146D01*
X0153083Y0129846D01*
X0153417Y0130503D01*
X0153850Y0131099D01*
X0154371Y0131620D01*
X0154967Y0132053D01*
X0155623Y0132387D01*
X0156324Y0132615D01*
X0157052Y0132730D01*
X0160300Y0132730D01*
X0160300Y0128050D01*
X0152740Y0128050D01*
X0152740Y0127682D01*
X0152855Y0126954D01*
X0153083Y0126253D01*
X0153417Y0125597D01*
X0153850Y0125001D01*
X0154371Y0124480D01*
X0154967Y0124047D01*
X0153321Y0125787D02*
X0131299Y0125787D01*
X0132897Y0127385D02*
X0152787Y0127385D01*
X0152830Y0128984D02*
X0133200Y0128984D01*
X0133200Y0130582D02*
X0153475Y0130582D01*
X0155219Y0132181D02*
X0133181Y0132181D01*
X0131582Y0133779D02*
X0155493Y0133779D01*
X0154371Y0134480D02*
X0154371Y0134480D01*
X0153850Y0135001D02*
X0153850Y0135001D01*
X0153474Y0135378D02*
X0130890Y0135378D01*
X0132488Y0136976D02*
X0152799Y0136976D01*
X0152740Y0138575D02*
X0133200Y0138575D01*
X0133200Y0140173D02*
X0153234Y0140173D01*
X0154371Y0141620D02*
X0154371Y0141620D01*
X0154287Y0141772D02*
X0154523Y0141772D01*
X0155341Y0143370D02*
X0156488Y0143370D01*
X0152175Y0144300D02*
X0147800Y0144300D01*
X0144675Y0147425D01*
X0144675Y0166800D01*
X0141550Y0169925D01*
X0127800Y0169925D01*
X0131261Y0165750D02*
X0142048Y0165750D01*
X0142075Y0164151D02*
X0131211Y0164151D01*
X0132809Y0162553D02*
X0142075Y0162553D01*
X0142075Y0160954D02*
X0133200Y0160954D01*
X0133200Y0159356D02*
X0142075Y0159356D01*
X0142075Y0157757D02*
X0133200Y0157757D01*
X0131670Y0156159D02*
X0142075Y0156159D01*
X0142075Y0154560D02*
X0130802Y0154560D01*
X0132400Y0152962D02*
X0142075Y0152962D01*
X0142075Y0151363D02*
X0133200Y0151363D01*
X0133200Y0149765D02*
X0142075Y0149765D01*
X0142075Y0148166D02*
X0133200Y0148166D01*
X0132079Y0146568D02*
X0142216Y0146568D01*
X0143454Y0144969D02*
X0130481Y0144969D01*
X0131991Y0143370D02*
X0145053Y0143370D01*
X0147109Y0141772D02*
X0133200Y0141772D01*
X0118000Y0141772D02*
X0117600Y0141772D01*
X0117600Y0143370D02*
X0118000Y0143370D01*
X0118000Y0144969D02*
X0117600Y0144969D01*
X0117600Y0146568D02*
X0118000Y0146568D01*
X0118000Y0148166D02*
X0117600Y0148166D01*
X0115119Y0144969D02*
X0111650Y0144969D01*
X0111650Y0146568D02*
X0113521Y0146568D01*
X0112400Y0148166D02*
X0111650Y0148166D01*
X0111650Y0143370D02*
X0113609Y0143370D01*
X0112400Y0141772D02*
X0111650Y0141772D01*
X0111650Y0140173D02*
X0112400Y0140173D01*
X0112400Y0138575D02*
X0111650Y0138575D01*
X0111650Y0136976D02*
X0113112Y0136976D01*
X0111650Y0135378D02*
X0114710Y0135378D01*
X0114018Y0133779D02*
X0111650Y0133779D01*
X0111650Y0132181D02*
X0112419Y0132181D01*
X0112400Y0130582D02*
X0111650Y0130582D01*
X0111650Y0128984D02*
X0112400Y0128984D01*
X0112703Y0127385D02*
X0111650Y0127385D01*
X0111865Y0125787D02*
X0114301Y0125787D01*
X0114427Y0124188D02*
X0113464Y0124188D01*
X0107577Y0122721D02*
X0107577Y0122721D01*
X0114050Y0119925D02*
X0117800Y0119925D01*
X0127800Y0109925D02*
X0122800Y0104925D01*
X0122800Y0072425D01*
X0125925Y0069300D01*
X0161550Y0069300D01*
X0155787Y0073036D02*
X0125866Y0073036D01*
X0125454Y0074634D02*
X0125400Y0074634D01*
X0130146Y0074634D02*
X0157704Y0074634D01*
X0155118Y0076233D02*
X0131745Y0076233D01*
X0123308Y0068240D02*
X0116911Y0068240D01*
X0115313Y0069839D02*
X0121709Y0069839D01*
X0120395Y0071437D02*
X0113714Y0071437D01*
X0113525Y0073036D02*
X0120200Y0073036D01*
X0120146Y0074634D02*
X0120200Y0074634D01*
X0115454Y0074634D02*
X0113525Y0074634D01*
X0113525Y0076233D02*
X0113855Y0076233D01*
X0110925Y0070550D02*
X0110925Y0088050D01*
X0112800Y0089925D01*
X0117800Y0089925D01*
X0127800Y0089925D02*
X0146550Y0089925D01*
X0156025Y0093817D02*
X0157345Y0093817D01*
X0165755Y0093817D02*
X0174519Y0093817D01*
X0174575Y0095415D02*
X0167164Y0095415D01*
X0168549Y0097014D02*
X0174575Y0097014D01*
X0174575Y0098612D02*
X0169110Y0098612D01*
X0169110Y0100211D02*
X0174575Y0100211D01*
X0174575Y0101809D02*
X0168456Y0101809D01*
X0168130Y0092218D02*
X0175242Y0092218D01*
X0156025Y0084226D02*
X0231245Y0084226D01*
X0231245Y0085824D02*
X0197573Y0085824D01*
X0198718Y0087423D02*
X0232429Y0087423D01*
X0232085Y0089021D02*
X0199110Y0089021D01*
X0198949Y0090620D02*
X0231245Y0090620D01*
X0231245Y0092218D02*
X0229108Y0092218D01*
X0229831Y0093817D02*
X0231323Y0093817D01*
X0238928Y0095415D02*
X0262922Y0095415D01*
X0261593Y0097014D02*
X0240257Y0097014D01*
X0240605Y0098612D02*
X0261245Y0098612D01*
X0261245Y0100211D02*
X0240605Y0100211D01*
X0240034Y0101809D02*
X0261816Y0101809D01*
X0263414Y0103408D02*
X0238436Y0103408D01*
X0233414Y0103408D02*
X0232480Y0103408D01*
X0240527Y0093817D02*
X0261323Y0093817D01*
X0261245Y0092218D02*
X0240605Y0092218D01*
X0240605Y0090620D02*
X0261245Y0090620D01*
X0262085Y0089021D02*
X0239765Y0089021D01*
X0239421Y0087423D02*
X0262429Y0087423D01*
X0261245Y0085824D02*
X0240605Y0085824D01*
X0240605Y0084226D02*
X0261245Y0084226D01*
X0261245Y0082627D02*
X0240605Y0082627D01*
X0239272Y0081029D02*
X0262578Y0081029D01*
X0261937Y0079430D02*
X0239913Y0079430D01*
X0240605Y0077832D02*
X0261245Y0077832D01*
X0261245Y0076233D02*
X0240605Y0076233D01*
X0240378Y0074634D02*
X0261472Y0074634D01*
X0263042Y0073036D02*
X0238808Y0073036D01*
X0240406Y0071437D02*
X0261444Y0071437D01*
X0261245Y0069839D02*
X0240605Y0069839D01*
X0240605Y0068240D02*
X0261245Y0068240D01*
X0261965Y0066642D02*
X0239885Y0066642D01*
X0239300Y0065043D02*
X0262550Y0065043D01*
X0261245Y0063445D02*
X0240605Y0063445D01*
X0240605Y0061846D02*
X0261245Y0061846D01*
X0261245Y0060248D02*
X0240605Y0060248D01*
X0239393Y0058649D02*
X0262457Y0058649D01*
X0262057Y0057051D02*
X0239793Y0057051D01*
X0240605Y0055452D02*
X0261245Y0055452D01*
X0261245Y0053854D02*
X0240605Y0053854D01*
X0240499Y0052255D02*
X0261351Y0052255D01*
X0262950Y0050657D02*
X0238900Y0050657D01*
X0240285Y0049058D02*
X0261565Y0049058D01*
X0261245Y0047460D02*
X0240605Y0047460D01*
X0240605Y0045861D02*
X0261245Y0045861D01*
X0261844Y0044263D02*
X0240006Y0044263D01*
X0239179Y0042664D02*
X0262671Y0042664D01*
X0261245Y0041066D02*
X0240605Y0041066D01*
X0240605Y0039467D02*
X0261245Y0039467D01*
X0261245Y0037869D02*
X0240605Y0037869D01*
X0239514Y0036270D02*
X0262336Y0036270D01*
X0262178Y0034672D02*
X0239672Y0034672D01*
X0240605Y0033073D02*
X0261245Y0033073D01*
X0261245Y0031475D02*
X0240605Y0031475D01*
X0240605Y0029876D02*
X0261245Y0029876D01*
X0262829Y0028278D02*
X0239021Y0028278D01*
X0232829Y0028278D02*
X0199072Y0028278D01*
X0199110Y0029876D02*
X0231245Y0029876D01*
X0231245Y0031475D02*
X0198595Y0031475D01*
X0197275Y0033073D02*
X0231245Y0033073D01*
X0232178Y0034672D02*
X0195486Y0034672D01*
X0198019Y0036270D02*
X0232336Y0036270D01*
X0231245Y0037869D02*
X0198903Y0037869D01*
X0199110Y0039467D02*
X0231245Y0039467D01*
X0231245Y0041066D02*
X0198764Y0041066D01*
X0197684Y0042664D02*
X0232671Y0042664D01*
X0231844Y0044263D02*
X0134639Y0044263D01*
X0133041Y0045861D02*
X0155490Y0045861D01*
X0155416Y0042664D02*
X0136238Y0042664D01*
X0135925Y0039300D02*
X0161550Y0039300D01*
X0164050Y0039300D01*
X0157614Y0034672D02*
X0136730Y0034672D01*
X0135132Y0036270D02*
X0155081Y0036270D01*
X0155825Y0033073D02*
X0138329Y0033073D01*
X0133679Y0037869D02*
X0133533Y0037869D01*
X0132081Y0039467D02*
X0131935Y0039467D01*
X0130482Y0041066D02*
X0130336Y0041066D01*
X0128884Y0042664D02*
X0128738Y0042664D01*
X0127285Y0044263D02*
X0127139Y0044263D01*
X0125687Y0045861D02*
X0125541Y0045861D01*
X0124088Y0047460D02*
X0123942Y0047460D01*
X0122490Y0049058D02*
X0122344Y0049058D01*
X0120891Y0050657D02*
X0120745Y0050657D01*
X0119293Y0052255D02*
X0119147Y0052255D01*
X0117694Y0053854D02*
X0117548Y0053854D01*
X0116096Y0055452D02*
X0115950Y0055452D01*
X0114497Y0057051D02*
X0114351Y0057051D01*
X0112899Y0058649D02*
X0112753Y0058649D01*
X0111300Y0060248D02*
X0111154Y0060248D01*
X0109702Y0061846D02*
X0109556Y0061846D01*
X0108103Y0063445D02*
X0107957Y0063445D01*
X0106505Y0065043D02*
X0106359Y0065043D01*
X0104944Y0066642D02*
X0104775Y0066642D01*
X0107175Y0068050D02*
X0135925Y0039300D01*
X0132175Y0049300D02*
X0110925Y0070550D01*
X0107175Y0068050D02*
X0107175Y0094300D01*
X0112800Y0099925D01*
X0117800Y0099925D01*
X0150633Y0077832D02*
X0154213Y0077832D01*
X0153990Y0079430D02*
X0152232Y0079430D01*
X0153830Y0081029D02*
X0154320Y0081029D01*
X0154710Y0066642D02*
X0118510Y0066642D01*
X0120109Y0065043D02*
X0156717Y0065043D01*
X0156447Y0063445D02*
X0121707Y0063445D01*
X0123306Y0061846D02*
X0154659Y0061846D01*
X0153997Y0060248D02*
X0124904Y0060248D01*
X0126503Y0058649D02*
X0153990Y0058649D01*
X0154536Y0057051D02*
X0128101Y0057051D01*
X0129700Y0055452D02*
X0155899Y0055452D01*
X0157435Y0053854D02*
X0131298Y0053854D01*
X0132897Y0052255D02*
X0155007Y0052255D01*
X0161550Y0049300D02*
X0132175Y0049300D01*
X0165665Y0053854D02*
X0187435Y0053854D01*
X0195665Y0053854D02*
X0231245Y0053854D01*
X0231245Y0055452D02*
X0197201Y0055452D01*
X0198564Y0057051D02*
X0232057Y0057051D01*
X0232457Y0058649D02*
X0199110Y0058649D01*
X0199103Y0060248D02*
X0231245Y0060248D01*
X0231245Y0061846D02*
X0198441Y0061846D01*
X0196653Y0063445D02*
X0231245Y0063445D01*
X0232550Y0065043D02*
X0196383Y0065043D01*
X0198390Y0066642D02*
X0231965Y0066642D01*
X0231245Y0068240D02*
X0199057Y0068240D01*
X0199110Y0069839D02*
X0231245Y0069839D01*
X0231444Y0071437D02*
X0198610Y0071437D01*
X0197312Y0073036D02*
X0233042Y0073036D01*
X0231472Y0074634D02*
X0195396Y0074634D01*
X0197982Y0076233D02*
X0231245Y0076233D01*
X0231245Y0077832D02*
X0198887Y0077832D01*
X0199110Y0079430D02*
X0231937Y0079430D01*
X0232578Y0081029D02*
X0198780Y0081029D01*
X0197721Y0082627D02*
X0231245Y0082627D01*
X0231351Y0052255D02*
X0198093Y0052255D01*
X0198934Y0050657D02*
X0232950Y0050657D01*
X0231565Y0049058D02*
X0199110Y0049058D01*
X0198733Y0047460D02*
X0231245Y0047460D01*
X0231245Y0045861D02*
X0197610Y0045861D01*
X0198410Y0026679D02*
X0326463Y0026679D01*
X0326463Y0025081D02*
X0314108Y0025081D01*
X0313192Y0025460D02*
X0310322Y0025460D01*
X0307671Y0024362D01*
X0305641Y0022333D01*
X0304543Y0019682D01*
X0304543Y0016812D01*
X0305641Y0014161D01*
X0307671Y0012132D01*
X0310322Y0011033D01*
X0313192Y0011033D01*
X0315843Y0012132D01*
X0317872Y0014161D01*
X0318970Y0016812D01*
X0318970Y0019682D01*
X0317872Y0022333D01*
X0315843Y0024362D01*
X0313192Y0025460D01*
X0309405Y0025081D02*
X0196473Y0025081D01*
X0196563Y0023482D02*
X0306791Y0023482D01*
X0305455Y0021884D02*
X0198425Y0021884D01*
X0199088Y0020285D02*
X0304793Y0020285D01*
X0304543Y0018687D02*
X0199110Y0018687D01*
X0198579Y0017088D02*
X0304543Y0017088D01*
X0305091Y0015490D02*
X0197238Y0015490D01*
X0124689Y0013891D02*
X0305911Y0013891D01*
X0307510Y0012293D02*
X0123090Y0012293D01*
X0040539Y0007367D02*
X0040539Y0007367D01*
X0040360Y0007497D02*
X0321284Y0007497D01*
X0325600Y0012293D02*
X0316004Y0012293D01*
X0317602Y0013891D02*
X0326119Y0013891D01*
X0326414Y0015490D02*
X0318422Y0015490D01*
X0318970Y0017088D02*
X0326463Y0017088D01*
X0326463Y0018687D02*
X0318970Y0018687D01*
X0318720Y0020285D02*
X0326463Y0020285D01*
X0326463Y0021884D02*
X0318058Y0021884D01*
X0316723Y0023482D02*
X0326463Y0023482D01*
X0326463Y0028278D02*
X0269021Y0028278D01*
X0270605Y0029876D02*
X0326463Y0029876D01*
X0313325Y0033073D02*
X0310131Y0033073D01*
X0311529Y0034672D02*
X0311942Y0034672D01*
X0306911Y0034672D02*
X0306602Y0034672D01*
X0306602Y0036270D02*
X0306911Y0036270D01*
X0306911Y0033073D02*
X0306602Y0033073D01*
X0316911Y0087423D02*
X0326463Y0087423D01*
X0301282Y0138575D02*
X0268068Y0138575D01*
X0269667Y0140173D02*
X0301944Y0140173D01*
X0303330Y0141772D02*
X0270605Y0141772D01*
X0270605Y0143370D02*
X0303028Y0143370D01*
X0301819Y0144969D02*
X0270605Y0144969D01*
X0269026Y0146568D02*
X0301257Y0146568D01*
X0301257Y0148166D02*
X0270160Y0148166D01*
X0270605Y0149765D02*
X0301775Y0149765D01*
X0302921Y0151363D02*
X0270605Y0151363D01*
X0270132Y0152962D02*
X0303437Y0152962D01*
X0301988Y0154560D02*
X0269054Y0154560D01*
X0270605Y0156159D02*
X0301326Y0156159D01*
X0301257Y0157757D02*
X0270605Y0157757D01*
X0270605Y0159356D02*
X0301605Y0159356D01*
X0302513Y0160954D02*
X0269639Y0160954D01*
X0269546Y0162553D02*
X0304136Y0162553D01*
X0302247Y0164151D02*
X0270605Y0164151D01*
X0270605Y0165750D02*
X0301495Y0165750D01*
X0301257Y0167348D02*
X0270605Y0167348D01*
X0269147Y0168947D02*
X0301436Y0168947D01*
X0302104Y0170545D02*
X0270039Y0170545D01*
X0270605Y0172144D02*
X0303788Y0172144D01*
X0302656Y0173742D02*
X0270605Y0173742D01*
X0270253Y0175341D02*
X0301665Y0175341D01*
X0301257Y0176939D02*
X0268933Y0176939D01*
X0270531Y0178538D02*
X0301266Y0178538D01*
X0301929Y0180136D02*
X0270605Y0180136D01*
X0270605Y0181735D02*
X0303293Y0181735D01*
X0303065Y0183333D02*
X0269760Y0183333D01*
X0269425Y0184932D02*
X0301852Y0184932D01*
X0301329Y0186530D02*
X0270605Y0186530D01*
X0270605Y0188129D02*
X0301300Y0188129D01*
X0301760Y0189727D02*
X0270605Y0189727D01*
X0269268Y0191326D02*
X0302884Y0191326D01*
X0303474Y0192924D02*
X0269918Y0192924D01*
X0270605Y0194523D02*
X0302004Y0194523D01*
X0301341Y0196121D02*
X0270605Y0196121D01*
X0270374Y0197720D02*
X0301257Y0197720D01*
X0301590Y0199318D02*
X0268812Y0199318D01*
X0270410Y0200917D02*
X0302475Y0200917D01*
X0304225Y0202515D02*
X0270605Y0202515D01*
X0270605Y0204114D02*
X0302285Y0204114D01*
X0301511Y0205712D02*
X0269881Y0205712D01*
X0269304Y0207311D02*
X0301257Y0207311D01*
X0301420Y0208909D02*
X0270605Y0208909D01*
X0270605Y0210508D02*
X0302083Y0210508D01*
X0303698Y0212106D02*
X0270605Y0212106D01*
X0269389Y0213705D02*
X0302694Y0213705D01*
X0303256Y0221698D02*
X0286822Y0221698D01*
X0288420Y0223296D02*
X0303103Y0223296D01*
X0301850Y0224895D02*
X0290019Y0224895D01*
X0290902Y0226493D02*
X0301257Y0226493D01*
X0301257Y0228092D02*
X0290975Y0228092D01*
X0291825Y0229690D02*
X0301744Y0229690D01*
X0302847Y0231289D02*
X0292487Y0231289D01*
X0310666Y0231289D02*
X0312847Y0231289D01*
X0316244Y0240880D02*
X0326463Y0240880D01*
X0326463Y0242478D02*
X0317843Y0242478D01*
X0318522Y0244077D02*
X0326463Y0244077D01*
X0326463Y0245675D02*
X0318970Y0245675D01*
X0318970Y0247274D02*
X0326463Y0247274D01*
X0326425Y0248872D02*
X0318620Y0248872D01*
X0317958Y0250471D02*
X0326166Y0250471D01*
X0325647Y0252069D02*
X0316482Y0252069D01*
X0321481Y0256865D02*
X0040162Y0256865D01*
X0035181Y0239281D02*
X0069973Y0239281D01*
X0068116Y0237683D02*
X0035181Y0237683D01*
X0035181Y0236084D02*
X0066782Y0236084D01*
X0065812Y0234486D02*
X0035181Y0234486D01*
X0035181Y0232887D02*
X0065098Y0232887D01*
X0064635Y0231289D02*
X0035181Y0231289D01*
X0082647Y0240880D02*
X0114356Y0240880D01*
X0123331Y0240880D02*
X0153631Y0240880D01*
X0152864Y0239281D02*
X0085627Y0239281D01*
X0087484Y0237683D02*
X0152740Y0237683D01*
X0153169Y0236084D02*
X0088818Y0236084D01*
X0120614Y0253668D02*
X0243431Y0253668D01*
X0242283Y0252069D02*
X0123569Y0252069D01*
X0125045Y0250471D02*
X0241818Y0250471D01*
X0241775Y0248872D02*
X0125707Y0248872D01*
X0126057Y0247274D02*
X0241775Y0247274D01*
X0241775Y0245675D02*
X0126057Y0245675D01*
X0125609Y0244077D02*
X0241775Y0244077D01*
X0241775Y0242478D02*
X0223740Y0242478D01*
X0223489Y0242730D02*
X0221550Y0242730D01*
X0221550Y0238050D01*
X0226230Y0238050D01*
X0226230Y0239989D01*
X0223489Y0242730D01*
X0221550Y0242730D02*
X0219611Y0242730D01*
X0216870Y0239989D01*
X0216870Y0238050D01*
X0221550Y0238050D01*
X0221550Y0238050D01*
X0221550Y0238050D01*
X0226230Y0238050D01*
X0226230Y0236111D01*
X0223489Y0233370D01*
X0221550Y0233370D01*
X0221550Y0238050D01*
X0221550Y0238050D01*
X0221550Y0238050D01*
X0221550Y0242730D01*
X0221550Y0242478D02*
X0221550Y0242478D01*
X0221550Y0240880D02*
X0221550Y0240880D01*
X0221550Y0239281D02*
X0221550Y0239281D01*
X0221550Y0238050D02*
X0216870Y0238050D01*
X0216870Y0236111D01*
X0219611Y0233370D01*
X0221550Y0233370D01*
X0221550Y0238050D01*
X0221550Y0237683D02*
X0221550Y0237683D01*
X0221550Y0236084D02*
X0221550Y0236084D01*
X0221550Y0234486D02*
X0221550Y0234486D01*
X0224604Y0234486D02*
X0241775Y0234486D01*
X0241775Y0232887D02*
X0212087Y0232887D01*
X0213685Y0231289D02*
X0241915Y0231289D01*
X0242596Y0229690D02*
X0215284Y0229690D01*
X0218496Y0234486D02*
X0210488Y0234486D01*
X0208890Y0236084D02*
X0216897Y0236084D01*
X0216870Y0237683D02*
X0207291Y0237683D01*
X0206230Y0239281D02*
X0216870Y0239281D01*
X0217761Y0240880D02*
X0205339Y0240880D01*
X0203740Y0242478D02*
X0219360Y0242478D01*
X0225339Y0240880D02*
X0241883Y0240880D01*
X0241775Y0239281D02*
X0226230Y0239281D01*
X0226230Y0237683D02*
X0241775Y0237683D01*
X0246975Y0237683D02*
X0247375Y0237683D01*
X0247375Y0239281D02*
X0246975Y0239281D01*
X0246975Y0240880D02*
X0247375Y0240880D01*
X0247375Y0242478D02*
X0246975Y0242478D01*
X0246975Y0244077D02*
X0247375Y0244077D01*
X0247375Y0245675D02*
X0246975Y0245675D01*
X0246975Y0247274D02*
X0247375Y0247274D01*
X0247375Y0248872D02*
X0246975Y0248872D01*
X0246975Y0250471D02*
X0247375Y0250471D01*
X0247375Y0252069D02*
X0246975Y0252069D01*
X0246975Y0253668D02*
X0247375Y0253668D01*
X0250919Y0253668D02*
X0253431Y0253668D01*
X0252280Y0252069D02*
X0252067Y0252069D01*
X0260919Y0253668D02*
X0263431Y0253668D01*
X0262280Y0252069D02*
X0262070Y0252069D01*
X0270919Y0253668D02*
X0273431Y0253668D01*
X0272280Y0252069D02*
X0272070Y0252069D01*
X0280919Y0253668D02*
X0283431Y0253668D01*
X0282280Y0252069D02*
X0282070Y0252069D01*
X0246975Y0236084D02*
X0226203Y0236084D01*
X0199360Y0242478D02*
X0194719Y0242478D01*
X0196969Y0240880D02*
X0197761Y0240880D01*
X0198496Y0234486D02*
X0196234Y0234486D01*
X0184366Y0234486D02*
X0166234Y0234486D01*
X0167431Y0236084D02*
X0183169Y0236084D01*
X0182740Y0237683D02*
X0167860Y0237683D01*
X0167736Y0239281D02*
X0182864Y0239281D01*
X0183631Y0240880D02*
X0166969Y0240880D01*
X0164719Y0242478D02*
X0185881Y0242478D01*
X0184040Y0231289D02*
X0166560Y0231289D01*
X0171087Y0229690D02*
X0183034Y0229690D01*
X0182740Y0228092D02*
X0172685Y0228092D01*
X0174284Y0226493D02*
X0182999Y0226493D01*
X0183957Y0224895D02*
X0175368Y0224895D01*
X0155881Y0242478D02*
X0124929Y0242478D01*
X0166523Y0191326D02*
X0174575Y0191326D01*
X0174575Y0181735D02*
X0166114Y0181735D01*
X0167381Y0180136D02*
X0174575Y0180136D01*
X0174575Y0178538D02*
X0167860Y0178538D01*
X0167785Y0176939D02*
X0174575Y0176939D01*
X0174575Y0175341D02*
X0167089Y0175341D01*
X0165009Y0173742D02*
X0174575Y0173742D01*
X0174575Y0172144D02*
X0165526Y0172144D01*
X0167945Y0170545D02*
X0174575Y0170545D01*
X0174575Y0168947D02*
X0169955Y0168947D01*
X0171554Y0167348D02*
X0174575Y0167348D01*
X0174575Y0165750D02*
X0172275Y0165750D01*
X0172275Y0164151D02*
X0174575Y0164151D01*
X0174575Y0162553D02*
X0172275Y0162553D01*
X0172275Y0160954D02*
X0174575Y0160954D01*
X0174575Y0159356D02*
X0172275Y0159356D01*
X0172275Y0157757D02*
X0174575Y0157757D01*
X0174575Y0156159D02*
X0172275Y0156159D01*
X0172275Y0154560D02*
X0174575Y0154560D01*
X0174575Y0152962D02*
X0172275Y0152962D01*
X0179775Y0151363D02*
X0184115Y0151363D01*
X0183065Y0149765D02*
X0179775Y0149765D01*
X0179775Y0148166D02*
X0182740Y0148166D01*
X0182968Y0146568D02*
X0179775Y0146568D01*
X0179775Y0144969D02*
X0183882Y0144969D01*
X0167075Y0144969D02*
X0166717Y0144969D01*
X0167075Y0143370D02*
X0164112Y0143370D01*
X0166077Y0141772D02*
X0167075Y0141772D01*
X0166750Y0141099D02*
X0166750Y0141099D01*
X0166750Y0135001D02*
X0166750Y0135001D01*
X0166229Y0134480D02*
X0166229Y0134480D01*
X0167075Y0133779D02*
X0165107Y0133779D01*
X0165381Y0132181D02*
X0167075Y0132181D01*
X0169675Y0126175D02*
X0169675Y0165550D01*
X0167175Y0168050D01*
X0160300Y0168050D01*
X0165900Y0164151D02*
X0167075Y0164151D01*
X0167075Y0162553D02*
X0164539Y0162553D01*
X0166894Y0160954D02*
X0167075Y0160954D01*
X0155300Y0148050D02*
X0152175Y0148050D01*
X0148425Y0151800D01*
X0148425Y0168050D01*
X0143425Y0173050D01*
X0139675Y0173050D01*
X0132800Y0179925D01*
X0127800Y0179925D01*
X0118000Y0140173D02*
X0117600Y0140173D01*
X0117600Y0138575D02*
X0118000Y0138575D01*
X0118000Y0136976D02*
X0117600Y0136976D01*
X0117600Y0135378D02*
X0118000Y0135378D01*
X0118000Y0133779D02*
X0117600Y0133779D01*
X0117600Y0132181D02*
X0118000Y0132181D01*
X0118000Y0130582D02*
X0117600Y0130582D01*
X0160300Y0130582D02*
X0160300Y0130582D01*
X0160300Y0128984D02*
X0160300Y0128984D01*
X0160300Y0127385D02*
X0160300Y0127385D01*
X0160300Y0125787D02*
X0160300Y0125787D01*
X0160300Y0124188D02*
X0160300Y0124188D01*
X0160300Y0132181D02*
X0160300Y0132181D01*
X0196271Y0194523D02*
X0224000Y0194523D01*
X0224000Y0196121D02*
X0197447Y0196121D01*
X0197860Y0197720D02*
X0224000Y0197720D01*
X0224000Y0199318D02*
X0197720Y0199318D01*
X0196932Y0200917D02*
X0224000Y0200917D01*
X0224000Y0202515D02*
X0194629Y0202515D01*
X0195862Y0204114D02*
X0224000Y0204114D01*
X0224000Y0205712D02*
X0197277Y0205712D01*
X0197860Y0207311D02*
X0224000Y0207311D01*
X0224000Y0208909D02*
X0197860Y0208909D01*
X0316911Y0207311D02*
X0326463Y0207311D01*
X0069300Y0186530D02*
X0069300Y0186530D01*
X0069300Y0184932D02*
X0069300Y0184932D01*
X0069300Y0183333D02*
X0069300Y0183333D01*
X0069300Y0181735D02*
X0069300Y0181735D01*
X0069300Y0180136D02*
X0069300Y0180136D01*
X0069300Y0178538D02*
X0069300Y0178538D01*
X0069300Y0176939D02*
X0069300Y0176939D01*
X0069300Y0175341D02*
X0069300Y0175341D01*
X0069300Y0173742D02*
X0069300Y0173742D01*
X0069300Y0172144D02*
X0069300Y0172144D01*
X0069300Y0170545D02*
X0069300Y0170545D01*
X0069300Y0168947D02*
X0069300Y0168947D01*
X0069300Y0167348D02*
X0069300Y0167348D01*
X0069300Y0165750D02*
X0069300Y0165750D01*
X0069300Y0164151D02*
X0069300Y0164151D01*
X0069300Y0162553D02*
X0069300Y0162553D01*
X0069300Y0160954D02*
X0069300Y0160954D01*
X0069300Y0159356D02*
X0069300Y0159356D01*
X0069300Y0157757D02*
X0069300Y0157757D01*
X0069300Y0156159D02*
X0069300Y0156159D01*
X0069300Y0154560D02*
X0069300Y0154560D01*
X0069300Y0152962D02*
X0069300Y0152962D01*
X0069300Y0151363D02*
X0069300Y0151363D01*
X0069300Y0149765D02*
X0069300Y0149765D01*
X0069300Y0148166D02*
X0069300Y0148166D01*
X0069300Y0146568D02*
X0069300Y0146568D01*
X0069300Y0144969D02*
X0069300Y0144969D01*
X0069300Y0143370D02*
X0069300Y0143370D01*
X0069300Y0141772D02*
X0069300Y0141772D01*
X0069300Y0140173D02*
X0069300Y0140173D01*
X0069300Y0138575D02*
X0069300Y0138575D01*
X0069300Y0136976D02*
X0069300Y0136976D01*
X0069300Y0135378D02*
X0069300Y0135378D01*
X0069300Y0133779D02*
X0069300Y0133779D01*
X0069300Y0132181D02*
X0069300Y0132181D01*
D17*
X0134675Y0134925D03*
X0134675Y0144925D03*
X0134050Y0154925D03*
X0152175Y0144300D03*
X0172175Y0119300D03*
X0181550Y0119300D03*
X0177800Y0094300D03*
X0200300Y0083675D03*
X0200300Y0074300D03*
X0200300Y0065550D03*
X0226550Y0094300D03*
X0228425Y0117425D03*
X0213425Y0127425D03*
X0146550Y0114925D03*
X0146550Y0089925D03*
X0146550Y0084925D03*
X0146550Y0073675D03*
X0146550Y0064925D03*
X0146550Y0054925D03*
X0146550Y0044300D03*
X0146550Y0034300D03*
X0293425Y0043050D03*
X0293425Y0049925D03*
X0292800Y0058050D03*
X0292800Y0065550D03*
X0292800Y0073050D03*
X0292800Y0080550D03*
X0292800Y0088050D03*
X0292800Y0095550D03*
X0300300Y0149300D03*
X0300300Y0173050D03*
X0292175Y0202425D03*
X0296550Y0208050D03*
X0299050Y0221800D03*
X0221550Y0212425D03*
X0177800Y0218050D03*
X0150300Y0203050D03*
X0150300Y0192425D03*
X0150300Y0183675D03*
D18*
X0201550Y0238050D02*
X0215300Y0224300D01*
X0227800Y0224300D01*
X0284050Y0224300D01*
X0287175Y0227425D01*
X0287175Y0236175D01*
X0227800Y0224300D02*
X0227800Y0128675D01*
X0208425Y0109300D01*
X0208425Y0102425D01*
X0207800Y0101800D01*
M02*
